# Blender 4.4.1
# www.blender.org
mtllib barril.mtl
o barril
v 2.000000 2.020000 -9.129999
v 2.000000 0.020000 -9.130000
v 2.129667 2.020000 -9.139716
v 2.129667 0.020000 -9.139717
v 2.256437 2.020000 -9.168652
v 2.256437 0.020000 -9.168653
v 2.377479 2.020000 -9.216157
v 2.377479 0.020000 -9.216158
v 2.490088 2.020000 -9.281173
v 2.490088 0.020000 -9.281173
v 2.591750 2.020000 -9.362245
v 2.591750 0.020000 -9.362246
v 2.680193 2.020000 -9.457563
v 2.680193 0.020000 -9.457564
v 2.753442 2.020000 -9.565000
v 2.753442 0.020000 -9.565001
v 2.809860 2.020000 -9.682154
v 2.809860 0.020000 -9.682154
v 2.848187 2.020000 -9.806407
v 2.848187 0.020000 -9.806407
v 2.867567 2.020000 -9.934984
v 2.867567 0.020000 -9.934985
v 2.867567 2.020000 -10.065015
v 2.867567 0.020000 -10.065016
v 2.848187 2.020000 -10.193594
v 2.848187 0.020000 -10.193593
v 2.809860 2.020000 -10.317846
v 2.809860 0.020000 -10.317847
v 2.753442 2.020000 -10.434999
v 2.753442 0.020000 -10.435000
v 2.680193 2.020000 -10.542436
v 2.680193 0.020000 -10.542437
v 2.591750 2.020000 -10.637754
v 2.591750 0.020000 -10.637755
v 2.490089 2.020000 -10.718827
v 2.490089 0.020000 -10.718827
v 2.377479 2.020000 -10.783843
v 2.377479 0.020000 -10.783843
v 2.256437 2.020000 -10.831347
v 2.256437 0.020000 -10.831348
v 2.129667 2.020000 -10.860283
v 2.129667 0.020000 -10.860284
v 2.000001 2.020000 -10.870000
v 2.000001 0.020000 -10.870001
v 1.870334 2.020000 -10.860283
v 1.870334 0.020000 -10.860284
v 1.743564 2.020000 -10.831348
v 1.743564 0.020000 -10.831348
v 1.622522 2.020000 -10.783844
v 1.622522 0.020000 -10.783843
v 1.509912 2.020000 -10.718827
v 1.509912 0.020000 -10.718828
v 1.408250 2.020000 -10.637755
v 1.408250 0.020000 -10.637756
v 1.319807 2.020000 -10.542437
v 1.319807 0.020000 -10.542438
v 1.246558 2.020000 -10.435000
v 1.246558 0.020000 -10.435001
v 1.190140 2.020000 -10.317847
v 1.190140 0.020000 -10.317848
v 1.151813 2.020000 -10.193595
v 1.151813 0.020000 -10.193594
v 1.132433 2.020000 -10.065017
v 1.132433 0.020000 -10.065017
v 1.132433 2.020000 -9.934985
v 1.132433 0.020000 -9.934986
v 1.151812 2.020000 -9.806409
v 1.151812 0.020000 -9.806409
v 1.190139 2.020000 -9.682155
v 1.190139 0.020000 -9.682156
v 1.246557 2.020000 -9.565001
v 1.246557 0.020000 -9.565001
v 1.319805 2.020000 -9.457564
v 1.319805 0.020000 -9.457565
v 1.408248 2.020000 -9.362246
v 1.408248 0.020000 -9.362247
v 1.509910 2.020000 -9.281174
v 1.509910 0.020000 -9.281174
v 1.622519 2.020000 -9.216158
v 1.622519 0.020000 -9.216159
v 1.743561 2.020000 -9.168653
v 1.743561 0.020000 -9.168653
v 1.870331 2.020000 -9.139717
v 1.870331 0.020000 -9.139717
v 2.000000 1.020000 -9.032555
v 2.144190 1.020000 -9.043361
v 2.285159 1.020000 -9.075536
v 2.419759 1.020000 -9.128363
v 2.544981 1.020000 -9.200660
v 2.658030 1.020000 -9.290812
v 2.756379 1.020000 -9.396808
v 2.837832 1.020000 -9.516277
v 2.900569 1.020000 -9.646552
v 2.943189 1.020000 -9.784723
v 2.964740 1.020000 -9.927703
v 2.964740 1.020000 -10.072297
v 2.943189 1.020000 -10.215277
v 2.900569 1.020000 -10.353448
v 2.837832 1.020000 -10.483723
v 2.756379 1.020000 -10.603192
v 2.658030 1.020000 -10.709188
v 2.544981 1.020000 -10.799340
v 2.419759 1.020000 -10.871637
v 2.285160 1.020000 -10.924464
v 2.144191 1.020000 -10.956639
v 2.000001 1.020000 -10.967445
v 1.855810 1.020000 -10.956639
v 1.714841 1.020000 -10.924464
v 1.580242 1.020000 -10.871638
v 1.455020 1.020000 -10.799341
v 1.341971 1.020000 -10.709188
v 1.243622 1.020000 -10.603193
v 1.162169 1.020000 -10.483724
v 1.099431 1.020000 -10.353449
v 1.056811 1.020000 -10.215279
v 1.035260 1.020000 -10.072298
v 1.035260 1.020000 -9.927705
v 1.056810 1.020000 -9.784724
v 1.099430 1.020000 -9.646555
v 1.162167 1.020000 -9.516279
v 1.243620 1.020000 -9.396810
v 1.341969 1.020000 -9.290813
v 1.455017 1.020000 -9.200661
v 1.580239 1.020000 -9.128364
v 1.714838 1.020000 -9.075537
v 1.855807 1.020000 -9.043361
vn 0.7831 0.0169 0.6217
vn 0.8617 0.1221 0.4925
vn 0.7787 0.1221 0.6154
vn 0.2926 -0.0170 0.9561
vn 0.1480 -0.1224 0.9814
vn 0.2926 -0.1226 0.9483
vn 0.8670 -0.0169 -0.4980
vn 0.9255 -0.1221 -0.3585
vn 0.8595 -0.1226 -0.4963
vn 0.9901 -0.1221 -0.0698
vn 0.9786 -0.0000 -0.2058
vn 0.9971 -0.0170 -0.0747
vn -0.8648 0.0170 -0.5018
vn -0.7732 0.1221 -0.6223
vn -0.7924 -0.0000 -0.6100
vn 0.9753 0.0170 0.2203
vn 0.9901 0.1221 0.0698
vn 0.9676 0.1226 0.2209
vn 0.4307 -0.1224 0.8942
vn 0.7803 0.0170 -0.6251
vn 0.6719 0.1221 -0.7305
vn 0.7760 0.1226 -0.6187
vn -0.5590 0.1224 -0.8201
vn -0.4492 -0.0000 -0.8934
vn -0.5632 0.0171 -0.8261
vn -0.6751 0.1224 0.7275
vn -0.5632 0.0171 0.8261
vn -0.5628 0.1221 0.8175
vn 0.6817 0.0169 0.7315
vn 0.6783 0.1221 0.7246
vn 0.1468 0.0169 0.9890
vn -0.0001 0.1224 0.9925
vn 0.0171 -0.0000 0.9999
vn -0.2968 0.0170 0.9548
vn -0.4347 0.1221 0.8923
vn -0.4184 -0.0000 0.9082
vn 0.2926 0.0170 -0.9561
vn 0.1480 0.1224 -0.9814
vn 0.2884 0.1221 -0.9497
vn -0.6785 -0.0169 -0.7344
vn -0.5555 -0.1221 -0.8225
vn -0.6719 -0.1221 -0.7305
vn -0.9315 0.0169 0.3632
vn -0.9686 0.1221 0.2165
vn -0.9710 -0.0000 0.2392
vn -0.9743 0.0170 -0.2246
vn -0.9239 0.1224 -0.3627
vn -0.9370 -0.0000 -0.3494
vn -0.2926 0.0169 -0.9561
vn -0.1479 0.1224 -0.9814
vn -0.1659 -0.0000 -0.9861
vn 0.9299 -0.0169 0.3673
vn 0.8595 -0.1224 0.4962
vn 0.9223 -0.1221 0.3667
vn 0.6817 -0.0170 -0.7314
vn 0.7759 -0.1224 -0.6189
vn 0.6783 -0.1221 -0.7246
vn 0.5614 -0.0170 0.8274
vn 0.5591 -0.1226 0.8200
vn -0.2882 0.1221 -0.9497
vn -0.4267 -0.1221 -0.8961
vn -0.9239 -0.1224 -0.3625
vn -0.8595 -0.1226 -0.4962
vn -0.9972 -0.0169 -0.0725
vn -0.9894 -0.1221 0.0787
vn -0.9983 -0.0000 0.0577
vn 0.9686 -0.1221 -0.2166
vn 0.9370 -0.0000 -0.3494
vn -0.7732 -0.1221 -0.6222
vn -0.1468 -0.0170 0.9890
vn 0.0045 -0.1221 0.9925
vn -0.8648 0.0170 0.5018
vn -0.7732 0.1221 0.6222
vn -0.8595 0.1226 0.4962
vn -0.9255 0.1221 0.3584
vn -0.1480 -0.1224 -0.9814
vn 0.6751 -0.1224 0.7275
vn 0.9666 -0.1221 0.2251
vn 0.9958 -0.0000 0.0918
vn -0.9239 -0.1224 0.3627
vn 0.1523 -0.1221 -0.9808
vn 0.0171 -0.0000 -0.9999
vn 0.1490 -0.0171 -0.9887
vn 0.2967 -0.1221 -0.9471
vn 0.8595 0.1224 -0.4962
vn -0.2884 -0.1221 -0.9497
vn -0.5554 -0.1221 0.8226
vn -0.6801 -0.0171 0.7329
vn -0.6718 -0.1221 0.7306
vn 0.9223 0.1221 -0.3667
vn 0.9676 0.1226 -0.2208
vn -0.9901 0.1221 -0.0698
vn -0.0000 1.0000 -0.0000
vn 0.1435 0.1221 0.9821
vn 0.7760 -0.1226 0.6187
vn 0.9897 0.1224 -0.0741
vn -0.9897 0.1224 0.0741
vn -0.8595 0.1226 -0.4963
vn -0.0000 -1.0000 -0.0000
vn 0.5627 0.1221 0.8176
vn 0.4492 -0.0000 0.8934
vn 0.2882 0.1221 0.9497
vn 0.5555 0.1221 -0.8225
vn 0.9239 0.1224 0.3627
vn 0.5614 0.0170 -0.8274
vn 0.4267 0.1221 -0.8961
vn 0.0001 0.1226 -0.9925
vn -0.7803 0.0170 0.6251
vn -0.2967 -0.1221 0.9471
vn -0.1479 -0.1226 0.9814
vn -0.6718 0.1221 -0.7306
vn 0.8670 0.0169 0.4980
vn -0.4306 -0.1224 0.8942
vn 0.4346 -0.1221 -0.8923
vn 0.4338 -0.0171 -0.9008
vn -0.1436 0.1221 0.9821
vn -0.2926 0.1226 0.9483
vn -0.9676 -0.1226 -0.2208
vn 0.5627 -0.1221 -0.8176
vn -0.7732 -0.1221 0.6223
vn -0.8595 -0.1226 0.4963
vn -0.9901 -0.1221 -0.0697
vn 0.9894 -0.1221 0.0785
vn -0.9666 -0.1221 0.2252
vn -0.4306 0.1226 -0.8942
vn -0.9676 0.1226 -0.2209
vn -0.0001 -0.1226 -0.9925
vn 0.4306 0.1226 0.8942
vt 0.272807 0.665546
vt 0.293612 0.904762
vt 0.272807 0.904762
vt 0.189585 0.665546
vt 0.168779 0.426330
vt 0.189585 0.426330
vt 0.439251 0.665546
vt 0.418446 0.426330
vt 0.439251 0.426330
vt 0.376835 0.426330
vt 0.397640 0.665546
vt 0.376835 0.665546
vt 0.730529 0.665546
vt 0.709724 0.904762
vt 0.709724 0.665546
vt 0.335224 0.665546
vt 0.356029 0.904762
vt 0.335224 0.904762
vt 0.210390 0.426330
vt 0.460057 0.665546
vt 0.480863 0.904762
vt 0.460057 0.904762
vt 0.668113 0.904762
vt 0.647307 0.665546
vt 0.668113 0.665546
vt 0.917780 0.904762
vt 0.938585 0.665546
vt 0.938585 0.904762
vt 0.252001 0.665546
vt 0.252001 0.904762
vt 0.168779 0.665546
vt 0.147974 0.904762
vt 0.147974 0.665546
vt 0.106362 0.665546
vt 0.085557 0.904762
vt 0.085557 0.665546
vt 0.543279 0.665546
vt 0.564085 0.904762
vt 0.543279 0.904762
vt 0.688918 0.665546
vt 0.668113 0.426330
vt 0.688918 0.426330
vt 0.855363 0.665546
vt 0.834557 0.904762
vt 0.834557 0.665546
vt 0.772141 0.665546
vt 0.751335 0.904762
vt 0.751335 0.665546
vt 0.626502 0.665546
vt 0.605696 0.904762
vt 0.605696 0.665546
vt 0.314418 0.665546
vt 0.293612 0.426330
vt 0.314418 0.426330
vt 0.480863 0.665546
vt 0.460057 0.426330
vt 0.480863 0.426330
vt 0.231196 0.665546
vt 0.231196 0.426330
vt 0.626502 0.904762
vt 0.647307 0.426330
vt 0.751335 0.426330
vt 0.730529 0.426330
vt 0.792946 0.665546
vt 0.813752 0.426330
vt 0.813752 0.665546
vt 0.397640 0.426330
vt 0.418446 0.665546
vt 0.709724 0.426330
vt 0.127168 0.665546
vt 0.147974 0.426330
vt 0.876168 0.665546
vt 0.896974 0.904762
vt 0.876168 0.904762
vt 0.855363 0.904762
vt 0.605696 0.426330
vt 0.252001 0.426330
vt 0.335224 0.426330
vt 0.356029 0.665546
vt 0.855363 0.426330
vt 0.564085 0.426330
vt 0.584890 0.665546
vt 0.564085 0.665546
vt 0.543279 0.426330
vt 0.439251 0.904762
vt 0.626502 0.426330
vt 0.938585 0.426330
vt 0.917780 0.665546
vt 0.917780 0.426330
vt 0.418446 0.904762
vt 0.397640 0.904762
vt 0.792946 0.904762
vt 0.531078 0.131449
vt 0.850710 0.085300
vt 0.649171 0.327383
vt 0.168779 0.904762
vt 0.272807 0.426330
vt 0.376835 0.904762
vt 0.813752 0.904762
vt 0.730529 0.904762
vt 0.326775 0.333733
vt 0.164638 0.064724
vt 0.474505 0.156283
vt 0.231196 0.904762
vt 0.210390 0.665546
vt 0.189585 0.904762
vt 0.501668 0.904762
vt 0.314418 0.904762
vt 0.501668 0.665546
vt 0.522474 0.904762
vt 0.584890 0.904762
vt 0.896974 0.665546
vt 0.106362 0.426330
vt 0.127168 0.426330
vt 0.688918 0.904762
vt 0.293612 0.665546
vt 0.085557 0.426330
vt 0.064751 0.665546
vt 0.522474 0.426330
vt 0.522474 0.665546
vt 0.127168 0.904762
vt 0.106362 0.904762
vt 0.772141 0.426330
vt 0.501668 0.426330
vt 0.896974 0.426330
vt 0.876168 0.426330
vt 0.792946 0.426330
vt 0.064751 0.904762
vt 0.356029 0.426330
vt 0.834557 0.426330
vt 0.647307 0.904762
vt 0.772141 0.904762
vt 0.584890 0.426330
vt 0.538727 0.229218
vt 0.531078 0.205466
vt 0.527211 0.180886
vt 0.527211 0.156028
vt 0.538727 0.107696
vt 0.549987 0.085300
vt 0.564604 0.064762
vt 0.582255 0.046540
vt 0.602543 0.031042
vt 0.625016 0.018613
vt 0.649172 0.009532
vt 0.674472 0.004000
vt 0.700348 0.002143
vt 0.726225 0.004000
vt 0.751524 0.009532
vt 0.775680 0.018613
vt 0.798153 0.031042
vt 0.818441 0.046540
vt 0.836092 0.064762
vt 0.861969 0.107696
vt 0.869618 0.131449
vt 0.873485 0.156029
vt 0.873485 0.180886
vt 0.869618 0.205466
vt 0.861969 0.229219
vt 0.850710 0.251615
vt 0.836092 0.272153
vt 0.818441 0.290375
vt 0.798153 0.305873
vt 0.775680 0.318302
vt 0.751525 0.327383
vt 0.726225 0.332915
vt 0.700348 0.334772
vt 0.674471 0.332915
vt 0.625015 0.318302
vt 0.602543 0.305873
vt 0.582254 0.290375
vt 0.564604 0.272153
vt 0.549986 0.251615
vt 0.419286 0.291057
vt 0.398932 0.306606
vt 0.376388 0.319074
vt 0.352155 0.328184
vt 0.300815 0.335597
vt 0.274855 0.333733
vt 0.249475 0.328184
vt 0.225242 0.319074
vt 0.202697 0.306605
vt 0.182344 0.291058
vt 0.164638 0.272778
vt 0.149973 0.252174
vt 0.138678 0.229707
vt 0.131005 0.205878
vt 0.127125 0.181220
vt 0.127125 0.156282
vt 0.131005 0.131624
vt 0.138678 0.107795
vt 0.149973 0.085328
vt 0.182345 0.046444
vt 0.202698 0.030896
vt 0.225243 0.018428
vt 0.249475 0.009318
vt 0.274855 0.003769
vt 0.300815 0.001905
vt 0.326775 0.003769
vt 0.352154 0.009318
vt 0.376388 0.018428
vt 0.398932 0.030897
vt 0.419285 0.046445
vt 0.436992 0.064725
vt 0.451657 0.085328
vt 0.462952 0.107796
vt 0.470625 0.131624
vt 0.474505 0.181219
vt 0.470625 0.205878
vt 0.462952 0.229707
vt 0.451657 0.252174
vt 0.436992 0.272778
vt 0.210390 0.904762
vt 0.064751 0.426330
s 1
usemtl matBarrilKd
f 91/1/1 15/2/2 13/3/3
f 87/4/4 4/5/5 6/6/6
f 99/7/7 28/8/8 30/9/9
f 24/10/10 97/11/11 96/12/12
f 113/13/13 55/14/14 112/15/15
f 94/16/16 21/17/17 19/18/18
f 8/19/19 87/4/4 6/6/6
f 100/20/20 33/21/21 31/22/22
f 51/23/23 109/24/24 110/25/25
f 75/26/26 123/27/27 77/28/28
f 90/29/29 13/3/3 11/30/30
f 86/31/31 1/32/32 85/33/33
f 125/34/34 79/35/35 124/36/36
f 104/37/37 41/38/38 39/39/39
f 111/40/40 52/41/41 54/42/42
f 119/43/43 67/44/44 118/45/45
f 115/46/46 59/47/47 114/48/48
f 108/49/49 45/50/50 107/51/51
f 93/52/52 16/53/53 18/54/54
f 101/55/55 32/56/56 34/57/57
f 89/58/58 8/19/19 10/59/59
f 109/24/24 47/60/60 108/49/49
f 50/61/61 110/25/25 109/24/24
f 60/62/62 113/13/13 58/63/63
f 116/64/64 66/65/65 117/66/66
f 26/67/67 98/68/68 97/11/11
f 113/13/13 56/69/69 58/63/63
f 54/42/42 112/15/15 111/40/40
f 126/70/70 2/71/71 85/33/33
f 120/72/72 73/73/73 71/74/74
f 120/72/72 69/75/75 119/43/43
f 111/40/40 51/23/23 110/25/25
f 46/76/76 108/49/49 107/51/51
f 12/77/77 91/1/1 90/29/29
f 20/78/78 95/79/79 94/16/16
f 118/45/45 70/80/80 119/43/43
f 42/81/81 106/82/82 105/83/83
f 105/83/83 40/84/84 42/81/81
f 29/85/85 100/20/20 31/22/22
f 109/24/24 48/86/86 50/61/61
f 78/87/87 122/88/88 76/89/89
f 70/80/80 120/72/72 119/43/43
f 97/11/11 27/90/90 25/91/91
f 63/92/92 115/46/46 116/64/64
f 21/93/93 53/94/93 1/95/93
f 87/4/4 3/96/94 86/31/31
f 16/53/53 91/1/1 14/97/95
f 23/98/96 95/79/79 96/12/12
f 118/45/45 65/99/97 117/66/66
f 11/30/30 89/58/58 90/29/29
f 113/13/13 59/47/47 57/100/98
f 24/101/99 76/102/99 44/103/99
f 4/5/5 85/33/33 2/71/71
f 9/104/100 88/105/101 89/58/58
f 88/105/101 5/106/102 87/4/4
f 101/55/55 35/107/103 33/21/21
f 94/16/16 17/108/104 93/52/52
f 1/32/32 126/70/70 85/33/33
f 102/109/105 37/110/106 35/107/103
f 106/82/82 45/50/50 43/111/107
f 106/82/82 41/38/38 105/83/83
f 121/112/108 75/26/26 73/73/73
f 126/70/70 82/113/109 84/114/110
f 116/64/64 65/99/97 63/92/92
f 112/15/15 53/115/111 111/40/40
f 92/116/112 17/108/104 15/2/2
f 125/34/34 80/117/113 82/113/109
f 106/82/82 46/76/76 107/51/51
f 12/77/77 89/58/58 10/59/59
f 123/118/27 80/117/113 124/36/36
f 38/119/114 104/37/37 103/120/115
f 29/85/85 98/68/68 99/7/7
f 39/39/39 103/120/115 104/37/37
f 125/34/34 83/121/116 81/122/117
f 115/46/46 60/62/62 62/123/118
f 103/120/115 36/124/119 38/119/114
f 121/112/108 76/89/89 122/88/88
f 102/109/105 34/57/57 36/124/119
f 74/125/120 120/72/72 72/126/121
f 23/98/96 97/11/11 25/91/91
f 64/127/122 115/46/46 62/123/118
f 124/36/36 77/128/28 123/118/27
f 96/12/12 22/129/123 24/10/10
f 32/56/56 99/7/7 30/9/9
f 94/16/16 18/54/54 20/78/78
f 68/130/124 117/66/66 66/65/65
f 91/1/1 92/116/112 15/2/2
f 87/4/4 86/31/31 4/5/5
f 99/7/7 98/68/68 28/8/8
f 24/10/10 26/67/67 97/11/11
f 113/13/13 57/100/98 55/14/14
f 94/16/16 95/79/79 21/17/17
f 8/19/19 88/105/101 87/4/4
f 100/20/20 101/55/55 33/21/21
f 51/23/23 49/131/125 109/24/24
f 75/26/26 122/88/88 123/27/27
f 90/29/29 91/1/1 13/3/3
f 86/31/31 3/96/94 1/32/32
f 125/34/34 81/122/117 79/35/35
f 104/37/37 105/83/83 41/38/38
f 111/40/40 110/25/25 52/41/41
f 119/43/43 69/75/75 67/44/44
f 115/46/46 61/132/126 59/47/47
f 108/49/49 47/60/60 45/50/50
f 93/52/52 92/116/112 16/53/53
f 101/55/55 100/20/20 32/56/56
f 89/58/58 88/105/101 8/19/19
f 109/24/24 49/131/125 47/60/60
f 50/61/61 52/41/41 110/25/25
f 60/62/62 114/48/48 113/13/13
f 116/64/64 64/127/122 66/65/65
f 26/67/67 28/8/8 98/68/68
f 113/13/13 112/15/15 56/69/69
f 54/42/42 56/69/69 112/15/15
f 126/70/70 84/114/110 2/71/71
f 120/72/72 121/112/108 73/73/73
f 120/72/72 71/74/74 69/75/75
f 111/40/40 53/115/111 51/23/23
f 46/76/76 48/86/86 108/49/49
f 12/77/77 14/97/95 91/1/1
f 20/78/78 22/129/123 95/79/79
f 118/45/45 68/130/124 70/80/80
f 42/81/81 44/133/127 106/82/82
f 105/83/83 104/37/37 40/84/84
f 29/85/85 99/7/7 100/20/20
f 109/24/24 108/49/49 48/86/86
f 78/87/87 123/27/27 122/88/88
f 70/80/80 72/126/121 120/72/72
f 97/11/11 98/68/68 27/90/90
f 63/92/92 61/132/126 115/46/46
f 13/134/93 15/135/93 17/136/93
f 17/136/93 19/137/93 21/93/93
f 21/93/93 23/138/93 25/139/93
f 25/139/93 27/140/93 29/141/93
f 29/141/93 31/142/93 33/143/93
f 33/143/93 35/144/93 37/145/93
f 37/145/93 39/146/93 41/147/93
f 41/147/93 43/148/93 45/149/93
f 45/149/93 47/150/93 49/151/93
f 49/151/93 51/152/93 53/94/93
f 53/94/93 55/153/93 57/154/93
f 57/154/93 59/155/93 61/156/93
f 61/156/93 63/157/93 65/158/93
f 65/158/93 67/159/93 69/160/93
f 69/160/93 71/161/93 73/162/93
f 73/162/93 75/163/93 77/164/93
f 77/164/93 79/165/93 81/166/93
f 81/166/93 83/167/93 1/95/93
f 1/95/93 3/168/93 5/169/93
f 5/169/93 7/170/93 9/171/93
f 9/171/93 11/172/93 13/134/93
f 13/134/93 17/136/93 21/93/93
f 21/93/93 25/139/93 29/141/93
f 29/141/93 33/143/93 37/145/93
f 37/145/93 41/147/93 45/149/93
f 45/149/93 49/151/93 53/94/93
f 53/94/93 57/154/93 61/156/93
f 61/156/93 65/158/93 69/160/93
f 69/160/93 73/162/93 77/164/93
f 77/164/93 81/166/93 1/95/93
f 1/95/93 5/169/93 9/171/93
f 9/171/93 13/134/93 21/93/93
f 21/93/93 29/141/93 37/145/93
f 37/145/93 45/149/93 53/94/93
f 53/94/93 61/156/93 69/160/93
f 69/160/93 77/164/93 1/95/93
f 1/95/93 9/171/93 21/93/93
f 21/93/93 37/145/93 53/94/93
f 53/94/93 69/160/93 1/95/93
f 87/4/4 5/106/102 3/96/94
f 16/53/53 92/116/112 91/1/1
f 23/98/96 21/17/17 95/79/79
f 118/45/45 67/44/44 65/99/97
f 11/30/30 9/104/100 89/58/58
f 113/13/13 114/48/48 59/47/47
f 32/173/99 30/174/99 28/175/99
f 28/175/99 26/176/99 24/101/99
f 24/101/99 22/177/99 20/178/99
f 20/178/99 18/179/99 16/180/99
f 16/180/99 14/181/99 12/182/99
f 12/182/99 10/183/99 8/184/99
f 8/184/99 6/185/99 4/186/99
f 4/186/99 2/187/99 84/188/99
f 84/188/99 82/189/99 80/190/99
f 80/190/99 78/191/99 76/102/99
f 76/102/99 74/192/99 72/193/99
f 72/193/99 70/194/99 68/195/99
f 68/195/99 66/196/99 64/197/99
f 64/197/99 62/198/99 60/199/99
f 60/199/99 58/200/99 56/201/99
f 56/201/99 54/202/99 52/203/99
f 52/203/99 50/204/99 48/205/99
f 48/205/99 46/206/99 44/103/99
f 44/103/99 42/207/99 40/208/99
f 40/208/99 38/209/99 36/210/99
f 36/210/99 34/211/99 32/173/99
f 32/173/99 28/175/99 24/101/99
f 24/101/99 20/178/99 16/180/99
f 16/180/99 12/182/99 8/184/99
f 8/184/99 4/186/99 84/188/99
f 84/188/99 80/190/99 76/102/99
f 76/102/99 72/193/99 68/195/99
f 68/195/99 64/197/99 60/199/99
f 60/199/99 56/201/99 52/203/99
f 52/203/99 48/205/99 44/103/99
f 44/103/99 40/208/99 36/210/99
f 36/210/99 32/173/99 24/101/99
f 24/101/99 16/180/99 8/184/99
f 8/184/99 84/188/99 76/102/99
f 76/102/99 68/195/99 60/199/99
f 60/199/99 52/203/99 44/103/99
f 44/103/99 36/210/99 24/101/99
f 24/101/99 8/184/99 76/102/99
f 76/102/99 60/199/99 44/103/99
f 4/5/5 86/31/31 85/33/33
f 9/104/100 7/212/128 88/105/101
f 88/105/101 7/212/128 5/106/102
f 101/55/55 102/109/105 35/107/103
f 94/16/16 19/18/18 17/108/104
f 1/32/32 83/121/116 126/70/70
f 102/109/105 103/120/115 37/110/106
f 106/82/82 107/51/51 45/50/50
f 106/82/82 43/111/107 41/38/38
f 121/112/108 122/88/88 75/26/26
f 126/70/70 125/34/34 82/113/109
f 116/64/64 117/66/66 65/99/97
f 112/15/15 55/14/14 53/115/111
f 92/116/112 93/52/52 17/108/104
f 125/34/34 124/36/36 80/117/113
f 106/82/82 44/133/127 46/76/76
f 12/77/77 90/29/29 89/58/58
f 123/118/27 78/213/87 80/117/113
f 38/119/114 40/84/84 104/37/37
f 29/85/85 27/90/90 98/68/68
f 39/39/39 37/110/106 103/120/115
f 125/34/34 126/70/70 83/121/116
f 115/46/46 114/48/48 60/62/62
f 103/120/115 102/109/105 36/124/119
f 121/112/108 74/125/120 76/89/89
f 102/109/105 101/55/55 34/57/57
f 74/125/120 121/112/108 120/72/72
f 23/98/96 96/12/12 97/11/11
f 64/127/122 116/64/64 115/46/46
f 124/36/36 79/35/35 77/128/28
f 96/12/12 95/79/79 22/129/123
f 32/56/56 100/20/20 99/7/7
f 94/16/16 93/52/52 18/54/54
f 68/130/124 118/45/45 117/66/66
