# Blender 4.4.1
# www.blender.org
mtllib poste.mtl
o poste
v 12.148996 0.773284 -0.260661
v 12.120540 0.773470 -0.189532
v 12.120203 0.845601 -0.189884
v 12.023779 5.568379 0.023693
v 12.088900 5.217242 0.010141
v 12.070033 5.575594 0.003626
v 11.941952 5.879981 0.019486
v 11.983878 5.890773 0.000548
v 11.743937 6.209221 0.020634
v 11.899578 5.869054 0.001846
v 11.941952 5.879981 0.019486
v 11.977048 5.564605 0.004991
v 12.037265 5.217190 0.032318
v 11.985146 5.213395 0.011619
v 11.985146 5.213395 0.011619
v 11.950552 0.742687 0.090581
v 12.037265 5.217190 0.032318
v 12.059216 0.743129 0.133781
v 12.088900 5.217242 0.010141
v 12.166800 0.743239 0.087529
v 12.109776 5.217107 -0.041998
v 12.109776 5.217107 -0.041998
v 12.088713 5.579057 -0.043509
v 12.000804 5.894241 -0.043845
v 11.983878 5.890773 0.000548
v 11.796876 6.234217 -0.042669
v 11.781685 6.227171 0.001718
v 11.434601 6.563038 -0.039202
v 11.422658 6.552407 0.002748
v 11.077833 6.813174 0.006679
v 11.087600 6.823798 -0.035613
v 10.573651 7.091299 -0.029704
v 10.566578 7.080675 0.010246
v 12.109776 5.217107 -0.041998
v 12.210261 0.742956 -0.021064
v 12.087630 5.216861 -0.093493
v 11.391999 6.527302 0.020547
v 11.052086 6.784498 0.024597
v 10.547344 7.052012 0.027119
v 10.161581 7.212290 0.024626
v 10.148486 7.183531 0.010568
v 10.527706 7.023230 0.011076
v 11.026440 6.759280 0.007670
v 11.361448 6.505656 0.003842
v 11.705739 6.191134 0.002972
v 10.174335 7.237359 0.009931
v 10.179292 7.247997 -0.024926
v 9.769325 7.340259 0.012755
v 9.765254 7.315207 0.026376
v 9.758685 7.290053 0.013157
v 9.756181 7.275592 -0.019098
v 10.142678 7.172637 -0.024035
v 10.526730 7.022935 -0.068494
v 10.519670 7.008726 -0.028531
v 10.147632 7.183274 -0.058892
v 10.545966 7.051597 -0.085371
v 10.160378 7.211928 -0.073609
v 10.565604 7.080381 -0.069331
v 11.076805 6.812864 -0.077511
v 11.050630 6.784060 -0.094443
v 9.757894 7.289814 -0.051575
v 9.764134 7.314871 -0.065194
v 10.173485 7.237104 -0.059531
v 9.768528 7.340020 -0.051973
v 10.573651 7.091299 -0.029704
v 10.179292 7.247997 -0.024926
v 9.771049 7.350895 -0.019685
v 9.089737 7.399218 -0.042701
v 9.085357 7.370485 -0.055901
v 9.081309 7.341850 -0.042295
v 9.079578 7.331213 -0.009837
v 9.082105 7.342088 0.022433
v 9.086478 7.370822 0.035669
v 9.090532 7.399457 0.022028
v 9.092276 7.406512 -0.010394
v 9.092276 7.406512 -0.010394
v 11.983876 5.213013 -0.092011
v 12.164152 0.742444 -0.128422
v 12.055470 0.742002 -0.171552
v 12.109776 5.217107 -0.041998
v 12.068885 5.575251 -0.090046
v 12.088713 5.579057 -0.043509
v 11.982798 5.890449 -0.087713
v 12.000804 5.894241 -0.043845
v 11.796876 6.234217 -0.042669
v 11.982798 5.890449 -0.087713
v 11.780601 6.226847 -0.086539
v 11.434601 6.563038 -0.039202
v 11.421637 6.552100 -0.080678
v 11.087600 6.823798 -0.035613
v 11.390551 6.526867 -0.097408
v 11.742409 6.208759 -0.104206
v 11.940422 5.879521 -0.105354
v 11.940422 5.879521 -0.105354
v 12.022153 5.567891 -0.108749
v 12.087630 5.216861 -0.093493
v 12.035476 5.216650 -0.114240
v 11.975903 5.564260 -0.088683
v 11.898496 5.868728 -0.086413
v 11.898496 5.868728 -0.086413
v 11.704657 6.190812 -0.085289
v 11.360422 6.505348 -0.079578
v 11.025407 6.758969 -0.076513
v 11.983876 5.213013 -0.092011
v 11.957225 5.560800 -0.041565
v 11.881536 5.861678 -0.042002
v 11.689214 6.180180 -0.040882
v 11.348479 6.494719 -0.037650
v 11.015662 6.744762 -0.034204
v 11.881536 5.861678 -0.042002
v 11.963001 5.213149 -0.039911
v 11.904443 0.742175 -0.016746
v 11.963001 5.213149 -0.039911
v 11.947904 0.741892 -0.125372
v 7.767256 7.318463 0.111225
v 7.778927 7.304377 0.170998
v 7.762900 7.304095 0.105521
v 7.781067 7.318727 0.173478
v 7.828019 7.290517 0.266907
v 7.872556 7.283763 0.348579
v 7.872625 7.265838 0.347588
v 8.373731 7.329763 0.096901
v 7.767256 7.318463 0.111225
v 8.899012 7.310492 0.334092
v 8.937140 7.317465 0.253287
v 8.901255 7.292572 0.333069
v 8.964145 7.345869 0.160177
v 8.966345 7.331526 0.157229
v 8.969858 7.345643 0.094256
v 8.974205 7.331296 0.088428
v 8.899012 7.310492 0.334092
v 8.373744 7.291226 0.340508
v 8.373742 7.309152 0.341508
v 7.755103 7.304345 0.179480
v 7.732147 7.303926 0.080976
v 7.804248 7.286910 0.277845
v 7.855548 7.258710 0.371211
v 8.373744 7.284143 0.363898
v 8.961185 7.313974 0.261518
v 8.916800 7.285530 0.356233
v 8.990329 7.331606 0.162050
v 9.002170 7.331275 0.063055
v 9.114946 7.385312 0.057123
v 9.025170 7.478217 0.043128
v 9.001871 7.385023 0.058716
v 8.373744 7.284143 0.363898
v 8.916769 7.303466 0.360491
v 8.373746 7.302080 0.368152
v 8.990257 7.363887 0.168137
v 8.373734 7.376294 0.078952
v 8.373735 7.362314 0.176837
v 8.961113 7.342666 0.266535
v 8.373739 7.341167 0.274821
v 8.916769 7.303466 0.360491
v 7.732019 7.350546 0.088009
v 7.631813 7.357419 0.078050
v 7.623285 7.350269 0.089541
v 7.732019 7.350546 0.088009
v 7.623411 7.303648 0.082511
v 7.732147 7.303926 0.080976
v 7.732205 7.360936 0.076635
v 7.644430 7.371678 0.048171
v 9.115128 7.378185 0.068489
v 9.002170 7.331275 0.063055
v 9.115252 7.331564 0.061459
v 11.887535 0.798567 -0.143743
v 11.854223 0.798276 -0.199747
v 11.854680 0.798414 -0.162148
v 11.920059 0.798581 -0.163070
v 11.919600 0.798442 -0.200668
v 11.886613 0.798289 -0.219076
v 11.886732 0.772753 -0.218948
v 11.919720 0.772906 -0.200545
v 11.920179 0.773046 -0.162944
v 11.887657 0.773031 -0.143615
v 11.854806 0.772878 -0.162022
v 11.854339 0.772739 -0.199621
v 11.891637 0.799799 0.190840
v 11.858325 0.799509 0.134836
v 11.858782 0.799648 0.172434
v 11.924159 0.799815 0.171510
v 11.923698 0.799676 0.133916
v 11.890715 0.799523 0.115508
v 11.890835 0.773985 0.115632
v 11.923822 0.774138 0.134040
v 11.924283 0.774277 0.171638
v 11.891757 0.774263 0.190968
v 11.858904 0.774110 0.172560
v 11.858445 0.773971 0.134962
v 12.229510 0.799441 -0.148567
v 12.196057 0.799148 -0.204571
v 12.196518 0.799286 -0.166972
v 12.261896 0.799453 -0.167896
v 12.261437 0.799316 -0.205492
v 12.228586 0.799162 -0.223902
v 12.228704 0.773627 -0.223776
v 12.261559 0.773778 -0.205371
v 12.262015 0.773917 -0.167770
v 12.229628 0.773903 -0.148445
v 12.196642 0.773750 -0.166848
v 12.196177 0.773612 -0.204447
v 11.951404 0.772808 -0.249727
v 12.000832 0.845296 -0.188200
v 11.971014 0.772830 -0.258151
v 11.976883 0.774614 0.226558
v 11.985298 0.846480 0.147202
v 11.957145 0.774534 0.218686
v 11.829811 0.773750 0.094705
v 11.891535 0.845861 0.044603
v 11.821416 0.773657 0.075208
v 12.174479 0.775089 0.215621
v 12.124409 0.846865 0.153387
v 12.154940 0.775069 0.224042
v 12.235134 0.846738 0.039755
v 12.298863 0.774948 0.088086
v 12.306783 0.774896 0.068360
v 12.225415 0.846207 -0.098954
v 12.304607 0.774242 -0.109384
v 12.296206 0.774147 -0.128885
v 12.139910 0.845681 -0.182022
v 12.168736 0.773363 -0.252794
v 7.644430 7.371678 0.048171
v 7.630146 7.356917 -0.057652
v 7.631813 7.357419 0.078050
v 7.621346 7.349685 -0.068793
v 7.623285 7.350269 0.089541
v 7.621346 7.349685 -0.068793
v 7.621650 7.303118 -0.061267
v 7.621650 7.303118 -0.061267
v 7.644845 7.289253 0.051191
v 7.623411 7.303648 0.082511
v 8.373734 7.397649 0.037876
v 8.940079 7.456380 0.013477
v 8.373734 7.454937 0.021470
v 8.373742 7.330368 0.262642
v 8.899012 7.310492 0.334092
v 8.373742 7.309152 0.341508
v 8.373735 7.344354 0.166816
v 8.934925 7.331804 0.255827
v 8.373737 7.344122 0.102664
v 8.964145 7.345869 0.160177
v 8.373729 7.397369 -0.038569
v 7.730406 7.429024 -0.013635
v 8.373729 7.454776 -0.022715
v 8.979692 7.399195 0.029326
v 8.939540 7.456220 -0.030702
v 9.113286 7.384810 -0.078578
v 9.023869 7.477826 -0.062950
v 9.113034 7.478054 -0.064211
v 9.023869 7.477826 -0.062950
v 9.114336 7.478445 0.041865
v 9.113034 7.478054 -0.064211
v 9.113286 7.384810 -0.078578
v 9.113490 7.331034 -0.082317
v 9.113182 7.377603 -0.089845
v 9.114938 7.317113 0.030445
v 9.114946 7.385312 0.057123
v 9.115128 7.378185 0.068489
v 9.115252 7.331564 0.061459
v 9.113935 7.316813 -0.051216
v 9.113034 7.478054 -0.064211
v 12.307911 0.729187 0.187498
v 12.310675 0.729044 0.146731
v 12.297086 0.729133 0.180455
v 12.280523 0.729219 0.215578
v 12.273189 0.729160 0.204958
v 12.242523 0.729178 0.231999
v 12.273189 0.729160 0.204958
v 12.239788 0.729126 0.219275
v 11.891309 0.728283 0.236955
v 11.893600 0.728242 0.224162
v 11.852921 0.728128 0.221612
v 11.859997 0.728105 0.210787
v 11.852921 0.728128 0.221612
v 11.835365 0.727955 0.186970
v 11.824720 0.727953 0.194316
v 11.808484 0.727773 0.156398
v 11.821095 0.727796 0.153637
v 12.319050 0.727794 -0.201605
v 12.323343 0.729087 0.149131
v 12.306437 0.727771 -0.198982
v 12.302814 0.727614 -0.239525
v 12.292027 0.727613 -0.232176
v 12.274611 0.727440 -0.266957
v 12.267542 0.727461 -0.256129
v 12.267542 0.727461 -0.256129
v 12.236225 0.727286 -0.282165
v 12.233797 0.727325 -0.269502
v 11.885009 0.726390 -0.277211
v 11.887613 0.726441 -0.264616
v 11.847009 0.726348 -0.260924
v 11.854345 0.726407 -0.250299
v 11.830311 0.726434 -0.225661
v 11.847009 0.726348 -0.260924
v 11.819486 0.726381 -0.232704
v 11.816860 0.726521 -0.192073
v 11.804189 0.726480 -0.194340
v 11.793768 0.716548 0.160328
v 11.789378 0.715229 -0.197875
v 11.806793 0.715115 -0.241290
v 11.838074 0.715079 -0.273365
v 11.881074 0.715124 -0.291893
v 11.838074 0.715079 -0.273365
v 12.239767 0.716040 -0.296953
v 12.274611 0.727440 -0.266957
v 12.283345 0.716217 -0.279648
v 12.283345 0.716217 -0.279648
v 12.315397 0.716413 -0.248471
v 12.333736 0.716618 -0.205560
v 12.338122 0.717937 0.152643
v 11.812647 0.021600 -0.358057
v 11.769771 0.021555 -0.339803
v 11.738359 0.021590 -0.307592
v 11.720942 0.021703 -0.264176
v 11.727069 0.023545 0.235459
v 11.844297 0.716951 0.234551
v 11.821038 0.024122 0.326853
v 11.887741 0.717128 0.251854
v 12.246428 0.718042 0.246798
v 12.321354 0.025399 0.319799
v 12.289566 0.718087 0.228266
v 12.364359 0.025443 0.301267
v 12.320846 0.718051 0.196196
v 12.364359 0.025443 0.301267
v 12.395772 0.025408 0.269329
v 12.413187 0.025295 0.225779
v 12.407065 0.023454 -0.273859
v 12.388592 0.023249 -0.316768
v 12.356398 0.023051 -0.348081
v 12.312961 0.022876 -0.365120
v 12.289566 0.718087 0.228266
v 12.280523 0.729219 0.215578
v 11.812243 0.716753 0.203370
v 11.844297 0.716951 0.234551
v 11.745543 0.023750 0.278503
v 11.777734 0.023946 0.309545
v 12.001168 0.773165 -0.187847
v 7.733217 7.374588 -0.029530
v 8.373729 7.382925 -0.068143
v 7.731012 7.360445 -0.059072
v 8.373729 7.375715 -0.079410
v 7.730082 7.349961 -0.070323
v 7.730082 7.349961 -0.070323
v 7.730384 7.303396 -0.062802
v 9.000102 7.377314 -0.088249
v 9.113182 7.377603 -0.089845
v 9.000408 7.330747 -0.080723
v 9.113490 7.331034 -0.082317
v 11.981628 0.773144 -0.179426
v 11.981292 0.845274 -0.179780
v 7.846500 7.273936 -0.360484
v 7.797640 7.284925 -0.261425
v 7.797436 7.313578 -0.266862
v 7.750918 7.303088 -0.162026
v 7.750692 7.335322 -0.168423
v 7.730082 7.349961 -0.070323
v 8.373724 7.343371 -0.102800
v 7.777019 7.317511 -0.156895
v 8.373724 7.343136 -0.167032
v 7.823750 7.302941 -0.253735
v 8.373715 7.328450 -0.262643
v 7.864196 7.281247 -0.334163
v 8.373720 7.306659 -0.341355
v 8.907887 7.282850 -0.371025
v 8.373713 7.299392 -0.367923
v 8.907754 7.300754 -0.375464
v 11.827153 0.772951 -0.122266
v 11.890074 0.845423 -0.074605
v 11.897985 0.845371 -0.094334
v 12.233606 0.800673 0.186016
v 12.200162 0.800382 0.130012
v 12.200621 0.800519 0.167610
v 12.266001 0.800687 0.166686
v 12.265535 0.800548 0.129095
v 12.232687 0.800395 0.110685
v 12.232803 0.774858 0.110813
v 12.265661 0.775010 0.129214
v 12.266117 0.775149 0.166812
v 12.233726 0.775135 0.186142
v 12.200740 0.774982 0.167734
v 12.200279 0.774844 0.130136
v 8.373724 7.329057 -0.096894
v 7.764735 7.317707 -0.094207
v 8.373724 7.343371 -0.102800
v 11.898323 0.773240 -0.093978
v 8.373717 7.288741 -0.340176
v 8.890644 7.307978 -0.348648
v 8.373720 7.306659 -0.341355
v 8.373720 7.339159 -0.274990
v 8.907754 7.300754 -0.375464
v 8.373713 7.299392 -0.367923
v 8.373724 7.361020 -0.177217
v 8.954376 7.340640 -0.283188
v 8.985918 7.362584 -0.185858
v 11.819241 0.773003 -0.102536
v 11.890413 0.773291 -0.074250
v 8.373731 7.329672 0.071924
v 11.985635 0.774349 0.147555
v 9.114938 7.317113 0.030445
v 8.999496 7.316819 0.032074
v 8.998493 7.316518 -0.049583
v 9.113935 7.316813 -0.051216
v 9.000408 7.330747 -0.080723
v 12.005380 0.774429 0.155424
v 12.005040 0.846560 0.155072
v 9.002039 7.377897 0.070085
v 8.990329 7.331606 0.162050
v 8.961113 7.342666 0.266535
v 8.961185 7.313974 0.261518
v 8.916769 7.303466 0.360491
v 8.916800 7.285530 0.356233
v 11.882422 0.773605 0.017330
v 11.882591 0.868773 -0.054729
v 11.883039 0.773345 -0.054258
v 11.910740 0.868605 -0.120661
v 11.911190 0.773177 -0.120192
v 11.961919 0.868555 -0.170872
v 11.962368 0.773128 -0.170398
v 11.962368 0.773128 -0.170398
v 12.028387 0.868630 -0.197801
v 12.028835 0.773202 -0.197332
v 12.100088 0.868819 -0.197188
v 12.100540 0.773391 -0.196719
v 12.166055 0.869092 -0.169337
v 12.166505 0.773664 -0.168866
v 12.216230 0.869409 -0.118322
v 12.216681 0.773981 -0.117851
v 12.243460 0.774293 -0.051495
v 12.243011 0.869721 -0.051967
v 12.242845 0.774554 0.020084
v 12.242393 0.869982 0.019613
v 12.214694 0.774719 0.086016
v 12.214241 0.870147 0.085549
v 12.163583 0.774771 0.136223
v 12.163134 0.870199 0.135751
v 12.097060 0.774694 0.163089
v 12.096612 0.870124 0.162619
v 12.025378 0.774507 0.162611
v 12.024931 0.869935 0.162139
v 11.959444 0.774235 0.134620
v 11.958997 0.869662 0.134151
v 11.909201 0.773917 0.083677
v 11.908753 0.869345 0.083205
v 11.881972 0.869031 0.016863
v 11.891874 0.773730 0.044957
v 11.816643 0.772667 -0.192301
v 11.830096 0.772580 -0.225887
v 11.854128 0.772553 -0.250529
v 11.854345 0.726407 -0.250299
v 11.887396 0.772587 -0.264848
v 12.233580 0.773472 -0.269731
v 12.267322 0.773607 -0.256357
v 12.291812 0.773758 -0.232404
v 12.306222 0.773917 -0.199210
v 12.310457 0.775192 0.146502
v 12.296870 0.775279 0.180225
v 12.272974 0.775306 0.204732
v 12.272974 0.775306 0.204732
v 12.239573 0.775270 0.219047
v 11.893385 0.774388 0.223936
v 11.859779 0.774251 0.210558
v 11.859779 0.774251 0.210558
v 11.835148 0.774101 0.186742
v 11.820881 0.773940 0.153411
v 8.954574 7.311988 -0.277753
v 8.962289 7.330306 -0.173958
v 8.930742 7.315541 -0.269015
v 8.971829 7.330583 -0.105333
v 8.986144 7.330350 -0.179454
v 8.373729 7.329147 -0.071878
v 7.760527 7.303382 -0.088240
v 7.750918 7.303088 -0.162026
v 7.774940 7.303179 -0.154085
v 7.797640 7.284925 -0.261425
v 7.821671 7.288609 -0.251191
v 7.864285 7.263331 -0.332985
v 7.846640 7.256032 -0.356054
v 8.373715 7.281487 -0.363491
v 8.892918 7.290066 -0.347502
v 11.900265 0.773823 0.064456
v 11.899928 0.845954 0.064100
v 7.732019 7.350546 0.088009
v 7.755103 7.304345 0.179480
v 7.755033 7.336627 0.185569
v 7.804174 7.315603 0.282860
v 7.804248 7.286910 0.277845
v 7.855518 7.276648 0.375465
v 7.855548 7.258710 0.371211
v 7.643491 7.371396 -0.028264
v 7.730953 7.429186 0.030539
v 12.124748 0.774734 0.153741
v 9.001871 7.385023 0.058716
v 9.025170 7.478217 0.043128
v 8.979692 7.399195 0.029326
v 8.978751 7.398913 -0.047103
v 9.000204 7.384524 -0.076984
v 12.144254 0.774753 0.145320
v 12.143914 0.846884 0.144961
v 8.967342 7.344887 -0.111176
v 8.960009 7.344627 -0.176984
v 8.928464 7.329863 -0.271632
v 8.890644 7.307978 -0.348648
v 7.864196 7.281247 -0.334163
v 7.823750 7.302941 -0.253735
v 7.777019 7.317511 -0.156895
v 7.764735 7.317707 -0.094207
v 8.954574 7.311988 -0.277753
v 8.907754 7.300754 -0.375464
v 8.954376 7.340640 -0.283188
v 8.986144 7.330350 -0.179454
v 8.985918 7.362584 -0.185858
v 12.140247 0.773550 -0.181665
v 12.227354 0.846790 0.059480
v 12.227694 0.774659 0.059835
v 12.225752 0.774076 -0.098599
v 12.235474 0.774607 0.040110
v 12.233675 0.846300 -0.079452
v 12.234013 0.774169 -0.079098
v 12.106964 0.774186 0.016241
v 12.272974 0.775306 0.204732
v 12.296870 0.775279 0.180225
v 12.310457 0.775192 0.146502
v 12.108794 0.774176 0.011704
v 12.107931 0.773914 -0.058771
v 12.306222 0.773917 -0.199210
v 12.105994 0.773894 -0.063225
v 12.291812 0.773758 -0.232404
v 12.102810 0.773874 -0.066340
v 12.267322 0.773607 -0.256357
v 12.233580 0.773472 -0.269731
v 12.098289 0.773855 -0.068133
v 11.887396 0.772587 -0.264848
v 12.027680 0.773675 -0.067133
v 12.023211 0.773671 -0.065212
v 11.854128 0.772553 -0.250529
v 12.020077 0.773675 -0.061999
v 11.830096 0.772580 -0.225887
v 11.816643 0.772667 -0.192301
v 12.018274 0.773687 -0.057495
v 12.019135 0.773946 0.013006
v 11.820881 0.773940 0.153411
v 12.021046 0.773967 0.017467
v 11.835148 0.774101 0.186742
v 11.859779 0.774251 0.210558
v 12.024238 0.773987 0.020552
v 11.893385 0.774388 0.223936
v 12.028757 0.774005 0.022350
v 12.239573 0.775270 0.219047
v 12.099362 0.774185 0.021354
v 12.103860 0.774190 0.019424
v 12.176018 0.869593 -0.039196
v 12.242393 0.869982 0.019613
v 12.243011 0.869721 -0.051967
v 12.159177 0.869397 -0.080924
v 12.216230 0.869409 -0.118322
v 12.166055 0.869092 -0.169337
v 12.127628 0.869199 -0.113010
v 12.100088 0.868819 -0.197188
v 12.086139 0.869026 -0.130520
v 12.041052 0.868906 -0.130909
v 11.961919 0.868555 -0.170872
v 11.999251 0.868860 -0.113968
v 12.028387 0.868630 -0.197801
v 11.967068 0.868892 -0.082400
v 11.910740 0.868605 -0.120661
v 11.949363 0.868997 -0.040934
v 11.882591 0.868773 -0.054729
v 12.157925 0.869862 0.047281
v 12.163134 0.870199 0.135751
v 12.214241 0.870147 0.085549
v 12.175629 0.869757 0.005815
v 12.038876 0.869729 0.095446
v 12.096612 0.870124 0.162619
v 12.083956 0.869846 0.095748
v 12.125783 0.869894 0.078856
v 11.948976 0.869160 0.004087
v 11.881972 0.869031 0.016863
v 11.965814 0.869356 0.045807
v 11.908753 0.869345 0.083205
v 11.958997 0.869662 0.134151
v 11.997410 0.869555 0.077845
v 12.024931 0.869935 0.162139
v 8.969858 7.345643 0.094256
v 7.872556 7.283763 0.348579
v 7.755033 7.336627 0.185569
v 7.804174 7.315603 0.282860
v 7.855518 7.276648 0.375465
v 8.373729 7.383420 0.067581
v 9.002039 7.377897 0.070085
v 9.001871 7.385023 0.058716
v 8.979692 7.399195 0.029326
v 7.730412 7.374742 0.046960
v 7.872556 7.283763 0.348579
v 7.830155 7.304869 0.269248
v 7.781067 7.318727 0.173478
v 7.767256 7.318463 0.111225
v 8.978751 7.398913 -0.047103
v 9.000204 7.384524 -0.076984
v 9.000102 7.377314 -0.088249
v 8.960009 7.344627 -0.176984
v 8.967342 7.344887 -0.111176
v 8.928464 7.329863 -0.271632
v 8.890644 7.307978 -0.348648
v 8.373715 7.281487 -0.363491
v 8.967342 7.344887 -0.111176
v 7.864196 7.281247 -0.334163
v 7.846500 7.273936 -0.360484
v 7.797436 7.313578 -0.266862
v 7.750692 7.335322 -0.168423
v 7.729643 7.292273 0.049991
v 7.643849 7.288951 -0.030469
v 7.728639 7.291968 -0.031666
v 7.730384 7.303396 -0.062802
v 8.907887 7.282850 -0.371025
v 7.630146 7.356917 -0.057652
v 7.621346 7.349685 -0.068793
v 7.643491 7.371396 -0.028264
v 8.373729 7.314924 -0.040768
v 8.373729 7.315222 0.040906
v 11.899578 5.869054 0.001846
v 12.000804 5.894241 -0.043845
v 12.166800 0.743239 0.087529
v 9.771049 7.350895 -0.019685
v 12.035476 5.216650 -0.114240
v 12.000804 5.894241 -0.043845
v 7.830155 7.304869 0.269248
v 8.373737 7.344122 0.102664
v 8.934925 7.331804 0.255827
v 9.114336 7.478445 0.041865
v 8.916800 7.285530 0.356233
v 8.373746 7.302080 0.368152
v 7.623285 7.350269 0.089541
v 8.969858 7.345643 0.094256
v 8.978751 7.398913 -0.047103
v 9.000204 7.384524 -0.076984
v 9.114336 7.478445 0.041865
v 11.859997 0.728105 0.210787
v 11.769771 0.021555 -0.339803
v 11.777734 0.023946 0.309545
v 12.356398 0.023051 -0.348081
v 7.846640 7.256032 -0.356054
v 7.730384 7.303396 -0.062802
v 7.764735 7.317707 -0.094207
v 9.115252 7.331564 0.061459
v 9.113490 7.331034 -0.082317
v 8.990257 7.363887 0.168137
v 11.961919 0.868555 -0.170872
v 11.854128 0.772553 -0.250529
v 12.267322 0.773607 -0.256357
v 7.732147 7.303926 0.080976
v 8.907887 7.282850 -0.371025
vn -0.1748 0.6523 -0.7375
vn -0.9284 -0.0061 -0.3714
vn -0.2048 0.6418 -0.7390
vn 0.0362 0.0251 0.9990
vn 0.7175 0.0398 0.6954
vn 0.7170 0.1242 0.6859
vn 0.0171 0.0171 0.9997
vn 0.6736 0.2781 0.6848
vn 0.0371 0.0401 0.9985
vn -0.6062 -0.2684 0.7487
vn 0.0696 0.0422 0.9967
vn -0.6774 -0.0837 0.7308
vn 0.0200 0.0243 0.9995
vn -0.6934 0.0061 0.7206
vn -0.6976 0.0099 0.7164
vn -0.6969 0.0180 0.7169
vn 0.0143 0.0239 0.9996
vn 0.0142 0.0227 0.9996
vn 0.7170 0.0352 0.6962
vn 0.7168 0.0239 0.6969
vn 0.9993 0.0357 -0.0128
vn 0.9990 0.0430 -0.0129
vn 0.9862 0.1643 -0.0179
vn 0.9282 0.3716 -0.0186
vn 0.6849 0.3159 0.6566
vn 0.7769 0.6285 -0.0367
vn 0.5817 0.4760 0.6596
vn 0.6372 0.7691 -0.0489
vn 0.4722 0.5650 0.6766
vn 0.4074 0.6358 0.6556
vn 0.5344 0.8436 -0.0524
vn 0.4158 0.9077 -0.0571
vn 0.3216 0.6931 0.6451
vn 0.9992 0.0374 -0.0103
vn 0.9997 0.0224 -0.0123
vn 0.6982 0.0281 -0.7153
vn 0.0075 0.0062 1.0000
vn 0.0110 0.0131 0.9999
vn 0.0087 0.0230 0.9997
vn 0.0122 0.0506 0.9986
vn -0.2350 -0.6883 0.6862
vn -0.3065 -0.6478 0.6974
vn -0.3780 -0.6057 0.7002
vn -0.4563 -0.5572 0.6937
vn -0.5268 -0.4379 0.7285
vn 0.2406 0.7308 0.6387
vn 0.3078 0.9493 -0.0634
vn 0.1341 0.7621 0.6335
vn 0.0144 0.0332 0.9993
vn -0.1131 -0.7040 0.7011
vn -0.1727 -0.9850 0.0061
vn -0.3244 -0.9459 0.0076
vn -0.3254 -0.6534 -0.6835
vn -0.4339 -0.9009 0.0089
vn -0.2538 -0.6939 -0.6738
vn -0.0194 0.0137 -0.9997
vn -0.0157 0.0412 -0.9990
vn 0.3037 0.6880 -0.6591
vn 0.3899 0.6305 -0.6711
vn -0.0166 0.0035 -0.9999
vn -0.1326 -0.7095 -0.6921
vn -0.0137 0.0239 -0.9996
vn 0.2229 0.7256 -0.6510
vn 0.1163 0.7566 -0.6435
vn 0.4172 0.9079 0.0399
vn 0.3094 0.9497 0.0487
vn 0.1644 0.9849 0.0548
vn 0.0565 0.7630 -0.6439
vn -0.0144 -0.0227 -0.9996
vn -0.0696 -0.7534 -0.6539
vn -0.0819 -0.9966 0.0052
vn -0.0511 -0.7477 0.6621
vn 0.0138 -0.0133 0.9998
vn 0.0744 0.7682 0.6358
vn 0.0868 0.9949 -0.0513
vn 0.0882 0.9952 0.0424
vn -0.7132 -0.0030 -0.7009
vn 0.6953 0.0222 -0.7183
vn -0.0106 0.0176 -0.9998
vn 0.9990 0.0426 -0.0126
vn 0.6989 0.1175 -0.7055
vn 0.9864 0.1641 -0.0083
vn 0.6551 0.2715 -0.7051
vn 0.9285 0.3713 -0.0077
vn 0.7777 0.6286 0.0124
vn 0.6679 0.3102 -0.6766
vn 0.5640 0.4703 -0.6787
vn 0.6383 0.7693 0.0268
vn 0.4541 0.5596 -0.6933
vn 0.5356 0.8438 0.0328
vn -0.0202 -0.0032 -0.9998
vn 0.0095 0.0306 -0.9995
vn 0.0421 0.0325 -0.9986
vn -0.0106 0.0072 -0.9999
vn 0.0086 0.0152 -0.9998
vn 0.6996 0.0329 -0.7138
vn -0.0096 0.0103 -0.9999
vn -0.6964 -0.0908 -0.7119
vn -0.6647 -0.2583 -0.7011
vn -0.6260 -0.2752 -0.7297
vn -0.5459 -0.4441 -0.7105
vn -0.4749 -0.5631 -0.6763
vn -0.3969 -0.6115 -0.6845
vn -0.7107 -0.0052 -0.7035
vn -0.9915 -0.1297 0.0128
vn -0.9324 -0.3613 0.0126
vn -0.7730 -0.6342 0.0121
vn -0.6376 -0.7703 0.0109
vn -0.5372 -0.8434 0.0100
vn -0.9167 -0.3994 0.0134
vn -0.9999 -0.0044 0.0128
vn -0.9998 0.0132 0.0129
vn -0.9999 0.0010 0.0120
vn -0.7157 0.0110 -0.6983
vn 0.5759 -0.7205 0.3862
vn 0.6091 -0.7455 -0.2707
vn 0.2113 -0.9675 0.1390
vn 0.6537 -0.7036 -0.2785
vn 0.6051 -0.6482 -0.4623
vn 0.4230 -0.4521 -0.7853
vn 0.2370 -0.7432 -0.6257
vn 0.0265 -0.8248 0.5647
vn 0.5936 -0.7252 0.3489
vn -0.4034 -0.5055 -0.7628
vn -0.6329 -0.6689 -0.3897
vn -0.2371 -0.7607 -0.6043
vn -0.6482 -0.7406 -0.1770
vn -0.6365 -0.7507 -0.1772
vn -0.5053 -0.7459 0.4340
vn -0.1877 -0.9642 0.1875
vn -0.4024 -0.4855 -0.7761
vn 0.0032 -0.5668 -0.8238
vn 0.0037 -0.5674 -0.8234
vn -0.7143 -0.6711 0.1983
vn -0.2254 -0.8164 0.5317
vn -0.6571 -0.7323 0.1786
vn -0.3954 -0.7460 0.5359
vn 0.0302 -0.8355 0.5487
vn 0.6967 -0.7097 0.1046
vn 0.4381 -0.7334 0.5199
vn 0.7405 -0.6657 0.0924
vn 0.2655 -0.8003 0.5376
vn 0.8030 0.3372 0.4914
vn -0.4177 0.7289 0.5425
vn -0.1231 0.6926 0.7107
vn 0.0304 -0.8871 0.4606
vn 0.4423 0.3128 0.8405
vn 0.0020 0.4099 0.9121
vn 0.6961 0.6701 0.2577
vn -0.0144 0.9384 0.3453
vn -0.0199 0.9841 0.1767
vn 0.6351 0.6471 0.4218
vn -0.0192 0.9537 0.3001
vn 0.4381 0.4075 0.8013
vn -0.2772 0.6185 0.7352
vn -0.3872 0.8833 0.2644
vn -0.6293 0.4394 0.6410
vn -0.2771 0.5399 0.7948
vn -0.6217 -0.5034 0.6001
vn -0.2178 -0.8075 0.5481
vn -0.0224 0.8320 0.5544
vn -0.5155 0.8358 0.1889
vn 0.6251 0.3309 0.7070
vn 0.2475 -0.7819 0.5721
vn 0.6286 -0.4511 0.6336
vn 0.0079 0.6134 0.7897
vn -0.6935 0.6061 -0.3895
vn -0.6835 0.6091 0.4023
vn 0.6889 0.6142 0.3850
vn 0.6788 0.6105 -0.4080
vn -0.0136 0.6065 -0.7949
vn -0.0138 -0.0051 -0.9999
vn 0.8596 0.0015 -0.5110
vn 0.8721 0.0065 0.4892
vn 0.0134 0.0051 0.9999
vn -0.8593 -0.0016 0.5115
vn -0.8727 -0.0064 -0.4883
vn 0.0080 0.6134 0.7897
vn -0.6935 0.6060 -0.3896
vn -0.6834 0.6092 0.4023
vn 0.6888 0.6142 0.3850
vn 0.6788 0.6106 -0.4080
vn -0.0136 0.6066 -0.7949
vn -0.0139 -0.0049 -0.9999
vn 0.8596 0.0017 -0.5110
vn 0.8721 0.0067 0.4892
vn -0.8593 -0.0015 0.5114
vn -0.8726 -0.0065 -0.4884
vn 0.0095 0.6134 0.7898
vn -0.6933 0.6059 -0.3902
vn -0.6832 0.6090 0.4030
vn 0.6892 0.6142 0.3844
vn 0.6791 0.6107 -0.4073
vn -0.0122 0.6066 -0.7949
vn -0.0121 -0.0049 -0.9999
vn 0.8600 0.0017 -0.5103
vn 0.8726 0.0065 0.4885
vn 0.0152 0.0049 0.9999
vn -0.8588 -0.0016 0.5123
vn -0.8722 -0.0065 -0.4891
vn -0.6449 0.6515 -0.3996
vn 0.1804 0.6438 -0.7436
vn 0.1533 0.6529 -0.7418
vn 0.1716 0.6598 0.7316
vn -0.6555 0.6457 0.3917
vn -0.6333 0.6559 0.4108
vn -0.3978 0.6575 0.6399
vn -0.7431 0.6428 -0.1860
vn -0.7409 0.6532 -0.1563
vn 0.6404 0.6596 0.3934
vn -0.1832 0.6489 0.7385
vn -0.1554 0.6585 0.7363
vn 0.7332 0.6477 -0.2073
vn 0.4112 0.6604 0.6283
vn 0.7311 0.6592 -0.1757
vn 0.3764 0.6464 -0.6637
vn 0.7357 0.6602 0.1517
vn 0.3946 0.6552 -0.6442
vn 0.6509 0.6474 -0.3964
vn 0.6298 0.6568 -0.4146
vn -0.4475 0.8489 0.2812
vn -0.3020 0.8947 -0.3290
vn -0.2929 0.8978 0.3290
vn -0.5904 0.4381 -0.6778
vn -0.5720 0.4435 0.6900
vn -0.6435 0.3466 -0.6825
vn -0.6374 -0.5093 -0.5783
vn -0.6078 -0.5608 -0.5621
vn -0.2176 -0.9634 0.1563
vn -0.5930 -0.5564 0.5821
vn -0.0017 0.6430 0.7659
vn 0.3695 0.7823 0.5015
vn -0.0087 0.8021 0.5971
vn 0.0223 -0.9790 -0.2028
vn -0.4068 -0.5297 -0.7443
vn 0.0055 -0.6179 -0.7863
vn 0.0227 -0.9972 -0.0711
vn -0.6146 -0.6979 -0.3677
vn 0.0265 -0.8114 0.5839
vn -0.6637 -0.7266 -0.1778
vn -0.0234 0.6362 -0.7712
vn -0.2341 0.8100 -0.5377
vn -0.0253 0.7969 -0.6035
vn -0.3542 0.7227 0.5935
vn 0.3560 0.7781 -0.5176
vn 0.7908 0.3325 -0.5138
vn -0.4319 0.7234 -0.5386
vn 0.5755 0.6238 -0.5289
vn -0.4112 0.7170 -0.5629
vn 0.5897 0.6133 0.5255
vn 0.5757 0.6094 -0.5452
vn 0.7957 0.3288 -0.5086
vn 0.6125 -0.4735 -0.6330
vn 0.5996 0.3261 -0.7309
vn 0.6596 -0.7351 0.1566
vn 0.8091 0.3325 0.4846
vn 0.6185 0.3333 0.7116
vn 0.6288 -0.4679 0.6210
vn 0.6551 -0.7366 -0.1679
vn 0.5749 0.6173 -0.5371
vn 0.2843 0.9413 0.1819
vn 0.6427 0.7570 0.1182
vn 0.5481 0.7569 0.3559
vn 0.1834 0.9414 0.2832
vn 0.3680 0.7574 0.5394
vn 0.0682 0.9396 0.3353
vn 0.3696 0.7575 0.5381
vn 0.1348 0.7567 0.6397
vn -0.0632 0.9394 0.3369
vn -0.1209 0.7561 0.6432
vn -0.1945 0.9405 0.2785
vn -0.3605 0.7540 0.5491
vn -0.1806 0.9404 0.2882
vn -0.5427 0.7540 0.3701
vn -0.2857 0.9391 0.1908
vn -0.3415 0.9376 0.0662
vn -0.6456 0.7520 0.1335
vn 0.3377 0.9384 -0.0729
vn 0.3397 0.9387 0.0587
vn 0.6394 0.7561 -0.1399
vn 0.2808 0.9394 -0.1969
vn 0.5398 0.7534 -0.3755
vn 0.1762 0.9386 -0.2967
vn 0.3546 0.7528 -0.5545
vn 0.3552 0.7537 -0.5530
vn 0.0581 0.9371 -0.3443
vn 0.1170 0.7513 -0.6495
vn -0.0723 0.9368 -0.3424
vn -0.1391 0.7504 -0.6461
vn -0.2033 0.9375 -0.2824
vn -0.3758 0.7499 -0.5445
vn -0.5536 0.7501 -0.3617
vn -0.1897 0.9374 -0.2921
vn -0.2910 0.9376 -0.1903
vn -0.6488 0.7509 -0.1233
vn -0.3429 0.9372 -0.0644
vn -0.8591 0.4808 0.1753
vn -0.8632 0.4794 -0.1581
vn -0.7309 0.4899 -0.4751
vn -0.4869 0.4906 -0.7227
vn -0.1800 0.4785 -0.8594
vn -0.4993 0.4888 -0.7153
vn 0.1527 0.4798 -0.8640
vn 0.1902 0.9387 -0.2874
vn 0.4765 0.4926 -0.7282
vn 0.4636 0.4951 -0.7348
vn 0.7155 0.4958 -0.4922
vn 0.8561 0.4850 -0.1787
vn 0.8602 0.4863 0.1533
vn -0.2148 0.1139 -0.9700
vn -0.5624 0.1329 -0.8161
vn -0.8286 0.1337 -0.5437
vn -0.9747 0.1145 -0.1920
vn -0.9696 0.1166 0.2150
vn -0.4790 0.4974 0.7233
vn -0.1902 0.1237 0.9739
vn -0.1561 0.4868 0.8595
vn 0.1768 0.4877 0.8549
vn 0.2166 0.1254 0.9682
vn 0.4951 0.5004 0.7102
vn 0.5617 0.1459 0.8144
vn 0.7274 0.5010 0.4689
vn 0.5606 0.1466 0.8150
vn 0.8264 0.1468 0.5436
vn 0.9736 0.1255 0.1906
vn 0.9686 0.1236 -0.2159
vn 0.8133 0.1415 -0.5644
vn 0.5381 0.1389 -0.8314
vn 0.1870 0.1158 -0.9755
vn 0.4825 0.5022 0.7176
vn 0.1971 0.9415 0.2734
vn -0.7181 0.4947 0.4895
vn -0.4661 0.4985 0.7309
vn -0.8130 0.1395 0.5652
vn -0.5397 0.1417 0.8298
vn 0.9190 0.0024 -0.3942
vn -0.0336 0.6474 -0.7614
vn -0.0234 0.8718 -0.4893
vn -0.0379 0.8274 -0.5603
vn -0.0241 0.9353 -0.3531
vn -0.2974 0.6121 -0.7327
vn -0.2989 0.5312 -0.7928
vn -0.2330 -0.8126 -0.5342
vn 0.3012 0.6762 -0.6724
vn 0.6076 0.3232 -0.7255
vn 0.2291 -0.7882 -0.5712
vn 0.6119 -0.4577 -0.6450
vn -0.9187 -0.0024 0.3950
vn -0.6667 0.6414 -0.3796
vn -0.4484 0.2848 -0.8472
vn -0.6297 -0.7650 -0.1348
vn -0.6433 0.5910 -0.4867
vn -0.7076 -0.6866 -0.1673
vn -0.7139 0.6085 -0.3465
vn -0.3056 0.5646 -0.7667
vn 0.0104 -0.8155 -0.5786
vn 0.6642 -0.6979 0.2679
vn 0.0247 -0.9966 0.0784
vn 0.5942 -0.6834 0.4241
vn 0.0278 -0.9773 0.2099
vn 0.4317 -0.4906 0.7569
vn 0.0271 -0.6120 0.7904
vn 0.4283 -0.7860 -0.4459
vn -0.0231 0.4002 -0.9161
vn 0.4201 0.3037 -0.8551
vn -0.4155 0.6513 -0.6350
vn -0.7379 0.6449 0.1992
vn -0.3959 0.6409 -0.6577
vn 0.0094 0.6134 0.7897
vn -0.6831 0.6091 0.4029
vn 0.6892 0.6142 0.3843
vn 0.6790 0.6107 -0.4073
vn -0.0121 0.6065 -0.7950
vn -0.0120 -0.0050 -0.9999
vn 0.8600 0.0019 -0.5103
vn 0.8726 0.0065 0.4884
vn 0.0151 0.0050 0.9999
vn -0.8589 -0.0015 0.5122
vn -0.8722 -0.0064 -0.4892
vn 0.0106 -0.8298 -0.5579
vn 0.5845 -0.7287 -0.3569
vn 0.0120 -0.8526 -0.5224
vn 0.3694 -0.0029 -0.9293
vn 0.0264 -0.5594 0.8285
vn -0.3815 -0.4773 0.7917
vn 0.0263 -0.5586 0.8290
vn -0.0274 0.9513 -0.3072
vn 0.4168 0.4010 -0.8158
vn -0.0250 0.5068 -0.8617
vn -0.0248 0.9826 -0.1838
vn 0.6242 0.6435 -0.4430
vn 0.6892 0.6683 -0.2800
vn -0.7366 0.6543 0.1714
vn -0.3693 0.0028 0.9293
vn 0.0243 -0.9758 0.2171
vn -0.9283 -0.0062 -0.3718
vn 0.6513 -0.7422 0.1583
vn 0.0056 -0.9759 0.2180
vn -0.0005 -0.9775 -0.2110
vn 0.6468 -0.7437 -0.1693
vn 0.2505 -0.8048 -0.5380
vn 0.9283 0.0062 0.3718
vn 0.2005 0.6499 0.7331
vn 0.3173 0.6836 0.6573
vn 0.7325 -0.6751 0.0879
vn 0.6563 0.6247 0.4232
vn 0.6700 -0.7373 0.0860
vn 0.4513 0.3460 0.8226
vn 0.4254 -0.7694 0.4766
vn -0.9824 -0.0037 0.1866
vn -0.7326 0.6628 -0.1552
vn -0.9789 -0.0056 -0.2045
vn -0.6182 0.6622 -0.4235
vn -0.8257 -0.0067 -0.5640
vn -0.4119 0.6609 -0.6273
vn -0.5483 -0.0067 -0.8363
vn -0.5482 -0.0067 -0.8363
vn -0.1415 0.6625 -0.7356
vn -0.1869 -0.0057 -0.9824
vn 0.1493 0.6640 -0.7327
vn 0.2029 -0.0039 -0.9792
vn 0.4168 0.6655 -0.6192
vn 0.5621 -0.0014 -0.8271
vn 0.6205 0.6682 -0.4105
vn 0.8364 0.0012 -0.5481
vn 0.9825 0.0037 -0.1862
vn 0.7293 0.6695 -0.1414
vn 0.9788 0.0056 0.2047
vn 0.7265 0.6707 0.1498
vn 0.8259 0.0067 0.5637
vn 0.6123 0.6720 0.4166
vn 0.5482 0.0067 0.8363
vn 0.4057 0.6719 0.6196
vn 0.1877 0.0057 0.9822
vn 0.1374 0.6715 0.7282
vn -0.2024 0.0039 0.9793
vn -0.1529 0.6698 0.7266
vn -0.5618 0.0014 0.8273
vn -0.4205 0.6684 0.6135
vn -0.8357 -0.0012 0.5491
vn -0.6260 0.6649 0.4074
vn -0.7347 0.6645 0.1366
vn -0.3945 -0.0064 -0.9189
vn -0.7365 0.6619 -0.1397
vn -0.6275 0.6622 -0.4096
vn -0.4254 0.6609 -0.6183
vn -0.3749 0.7499 -0.5450
vn -0.1576 0.6625 -0.7323
vn 0.1329 0.6627 -0.7370
vn 0.4044 0.6637 -0.6293
vn 0.6106 0.6687 -0.4242
vn 0.7273 0.6677 -0.1587
vn 0.7295 0.6706 0.1346
vn 0.6209 0.6720 0.4037
vn 0.4195 0.6707 0.6117
vn 0.4197 0.6706 0.6116
vn 0.1530 0.6704 0.7260
vn -0.1369 0.6701 0.7296
vn -0.4069 0.6677 0.6234
vn -0.4070 0.6673 0.6237
vn -0.6170 0.6648 0.4212
vn -0.7316 0.6646 0.1518
vn 0.6934 -0.7112 -0.1162
vn -0.6317 -0.7494 0.1983
vn -0.6233 -0.6654 0.4108
vn -0.1927 -0.9654 -0.1759
vn 0.7383 -0.6662 -0.1056
vn 0.0183 -0.9775 -0.2102
vn 0.2067 -0.9688 -0.1369
vn -0.7190 -0.6724 -0.1756
vn 0.6171 -0.7425 0.2606
vn -0.6603 -0.7345 -0.1564
vn 0.6173 -0.6440 0.4518
vn 0.2547 -0.7373 0.6257
vn -0.4096 -0.7497 -0.5197
vn 0.0143 -0.8397 -0.5429
vn -0.2208 -0.7559 0.6164
vn 0.3945 0.0064 0.9189
vn -0.3783 0.6477 0.6614
vn -0.2840 0.5713 0.7701
vn -0.7036 -0.6847 0.1903
vn -0.7044 0.6119 0.3596
vn -0.6295 0.5965 0.4979
vn -0.6282 -0.7620 0.1571
vn -0.4256 0.2930 0.8562
vn -0.3764 -0.7984 0.4699
vn -0.4554 0.8463 -0.2764
vn -0.2194 0.8148 0.5366
vn -0.9188 -0.0024 0.3946
vn -0.1062 0.6692 0.7354
vn -0.3964 0.7221 0.5670
vn -0.2391 0.7986 0.5523
vn -0.2547 0.7944 -0.5515
vn -0.1274 0.6612 -0.7393
vn 0.9187 0.0024 -0.3950
vn 0.6617 0.6498 0.3741
vn -0.5166 -0.7492 -0.4147
vn -0.6438 -0.7389 0.1988
vn -0.6036 -0.6960 0.3890
vn -0.3831 -0.4981 0.7779
vn 0.4439 -0.4450 0.7778
vn 0.6065 -0.6717 0.4255
vn 0.6622 -0.6997 0.2683
vn 0.5659 -0.7236 -0.3952
vn 0.6663 -0.7395 -0.0960
vn 0.4296 0.3379 -0.8374
vn 0.6461 0.6202 -0.4450
vn 0.7300 -0.6760 -0.1005
vn 0.6992 0.6568 -0.2822
vn 0.3947 0.6510 0.6484
vn -0.3690 0.0028 0.9294
vn -0.3949 -0.0064 -0.9187
vn 0.3683 -0.0028 -0.9297
vn 0.7377 0.6494 0.1847
vn 0.3942 0.0064 0.9190
vn -0.0027 1.0000 -0.0036
vn 0.4205 0.6690 0.6129
vn 0.6230 0.6692 0.4050
vn 0.7317 0.6681 0.1351
vn -0.0026 1.0000 -0.0036
vn -0.0025 1.0000 -0.0035
vn 0.7281 0.6668 -0.1587
vn 0.6123 0.6666 -0.4252
vn -0.0028 1.0000 -0.0037
vn 0.4047 0.6643 -0.6285
vn 0.1329 0.6637 -0.7361
vn -0.1575 0.6627 -0.7321
vn -0.0026 1.0000 -0.0037
vn -0.4244 0.6624 -0.6173
vn -0.6272 0.6625 -0.4094
vn -0.7355 0.6630 -0.1392
vn -0.7320 0.6641 0.1520
vn -0.6168 0.6648 0.4214
vn -0.4068 0.6670 0.6243
vn -0.1371 0.6678 0.7316
vn 0.1533 0.6689 0.7274
vn 0.7287 0.6682 0.1503
vn 0.7311 0.6674 -0.1414
vn 0.6222 0.6660 -0.4115
vn 0.4174 0.6646 -0.6197
vn 0.1493 0.6638 -0.7329
vn -0.4109 0.6625 -0.6263
vn -0.1414 0.6627 -0.7355
vn -0.6180 0.6625 -0.4233
vn -0.7326 0.6628 -0.1551
vn 0.4072 0.6691 0.6217
vn 0.6143 0.6691 0.4181
vn 0.1380 0.6688 0.7305
vn -0.7351 0.6640 0.1368
vn -0.6259 0.6650 0.4074
vn -0.4212 0.6668 0.6148
vn -0.1531 0.6676 0.7286
vn -0.5329 -0.7463 0.3988
vn 0.4149 -0.4421 -0.7952
vn -0.6841 0.6377 0.3541
vn -0.5958 0.6332 0.4940
vn -0.4124 0.3907 0.8230
vn -0.0098 0.8761 0.4820
vn 0.2802 0.7012 0.6556
vn -0.1284 0.7025 0.7000
vn -0.2888 0.7747 0.5626
vn -0.0125 0.6543 0.7562
vn 0.4115 -0.4958 -0.7647
vn 0.5835 -0.6864 -0.4340
vn 0.6569 -0.7006 -0.2787
vn 0.6004 -0.6929 0.3992
vn -0.3044 0.7697 -0.5611
vn -0.1479 0.6962 -0.7025
vn 0.2625 0.6950 -0.6693
vn -0.6588 -0.7254 0.1995
vn -0.5539 -0.7135 -0.4291
vn -0.6048 -0.6953 0.3884
vn -0.3866 -0.5241 0.7589
vn 0.0170 -0.8920 -0.4517
vn -0.5432 -0.7500 -0.3775
vn 0.4360 -0.4343 0.7882
vn -0.4341 0.3849 -0.8145
vn -0.6086 0.6290 -0.4838
vn -0.6928 0.6352 -0.3414
vn 0.0375 -0.9831 0.1789
vn -0.2216 -0.9645 -0.1437
vn 0.0326 -0.9845 -0.1725
vn -0.2401 -0.8198 -0.5199
vn 0.4241 -0.7370 -0.5263
vn -0.3942 0.8808 -0.2623
vn -0.6462 0.4341 -0.6277
vn -0.5204 0.8342 -0.1826
vn 0.0167 -0.9774 -0.2108
vn 0.0228 -0.9757 0.2178
vn -0.6465 -0.2518 0.7202
vn 0.9147 0.4033 -0.0261
vn 0.7160 0.0248 0.6977
vn 0.1626 0.9845 -0.0662
vn -0.0164 0.0080 -0.9998
vn 0.9152 0.4031 0.0003
vn 0.5948 -0.6757 -0.4355
vn 0.0266 -0.8472 0.5305
vn -0.6126 -0.6995 -0.3680
vn 0.5889 0.6293 0.5071
vn 0.4400 -0.7816 0.4422
vn -0.0014 0.5136 0.8581
vn -0.6254 0.3533 0.6957
vn -0.5424 -0.7106 0.4482
vn -0.3700 0.7172 -0.5905
vn -0.1423 0.6851 -0.7144
vn 0.5886 0.6219 0.5165
vn -0.3585 0.7549 0.5492
vn -0.5616 0.1335 -0.8166
vn -0.5407 0.1413 0.8293
vn 0.5390 0.1380 -0.8309
vn -0.3884 -0.8031 -0.4519
vn -0.2284 -0.8020 -0.5520
vn 0.5898 -0.6958 -0.4099
vn 0.6279 -0.4854 0.6083
vn 0.6120 -0.4901 -0.6207
vn 0.7058 0.6590 0.2598
vn -0.4116 0.6610 -0.6275
vn -0.4251 0.6609 -0.6185
vn 0.4044 0.6641 -0.6289
vn -0.2133 -0.7980 0.5636
vn 0.4122 -0.7737 -0.4811
vt 0.349325 0.362076
vt 0.362807 0.373807
vt 0.349349 0.389293
vt 0.083677 0.608801
vt 0.093448 0.526929
vt 0.094515 0.609499
vt 0.082496 0.691192
vt 0.093358 0.692272
vt 0.547319 0.092038
vt 0.537431 0.010117
vt 0.547829 0.008950
vt 0.072783 0.609043
vt 0.082820 0.527254
vt 0.072382 0.526708
vt 0.422117 0.940834
vt 0.437621 0.003453
vt 0.432561 0.941580
vt 0.448070 0.003442
vt 0.443010 0.941570
vt 0.458518 0.003424
vt 0.453458 0.941561
vt 0.104425 0.526759
vt 0.105391 0.609975
vt 0.104209 0.692575
vt 0.558674 0.007700
vt 0.569733 0.092276
vt 0.558520 0.091919
vt 0.566901 0.178231
vt 0.555699 0.177381
vt 0.553742 0.263021
vt 0.564943 0.263687
vt 0.564187 0.349959
vt 0.552899 0.349517
vt 0.369958 0.940024
vt 0.385421 0.003459
vt 0.380389 0.939991
vt 0.544512 0.176801
vt 0.542580 0.262291
vt 0.541586 0.349075
vt 0.537515 0.435045
vt 0.526574 0.434042
vt 0.530372 0.348573
vt 0.531435 0.262237
vt 0.533521 0.177029
vt 0.536129 0.092477
vt 0.548671 0.435497
vt 0.560039 0.435671
vt 0.544595 0.522815
vt 0.533373 0.521359
vt 0.522055 0.520656
vt 0.510661 0.519334
vt 0.515628 0.433538
vt 0.508385 0.347689
vt 0.519367 0.347496
vt 0.504855 0.432976
vt 0.497342 0.347314
vt 0.493921 0.432801
vt 0.486153 0.346802
vt 0.487042 0.260481
vt 0.498285 0.260793
vt 0.499230 0.519602
vt 0.487891 0.519147
vt 0.482892 0.432198
vt 0.476578 0.519230
vt 0.474923 0.346017
vt 0.471634 0.431641
vt 0.465366 0.518694
vt 0.478108 0.603624
vt 0.488809 0.604434
vt 0.499288 0.605399
vt 0.509686 0.606521
vt 0.520356 0.607288
vt 0.531402 0.608205
vt 0.542717 0.609164
vt 0.554018 0.609891
vt 0.467162 0.603097
vt 0.401237 0.940832
vt 0.395852 0.003424
vt 0.406293 0.003432
vt 0.018826 0.525937
vt 0.028665 0.609434
vt 0.017685 0.609841
vt 0.030265 0.692232
vt 0.019250 0.692575
vt 0.480619 0.088700
vt 0.495867 0.004925
vt 0.491766 0.089615
vt 0.479148 0.174244
vt 0.490407 0.174804
vt 0.475836 0.259659
vt 0.501502 0.175344
vt 0.502828 0.090721
vt 0.506841 0.007040
vt 0.041069 0.691128
vt 0.039665 0.608773
vt 0.029841 0.526296
vt 0.040835 0.526823
vt 0.050643 0.609038
vt 0.051479 0.690107
vt 0.517334 0.009077
vt 0.513837 0.092024
vt 0.512198 0.176503
vt 0.509355 0.261599
vt 0.051556 0.526483
vt 0.061742 0.608588
vt 0.061740 0.689022
vt 0.525056 0.091676
vt 0.522885 0.176633
vt 0.520491 0.261200
vt 0.527552 0.009664
vt 0.062027 0.526745
vt 0.427173 0.003455
vt 0.411677 0.940835
vt 0.416733 0.003445
vt 0.304069 0.095813
vt 0.309006 0.081753
vt 0.311602 0.109411
vt 0.303886 0.081983
vt 0.298850 0.055755
vt 0.282687 0.037680
vt 0.286120 0.029476
vt 0.188512 0.100987
vt 0.302307 0.096225
vt 0.090241 0.027984
vt 0.074612 0.043140
vt 0.088934 0.014625
vt 0.071336 0.069709
vt 0.066247 0.069348
vt 0.069329 0.084680
vt 0.063345 0.098397
vt 0.092085 0.028269
vt 0.194624 0.021046
vt 0.192963 0.034071
vt 0.316613 0.080231
vt 0.323593 0.122635
vt 0.305360 0.053138
vt 0.292722 0.020775
vt 0.196190 0.009086
vt 0.067485 0.039905
vt 0.084134 0.003424
vt 0.058980 0.067755
vt 0.048921 0.111464
vt 0.761971 0.528031
vt 0.738536 0.509780
vt 0.761971 0.504897
vt 0.641666 0.950662
vt 0.563546 0.931530
vt 0.642213 0.940327
vt 0.013665 0.476513
vt 0.140066 0.458090
vt 0.140156 0.477850
vt 0.019941 0.497454
vt 0.140429 0.498085
vt 0.029378 0.519089
vt 0.265354 0.457965
vt 0.313648 0.450818
vt 0.317892 0.457711
vt 0.039644 0.958052
vt 0.088182 0.976145
vt 0.042711 0.982005
vt 0.265734 0.448198
vt 0.306410 0.434483
vt 0.765017 0.528047
vt 0.776738 0.504913
vt 0.776738 0.528057
vt 0.348235 0.621861
vt 0.342912 0.615167
vt 0.347804 0.616875
vt 0.343934 0.624882
vt 0.339115 0.622862
vt 0.338477 0.617884
vt 0.330908 0.612653
vt 0.330909 0.627093
vt 0.343418 0.634121
vt 0.355899 0.627005
vt 0.355973 0.612681
vt 0.343329 0.606007
vt 0.348236 0.656822
vt 0.342911 0.650128
vt 0.347805 0.651837
vt 0.343936 0.659842
vt 0.339114 0.657822
vt 0.338474 0.652844
vt 0.330908 0.647614
vt 0.330908 0.662056
vt 0.343423 0.669080
vt 0.355899 0.661966
vt 0.355974 0.647645
vt 0.343330 0.640969
vt 0.348232 0.586924
vt 0.342926 0.580211
vt 0.347815 0.581924
vt 0.343935 0.589925
vt 0.339117 0.587898
vt 0.338480 0.582933
vt 0.330908 0.577715
vt 0.330908 0.592120
vt 0.343406 0.599159
vt 0.355874 0.592100
vt 0.355991 0.577743
vt 0.343356 0.571051
vt 0.358406 0.341607
vt 0.330912 0.336599
vt 0.358406 0.336573
vt 0.330908 0.512580
vt 0.355504 0.517046
vt 0.330908 0.517062
vt 0.355573 0.445523
vt 0.330908 0.441051
vt 0.355574 0.441034
vt 0.330908 0.476822
vt 0.355572 0.481316
vt 0.330908 0.481323
vt 0.348334 0.421966
vt 0.343713 0.396141
vt 0.348416 0.396141
vt 0.358959 0.297203
vt 0.330908 0.302199
vt 0.330931 0.297101
vt 0.344399 0.389293
vt 0.344367 0.362074
vt 0.308494 0.417543
vt 0.316115 0.378329
vt 0.316614 0.428397
vt 0.323459 0.372038
vt 0.324060 0.435220
vt 0.151869 0.952207
vt 0.148801 0.976160
vt 0.358073 0.175638
vt 0.352957 0.138743
vt 0.363110 0.128086
vt 0.141530 0.425816
vt 0.029978 0.409703
vt 0.141460 0.410359
vt 0.178623 0.755547
vt 0.052565 0.734476
vt 0.179071 0.735625
vt 0.178208 0.778923
vt 0.043452 0.754128
vt 0.177880 0.797982
vt 0.035857 0.777399
vt 0.141485 0.379206
vt 0.267050 0.395723
vt 0.141168 0.395103
vt 0.003424 0.414145
vt 0.030434 0.395157
vt 0.746651 0.669094
vt 0.751864 0.701091
vt 0.734402 0.691544
vt 0.488370 0.734377
vt 0.510702 0.753178
vt 0.488337 0.753178
vt 0.567259 0.730728
vt 0.568220 0.715106
vt 0.569954 0.728645
vt 0.541207 0.710272
vt 0.534914 0.730729
vt 0.531381 0.727806
vt 0.533594 0.714218
vt 0.560826 0.710939
vt 0.563714 0.757809
vt 0.610948 0.178169
vt 0.629177 0.184407
vt 0.611907 0.183850
vt 0.594278 0.183344
vt 0.597141 0.188263
vt 0.687287 0.622421
vt 0.701759 0.630763
vt 0.687400 0.628812
vt 0.609924 0.621639
vt 0.609654 0.628252
vt 0.592098 0.624533
vt 0.594374 0.629732
vt 0.137487 0.696060
vt 0.136774 0.678749
vt 0.142529 0.679682
vt 0.143684 0.661553
vt 0.137018 0.661880
vt 0.708814 0.179434
vt 0.629762 0.177407
vt 0.709212 0.185931
vt 0.726521 0.180581
vt 0.725621 0.186255
vt 0.742535 0.185537
vt 0.739662 0.190404
vt 0.593358 0.414426
vt 0.609650 0.406175
vt 0.609407 0.413029
vt 0.690332 0.407738
vt 0.690437 0.414342
vt 0.707915 0.411349
vt 0.705350 0.416551
vt 0.139235 0.562177
vt 0.139752 0.544019
vt 0.145063 0.561195
vt 0.138636 0.579797
vt 0.145798 0.580470
vt 0.153170 0.661680
vt 0.155836 0.580325
vt 0.154276 0.559486
vt 0.148836 0.539653
vt 0.691012 0.398262
vt 0.711842 0.402213
vt 0.609044 0.396164
vt 0.591025 0.408962
vt 0.587463 0.399532
vt 0.746716 0.177036
vt 0.728145 0.171974
vt 0.709013 0.170189
vt 0.629674 0.167648
vt 0.715117 0.224172
vt 0.738336 0.225741
vt 0.322530 0.548770
vt 0.324060 0.571863
vt 0.315102 0.683741
vt 0.588607 0.615491
vt 0.600170 0.440535
vt 0.609205 0.612054
vt 0.687808 0.613343
vt 0.709412 0.446209
vt 0.707838 0.616934
vt 0.731688 0.447486
vt 0.609308 0.169136
vt 0.576802 0.007541
vt 0.599093 0.004906
vt 0.621622 0.003424
vt 0.730739 0.012267
vt 0.752451 0.014030
vt 0.773544 0.016694
vt 0.601211 0.217027
vt 0.589959 0.174456
vt 0.704162 0.625759
vt 0.151340 0.681326
vt 0.146216 0.700365
vt 0.313324 0.706001
vt 0.310620 0.727628
vt 0.346551 0.322972
vt 0.267821 0.375839
vt 0.142007 0.362827
vt 0.268209 0.359796
vt 0.142899 0.346495
vt 0.269190 0.350249
vt 0.197341 0.958050
vt 0.194274 0.982005
vt 0.770370 0.678277
vt 0.748222 0.666170
vt 0.776497 0.667057
vt 0.754349 0.654951
vt 0.346562 0.355226
vt 0.330908 0.341617
vt 0.727421 0.835646
vt 0.776516 0.836522
vt 0.775999 0.852109
vt 0.825685 0.841187
vt 0.824991 0.858721
vt 0.869769 0.861356
vt 0.178298 0.804830
vt 0.320272 0.824717
vt 0.178100 0.823815
vt 0.308899 0.848013
vt 0.177841 0.847090
vt 0.299213 0.868128
vt 0.177750 0.866962
vt 0.577528 0.826942
vt 0.652227 0.835637
vt 0.576802 0.836731
vt 0.355399 0.688080
vt 0.330908 0.692505
vt 0.330908 0.688040
vt 0.348236 0.551967
vt 0.342925 0.545253
vt 0.347816 0.546967
vt 0.343938 0.554968
vt 0.339120 0.552940
vt 0.338481 0.547975
vt 0.330908 0.542755
vt 0.330908 0.557164
vt 0.343409 0.564203
vt 0.355879 0.557143
vt 0.355994 0.542788
vt 0.343357 0.536093
vt 0.182910 0.184623
vt 0.297234 0.199643
vt 0.182066 0.197959
vt 0.344858 0.675928
vt 0.184158 0.265316
vt 0.085091 0.252480
vt 0.183833 0.254499
vt 0.143036 0.306276
vt 0.033469 0.283272
vt 0.143523 0.285145
vt 0.142872 0.326624
vt 0.023744 0.304797
vt 0.017204 0.325666
vt 0.355399 0.692546
vt 0.344817 0.704663
vt 0.187726 0.114261
vt 0.341529 0.529245
vt 0.003424 0.121886
vt 0.048271 0.127023
vt 0.047759 0.149041
vt 0.003424 0.150920
vt 0.046911 0.164387
vt 0.341513 0.500383
vt 0.355504 0.512563
vt 0.765013 0.504908
vt 0.774175 0.484652
vt 0.768790 0.462864
vt 0.776050 0.462995
vt 0.776142 0.440535
vt 0.780714 0.440821
vt 0.724722 0.886714
vt 0.736093 0.868206
vt 0.736108 0.886711
vt 0.747495 0.868205
vt 0.747509 0.886710
vt 0.758897 0.868204
vt 0.758911 0.886710
vt 0.576802 0.886723
vt 0.588190 0.868272
vt 0.588182 0.886737
vt 0.599568 0.868285
vt 0.599560 0.886749
vt 0.610931 0.868293
vt 0.610922 0.886760
vt 0.622289 0.868301
vt 0.622278 0.886770
vt 0.633637 0.886777
vt 0.633648 0.868304
vt 0.645005 0.886779
vt 0.645010 0.868303
vt 0.656393 0.886776
vt 0.656393 0.868296
vt 0.667775 0.886767
vt 0.667768 0.868282
vt 0.679175 0.886756
vt 0.679165 0.868261
vt 0.690571 0.886746
vt 0.690560 0.868243
vt 0.701962 0.886731
vt 0.701951 0.868228
vt 0.713344 0.886720
vt 0.713330 0.868217
vt 0.724708 0.868210
vt 0.344914 0.428814
vt 0.121417 0.581758
vt 0.117187 0.568800
vt 0.112239 0.555051
vt 0.134706 0.546946
vt 0.690525 0.431033
vt 0.611711 0.429870
vt 0.599285 0.433687
vt 0.722172 0.207047
vt 0.708804 0.202943
vt 0.631084 0.201189
vt 0.618376 0.205361
vt 0.605046 0.210179
vt 0.699459 0.647237
vt 0.687614 0.644807
vt 0.611985 0.644382
vt 0.600163 0.648103
vt 0.112239 0.687803
vt 0.115416 0.675248
vt 0.119574 0.661508
vt 0.060601 0.238703
vt 0.061064 0.208850
vt 0.068006 0.235865
vt 0.060337 0.179544
vt 0.053570 0.209983
vt 0.183755 0.167045
vt 0.307002 0.186520
vt 0.310844 0.216097
vt 0.303295 0.214156
vt 0.297627 0.242344
vt 0.291349 0.239213
vt 0.276079 0.264608
vt 0.281902 0.274003
vt 0.184189 0.276168
vt 0.080902 0.265692
vt 0.344932 0.457758
vt 0.330908 0.445540
vt 0.872235 0.934989
vt 0.823671 0.949861
vt 0.825370 0.931530
vt 0.773615 0.931628
vt 0.771946 0.947880
vt 0.720968 0.942020
vt 0.720386 0.952325
vt 0.308175 0.389337
vt 0.267306 0.412082
vt 0.341536 0.493535
vt 0.516031 0.710272
vt 0.510737 0.734376
vt 0.507619 0.711938
vt 0.491501 0.711939
vt 0.483071 0.710272
vt 0.341535 0.464606
vt 0.355573 0.476821
vt 0.065143 0.193841
vt 0.066225 0.208804
vt 0.072644 0.233595
vt 0.083253 0.252643
vt 0.273712 0.255695
vt 0.287679 0.236885
vt 0.298178 0.213693
vt 0.298958 0.200120
vt 0.816144 0.689554
vt 0.837618 0.701091
vt 0.812521 0.696565
vt 0.794541 0.680104
vt 0.790513 0.688028
vt 0.330908 0.373835
vt 0.343642 0.421947
vt 0.330908 0.407235
vt 0.343087 0.283272
vt 0.361167 0.407339
vt 0.358958 0.302287
vt 0.343003 0.316124
vt 0.640467 0.745726
vt 0.594112 0.798375
vt 0.587438 0.791531
vt 0.583643 0.782111
vt 0.639955 0.744458
vt 0.640197 0.724773
vt 0.584826 0.685545
vt 0.640739 0.723528
vt 0.588851 0.676274
vt 0.641627 0.722659
vt 0.595689 0.669582
vt 0.605112 0.665847
vt 0.642890 0.722158
vt 0.701778 0.667211
vt 0.662606 0.722437
vt 0.663854 0.722974
vt 0.711068 0.671211
vt 0.664728 0.723871
vt 0.717779 0.678094
vt 0.721536 0.687474
vt 0.665233 0.725130
vt 0.664992 0.744822
vt 0.720353 0.784040
vt 0.664459 0.746068
vt 0.716368 0.793351
vt 0.709490 0.800003
vt 0.663567 0.746930
vt 0.700107 0.803739
vt 0.662306 0.747432
vt 0.603438 0.802373
vt 0.642590 0.747153
vt 0.641335 0.746615
vt 0.499202 0.665489
vt 0.489671 0.684623
vt 0.483072 0.668679
vt 0.499201 0.654643
vt 0.483071 0.651424
vt 0.489696 0.635498
vt 0.503362 0.644630
vt 0.501936 0.623334
vt 0.511058 0.636980
vt 0.521102 0.632832
vt 0.535190 0.616775
vt 0.531969 0.632854
vt 0.517907 0.616739
vt 0.542004 0.637013
vt 0.551148 0.623390
vt 0.549692 0.644686
vt 0.563373 0.635594
vt 0.511046 0.683186
vt 0.517863 0.703424
vt 0.501914 0.696819
vt 0.503348 0.675515
vt 0.541984 0.683219
vt 0.535144 0.703424
vt 0.531942 0.687348
vt 0.521075 0.687344
vt 0.553832 0.654712
vt 0.569954 0.651537
vt 0.553826 0.665549
vt 0.569936 0.668769
vt 0.563304 0.684666
vt 0.549656 0.675552
vt 0.551105 0.696854
vt 0.071111 0.085113
vt 0.281913 0.036912
vt 0.261612 0.477184
vt 0.252769 0.497308
vt 0.243650 0.518323
vt 0.140872 0.441625
vt 0.011008 0.455940
vt 0.011984 0.439313
vt 0.021970 0.424174
vt 0.268211 0.432106
vt 0.299288 0.734476
vt 0.308962 0.754677
vt 0.320332 0.778156
vt 0.324060 0.797184
vt 0.022162 0.379296
vt 0.013255 0.362688
vt 0.014294 0.346218
vt 0.036901 0.825254
vt 0.035141 0.806600
vt 0.044407 0.848499
vt 0.053439 0.868128
vt 0.653001 0.825846
vt 0.066930 0.193534
vt 0.272833 0.256388
vt 0.248482 0.288518
vt 0.257234 0.309905
vt 0.265764 0.330432
vt 0.323731 0.137030
vt 0.350065 0.162689
vt 0.322086 0.159709
vt 0.319706 0.173283
vt 0.075147 0.276424
vt 0.315577 0.360974
vt 0.320219 0.354617
vt 0.307330 0.376289
vt 0.185462 0.149709
vt 0.186312 0.131885
vt 0.071915 0.690136
vt 0.569954 0.007141
vt 0.374991 0.003504
vt 0.555902 0.523480
vt 0.390819 0.939964
vt 0.484814 0.003424
vt 0.294981 0.057783
vt 0.188900 0.086228
vt 0.079072 0.045656
vt 0.738536 0.528019
vt 0.563000 0.941875
vt 0.141024 0.519089
vt 0.085115 0.952192
vt 0.034026 0.796207
vt 0.004217 0.388982
vt 0.768797 0.681202
vt 0.538431 0.757809
vt 0.132491 0.693140
vt 0.319844 0.525937
vt 0.576802 0.442012
vt 0.576802 0.218306
vt 0.728158 0.825846
vt 0.870034 0.836125
vt 0.324060 0.805684
vt 0.004575 0.107901
vt 0.003473 0.164601
vt 0.766014 0.484409
vt 0.576809 0.868259
vt 0.702814 0.433687
vt 0.734435 0.210179
vt 0.869010 0.961266
vt 0.839714 0.696583
s 1
usemtl matPoste
f 1/1/1 2/2/2 3/3/3
f 4/4/4 5/5/5 6/6/6
f 7/7/7 6/6/6 8/8/8
f 9/9/9 10/10/10 11/11/11
f 7/7/7 12/12/12 4/4/4
f 13/13/13 12/12/12 14/14/14
f 15/15/15 16/16/16 17/17/17
f 17/17/17 18/18/18 19/19/19
f 19/19/19 20/20/20 21/21/21
f 6/6/6 22/22/22 23/23/23
f 8/8/8 23/23/23 24/24/24
f 25/25/25 26/26/26 27/27/27
f 27/27/27 28/28/28 29/29/29
f 30/30/30 28/28/28 31/31/31
f 30/30/30 32/32/32 33/33/33
f 34/34/34 35/35/35 36/36/36
f 11/11/11 27/27/27 9/9/9
f 9/9/9 29/29/29 37/37/37
f 38/38/38 29/29/29 30/30/30
f 38/38/38 33/33/33 39/39/39
f 33/33/33 40/40/40 39/39/39
f 39/39/39 41/41/41 42/42/42
f 39/39/39 43/43/43 38/38/38
f 38/38/38 44/44/44 37/37/37
f 37/37/37 45/45/45 9/9/9
f 32/32/32 46/46/46 33/33/33
f 47/47/47 48/48/48 46/46/46
f 46/46/46 49/49/49 40/40/40
f 40/40/40 50/50/50 41/41/41
f 41/41/41 51/51/51 52/52/52
f 52/52/52 42/42/42 41/41/41
f 52/52/52 53/53/53 54/54/54
f 55/55/55 56/56/56 53/53/53
f 57/57/57 58/58/58 56/56/56
f 56/56/56 59/59/59 60/60/60
f 55/55/55 51/51/51 61/61/61
f 57/57/57 61/61/61 62/62/62
f 63/63/63 62/62/62 64/64/64
f 63/63/63 65/65/65 58/58/58
f 66/66/66 64/64/64 67/67/67
f 68/68/68 62/62/62 69/69/69
f 69/69/69 61/61/61 70/70/70
f 70/70/70 51/51/51 71/71/71
f 51/51/51 72/72/72 71/71/71
f 50/50/50 73/73/73 72/72/72
f 49/49/49 74/74/74 73/73/73
f 48/48/48 75/75/75 74/74/74
f 76/76/76 64/64/64 68/68/68
f 77/77/77 78/78/78 79/79/79
f 78/78/78 36/36/36 35/35/35
f 80/80/80 81/81/81 82/82/82
f 82/82/82 83/83/83 84/84/84
f 85/85/85 86/86/86 87/87/87
f 88/88/88 87/87/87 89/89/89
f 88/88/88 59/59/59 90/90/90
f 65/65/65 59/59/59 58/58/58
f 60/60/60 89/89/89 91/91/91
f 92/92/92 89/89/89 87/87/87
f 93/93/93 87/87/87 86/86/86
f 94/94/94 81/81/81 95/95/95
f 95/95/95 96/96/96 97/97/97
f 94/94/94 98/98/98 99/99/99
f 92/92/92 100/100/100 101/101/101
f 91/91/91 101/101/101 102/102/102
f 60/60/60 102/102/102 103/103/103
f 56/56/56 103/103/103 53/53/53
f 97/97/97 98/98/98 95/95/95
f 104/104/104 105/105/105 98/98/98
f 98/98/98 106/106/106 99/99/99
f 100/100/100 107/107/107 101/101/101
f 101/101/101 108/108/108 102/102/102
f 102/102/102 109/109/109 103/103/103
f 103/103/103 54/54/54 53/53/53
f 43/43/43 54/54/54 109/109/109
f 44/44/44 109/109/109 108/108/108
f 45/45/45 108/108/108 107/107/107
f 10/10/10 107/107/107 110/110/110
f 12/12/12 106/106/106 105/105/105
f 14/14/14 105/105/105 111/111/111
f 112/112/112 113/113/113 114/114/114
f 114/114/114 77/77/77 79/79/79
f 115/115/115 116/116/116 117/117/117
f 118/118/118 119/119/119 116/116/116
f 119/119/119 120/120/120 121/121/121
f 122/122/122 123/123/123 117/117/117
f 124/124/124 125/125/125 126/126/126
f 125/125/125 127/127/127 128/128/128
f 128/128/128 129/129/129 130/130/130
f 131/131/131 132/132/132 133/133/133
f 117/117/117 134/134/134 135/135/135
f 116/116/116 136/136/136 134/134/134
f 136/136/136 121/121/121 137/137/137
f 126/126/126 138/138/138 132/132/132
f 126/126/126 139/139/139 140/140/140
f 139/139/139 128/128/128 141/141/141
f 141/141/141 130/130/130 142/142/142
f 143/143/143 144/144/144 145/145/145
f 146/146/146 147/147/147 148/148/148
f 149/149/149 150/150/150 151/151/151
f 152/152/152 151/151/151 153/153/153
f 153/153/153 154/154/154 152/152/152
f 155/155/155 156/156/156 157/157/157
f 158/158/158 159/159/159 160/160/160
f 161/161/161 162/162/162 156/156/156
f 145/145/145 163/163/163 143/143/143
f 163/163/163 164/164/164 165/165/165
f 166/166/166 167/167/167 168/168/168
f 166/166/166 169/169/169 170/170/170
f 167/167/167 170/170/170 171/171/171
f 172/172/172 170/170/170 173/173/173
f 174/174/174 170/170/170 169/169/169
f 175/175/175 169/169/169 166/166/166
f 176/176/176 166/166/166 168/168/168
f 176/176/176 167/167/167 177/177/177
f 177/177/177 171/171/171 172/172/172
f 178/178/178 179/179/179 180/180/180
f 178/178/178 181/181/181 182/182/182
f 179/179/179 182/182/182 183/183/183
f 184/184/184 182/182/182 185/185/185
f 186/186/186 182/182/182 181/181/181
f 187/187/175 181/181/181 178/178/178
f 188/188/187 178/178/178 180/180/180
f 188/188/187 179/179/179 189/189/188
f 189/189/188 183/183/183 184/184/184
f 190/190/189 191/191/190 192/192/191
f 190/190/189 193/193/192 194/194/193
f 191/191/190 194/194/193 195/195/194
f 196/196/195 194/194/193 197/197/196
f 198/198/197 194/194/193 193/193/192
f 199/199/198 193/193/192 190/190/189
f 200/200/199 190/190/189 192/192/191
f 200/200/199 191/191/190 201/201/200
f 201/201/200 195/195/194 196/196/195
f 202/202/201 203/203/202 204/204/203
f 205/205/204 206/206/205 207/207/206
f 208/208/207 209/209/208 210/210/209
f 211/211/210 212/212/211 213/213/212
f 214/214/213 215/215/214 216/216/215
f 217/217/216 218/218/217 219/219/218
f 1/1/1 220/220/219 221/221/220
f 222/222/221 223/223/222 224/224/223
f 224/224/223 225/225/224 226/226/225
f 159/159/159 227/227/226 228/228/227
f 229/229/228 230/230/229 231/231/230
f 232/232/231 233/233/232 234/234/233
f 235/235/234 236/236/235 237/237/236
f 238/238/237 239/239/238 235/235/234
f 240/240/239 241/241/240 238/238/237
f 242/242/241 243/243/242 244/244/243
f 245/245/244 246/246/245 233/233/232
f 247/247/246 248/248/247 249/249/248
f 250/250/249 251/251/250 252/252/251
f 253/253/252 254/254/253 255/255/254
f 256/256/255 257/257/256 258/258/257
f 258/258/257 259/259/258 256/256/255
f 260/260/259 253/253/252 256/256/255
f 261/261/260 257/257/256 253/253/252
f 262/262/261 263/263/262 264/264/263
f 265/265/264 264/264/263 266/266/265
f 267/267/266 268/268/267 269/269/268
f 270/270/269 269/269/268 271/271/270
f 272/272/271 271/271/270 273/273/272
f 274/274/273 275/275/274 276/276/275
f 277/277/276 275/275/274 278/278/277
f 279/279/278 263/263/262 280/280/279
f 281/281/280 282/282/281 283/283/282
f 283/283/282 284/284/283 285/285/284
f 286/286/285 287/287/286 288/288/287
f 288/288/287 289/289/288 290/290/289
f 290/290/289 291/291/290 292/292/291
f 293/293/292 294/294/293 295/295/294
f 296/296/295 295/295/294 297/297/296
f 278/278/277 297/297/296 277/277/276
f 298/298/297 297/297/296 299/299/298
f 299/299/298 295/295/294 300/300/299
f 295/295/294 301/301/300 300/300/299
f 291/291/290 302/302/301 303/303/302
f 289/289/288 304/304/303 302/302/301
f 304/304/303 305/305/304 306/306/305
f 307/307/306 282/282/281 308/308/307
f 282/282/281 309/309/308 308/308/307
f 279/279/278 310/310/309 309/309/308
f 304/304/303 311/311/310 302/302/301
f 303/303/302 311/311/310 312/312/311
f 301/301/300 313/313/312 300/300/299
f 300/300/299 314/314/313 299/299/298
f 299/299/298 315/315/314 298/298/297
f 316/316/315 317/317/316 318/318/317
f 319/319/318 317/317/316 320/320/319
f 321/321/320 320/320/319 322/322/321
f 323/323/322 324/324/323 325/325/324
f 323/323/322 326/326/325 310/310/309
f 309/309/308 326/326/325 327/327/326
f 308/308/307 327/327/326 328/328/327
f 308/308/307 329/329/328 307/307/306
f 306/306/305 330/330/329 304/304/303
f 310/310/309 262/262/261 323/323/322
f 262/262/261 331/331/330 323/323/322
f 332/332/331 319/319/318 321/321/320
f 319/319/318 270/270/269 318/318/317
f 318/318/317 272/272/271 316/316/315
f 274/274/273 333/333/332 334/334/333
f 276/276/275 298/298/297 333/333/332
f 333/333/332 315/315/314 335/335/334
f 333/333/332 336/336/335 334/334/333
f 204/204/203 203/203/202 337/337/336
f 338/338/337 339/339/338 340/340/339
f 340/340/339 341/341/340 342/342/341
f 228/228/227 343/343/342 344/344/343
f 345/345/344 247/247/246 346/346/345
f 347/347/346 346/346/345 348/348/347
f 202/202/201 349/349/348 350/350/349
f 351/351/350 352/352/351 353/353/352
f 353/353/352 354/354/353 355/355/354
f 354/354/353 356/356/355 355/355/354
f 357/357/356 358/358/357 359/359/358
f 359/359/358 360/360/359 361/361/360
f 361/361/360 362/362/361 363/363/362
f 364/364/363 365/365/364 366/366/365
f 367/367/366 368/368/367 369/369/368
f 370/370/369 371/371/190 372/372/370
f 370/370/369 373/373/371 374/374/372
f 371/371/190 374/374/372 375/375/373
f 376/376/374 374/374/372 377/377/375
f 378/378/376 374/374/372 373/373/371
f 379/379/377 373/373/371 370/370/369
f 380/380/378 370/370/369 372/372/370
f 380/380/378 371/371/190 381/381/379
f 381/381/379 375/375/373 376/376/374
f 382/382/380 383/383/381 384/384/382
f 367/367/366 369/369/368 385/385/383
f 386/386/384 387/387/385 388/388/386
f 389/389/387 390/390/388 391/391/389
f 392/392/390 393/393/391 389/389/387
f 341/341/340 394/394/392 392/392/390
f 395/395/393 396/396/394 368/368/367
f 397/397/395 117/117/117 135/135/135
f 207/207/206 206/206/205 398/398/396
f 399/399/397 142/142/142 400/400/398
f 399/399/397 401/401/399 402/402/400
f 403/403/401 402/402/400 401/401/399
f 205/205/204 404/404/402 405/405/403
f 406/406/404 407/407/405 164/164/164
f 407/407/405 408/408/406 409/409/407
f 409/409/407 410/410/408 411/411/409
f 412/412/410 413/413/411 414/414/412
f 414/414/412 415/415/413 416/416/414
f 416/416/414 417/417/415 418/418/416
f 419/419/417 420/420/418 421/421/419
f 421/421/419 422/422/420 423/423/421
f 423/423/421 424/424/422 425/425/423
f 425/425/423 426/426/424 427/427/425
f 428/428/426 426/426/424 429/429/427
f 430/430/428 429/429/427 431/431/429
f 432/432/430 431/431/429 433/433/431
f 434/434/432 433/433/431 435/435/433
f 436/436/434 435/435/433 437/437/435
f 438/438/436 437/437/435 439/439/437
f 440/440/438 439/439/437 441/441/439
f 442/442/440 441/441/439 443/443/441
f 442/442/440 444/444/442 412/412/410
f 210/210/209 209/209/208 445/445/443
f 278/278/277 446/446/444 296/296/295
f 296/296/295 447/447/445 293/293/292
f 293/293/292 448/448/446 449/449/447
f 292/292/291 450/450/448 290/290/289
f 290/290/289 451/451/449 288/288/287
f 288/288/287 452/452/450 286/286/285
f 285/285/284 453/453/451 283/283/282
f 281/281/280 453/453/451 454/454/452
f 263/263/262 454/454/452 455/455/453
f 264/264/263 455/455/453 456/456/454
f 266/266/265 456/456/454 457/457/455
f 269/269/268 458/458/456 459/459/457
f 271/271/270 459/459/457 460/460/458
f 273/273/272 460/460/458 461/461/459
f 275/275/274 462/462/460 463/463/461
f 275/275/274 464/464/462 278/278/277
f 465/465/463 466/466/464 467/467/465
f 468/468/466 469/469/467 403/403/401
f 470/470/468 471/471/469 382/382/380
f 471/471/469 472/472/470 473/473/471
f 473/473/471 474/474/472 475/475/473
f 476/476/474 474/474/472 477/477/475
f 478/478/476 476/476/474 477/477/475
f 479/479/477 465/465/463 467/467/465
f 208/208/207 480/480/478 481/481/479
f 482/482/480 483/483/481 484/484/482
f 485/485/483 483/483/481 486/486/484
f 487/487/485 486/486/484 488/488/486
f 489/489/487 490/490/488 243/243/242
f 243/243/242 234/234/233 244/244/243
f 213/213/212 212/212/211 491/491/489
f 492/492/490 493/493/491 494/494/492
f 495/495/493 493/493/491 250/250/249
f 496/496/494 495/495/493 250/250/249
f 211/211/210 497/497/495 498/498/496
f 466/466/464 499/499/497 500/500/498
f 467/467/465 500/500/498 501/501/499
f 467/467/465 502/502/500 479/479/477
f 475/475/473 503/503/501 504/504/502
f 475/475/473 505/505/503 473/473/471
f 473/473/471 506/506/504 471/471/469
f 507/507/505 508/508/506 509/509/507
f 510/510/508 509/509/507 511/511/509
f 510/510/508 345/345/344 347/347/346
f 221/221/220 220/220/219 512/512/402
f 215/215/214 513/513/510 514/514/511
f 219/219/218 515/515/512 217/217/216
f 216/216/215 516/516/513 214/214/213
f 218/218/217 517/517/514 518/518/515
f 519/519/516 520/520/517 521/521/518
f 519/519/516 522/522/519 523/523/520
f 524/524/521 522/522/519 525/525/522
f 526/526/521 525/525/522 527/527/523
f 528/528/524 527/527/523 529/529/525
f 528/528/524 530/530/526 531/531/524
f 531/531/524 532/532/527 533/533/528
f 534/534/528 532/532/527 535/535/529
f 536/536/528 535/535/529 537/537/530
f 536/536/528 538/538/531 539/539/528
f 540/540/528 538/538/531 541/541/532
f 542/542/528 541/541/532 543/543/533
f 542/542/528 544/544/534 545/545/520
f 545/545/520 546/546/535 547/547/520
f 547/547/520 548/548/536 549/549/520
f 550/550/516 548/548/536 520/520/517
f 551/551/528 552/552/537 553/553/538
f 554/554/520 553/553/538 555/555/539
f 554/554/520 556/556/540 557/557/528
f 557/557/528 558/558/541 559/559/520
f 560/560/520 561/561/542 562/562/528
f 559/559/520 563/563/543 560/560/520
f 564/564/528 561/561/542 565/565/544
f 566/566/520 565/565/544 567/567/545
f 568/568/520 569/569/546 570/570/547
f 571/571/528 570/570/547 552/552/537
f 572/572/528 573/573/548 574/574/528
f 575/575/528 573/573/548 569/569/546
f 576/576/520 567/567/545 577/577/549
f 578/578/528 577/577/549 579/579/550
f 578/578/528 580/580/551 581/581/528
f 581/581/528 582/582/552 572/572/528
f 583/583/553 122/122/122 130/130/130
f 132/132/132 584/584/554 133/133/133
f 121/121/121 138/138/138 137/137/137
f 146/146/146 487/487/485 488/488/486
f 585/585/555 150/150/150 155/155/155
f 586/586/556 151/151/151 585/585/555
f 587/587/557 153/153/153 586/586/556
f 588/588/558 589/589/559 590/590/560
f 591/591/561 588/588/558 590/590/560
f 490/490/488 162/162/162 592/592/562
f 235/235/234 593/593/563 594/594/564
f 238/238/237 594/594/564 595/595/565
f 240/240/239 595/595/565 596/596/566
f 242/242/241 246/246/245 597/597/567
f 339/339/338 597/597/567 598/598/568
f 341/341/340 598/598/568 599/599/569
f 357/357/356 600/600/570 601/601/571
f 359/359/358 602/602/572 600/600/570
f 361/361/360 603/603/573 602/602/572
f 604/604/574 351/351/350 365/365/364
f 382/382/380 605/605/575 468/468/466
f 386/386/384 606/606/576 476/476/474
f 389/389/387 607/607/577 608/608/578
f 392/392/390 608/608/578 609/609/579
f 341/341/340 609/609/579 342/342/341
f 130/130/130 397/397/395 142/142/142
f 230/230/229 135/135/135 231/231/230
f 610/610/580 611/611/581 612/612/582
f 613/613/583 611/611/581 229/229/228
f 470/470/468 468/468/466 403/403/401
f 479/479/477 478/478/476 614/614/584
f 244/244/243 233/233/232 246/246/245
f 615/615/585 342/342/341 616/616/586
f 617/617/587 340/340/339 615/615/585
f 338/338/337 617/617/587 243/243/242
f 161/161/161 150/150/150 588/588/558
f 592/592/562 588/588/558 232/232/231
f 490/490/488 232/232/231 234/234/233
f 618/618/588 613/613/583 470/470/468
f 612/612/582 619/619/589 610/610/580
f 135/135/135 619/619/589 397/397/395
f 400/400/398 397/397/395 619/619/589
f 400/400/398 618/618/588 401/401/399
f 401/401/399 470/470/468 403/403/401
f 4/4/4 13/13/13 5/5/5
f 7/7/7 4/4/4 6/6/6
f 9/9/9 45/45/45 10/10/10
f 7/7/7 620/620/590 12/12/12
f 13/13/13 4/4/4 12/12/12
f 15/15/15 112/112/112 16/16/16
f 17/17/17 16/16/16 18/18/18
f 19/19/19 18/18/18 20/20/20
f 6/6/6 5/5/5 22/22/22
f 8/8/8 6/6/6 23/23/23
f 25/25/25 621/621/591 26/26/26
f 27/27/27 26/26/26 28/28/28
f 30/30/30 29/29/29 28/28/28
f 30/30/30 31/31/31 32/32/32
f 34/34/34 622/622/592 35/35/35
f 11/11/11 25/25/25 27/27/27
f 9/9/9 27/27/27 29/29/29
f 38/38/38 37/37/37 29/29/29
f 38/38/38 30/30/30 33/33/33
f 33/33/33 46/46/46 40/40/40
f 39/39/39 40/40/40 41/41/41
f 39/39/39 42/42/42 43/43/43
f 38/38/38 43/43/43 44/44/44
f 37/37/37 44/44/44 45/45/45
f 32/32/32 47/47/47 46/46/46
f 47/47/47 623/623/593 48/48/48
f 46/46/46 48/48/48 49/49/49
f 40/40/40 49/49/49 50/50/50
f 41/41/41 50/50/50 51/51/51
f 52/52/52 54/54/54 42/42/42
f 52/52/52 55/55/55 53/53/53
f 55/55/55 57/57/57 56/56/56
f 57/57/57 63/63/63 58/58/58
f 56/56/56 58/58/58 59/59/59
f 55/55/55 52/52/52 51/51/51
f 57/57/57 55/55/55 61/61/61
f 63/63/63 57/57/57 62/62/62
f 63/63/63 66/66/66 65/65/65
f 66/66/66 63/63/63 64/64/64
f 68/68/68 64/64/64 62/62/62
f 69/69/69 62/62/62 61/61/61
f 70/70/70 61/61/61 51/51/51
f 51/51/51 50/50/50 72/72/72
f 50/50/50 49/49/49 73/73/73
f 49/49/49 48/48/48 74/74/74
f 48/48/48 623/623/593 75/75/75
f 76/76/76 67/67/67 64/64/64
f 77/77/77 624/624/594 78/78/78
f 78/78/78 624/624/594 36/36/36
f 80/80/80 96/96/96 81/81/81
f 82/82/82 81/81/81 83/83/83
f 85/85/85 625/625/595 86/86/86
f 88/88/88 85/85/85 87/87/87
f 88/88/88 89/89/89 59/59/59
f 65/65/65 90/90/90 59/59/59
f 60/60/60 59/59/59 89/89/89
f 92/92/92 91/91/91 89/89/89
f 93/93/93 92/92/92 87/87/87
f 94/94/94 83/83/83 81/81/81
f 95/95/95 81/81/81 96/96/96
f 94/94/94 95/95/95 98/98/98
f 92/92/92 93/93/93 100/100/100
f 91/91/91 92/92/92 101/101/101
f 60/60/60 91/91/91 102/102/102
f 56/56/56 60/60/60 103/103/103
f 97/97/97 104/104/104 98/98/98
f 104/104/104 111/111/111 105/105/105
f 98/98/98 105/105/105 106/106/106
f 100/100/100 110/110/110 107/107/107
f 101/101/101 107/107/107 108/108/108
f 102/102/102 108/108/108 109/109/109
f 103/103/103 109/109/109 54/54/54
f 43/43/43 42/42/42 54/54/54
f 44/44/44 43/43/43 109/109/109
f 45/45/45 44/44/44 108/108/108
f 10/10/10 45/45/45 107/107/107
f 12/12/12 620/620/590 106/106/106
f 14/14/14 12/12/12 105/105/105
f 112/112/112 15/15/15 113/113/113
f 114/114/114 113/113/113 77/77/77
f 115/115/115 118/118/118 116/116/116
f 118/118/118 626/626/596 119/119/119
f 119/119/119 626/626/596 120/120/120
f 122/122/122 627/627/597 123/123/123
f 124/124/124 628/628/598 125/125/125
f 125/125/125 628/628/598 127/127/127
f 128/128/128 127/127/127 129/129/129
f 131/131/131 126/126/126 132/132/132
f 117/117/117 116/116/116 134/134/134
f 116/116/116 119/119/119 136/136/136
f 136/136/136 119/119/119 121/121/121
f 126/126/126 140/140/140 138/138/138
f 126/126/126 125/125/125 139/139/139
f 139/139/139 125/125/125 128/128/128
f 141/141/141 128/128/128 130/130/130
f 143/143/143 629/629/599 144/144/144
f 146/146/146 630/630/600 147/147/147
f 149/149/149 589/589/559 150/150/150
f 152/152/152 149/149/149 151/151/151
f 153/153/153 631/631/601 154/154/154
f 155/155/155 161/161/161 156/156/156
f 158/158/158 632/632/602 159/159/159
f 161/161/161 592/592/562 162/162/162
f 145/145/145 406/406/404 163/163/163
f 163/163/163 406/406/404 164/164/164
f 166/166/166 170/170/170 167/167/167
f 172/172/172 171/171/171 170/170/170
f 174/174/174 173/173/173 170/170/170
f 175/175/175 174/174/174 169/169/169
f 176/176/176 175/175/175 166/166/166
f 176/176/176 168/168/168 167/167/167
f 177/177/177 167/167/167 171/171/171
f 178/178/178 182/182/182 179/179/179
f 184/184/184 183/183/183 182/182/182
f 186/186/186 185/185/185 182/182/182
f 187/187/175 186/186/186 181/181/181
f 188/188/187 187/187/175 178/178/178
f 188/188/187 180/180/180 179/179/179
f 189/189/188 179/179/179 183/183/183
f 190/190/189 194/194/193 191/191/190
f 196/196/195 195/195/194 194/194/193
f 198/198/197 197/197/196 194/194/193
f 199/199/198 198/198/197 193/193/192
f 200/200/199 199/199/198 190/190/189
f 200/200/199 192/192/191 191/191/190
f 201/201/200 191/191/190 195/195/194
f 202/202/201 350/350/349 203/203/202
f 205/205/204 405/405/403 206/206/205
f 208/208/207 481/481/479 209/209/208
f 211/211/210 498/498/496 212/212/211
f 214/214/213 513/513/510 215/215/214
f 217/217/216 517/517/514 218/218/217
f 1/1/1 3/3/3 220/220/219
f 222/222/221 489/489/487 223/223/222
f 224/224/223 223/223/222 225/225/224
f 159/159/159 632/632/602 227/227/226
f 229/229/228 611/611/581 230/230/229
f 232/232/231 591/591/561 233/233/232
f 235/235/234 239/239/238 236/236/235
f 238/238/237 241/241/240 239/239/238
f 240/240/239 633/633/603 241/241/240
f 242/242/241 338/338/337 243/243/242
f 245/245/244 634/634/604 246/246/245
f 247/247/246 635/635/605 248/248/247
f 250/250/249 493/493/491 251/251/250
f 253/253/252 260/260/259 254/254/253
f 256/256/255 253/253/252 257/257/256
f 261/261/260 636/636/606 257/257/256
f 262/262/261 280/280/279 263/263/262
f 265/265/264 262/262/261 264/264/263
f 267/267/266 332/332/331 268/268/267
f 270/270/269 267/267/266 269/269/268
f 272/272/271 270/270/269 271/271/270
f 274/274/273 637/637/607 275/275/274
f 277/277/276 276/276/275 275/275/274
f 279/279/278 281/281/280 263/263/262
f 281/281/280 279/279/278 282/282/281
f 283/283/282 282/282/281 284/284/283
f 286/286/285 305/305/304 287/287/286
f 288/288/287 287/287/286 289/289/288
f 290/290/289 289/289/288 291/291/290
f 293/293/292 449/449/447 294/294/293
f 296/296/295 293/293/292 295/295/294
f 278/278/277 296/296/295 297/297/296
f 298/298/297 277/277/276 297/297/296
f 299/299/298 297/297/296 295/295/294
f 295/295/294 294/294/293 301/301/300
f 291/291/290 289/289/288 302/302/301
f 289/289/288 287/287/286 304/304/303
f 304/304/303 287/287/286 305/305/304
f 307/307/306 284/284/283 282/282/281
f 282/282/281 279/279/278 309/309/308
f 279/279/278 280/280/279 310/310/309
f 304/304/303 330/330/329 311/311/310
f 303/303/302 302/302/301 311/311/310
f 301/301/300 638/638/608 313/313/312
f 300/300/299 313/313/312 314/314/313
f 299/299/298 314/314/313 315/315/314
f 316/316/315 639/639/609 317/317/316
f 319/319/318 318/318/317 317/317/316
f 321/321/320 319/319/318 320/320/319
f 323/323/322 331/331/330 324/324/323
f 323/323/322 325/325/324 326/326/325
f 309/309/308 310/310/309 326/326/325
f 308/308/307 309/309/308 327/327/326
f 308/308/307 328/328/327 329/329/328
f 306/306/305 640/640/610 330/330/329
f 310/310/309 280/280/279 262/262/261
f 262/262/261 265/265/264 331/331/330
f 332/332/331 267/267/266 319/319/318
f 319/319/318 267/267/266 270/270/269
f 318/318/317 270/270/269 272/272/271
f 274/274/273 276/276/275 333/333/332
f 276/276/275 277/277/276 298/298/297
f 333/333/332 298/298/297 315/315/314
f 333/333/332 335/335/334 336/336/335
f 338/338/337 242/242/241 339/339/338
f 340/340/339 339/339/338 341/341/340
f 228/228/227 227/227/226 343/343/342
f 345/345/344 635/635/605 247/247/246
f 347/347/346 345/345/344 346/346/345
f 351/351/350 641/641/611 352/352/351
f 353/353/352 352/352/351 354/354/353
f 354/354/353 642/642/612 356/356/355
f 357/357/356 643/643/613 358/358/357
f 359/359/358 358/358/357 360/360/359
f 361/361/360 360/360/359 362/362/361
f 364/364/363 604/604/574 365/365/364
f 367/367/366 395/395/393 368/368/367
f 370/370/369 374/374/372 371/371/190
f 376/376/374 375/375/373 374/374/372
f 378/378/376 377/377/375 374/374/372
f 379/379/377 378/378/376 373/373/371
f 380/380/378 379/379/377 370/370/369
f 380/380/378 372/372/370 371/371/190
f 381/381/379 371/371/190 375/375/373
f 382/382/380 471/471/469 383/383/381
f 386/386/384 479/479/477 387/387/385
f 389/389/387 393/393/391 390/390/388
f 392/392/390 394/394/392 393/393/391
f 341/341/340 599/599/569 394/394/392
f 397/397/395 122/122/122 117/117/117
f 399/399/397 644/644/614 142/142/142
f 399/399/397 400/400/398 401/401/399
f 403/403/401 645/645/615 402/402/400
f 406/406/404 646/646/616 407/407/405
f 407/407/405 646/646/616 408/408/406
f 409/409/407 408/408/406 410/410/408
f 412/412/410 444/444/442 413/413/411
f 414/414/412 413/413/411 415/415/413
f 416/416/414 415/415/413 417/417/415
f 419/419/417 647/647/617 420/420/418
f 421/421/419 420/420/418 422/422/420
f 423/423/421 422/422/420 424/424/422
f 425/425/423 424/424/422 426/426/424
f 428/428/426 427/427/425 426/426/424
f 430/430/428 428/428/426 429/429/427
f 432/432/430 430/430/428 431/431/429
f 434/434/432 432/432/430 433/433/431
f 436/436/434 434/434/432 435/435/433
f 438/438/436 436/436/434 437/437/435
f 440/440/438 438/438/436 439/439/437
f 442/442/440 440/440/438 441/441/439
f 442/442/440 443/443/441 444/444/442
f 278/278/277 464/464/462 446/446/444
f 296/296/295 446/446/444 447/447/445
f 293/293/292 447/447/445 448/448/446
f 292/292/291 648/648/618 450/450/448
f 290/290/289 450/450/448 451/451/449
f 288/288/287 451/451/449 452/452/450
f 285/285/284 649/649/619 453/453/451
f 281/281/280 283/283/282 453/453/451
f 263/263/262 281/281/280 454/454/452
f 264/264/263 263/263/262 455/455/453
f 266/266/265 264/264/263 456/456/454
f 269/269/268 268/268/267 458/458/456
f 271/271/270 269/269/268 459/459/457
f 273/273/272 271/271/270 460/460/458
f 275/275/274 637/637/607 462/462/460
f 275/275/274 463/463/461 464/464/462
f 465/465/463 469/469/467 466/466/464
f 468/468/466 466/466/464 469/469/467
f 470/470/468 613/613/583 471/471/469
f 471/471/469 613/613/583 472/472/470
f 473/473/471 472/472/470 474/474/472
f 476/476/474 475/475/473 474/474/472
f 478/478/476 386/386/384 476/476/474
f 479/479/477 614/614/584 465/465/463
f 482/482/480 650/650/620 483/483/481
f 485/485/483 484/484/482 483/483/481
f 487/487/485 485/485/483 486/486/484
f 489/489/487 222/222/221 490/490/488
f 243/243/242 490/490/488 234/234/233
f 495/495/493 494/494/492 493/493/491
f 466/466/464 468/468/466 499/499/497
f 467/467/465 466/466/464 500/500/498
f 467/467/465 501/501/499 502/502/500
f 475/475/473 476/476/474 503/503/501
f 475/475/473 504/504/502 505/505/503
f 473/473/471 505/505/503 506/506/504
f 507/507/505 651/651/621 508/508/506
f 510/510/508 507/507/505 509/509/507
f 510/510/508 511/511/509 345/345/344
f 519/519/516 550/550/516 520/520/517
f 519/519/516 521/521/518 522/522/519
f 524/524/521 523/523/520 522/522/519
f 526/526/521 524/524/521 525/525/522
f 528/528/524 526/526/521 527/527/523
f 528/528/524 529/529/525 530/530/526
f 531/531/524 530/530/526 532/532/527
f 534/534/528 533/533/528 532/532/527
f 536/536/528 534/534/528 535/535/529
f 536/536/528 537/537/530 538/538/531
f 540/540/528 539/539/528 538/538/531
f 542/542/528 540/540/528 541/541/532
f 542/542/528 543/543/533 544/544/534
f 545/545/520 544/544/534 546/546/535
f 547/547/520 546/546/535 548/548/536
f 550/550/516 549/549/520 548/548/536
f 551/551/528 571/571/528 552/552/537
f 554/554/520 551/551/528 553/553/538
f 554/554/520 555/555/539 556/556/540
f 557/557/528 556/556/540 558/558/541
f 560/560/520 563/563/543 561/561/542
f 559/559/520 558/558/541 563/563/543
f 564/564/528 562/562/528 561/561/542
f 566/566/520 564/564/528 565/565/544
f 568/568/520 575/575/528 569/569/546
f 571/571/528 568/568/520 570/570/547
f 572/572/528 582/582/552 573/573/548
f 575/575/528 574/574/528 573/573/548
f 576/576/520 566/566/520 567/567/545
f 578/578/528 576/576/520 577/577/549
f 578/578/528 579/579/550 580/580/551
f 581/581/528 580/580/551 582/582/552
f 583/583/553 627/627/597 122/122/122
f 132/132/132 121/121/121 584/584/554
f 121/121/121 132/132/132 138/138/138
f 146/146/146 148/148/148 487/487/485
f 585/585/555 151/151/151 150/150/150
f 586/586/556 153/153/153 151/151/151
f 587/587/557 631/631/601 153/153/153
f 588/588/558 150/150/150 589/589/559
f 591/591/561 232/232/231 588/588/558
f 235/235/234 237/237/236 593/593/563
f 238/238/237 235/235/234 594/594/564
f 240/240/239 238/238/237 595/595/565
f 242/242/241 244/244/243 246/246/245
f 339/339/338 242/242/241 597/597/567
f 341/341/340 339/339/338 598/598/568
f 357/357/356 359/359/358 600/600/570
f 359/359/358 361/361/360 602/602/572
f 361/361/360 363/363/362 603/603/573
f 604/604/574 641/641/611 351/351/350
f 382/382/380 384/384/382 605/605/575
f 386/386/384 388/388/386 606/606/576
f 389/389/387 391/391/389 607/607/577
f 392/392/390 389/389/387 608/608/578
f 341/341/340 392/392/390 609/609/579
f 130/130/130 122/122/122 397/397/395
f 230/230/229 610/610/580 135/135/135
f 610/610/580 230/230/229 611/611/581
f 613/613/583 612/612/582 611/611/581
f 470/470/468 382/382/380 468/468/466
f 479/479/477 386/386/384 478/478/476
f 244/244/243 234/234/233 233/233/232
f 615/615/585 340/340/339 342/342/341
f 617/617/587 338/338/337 340/340/339
f 161/161/161 155/155/155 150/150/150
f 592/592/562 161/161/161 588/588/558
f 490/490/488 592/592/562 232/232/231
f 618/618/588 612/612/582 613/613/583
f 612/612/582 618/618/588 619/619/589
f 135/135/135 610/610/580 619/619/589
f 400/400/398 142/142/142 397/397/395
f 400/400/398 619/619/589 618/618/588
f 401/401/399 618/618/588 470/470/468
