# Blender 4.4.1
# www.blender.org
mtllib mat29Cores.mtl
o cilindro
v -2.500000 0.020000 -11.500000
v -2.500000 2.520000 -11.500000
v -2.365541 0.020000 -11.493961
v -2.365541 2.520000 -11.493961
v -2.232165 0.020000 -11.475894
v -2.232165 2.520000 -11.475894
v -2.100945 0.020000 -11.445944
v -2.100945 2.520000 -11.445944
v -1.972938 0.020000 -11.404352
v -1.972938 2.520000 -11.404352
v -1.849174 0.020000 -11.351454
v -1.849174 2.520000 -11.351454
v -1.730651 0.020000 -11.287673
v -1.730651 2.520000 -11.287673
v -1.618322 0.020000 -11.213526
v -1.618322 2.520000 -11.213526
v -1.513092 0.020000 -11.129607
v -1.513092 2.520000 -11.129607
v -1.415808 0.020000 -11.036594
v -1.415808 2.520000 -11.036594
v -1.327253 0.020000 -10.935235
v -1.327253 2.520000 -10.935235
v -1.248140 0.020000 -10.826345
v -1.248140 2.520000 -10.826345
v -1.179107 0.020000 -10.710803
v -1.179107 2.520000 -10.710803
v -1.120708 0.020000 -10.589538
v -1.120708 2.520000 -10.589538
v -1.073415 0.020000 -10.463526
v -1.073415 2.520000 -10.463526
v -1.037608 0.020000 -10.333781
v -1.037608 2.520000 -10.333781
v -1.013575 0.020000 -10.201350
v -1.013575 2.520000 -10.201350
v -1.001510 0.020000 -10.067297
v -1.001510 2.520000 -10.067297
v -1.001510 0.020000 -9.932703
v -1.001510 2.520000 -9.932703
v -1.013575 0.020000 -9.798650
v -1.013575 2.520000 -9.798650
v -1.037608 0.020000 -9.666219
v -1.037608 2.520000 -9.666219
v -1.073415 0.020000 -9.536474
v -1.073415 2.520000 -9.536474
v -1.120708 0.020000 -9.410462
v -1.120708 2.520000 -9.410462
v -1.179107 0.020000 -9.289197
v -1.179107 2.520000 -9.289197
v -1.248140 0.020000 -9.173655
v -1.248140 2.520000 -9.173655
v -1.327253 0.020000 -9.064765
v -1.327253 2.520000 -9.064765
v -1.415808 0.020000 -8.963406
v -1.415808 2.520000 -8.963406
v -1.513092 0.020000 -8.870393
v -1.513092 2.520000 -8.870393
v -1.618322 0.020000 -8.786474
v -1.618322 2.520000 -8.786474
v -1.730651 0.020000 -8.712327
v -1.730651 2.520000 -8.712327
v -1.849174 0.020000 -8.648546
v -1.849174 2.520000 -8.648546
v -1.972938 0.020000 -8.595648
v -1.972938 2.520000 -8.595648
v -2.100945 0.020000 -8.554056
v -2.100945 2.520000 -8.554056
v -2.232165 0.020000 -8.524106
v -2.232165 2.520000 -8.524106
v -2.365541 0.020000 -8.506039
v -2.365541 2.520000 -8.506039
v -2.500000 0.020000 -8.500000
v -2.500000 2.520000 -8.500000
v -2.634459 0.020000 -8.506039
v -2.634459 2.520000 -8.506039
v -2.767835 0.020000 -8.524106
v -2.767835 2.520000 -8.524106
v -2.899055 0.020000 -8.554056
v -2.899055 2.520000 -8.554056
v -3.027062 0.020000 -8.595648
v -3.027062 2.520000 -8.595648
v -3.150826 0.020000 -8.648546
v -3.150826 2.520000 -8.648546
v -3.269349 0.020000 -8.712327
v -3.269349 2.520000 -8.712327
v -3.381678 0.020000 -8.786474
v -3.381678 2.520000 -8.786474
v -3.486908 0.020000 -8.870393
v -3.486908 2.520000 -8.870393
v -3.584192 0.020000 -8.963406
v -3.584192 2.520000 -8.963406
v -3.672747 0.020000 -9.064765
v -3.672747 2.520000 -9.064765
v -3.751860 0.020000 -9.173655
v -3.751860 2.520000 -9.173655
v -3.820893 0.020000 -9.289197
v -3.820893 2.520000 -9.289197
v -3.879292 0.020000 -9.410462
v -3.879292 2.520000 -9.410462
v -3.926585 0.020000 -9.536474
v -3.926585 2.520000 -9.536474
v -3.962392 0.020000 -9.666219
v -3.962392 2.520000 -9.666219
v -3.986425 0.020000 -9.798650
v -3.986425 2.520000 -9.798650
v -3.998490 0.020000 -9.932703
v -3.998490 2.520000 -9.932703
v -3.998490 0.020000 -10.067297
v -3.998490 2.520000 -10.067297
v -3.986425 0.020000 -10.201350
v -3.986425 2.520000 -10.201350
v -3.962392 0.020000 -10.333781
v -3.962392 2.520000 -10.333781
v -3.926585 0.020000 -10.463526
v -3.926585 2.520000 -10.463526
v -3.879292 0.020000 -10.589538
v -3.879292 2.520000 -10.589538
v -3.820893 0.020000 -10.710803
v -3.820893 2.520000 -10.710803
v -3.751860 0.020000 -10.826345
v -3.751860 2.520000 -10.826345
v -3.672747 0.020000 -10.935235
v -3.672747 2.520000 -10.935235
v -3.584192 0.020000 -11.036594
v -3.584192 2.520000 -11.036594
v -3.486908 0.020000 -11.129607
v -3.486908 2.520000 -11.129607
v -3.381678 0.020000 -11.213526
v -3.381678 2.520000 -11.213526
v -3.269349 0.020000 -11.287673
v -3.269349 2.520000 -11.287673
v -3.150826 0.020000 -11.351454
v -3.150826 2.520000 -11.351454
v -3.027062 0.020000 -11.404352
v -3.027062 2.520000 -11.404352
v -2.899055 0.020000 -11.445944
v -2.899055 2.520000 -11.445944
v -2.767835 0.020000 -11.475894
v -2.767835 2.520000 -11.475894
v -2.634459 0.020000 -11.493961
v -2.634459 2.520000 -11.493961
vn -0.0000 -0.6971 -0.7169
vn -0.0000 0.6971 -0.7169
vn 0.0643 -0.6971 -0.7140
vn 0.0643 0.6971 -0.7140
vn 0.1280 -0.6971 -0.7054
vn 0.1280 0.6971 -0.7054
vn 0.1907 -0.6971 -0.6911
vn 0.1907 0.6971 -0.6911
vn 0.2519 -0.6971 -0.6712
vn 0.2519 0.6971 -0.6712
vn 0.3111 -0.6971 -0.6459
vn 0.3111 0.6971 -0.6459
vn 0.3677 -0.6971 -0.6154
vn 0.3677 0.6971 -0.6154
vn 0.4214 -0.6971 -0.5800
vn 0.4214 0.6971 -0.5800
vn 0.4717 -0.6971 -0.5399
vn 0.4717 0.6971 -0.5399
vn 0.5182 -0.6971 -0.4954
vn 0.5182 0.6971 -0.4954
vn 0.5605 -0.6972 -0.4470
vn 0.5605 0.6971 -0.4470
vn 0.5983 -0.6971 -0.3950
vn 0.5983 0.6971 -0.3950
vn 0.6313 -0.6972 -0.3397
vn 0.6313 0.6971 -0.3397
vn 0.6592 -0.6971 -0.2818
vn 0.6592 0.6971 -0.2818
vn 0.6818 -0.6971 -0.2215
vn 0.6818 0.6971 -0.2215
vn 0.6990 -0.6971 -0.1595
vn 0.6990 0.6971 -0.1595
vn 0.7104 -0.6971 -0.0962
vn 0.7104 0.6971 -0.0962
vn 0.7162 -0.6971 -0.0322
vn 0.7162 0.6971 -0.0322
vn 0.7162 -0.6971 0.0322
vn 0.7162 0.6971 0.0322
vn 0.7105 -0.6971 0.0962
vn 0.7104 0.6971 0.0962
vn 0.6990 -0.6971 0.1595
vn 0.6990 0.6971 0.1595
vn 0.6818 -0.6971 0.2215
vn 0.6818 0.6971 0.2215
vn 0.6592 -0.6971 0.2818
vn 0.6592 0.6971 0.2818
vn 0.6313 -0.6971 0.3397
vn 0.6313 0.6972 0.3397
vn 0.5983 -0.6971 0.3950
vn 0.5983 0.6971 0.3950
vn 0.5605 -0.6971 0.4470
vn 0.5605 0.6972 0.4470
vn 0.5182 -0.6971 0.4954
vn 0.5182 0.6971 0.4954
vn 0.4717 -0.6971 0.5399
vn 0.4717 0.6971 0.5399
vn 0.4214 -0.6971 0.5800
vn 0.4214 0.6971 0.5800
vn 0.3677 -0.6971 0.6154
vn 0.3677 0.6971 0.6154
vn 0.3111 -0.6971 0.6459
vn 0.3111 0.6971 0.6459
vn 0.2519 -0.6971 0.6712
vn 0.2519 0.6971 0.6712
vn 0.1907 -0.6971 0.6911
vn 0.1907 0.6971 0.6911
vn 0.1280 -0.6971 0.7054
vn 0.1280 0.6971 0.7054
vn 0.0643 -0.6971 0.7140
vn 0.0643 0.6971 0.7140
vn -0.0000 -0.6971 0.7170
vn -0.0000 0.6971 0.7169
vn -0.0643 -0.6971 0.7140
vn -0.0643 0.6971 0.7141
vn -0.1280 -0.6971 0.7054
vn -0.1280 0.6971 0.7054
vn -0.1907 -0.6971 0.6911
vn -0.1907 0.6971 0.6911
vn -0.2519 -0.6971 0.6712
vn -0.2519 0.6971 0.6712
vn -0.3111 -0.6971 0.6459
vn -0.3111 0.6971 0.6459
vn -0.3677 -0.6971 0.6154
vn -0.3677 0.6971 0.6154
vn -0.4214 -0.6971 0.5800
vn -0.4214 0.6971 0.5800
vn -0.4717 -0.6971 0.5399
vn -0.4717 0.6971 0.5399
vn -0.5182 -0.6971 0.4954
vn -0.5182 0.6971 0.4955
vn -0.5605 -0.6971 0.4470
vn -0.5605 0.6972 0.4470
vn -0.5983 -0.6971 0.3950
vn -0.5983 0.6971 0.3950
vn -0.6313 -0.6971 0.3397
vn -0.6313 0.6972 0.3397
vn -0.6592 -0.6971 0.2818
vn -0.6592 0.6971 0.2818
vn -0.6818 -0.6971 0.2215
vn -0.6818 0.6971 0.2215
vn -0.6990 -0.6971 0.1595
vn -0.6990 0.6971 0.1595
vn -0.7105 -0.6971 0.0962
vn -0.7104 0.6971 0.0962
vn -0.7162 -0.6971 0.0322
vn -0.7162 0.6971 0.0322
vn -0.7162 -0.6971 -0.0322
vn -0.7162 0.6971 -0.0322
vn -0.7104 -0.6971 -0.0962
vn -0.7104 0.6971 -0.0962
vn -0.6990 -0.6971 -0.1595
vn -0.6990 0.6971 -0.1595
vn -0.6818 -0.6971 -0.2215
vn -0.6818 0.6971 -0.2215
vn -0.6592 -0.6971 -0.2818
vn -0.6592 0.6971 -0.2818
vn -0.6313 -0.6972 -0.3397
vn -0.6313 0.6971 -0.3397
vn -0.5983 -0.6971 -0.3950
vn -0.5983 0.6971 -0.3950
vn -0.5605 -0.6972 -0.4470
vn -0.5605 0.6971 -0.4470
vn -0.5182 -0.6971 -0.4954
vn -0.5182 0.6971 -0.4954
vn -0.4717 -0.6971 -0.5399
vn -0.4717 0.6971 -0.5399
vn -0.4214 -0.6971 -0.5800
vn -0.4214 0.6971 -0.5800
vn -0.3677 -0.6971 -0.6154
vn -0.3677 0.6971 -0.6155
vn -0.3111 -0.6971 -0.6459
vn -0.3111 0.6971 -0.6459
vn -0.2519 -0.6971 -0.6712
vn -0.2519 0.6971 -0.6712
vn -0.1907 -0.6971 -0.6911
vn -0.1907 0.6971 -0.6911
vn -0.1280 -0.6971 -0.7054
vn -0.1280 0.6971 -0.7054
vn -0.0643 -0.6971 -0.7140
vn -0.0643 0.6971 -0.7140
vt 1.000000 1.000000
vt 0.985714 0.500000
vt 1.000000 0.500000
vt 0.985714 1.000000
vt 0.971429 0.500000
vt 0.971429 1.000000
vt 0.957143 0.500000
vt 0.957143 1.000000
vt 0.942857 0.500000
vt 0.942857 1.000000
vt 0.928571 0.500000
vt 0.928571 1.000000
vt 0.914286 0.500000
vt 0.914286 1.000000
vt 0.900000 0.500000
vt 0.900000 1.000000
vt 0.885714 0.500000
vt 0.885714 1.000000
vt 0.871428 0.500000
vt 0.871428 1.000000
vt 0.857143 0.500000
vt 0.857143 1.000000
vt 0.842857 0.500000
vt 0.842857 1.000000
vt 0.828571 0.500000
vt 0.828571 1.000000
vt 0.814285 0.500000
vt 0.814285 1.000000
vt 0.800000 0.500000
vt 0.800000 1.000000
vt 0.785714 0.500000
vt 0.785714 1.000000
vt 0.771428 0.500000
vt 0.771428 1.000000
vt 0.757142 0.500000
vt 0.757142 1.000000
vt 0.742857 0.500000
vt 0.742857 1.000000
vt 0.728571 0.500000
vt 0.728571 1.000000
vt 0.714285 0.500000
vt 0.714285 1.000000
vt 0.699999 0.500000
vt 0.699999 1.000000
vt 0.685714 0.500000
vt 0.685714 1.000000
vt 0.671428 0.500000
vt 0.671428 1.000000
vt 0.657142 0.500000
vt 0.657142 1.000000
vt 0.642856 0.500000
vt 0.642856 1.000000
vt 0.628571 0.500000
vt 0.628571 1.000000
vt 0.614285 0.500000
vt 0.614285 1.000000
vt 0.599999 0.500000
vt 0.599999 1.000000
vt 0.585713 0.500000
vt 0.585713 1.000000
vt 0.571428 0.500000
vt 0.571428 1.000000
vt 0.557142 0.500000
vt 0.557142 1.000000
vt 0.542856 0.500000
vt 0.542856 1.000000
vt 0.528570 0.500000
vt 0.528570 1.000000
vt 0.514285 0.500000
vt 0.514285 1.000000
vt 0.499999 0.500000
vt 0.499999 1.000000
vt 0.485713 0.500000
vt 0.485713 1.000000
vt 0.471428 0.500000
vt 0.471428 1.000000
vt 0.457142 0.500000
vt 0.457142 1.000000
vt 0.442856 0.500000
vt 0.442856 1.000000
vt 0.428570 0.500000
vt 0.428570 1.000000
vt 0.414285 0.500000
vt 0.414285 1.000000
vt 0.399999 0.500000
vt 0.399999 1.000000
vt 0.385713 0.500000
vt 0.385713 1.000000
vt 0.371428 0.500000
vt 0.371428 1.000000
vt 0.357142 0.500000
vt 0.357142 1.000000
vt 0.342856 0.500000
vt 0.342856 1.000000
vt 0.328570 0.500000
vt 0.328570 1.000000
vt 0.314285 0.500000
vt 0.314285 1.000000
vt 0.299999 0.500000
vt 0.299999 1.000000
vt 0.285713 0.500000
vt 0.285713 1.000000
vt 0.271428 0.500000
vt 0.271428 1.000000
vt 0.257142 0.500000
vt 0.257142 1.000000
vt 0.242856 0.500000
vt 0.242856 1.000000
vt 0.228570 0.500000
vt 0.228570 1.000000
vt 0.214285 0.500000
vt 0.214285 1.000000
vt 0.199999 0.500000
vt 0.199999 1.000000
vt 0.185713 0.500000
vt 0.185713 1.000000
vt 0.171428 0.500000
vt 0.171428 1.000000
vt 0.157142 0.500000
vt 0.157142 1.000000
vt 0.142856 0.500000
vt 0.142856 1.000000
vt 0.128570 0.500000
vt 0.128570 1.000000
vt 0.114285 0.500000
vt 0.114285 1.000000
vt 0.099999 0.500000
vt 0.099999 1.000000
vt 0.085713 0.500000
vt 0.085713 1.000000
vt 0.071428 0.500000
vt 0.071428 1.000000
vt 0.057142 0.500000
vt 0.057142 1.000000
vt 0.042856 0.500000
vt 0.042856 1.000000
vt 0.028570 0.500000
vt 0.062360 0.399638
vt 0.391068 0.055836
vt 0.461343 0.363728
vt 0.028570 1.000000
vt 0.014285 0.500000
vt 0.014285 1.000000
vt -0.000001 0.500000
vt 0.950298 0.382215
vt 0.592095 0.069263
vt 0.549702 0.382215
vt 0.292854 0.486143
vt 0.271513 0.489034
vt 0.250000 0.490000
vt 0.228487 0.489034
vt 0.207146 0.486143
vt 0.186151 0.481351
vt 0.165670 0.474696
vt 0.145868 0.466233
vt 0.126904 0.456028
vt 0.108932 0.444164
vt 0.092095 0.430737
vt 0.076529 0.415855
vt 0.049702 0.382215
vt 0.038657 0.363728
vt 0.029313 0.344326
vt 0.021746 0.324164
vt 0.016017 0.303405
vt 0.012172 0.282216
vt 0.010242 0.260768
vt 0.010242 0.239232
vt 0.012172 0.217784
vt 0.016017 0.196595
vt 0.021746 0.175836
vt 0.029313 0.155674
vt 0.038657 0.136272
vt 0.049702 0.117785
vt 0.062360 0.100362
vt 0.076529 0.084145
vt 0.092095 0.069263
vt 0.108932 0.055836
vt 0.126904 0.043972
vt 0.145868 0.033767
vt 0.165670 0.025304
vt 0.186151 0.018649
vt 0.207146 0.013857
vt 0.228487 0.010966
vt 0.250000 0.010000
vt 0.271513 0.010966
vt 0.292854 0.013857
vt 0.313849 0.018649
vt 0.334330 0.025304
vt 0.354132 0.033767
vt 0.373096 0.043972
vt 0.407905 0.069263
vt 0.423471 0.084145
vt 0.437640 0.100362
vt 0.450298 0.117785
vt 0.461343 0.136272
vt 0.470687 0.155674
vt 0.478254 0.175836
vt 0.483983 0.196595
vt 0.487828 0.217784
vt 0.489758 0.239232
vt 0.489758 0.260768
vt 0.487828 0.282216
vt 0.483983 0.303405
vt 0.478254 0.324164
vt 0.470687 0.344326
vt 0.450298 0.382215
vt 0.437640 0.399638
vt 0.423471 0.415855
vt 0.407905 0.430737
vt 0.391068 0.444164
vt 0.373096 0.456028
vt 0.354132 0.466233
vt 0.334330 0.474696
vt 0.313849 0.481351
vt -0.000001 1.000000
vt 0.728487 0.489034
vt 0.750000 0.490000
vt 0.771513 0.489034
vt 0.792854 0.486143
vt 0.813849 0.481351
vt 0.834330 0.474696
vt 0.854132 0.466233
vt 0.873096 0.456028
vt 0.891068 0.444164
vt 0.907905 0.430737
vt 0.923471 0.415855
vt 0.937640 0.399638
vt 0.961343 0.363728
vt 0.970687 0.344326
vt 0.978254 0.324164
vt 0.983983 0.303405
vt 0.987828 0.282216
vt 0.989758 0.260768
vt 0.989758 0.239232
vt 0.987828 0.217784
vt 0.983983 0.196595
vt 0.978254 0.175836
vt 0.970687 0.155674
vt 0.961343 0.136272
vt 0.950298 0.117785
vt 0.937640 0.100362
vt 0.923471 0.084145
vt 0.907905 0.069263
vt 0.891068 0.055836
vt 0.873096 0.043972
vt 0.854132 0.033767
vt 0.834330 0.025304
vt 0.813849 0.018649
vt 0.792854 0.013857
vt 0.771513 0.010966
vt 0.750000 0.010000
vt 0.728487 0.010966
vt 0.707146 0.013857
vt 0.686151 0.018649
vt 0.665670 0.025304
vt 0.645868 0.033767
vt 0.626904 0.043972
vt 0.608932 0.055836
vt 0.576529 0.084145
vt 0.562360 0.100362
vt 0.549702 0.117785
vt 0.538657 0.136272
vt 0.529313 0.155674
vt 0.521746 0.175836
vt 0.516017 0.196595
vt 0.512172 0.217784
vt 0.510242 0.239232
vt 0.510242 0.260768
vt 0.512172 0.282216
vt 0.516017 0.303405
vt 0.521746 0.324164
vt 0.529313 0.344326
vt 0.538657 0.363728
vt 0.562360 0.399638
vt 0.576529 0.415855
vt 0.592095 0.430737
vt 0.608932 0.444164
vt 0.626904 0.456028
vt 0.645868 0.466233
vt 0.665670 0.474696
vt 0.686151 0.481351
vt 0.707146 0.486143
s 1
usemtl matCorLatao
f 2/1/2 3/2/3 1/3/1
f 4/4/4 5/5/5 3/2/3
f 6/6/6 7/7/7 5/5/5
f 8/8/8 9/9/9 7/7/7
f 10/10/10 11/11/11 9/9/9
f 12/12/12 13/13/13 11/11/11
f 14/14/14 15/15/15 13/13/13
f 16/16/16 17/17/17 15/15/15
f 18/18/18 19/19/19 17/17/17
f 20/20/20 21/21/21 19/19/19
f 22/22/22 23/23/23 21/21/21
f 24/24/24 25/25/25 23/23/23
f 26/26/26 27/27/27 25/25/25
f 28/28/28 29/29/29 27/27/27
f 30/30/30 31/31/31 29/29/29
f 32/32/32 33/33/33 31/31/31
f 34/34/34 35/35/35 33/33/33
f 36/36/36 37/37/37 35/35/35
f 38/38/38 39/39/39 37/37/37
f 40/40/40 41/41/41 39/39/39
f 42/42/42 43/43/43 41/41/41
f 44/44/44 45/45/45 43/43/43
f 46/46/46 47/47/47 45/45/45
f 48/48/48 49/49/49 47/47/47
f 50/50/50 51/51/51 49/49/49
f 52/52/52 53/53/53 51/51/51
f 54/54/54 55/55/55 53/53/53
f 56/56/56 57/57/57 55/55/55
f 58/58/58 59/59/59 57/57/57
f 60/60/60 61/61/61 59/59/59
f 62/62/62 63/63/63 61/61/61
f 64/64/64 65/65/65 63/63/63
f 66/66/66 67/67/67 65/65/65
f 68/68/68 69/69/69 67/67/67
f 70/70/70 71/71/71 69/69/69
f 72/72/72 73/73/73 71/71/71
f 74/74/74 75/75/75 73/73/73
f 76/76/76 77/77/77 75/75/75
f 78/78/78 79/79/79 77/77/77
f 80/80/80 81/81/81 79/79/79
f 82/82/82 83/83/83 81/81/81
f 84/84/84 85/85/85 83/83/83
f 86/86/86 87/87/87 85/85/85
f 88/88/88 89/89/89 87/87/87
f 90/90/90 91/91/91 89/89/89
f 92/92/92 93/93/93 91/91/91
f 94/94/94 95/95/95 93/93/93
f 96/96/96 97/97/97 95/95/95
f 98/98/98 99/99/99 97/97/97
f 100/100/100 101/101/101 99/99/99
f 102/102/102 103/103/103 101/101/101
f 104/104/104 105/105/105 103/103/103
f 106/106/106 107/107/107 105/105/105
f 108/108/108 109/109/109 107/107/107
f 110/110/110 111/111/111 109/109/109
f 112/112/112 113/113/113 111/111/111
f 114/114/114 115/115/115 113/113/113
f 116/116/116 117/117/117 115/115/115
f 118/118/118 119/119/119 117/117/117
f 120/120/120 121/121/121 119/119/119
f 122/122/122 123/123/123 121/121/121
f 124/124/124 125/125/125 123/123/123
f 126/126/126 127/127/127 125/125/125
f 128/128/128 129/129/129 127/127/127
f 130/130/130 131/131/131 129/129/129
f 132/132/132 133/133/133 131/131/131
f 134/134/134 135/135/135 133/133/133
f 136/136/136 137/137/137 135/135/135
f 122/138/122 58/139/58 26/140/26
f 138/141/138 139/142/139 137/137/137
f 140/143/140 1/144/1 139/142/139
f 23/145/23 87/146/87 119/147/119
f 2/1/2 4/4/4 3/2/3
f 4/4/4 6/6/6 5/5/5
f 6/6/6 8/8/8 7/7/7
f 8/8/8 10/10/10 9/9/9
f 10/10/10 12/12/12 11/11/11
f 12/12/12 14/14/14 13/13/13
f 14/14/14 16/16/16 15/15/15
f 16/16/16 18/18/18 17/17/17
f 18/18/18 20/20/20 19/19/19
f 20/20/20 22/22/22 21/21/21
f 22/22/22 24/24/24 23/23/23
f 24/24/24 26/26/26 25/25/25
f 26/26/26 28/28/28 27/27/27
f 28/28/28 30/30/30 29/29/29
f 30/30/30 32/32/32 31/31/31
f 32/32/32 34/34/34 33/33/33
f 34/34/34 36/36/36 35/35/35
f 36/36/36 38/38/38 37/37/37
f 38/38/38 40/40/40 39/39/39
f 40/40/40 42/42/42 41/41/41
f 42/42/42 44/44/44 43/43/43
f 44/44/44 46/46/46 45/45/45
f 46/46/46 48/48/48 47/47/47
f 48/48/48 50/50/50 49/49/49
f 50/50/50 52/52/52 51/51/51
f 52/52/52 54/54/54 53/53/53
f 54/54/54 56/56/56 55/55/55
f 56/56/56 58/58/58 57/57/57
f 58/58/58 60/60/60 59/59/59
f 60/60/60 62/62/62 61/61/61
f 62/62/62 64/64/64 63/63/63
f 64/64/64 66/66/66 65/65/65
f 66/66/66 68/68/68 67/67/67
f 68/68/68 70/70/70 69/69/69
f 70/70/70 72/72/72 71/71/71
f 72/72/72 74/74/74 73/73/73
f 74/74/74 76/76/76 75/75/75
f 76/76/76 78/78/78 77/77/77
f 78/78/78 80/80/80 79/79/79
f 80/80/80 82/82/82 81/81/81
f 82/82/82 84/84/84 83/83/83
f 84/84/84 86/86/86 85/85/85
f 86/86/86 88/88/88 87/87/87
f 88/88/88 90/90/90 89/89/89
f 90/90/90 92/92/92 91/91/91
f 92/92/92 94/94/94 93/93/93
f 94/94/94 96/96/96 95/95/95
f 96/96/96 98/98/98 97/97/97
f 98/98/98 100/100/100 99/99/99
f 100/100/100 102/102/102 101/101/101
f 102/102/102 104/104/104 103/103/103
f 104/104/104 106/106/106 105/105/105
f 106/106/106 108/108/108 107/107/107
f 108/108/108 110/110/110 109/109/109
f 110/110/110 112/112/112 111/111/111
f 112/112/112 114/114/114 113/113/113
f 114/114/114 116/116/116 115/115/115
f 116/116/116 118/118/118 117/117/117
f 118/118/118 120/120/120 119/119/119
f 120/120/120 122/122/122 121/121/121
f 122/122/122 124/124/124 123/123/123
f 124/124/124 126/126/126 125/125/125
f 126/126/126 128/128/128 127/127/127
f 128/128/128 130/130/130 129/129/129
f 130/130/130 132/132/132 131/131/131
f 132/132/132 134/134/134 133/133/133
f 134/134/134 136/136/136 135/135/135
f 136/136/136 138/141/138 137/137/137
f 6/148/6 4/149/4 2/150/2
f 2/150/2 140/151/140 138/152/138
f 138/152/138 136/153/136 134/154/134
f 134/154/134 132/155/132 130/156/130
f 130/156/130 128/157/128 126/158/126
f 126/158/126 124/159/124 122/138/122
f 122/138/122 120/160/120 118/161/118
f 118/161/118 116/162/116 114/163/114
f 114/163/114 112/164/112 110/165/110
f 110/165/110 108/166/108 106/167/106
f 106/167/106 104/168/104 102/169/102
f 102/169/102 100/170/100 98/171/98
f 98/171/98 96/172/96 94/173/94
f 94/173/94 92/174/92 90/175/90
f 90/175/90 88/176/88 86/177/86
f 86/177/86 84/178/84 82/179/82
f 82/179/82 80/180/80 78/181/78
f 78/181/78 76/182/76 74/183/74
f 74/183/74 72/184/72 70/185/70
f 70/185/70 68/186/68 66/187/66
f 66/187/66 64/188/64 62/189/62
f 62/189/62 60/190/60 58/139/58
f 58/139/58 56/191/56 54/192/54
f 54/192/54 52/193/52 50/194/50
f 50/194/50 48/195/48 46/196/46
f 46/196/46 44/197/44 42/198/42
f 42/198/42 40/199/40 38/200/38
f 38/200/38 36/201/36 34/202/34
f 34/202/34 32/203/32 30/204/30
f 30/204/30 28/205/28 26/140/26
f 26/140/26 24/206/24 22/207/22
f 22/207/22 20/208/20 18/209/18
f 18/209/18 16/210/16 14/211/14
f 14/211/14 12/212/12 10/213/10
f 10/213/10 8/214/8 6/148/6
f 6/148/6 2/150/2 138/152/138
f 138/152/138 134/154/134 130/156/130
f 130/156/130 126/158/126 122/138/122
f 122/138/122 118/161/118 114/163/114
f 114/163/114 110/165/110 106/167/106
f 106/167/106 102/169/102 98/171/98
f 98/171/98 94/173/94 90/175/90
f 90/175/90 86/177/86 82/179/82
f 82/179/82 78/181/78 74/183/74
f 74/183/74 70/185/70 66/187/66
f 66/187/66 62/189/62 58/139/58
f 58/139/58 54/192/54 50/194/50
f 50/194/50 46/196/46 42/198/42
f 42/198/42 38/200/38 34/202/34
f 34/202/34 30/204/30 26/140/26
f 26/140/26 22/207/22 18/209/18
f 18/209/18 14/211/14 10/213/10
f 10/213/10 6/148/6 138/152/138
f 138/152/138 130/156/130 122/138/122
f 122/138/122 114/163/114 106/167/106
f 106/167/106 98/171/98 90/175/90
f 90/175/90 82/179/82 74/183/74
f 74/183/74 66/187/66 58/139/58
f 58/139/58 50/194/50 42/198/42
f 42/198/42 34/202/34 26/140/26
f 26/140/26 18/209/18 10/213/10
f 10/213/10 138/152/138 122/138/122
f 122/138/122 106/167/106 90/175/90
f 90/175/90 74/183/74 58/139/58
f 58/139/58 42/198/42 26/140/26
f 26/140/26 10/213/10 122/138/122
f 122/138/122 90/175/90 58/139/58
f 138/141/138 140/143/140 139/142/139
f 140/143/140 2/215/2 1/144/1
f 139/216/139 1/217/1 3/218/3
f 3/218/3 5/219/5 7/220/7
f 7/220/7 9/221/9 11/222/11
f 11/222/11 13/223/13 15/224/15
f 15/224/15 17/225/17 19/226/19
f 19/226/19 21/227/21 23/145/23
f 23/145/23 25/228/25 27/229/27
f 27/229/27 29/230/29 31/231/31
f 31/231/31 33/232/33 35/233/35
f 35/233/35 37/234/37 39/235/39
f 39/235/39 41/236/41 43/237/43
f 43/237/43 45/238/45 47/239/47
f 47/239/47 49/240/49 51/241/51
f 51/241/51 53/242/53 55/243/55
f 55/243/55 57/244/57 59/245/59
f 59/245/59 61/246/61 63/247/63
f 63/247/63 65/248/65 67/249/67
f 67/249/67 69/250/69 71/251/71
f 71/251/71 73/252/73 75/253/75
f 75/253/75 77/254/77 79/255/79
f 79/255/79 81/256/81 83/257/83
f 83/257/83 85/258/85 87/146/87
f 87/146/87 89/259/89 91/260/91
f 91/260/91 93/261/93 95/262/95
f 95/262/95 97/263/97 99/264/99
f 99/264/99 101/265/101 103/266/103
f 103/266/103 105/267/105 107/268/107
f 107/268/107 109/269/109 111/270/111
f 111/270/111 113/271/113 115/272/115
f 115/272/115 117/273/117 119/147/119
f 119/147/119 121/274/121 123/275/123
f 123/275/123 125/276/125 127/277/127
f 127/277/127 129/278/129 131/279/131
f 131/279/131 133/280/133 135/281/135
f 135/281/135 137/282/137 139/216/139
f 139/216/139 3/218/3 7/220/7
f 7/220/7 11/222/11 15/224/15
f 15/224/15 19/226/19 23/145/23
f 23/145/23 27/229/27 31/231/31
f 31/231/31 35/233/35 39/235/39
f 39/235/39 43/237/43 47/239/47
f 47/239/47 51/241/51 55/243/55
f 55/243/55 59/245/59 63/247/63
f 63/247/63 67/249/67 71/251/71
f 71/251/71 75/253/75 79/255/79
f 79/255/79 83/257/83 87/146/87
f 87/146/87 91/260/91 95/262/95
f 95/262/95 99/264/99 103/266/103
f 103/266/103 107/268/107 111/270/111
f 111/270/111 115/272/115 119/147/119
f 119/147/119 123/275/123 127/277/127
f 127/277/127 131/279/131 135/281/135
f 135/281/135 139/216/139 7/220/7
f 7/220/7 15/224/15 23/145/23
f 23/145/23 31/231/31 39/235/39
f 39/235/39 47/239/47 55/243/55
f 55/243/55 63/247/63 71/251/71
f 71/251/71 79/255/79 87/146/87
f 87/146/87 95/262/95 103/266/103
f 103/266/103 111/270/111 119/147/119
f 119/147/119 127/277/127 135/281/135
f 135/281/135 7/220/7 23/145/23
f 23/145/23 39/235/39 55/243/55
f 55/243/55 71/251/71 87/146/87
f 87/146/87 103/266/103 119/147/119
f 119/147/119 135/281/135 23/145/23
f 23/145/23 55/243/55 87/146/87
