# Blender 4.4.1
# www.blender.org
mtllib mat29Cores.mtl
o cone
v 6.000000 0.020000 -11.500000
v 6.134459 0.020000 -11.493961
v 6.267835 0.020000 -11.475894
v 6.399055 0.020000 -11.445944
v 6.527062 0.020000 -11.404352
v 6.650826 0.020000 -11.351454
v 6.769349 0.020000 -11.287673
v 6.881678 0.020000 -11.213526
v 6.986908 0.020000 -11.129607
v 7.084192 0.020000 -11.036594
v 7.172747 0.020000 -10.935235
v 7.251860 0.020000 -10.826345
v 7.320893 0.020000 -10.710803
v 7.379292 0.020000 -10.589538
v 7.426585 0.020000 -10.463526
v 7.462392 0.020000 -10.333781
v 7.486424 0.020000 -10.201350
v 7.498489 0.020000 -10.067297
v 7.498489 0.020000 -9.932703
v 7.486424 0.020000 -9.798650
v 7.462392 0.020000 -9.666219
v 7.426585 0.020000 -9.536474
v 7.379292 0.020000 -9.410462
v 7.320893 0.020000 -9.289197
v 7.251860 0.020000 -9.173655
v 7.172747 0.020000 -9.064765
v 7.084192 0.020000 -8.963406
v 6.986908 0.020000 -8.870393
v 6.881678 0.020000 -8.786474
v 6.769349 0.020000 -8.712327
v 6.650826 0.020000 -8.648546
v 6.527062 0.020000 -8.595648
v 6.399055 0.020000 -8.554056
v 6.267835 0.020000 -8.524106
v 6.134459 0.020000 -8.506039
v 6.000000 0.020000 -8.500000
v 5.865541 0.020000 -8.506039
v 5.732165 0.020000 -8.524106
v 5.600945 0.020000 -8.554056
v 5.472938 0.020000 -8.595648
v 5.349174 0.020000 -8.648546
v 5.230651 0.020000 -8.712327
v 5.118322 0.020000 -8.786474
v 5.013092 0.020000 -8.870393
v 4.915808 0.020000 -8.963406
v 4.827253 0.020000 -9.064765
v 4.748140 0.020000 -9.173655
v 4.679107 0.020000 -9.289197
v 4.620708 0.020000 -9.410462
v 4.573415 0.020000 -9.536474
v 4.537608 0.020000 -9.666219
v 4.513576 0.020000 -9.798650
v 4.501511 0.020000 -9.932703
v 4.501511 0.020000 -10.067297
v 4.513576 0.020000 -10.201350
v 4.537608 0.020000 -10.333781
v 4.573415 0.020000 -10.463526
v 4.620708 0.020000 -10.589538
v 4.679107 0.020000 -10.710803
v 4.748140 0.020000 -10.826345
v 4.827253 0.020000 -10.935235
v 4.915808 0.020000 -11.036594
v 5.013092 0.020000 -11.129607
v 5.118322 0.020000 -11.213526
v 5.230651 0.020000 -11.287673
v 5.349174 0.020000 -11.351454
v 5.472938 0.020000 -11.404352
v 5.600945 0.020000 -11.445944
v 5.732165 0.020000 -11.475894
v 5.865541 0.020000 -11.493961
v 6.000000 2.520000 -10.000000
vn -0.0000 -0.4823 -0.8760
vn 0.0785 -0.4823 -0.8725
vn 0.1564 -0.4823 -0.8619
vn 0.2331 -0.4823 -0.8444
vn 0.3078 -0.4823 -0.8201
vn 0.3801 -0.4823 -0.7892
vn 0.4493 -0.4823 -0.7520
vn 0.5149 -0.4823 -0.7087
vn 0.5763 -0.4823 -0.6597
vn 0.6332 -0.4823 -0.6054
vn 0.6849 -0.4823 -0.5462
vn 0.7311 -0.4823 -0.4826
vn 0.7714 -0.4823 -0.4151
vn 0.8055 -0.4823 -0.3443
vn 0.8331 -0.4823 -0.2707
vn 0.8540 -0.4823 -0.1949
vn 0.8681 -0.4823 -0.1176
vn 0.8751 -0.4823 -0.0393
vn 0.8751 -0.4823 0.0393
vn 0.8681 -0.4823 0.1176
vn 0.8540 -0.4823 0.1949
vn 0.8331 -0.4823 0.2707
vn 0.8055 -0.4823 0.3443
vn 0.7714 -0.4823 0.4151
vn 0.7311 -0.4823 0.4826
vn 0.6849 -0.4823 0.5462
vn 0.6332 -0.4823 0.6054
vn 0.5764 -0.4823 0.6597
vn 0.5149 -0.4823 0.7087
vn 0.4493 -0.4823 0.7520
vn 0.3801 -0.4823 0.7892
vn 0.3078 -0.4823 0.8201
vn 0.2330 -0.4823 0.8444
vn 0.1564 -0.4823 0.8619
vn 0.0785 -0.4823 0.8725
vn -0.0000 -0.4823 0.8760
vn -0.0785 -0.4823 0.8725
vn -0.1564 -0.4823 0.8619
vn -0.2330 -0.4823 0.8444
vn -0.3078 -0.4823 0.8201
vn -0.3801 -0.4823 0.7892
vn -0.4493 -0.4823 0.7520
vn -0.5149 -0.4823 0.7087
vn -0.5764 -0.4823 0.6597
vn -0.6332 -0.4823 0.6054
vn -0.6849 -0.4823 0.5462
vn -0.7311 -0.4823 0.4826
vn -0.7714 -0.4823 0.4151
vn -0.8055 -0.4823 0.3443
vn -0.8331 -0.4823 0.2707
vn -0.8540 -0.4823 0.1949
vn -0.8681 -0.4823 0.1176
vn -0.8751 -0.4823 0.0393
vn -0.8751 -0.4823 -0.0393
vn -0.8681 -0.4823 -0.1176
vn -0.8540 -0.4823 -0.1949
vn -0.8331 -0.4823 -0.2707
vn -0.8055 -0.4823 -0.3443
vn -0.7714 -0.4823 -0.4151
vn -0.7311 -0.4823 -0.4826
vn -0.6849 -0.4823 -0.5462
vn -0.6332 -0.4823 -0.6054
vn -0.5763 -0.4823 -0.6597
vn -0.5149 -0.4823 -0.7087
vn -0.4493 -0.4823 -0.7520
vn -0.3801 -0.4823 -0.7892
vn -0.3078 -0.4823 -0.8201
vn -0.2331 -0.4823 -0.8444
vn -0.1564 -0.4823 -0.8619
vn -0.0785 -0.4823 -0.8725
vn -0.0000 1.0000 -0.0000
vt 0.250000 0.490000
vt 0.250000 0.250000
vt 0.271513 0.489034
vt 0.292854 0.486143
vt 0.313849 0.481351
vt 0.334330 0.474696
vt 0.354132 0.466233
vt 0.373096 0.456028
vt 0.391068 0.444164
vt 0.407905 0.430737
vt 0.423471 0.415855
vt 0.437640 0.399638
vt 0.450298 0.382215
vt 0.461343 0.363728
vt 0.470687 0.344326
vt 0.478254 0.324164
vt 0.483983 0.303405
vt 0.487828 0.282216
vt 0.489758 0.260768
vt 0.489758 0.239232
vt 0.487828 0.217784
vt 0.483983 0.196595
vt 0.478254 0.175836
vt 0.470687 0.155674
vt 0.461343 0.136272
vt 0.450298 0.117785
vt 0.437640 0.100362
vt 0.423471 0.084145
vt 0.407905 0.069263
vt 0.391068 0.055836
vt 0.373096 0.043972
vt 0.354132 0.033767
vt 0.334330 0.025304
vt 0.313849 0.018649
vt 0.292854 0.013857
vt 0.271513 0.010966
vt 0.250000 0.010000
vt 0.228487 0.010966
vt 0.207146 0.013857
vt 0.186151 0.018649
vt 0.165670 0.025304
vt 0.145868 0.033767
vt 0.126904 0.043972
vt 0.108932 0.055836
vt 0.092095 0.069263
vt 0.076529 0.084145
vt 0.062360 0.100362
vt 0.049702 0.117785
vt 0.038657 0.136272
vt 0.029313 0.155674
vt 0.021746 0.175836
vt 0.016017 0.196595
vt 0.012172 0.217784
vt 0.010242 0.239232
vt 0.010242 0.260768
vt 0.012172 0.282216
vt 0.016017 0.303405
vt 0.021746 0.324164
vt 0.029313 0.344326
vt 0.038657 0.363728
vt 0.049702 0.382215
vt 0.062360 0.399638
vt 0.076529 0.415855
vt 0.092095 0.430737
vt 0.108932 0.444164
vt 0.126904 0.456028
vt 0.145868 0.466233
vt 0.165670 0.474696
vt 0.186151 0.481351
vt 0.207146 0.486143
vt 0.950298 0.382215
vt 0.592095 0.069263
vt 0.549702 0.382215
vt 0.228487 0.489034
vt 0.728487 0.489034
vt 0.750000 0.490000
vt 0.771513 0.489034
vt 0.792854 0.486143
vt 0.813849 0.481351
vt 0.834330 0.474696
vt 0.854132 0.466233
vt 0.873096 0.456028
vt 0.891068 0.444164
vt 0.907905 0.430737
vt 0.923471 0.415855
vt 0.937640 0.399638
vt 0.961343 0.363728
vt 0.970687 0.344326
vt 0.978254 0.324164
vt 0.983983 0.303405
vt 0.987828 0.282216
vt 0.989758 0.260768
vt 0.989758 0.239232
vt 0.987828 0.217784
vt 0.983983 0.196595
vt 0.978254 0.175836
vt 0.970687 0.155674
vt 0.961343 0.136272
vt 0.950298 0.117785
vt 0.937640 0.100362
vt 0.923471 0.084145
vt 0.907905 0.069263
vt 0.891068 0.055836
vt 0.873096 0.043972
vt 0.854132 0.033767
vt 0.834330 0.025304
vt 0.813849 0.018649
vt 0.792854 0.013857
vt 0.771513 0.010966
vt 0.750000 0.010000
vt 0.728487 0.010966
vt 0.707146 0.013857
vt 0.686151 0.018649
vt 0.665670 0.025304
vt 0.645868 0.033767
vt 0.626904 0.043972
vt 0.608932 0.055836
vt 0.576529 0.084145
vt 0.562360 0.100362
vt 0.549702 0.117785
vt 0.538657 0.136272
vt 0.529313 0.155674
vt 0.521746 0.175836
vt 0.516017 0.196595
vt 0.512172 0.217784
vt 0.510242 0.239232
vt 0.510242 0.260768
vt 0.512172 0.282216
vt 0.516017 0.303405
vt 0.521746 0.324164
vt 0.529313 0.344326
vt 0.538657 0.363728
vt 0.562360 0.399638
vt 0.576529 0.415855
vt 0.592095 0.430737
vt 0.608932 0.444164
vt 0.626904 0.456028
vt 0.645868 0.466233
vt 0.665670 0.474696
vt 0.686151 0.481351
vt 0.707146 0.486143
s 1
usemtl matCorEsmeralda
f 1/1/1 71/2/71 2/3/2
f 2/3/2 71/2/71 3/4/3
f 3/4/3 71/2/71 4/5/4
f 4/5/4 71/2/71 5/6/5
f 5/6/5 71/2/71 6/7/6
f 6/7/6 71/2/71 7/8/7
f 7/8/7 71/2/71 8/9/8
f 8/9/8 71/2/71 9/10/9
f 9/10/9 71/2/71 10/11/10
f 10/11/10 71/2/71 11/12/11
f 11/12/11 71/2/71 12/13/12
f 12/13/12 71/2/71 13/14/13
f 13/14/13 71/2/71 14/15/14
f 14/15/14 71/2/71 15/16/15
f 15/16/15 71/2/71 16/17/16
f 16/17/16 71/2/71 17/18/17
f 17/18/17 71/2/71 18/19/18
f 18/19/18 71/2/71 19/20/19
f 19/20/19 71/2/71 20/21/20
f 20/21/20 71/2/71 21/22/21
f 21/22/21 71/2/71 22/23/22
f 22/23/22 71/2/71 23/24/23
f 23/24/23 71/2/71 24/25/24
f 24/25/24 71/2/71 25/26/25
f 25/26/25 71/2/71 26/27/26
f 26/27/26 71/2/71 27/28/27
f 27/28/27 71/2/71 28/29/28
f 28/29/28 71/2/71 29/30/29
f 29/30/29 71/2/71 30/31/30
f 30/31/30 71/2/71 31/32/31
f 31/32/31 71/2/71 32/33/32
f 32/33/32 71/2/71 33/34/33
f 33/34/33 71/2/71 34/35/34
f 34/35/34 71/2/71 35/36/35
f 35/36/35 71/2/71 36/37/36
f 36/37/36 71/2/71 37/38/37
f 37/38/37 71/2/71 38/39/38
f 38/39/38 71/2/71 39/40/39
f 39/40/39 71/2/71 40/41/40
f 40/41/40 71/2/71 41/42/41
f 41/42/41 71/2/71 42/43/42
f 42/43/42 71/2/71 43/44/43
f 43/44/43 71/2/71 44/45/44
f 44/45/44 71/2/71 45/46/45
f 45/46/45 71/2/71 46/47/46
f 46/47/46 71/2/71 47/48/47
f 47/48/47 71/2/71 48/49/48
f 48/49/48 71/2/71 49/50/49
f 49/50/49 71/2/71 50/51/50
f 50/51/50 71/2/71 51/52/51
f 51/52/51 71/2/71 52/53/52
f 52/53/52 71/2/71 53/54/53
f 53/54/53 71/2/71 54/55/54
f 54/55/54 71/2/71 55/56/55
f 55/56/55 71/2/71 56/57/56
f 56/57/56 71/2/71 57/58/57
f 57/58/57 71/2/71 58/59/58
f 58/59/58 71/2/71 59/60/59
f 59/60/59 71/2/71 60/61/60
f 60/61/60 71/2/71 61/62/61
f 61/62/61 71/2/71 62/63/62
f 62/63/62 71/2/71 63/64/63
f 63/64/63 71/2/71 64/65/64
f 64/65/64 71/2/71 65/66/65
f 65/66/65 71/2/71 66/67/66
f 66/67/66 71/2/71 67/68/67
f 67/68/67 71/2/71 68/69/68
f 68/69/68 71/2/71 69/70/69
f 12/71/12 44/72/44 60/73/60
f 69/70/69 71/2/71 70/74/70
f 70/74/70 71/2/71 1/1/1
f 70/75/70 1/76/1 2/77/2
f 2/77/2 3/78/3 4/79/4
f 4/79/4 5/80/5 6/81/6
f 6/81/6 7/82/7 8/83/8
f 8/83/8 9/84/9 10/85/10
f 10/85/10 11/86/11 12/71/12
f 12/71/12 13/87/13 14/88/14
f 14/88/14 15/89/15 16/90/16
f 16/90/16 17/91/17 18/92/18
f 18/92/18 19/93/19 20/94/20
f 20/94/20 21/95/21 22/96/22
f 22/96/22 23/97/23 24/98/24
f 24/98/24 25/99/25 26/100/26
f 26/100/26 27/101/27 28/102/28
f 28/102/28 29/103/29 30/104/30
f 30/104/30 31/105/31 32/106/32
f 32/106/32 33/107/33 34/108/34
f 34/108/34 35/109/35 36/110/36
f 36/110/36 37/111/37 38/112/38
f 38/112/38 39/113/39 40/114/40
f 40/114/40 41/115/41 42/116/42
f 42/116/42 43/117/43 44/72/44
f 44/72/44 45/118/45 46/119/46
f 46/119/46 47/120/47 48/121/48
f 48/121/48 49/122/49 50/123/50
f 50/123/50 51/124/51 52/125/52
f 52/125/52 53/126/53 54/127/54
f 54/127/54 55/128/55 56/129/56
f 56/129/56 57/130/57 58/131/58
f 58/131/58 59/132/59 60/73/60
f 60/73/60 61/133/61 62/134/62
f 62/134/62 63/135/63 64/136/64
f 64/136/64 65/137/65 66/138/66
f 66/138/66 67/139/67 68/140/68
f 68/140/68 69/141/69 70/75/70
f 70/75/70 2/77/2 4/79/4
f 4/79/4 6/81/6 8/83/8
f 8/83/8 10/85/10 12/71/12
f 12/71/12 14/88/14 16/90/16
f 16/90/16 18/92/18 20/94/20
f 20/94/20 22/96/22 24/98/24
f 24/98/24 26/100/26 28/102/28
f 28/102/28 30/104/30 32/106/32
f 32/106/32 34/108/34 36/110/36
f 36/110/36 38/112/38 40/114/40
f 40/114/40 42/116/42 44/72/44
f 44/72/44 46/119/46 48/121/48
f 48/121/48 50/123/50 52/125/52
f 52/125/52 54/127/54 56/129/56
f 56/129/56 58/131/58 60/73/60
f 60/73/60 62/134/62 64/136/64
f 64/136/64 66/138/66 68/140/68
f 68/140/68 70/75/70 4/79/4
f 4/79/4 8/83/8 12/71/12
f 12/71/12 16/90/16 20/94/20
f 20/94/20 24/98/24 28/102/28
f 28/102/28 32/106/32 36/110/36
f 36/110/36 40/114/40 44/72/44
f 44/72/44 48/121/48 52/125/52
f 52/125/52 56/129/56 60/73/60
f 60/73/60 64/136/64 68/140/68
f 68/140/68 4/79/4 12/71/12
f 12/71/12 20/94/20 28/102/28
f 28/102/28 36/110/36 44/72/44
f 44/72/44 52/125/52 60/73/60
f 60/73/60 68/140/68 12/71/12
f 12/71/12 28/102/28 44/72/44
