ply
format ascii 1.0
comment Created in Blender version 4.4.1
element vertex 8
property float x
property float y
property float z
property float nx
property float ny
property float nz
property uchar red
property uchar green
property uchar blue
property uchar alpha
element face 12
property list uchar uint vertex_indices
end_header
-1 -1 1 -0.57732844 -0.57736117 0.57736117 254 247 16 255
-1 1 1 -0.5773721 0.57733935 0.57733935 210 254 130 255
-1 -1 -1 -0.5773721 -0.57733935 -0.57733935 254 219 161 255
-1 1 -1 -0.57732844 0.57736117 -0.57736117 41 32 254 255
1 -1 1 0.5773721 -0.57733935 0.57733935 25 27 254 255
1 1 1 0.57732844 0.57736117 0.57736117 254 51 44 255
1 -1 -1 0.57732844 -0.57736117 -0.57736117 254 37 223 255
1 1 -1 0.5773721 0.57733935 -0.57733935 39 254 44 255
3 1 2 0
3 3 6 2
3 7 4 6
3 5 0 4
3 6 0 2
3 3 5 7
3 1 3 2
3 3 7 6
3 7 5 4
3 5 1 0
3 6 4 0
3 3 1 5
