ply
format ascii 1.0
comment Created in Blender version 4.4.1
element vertex 8
property float x
property float y
property float z
property float nx
property float ny
property float nz
property uchar red
property uchar green
property uchar blue
property uchar alpha
element face 12
property list uchar uint vertex_indices
end_header
1 1 -1 0.5773721 0.57733935 -0.57733935 53 254 99 255
1 -1 -1 0.57732844 -0.57736117 -0.57736117 25 254 251 255
1 1 1 0.57732844 0.57736117 0.57736117 254 100 78 255
1 -1 1 0.5773721 -0.57733935 0.57733935 235 254 116 255
-1 1 -1 -0.57732844 0.57736117 -0.57736117 27 60 254 255
-1 -1 -1 -0.5773721 -0.57733935 -0.57733935 254 23 177 255
-1 1 1 -0.5773721 0.57733935 0.57733935 248 101 254 255
-1 -1 1 -0.57732844 -0.57736117 0.57736117 39 254 26 255
3 4 2 0
3 2 7 3
3 6 5 7
3 1 7 5
3 0 3 1
3 4 1 5
3 4 6 2
3 2 6 7
3 6 4 5
3 1 3 7
3 0 2 3
3 4 0 1
