# Blender 4.4.1
# www.blender.org
mtllib mat29Cores.mtl
o Diamond.003
v 13.000000 1.742500 -2.000000
v 13.000000 0.017500 -2.000000
v 13.900000 1.742500 -2.000000
v 14.500000 1.217500 -2.000000
v 13.898224 1.742500 -1.943488
v 14.497040 1.217500 -1.905814
v 13.892903 1.742500 -1.887200
v 14.488173 1.217500 -1.812000
v 13.884058 1.742500 -1.831357
v 14.473431 1.217500 -1.718928
v 13.871725 1.742500 -1.776179
v 14.452875 1.217500 -1.626965
v 13.855951 1.742500 -1.721885
v 14.426585 1.217500 -1.536475
v 13.836799 1.742500 -1.668688
v 14.394665 1.217500 -1.447813
v 13.814344 1.742500 -1.616799
v 14.357241 1.217500 -1.361331
v 13.788676 1.742500 -1.566422
v 14.314460 1.217500 -1.277369
v 13.759895 1.742500 -1.517756
v 14.266492 1.217500 -1.196260
v 13.728115 1.742500 -1.470993
v 14.213526 1.217500 -1.118322
v 13.693462 1.742500 -1.426318
v 14.155769 1.217500 -1.043864
v 13.656072 1.742500 -1.383908
v 14.093452 1.217500 -0.973179
v 13.616093 1.742500 -1.343928
v 14.026820 1.217500 -0.906547
v 13.573682 1.742500 -1.306538
v 13.956136 1.217500 -0.844230
v 13.529007 1.742500 -1.271885
v 13.881678 1.217500 -0.786474
v 13.482244 1.742500 -1.240105
v 13.803740 1.217500 -0.733508
v 13.433578 1.742500 -1.211324
v 13.722631 1.217500 -0.685540
v 13.383202 1.742500 -1.185656
v 13.638669 1.217500 -0.642760
v 13.331312 1.742500 -1.163201
v 13.552187 1.217500 -0.605335
v 13.278115 1.742500 -1.144049
v 13.463526 1.217500 -0.573415
v 13.223821 1.742500 -1.128275
v 13.373035 1.217500 -0.547125
v 13.168643 1.742500 -1.115942
v 13.281073 1.217500 -0.526569
v 13.112800 1.742500 -1.107097
v 13.188000 1.217500 -0.511828
v 13.056512 1.742500 -1.101776
v 13.094186 1.217500 -0.502960
v 13.000000 1.742500 -1.100000
v 13.000000 1.217500 -0.500000
v 12.943488 1.742500 -1.101776
v 12.905814 1.217500 -0.502960
v 12.887200 1.742500 -1.107097
v 12.812000 1.217500 -0.511828
v 12.831357 1.742500 -1.115941
v 12.718928 1.217500 -0.526569
v 12.776179 1.742500 -1.128275
v 12.626966 1.217500 -0.547125
v 12.721885 1.742500 -1.144049
v 12.536474 1.217500 -0.573415
v 12.668688 1.742500 -1.163201
v 12.447813 1.217500 -0.605335
v 12.616798 1.742500 -1.185656
v 12.361331 1.217500 -0.642760
v 12.566422 1.742500 -1.211324
v 12.277369 1.217500 -0.685540
v 12.517756 1.742500 -1.240105
v 12.196259 1.217500 -0.733508
v 12.470993 1.742500 -1.271885
v 12.118322 1.217500 -0.786475
v 12.426318 1.742500 -1.306538
v 12.043863 1.217500 -0.844230
v 12.383907 1.742500 -1.343928
v 11.973179 1.217500 -0.906547
v 12.343928 1.742500 -1.383908
v 11.906547 1.217500 -0.973180
v 12.306538 1.742500 -1.426319
v 11.844230 1.217500 -1.043864
v 12.271885 1.742500 -1.470994
v 11.786474 1.217500 -1.118322
v 12.240105 1.742500 -1.517756
v 11.733508 1.217500 -1.196260
v 12.211324 1.742500 -1.566422
v 11.685540 1.217500 -1.277369
v 12.185656 1.742500 -1.616799
v 11.642759 1.217500 -1.361331
v 12.163201 1.742500 -1.668688
v 11.605335 1.217500 -1.447813
v 12.144049 1.742500 -1.721885
v 11.573415 1.217500 -1.536474
v 12.128275 1.742500 -1.776179
v 11.547125 1.217500 -1.626965
v 12.115942 1.742500 -1.831357
v 11.526569 1.217500 -1.718928
v 12.107097 1.742500 -1.887200
v 11.511827 1.217500 -1.812000
v 12.101776 1.742500 -1.943489
v 11.502960 1.217500 -1.905814
v 12.100000 1.742500 -2.000000
v 11.500000 1.217500 -2.000000
v 12.101776 1.742500 -2.056511
v 11.502960 1.217500 -2.094186
v 12.107097 1.742500 -2.112799
v 11.511827 1.217500 -2.187999
v 12.115941 1.742500 -2.168643
v 11.526569 1.217500 -2.281071
v 12.128275 1.742500 -2.223820
v 11.547125 1.217500 -2.373034
v 12.144049 1.742500 -2.278115
v 11.573415 1.217500 -2.463525
v 12.163201 1.742500 -2.331312
v 11.605335 1.217500 -2.552186
v 12.185656 1.742500 -2.383201
v 11.642759 1.217500 -2.638669
v 12.211324 1.742500 -2.433578
v 11.685539 1.217500 -2.722630
v 12.240105 1.742500 -2.482244
v 11.733508 1.217500 -2.803740
v 12.271885 1.742500 -2.529006
v 11.786474 1.217500 -2.881678
v 12.306538 1.742500 -2.573681
v 11.844230 1.217500 -2.956136
v 12.343928 1.742500 -2.616092
v 11.906547 1.217500 -3.026820
v 12.383907 1.742500 -2.656072
v 11.973179 1.217500 -3.093453
v 12.426318 1.742500 -2.693462
v 12.043863 1.217500 -3.155770
v 12.470993 1.742500 -2.728115
v 12.118322 1.217500 -3.213525
v 12.517756 1.742500 -2.759895
v 12.196259 1.217500 -3.266492
v 12.566422 1.742500 -2.788676
v 12.277369 1.217500 -3.314460
v 12.616798 1.742500 -2.814344
v 12.361331 1.217500 -3.357240
v 12.668688 1.742500 -2.836799
v 12.447813 1.217500 -3.394665
v 12.721885 1.742500 -2.855951
v 12.536474 1.217500 -3.426585
v 12.776179 1.742500 -2.871725
v 12.626966 1.217500 -3.452875
v 12.831357 1.742500 -2.884058
v 12.718928 1.217500 -3.473431
v 12.887200 1.742500 -2.892903
v 12.812000 1.217500 -3.488172
v 12.943488 1.742500 -2.898224
v 12.905814 1.217500 -3.497040
v 13.000000 1.742500 -2.900000
v 13.000000 1.217500 -3.500000
v 13.056512 1.742500 -2.898224
v 13.094186 1.217500 -3.497040
v 13.112800 1.742500 -2.892903
v 13.188000 1.217500 -3.488172
v 13.168643 1.742500 -2.884058
v 13.281073 1.217500 -3.473431
v 13.223821 1.742500 -2.871725
v 13.373035 1.217500 -3.452875
v 13.278115 1.742500 -2.855951
v 13.463526 1.217500 -3.426585
v 13.331312 1.742500 -2.836799
v 13.552187 1.217500 -3.394665
v 13.383202 1.742500 -2.814344
v 13.638669 1.217500 -3.357240
v 13.433578 1.742500 -2.788676
v 13.722631 1.217500 -3.314460
v 13.482244 1.742500 -2.759895
v 13.803740 1.217500 -3.266492
v 13.529006 1.742500 -2.728116
v 13.881678 1.217500 -3.213526
v 13.573681 1.742500 -2.693462
v 13.956136 1.217500 -3.155770
v 13.616092 1.742500 -2.656072
v 14.026820 1.217500 -3.093453
v 13.656072 1.742500 -2.616093
v 14.093452 1.217500 -3.026821
v 13.693461 1.742500 -2.573682
v 14.155769 1.217500 -2.956137
v 13.728115 1.742500 -2.529007
v 14.213525 1.217500 -2.881679
v 13.759895 1.742500 -2.482244
v 14.266491 1.217500 -2.803741
v 13.788676 1.742500 -2.433579
v 14.314460 1.217500 -2.722631
v 13.814344 1.742500 -2.383202
v 14.357241 1.217500 -2.638669
v 13.836799 1.742500 -2.331312
v 14.394665 1.217500 -2.552187
v 13.855950 1.742500 -2.278116
v 14.426584 1.217500 -2.463526
v 13.871725 1.742500 -2.223821
v 14.452874 1.217500 -2.373035
v 13.884058 1.742500 -2.168643
v 14.473431 1.217500 -2.281072
v 13.892903 1.742500 -2.112800
v 14.488173 1.217500 -2.188000
v 13.898224 1.742500 -2.056512
v 14.497040 1.217500 -2.094186
vn 0.6246 -0.7807 -0.0196
vn 0.6246 -0.7807 0.0196
vn 0.6221 -0.7807 0.0588
vn 0.6172 -0.7807 0.0978
vn 0.6098 -0.7807 0.1363
vn 0.6001 -0.7807 0.1743
vn 0.5879 -0.7807 0.2117
vn 0.5735 -0.7807 0.2482
vn 0.5568 -0.7807 0.2837
vn 0.5379 -0.7807 0.3181
vn 0.5168 -0.7807 0.3512
vn 0.4938 -0.7807 0.3830
vn 0.4687 -0.7807 0.4132
vn 0.4419 -0.7807 0.4419
vn 0.4132 -0.7807 0.4687
vn 0.3830 -0.7807 0.4938
vn 0.3512 -0.7807 0.5168
vn 0.3181 -0.7807 0.5379
vn 0.2837 -0.7807 0.5568
vn 0.2482 -0.7807 0.5735
vn 0.2117 -0.7807 0.5879
vn 0.1743 -0.7807 0.6001
vn 0.1363 -0.7807 0.6098
vn 0.0978 -0.7807 0.6172
vn 0.0588 -0.7807 0.6221
vn 0.0196 -0.7807 0.6246
vn -0.0196 -0.7807 0.6246
vn -0.0588 -0.7807 0.6221
vn -0.0978 -0.7807 0.6172
vn -0.1363 -0.7807 0.6098
vn -0.1743 -0.7807 0.6001
vn -0.2117 -0.7807 0.5879
vn -0.2482 -0.7807 0.5735
vn -0.2837 -0.7807 0.5568
vn -0.3181 -0.7807 0.5379
vn -0.3512 -0.7807 0.5168
vn -0.3830 -0.7807 0.4938
vn -0.4132 -0.7807 0.4687
vn -0.4419 -0.7807 0.4419
vn -0.4687 -0.7807 0.4132
vn -0.4938 -0.7807 0.3830
vn -0.5168 -0.7807 0.3512
vn -0.5379 -0.7807 0.3181
vn -0.5568 -0.7807 0.2837
vn -0.5735 -0.7807 0.2482
vn -0.5879 -0.7807 0.2117
vn -0.6001 -0.7807 0.1743
vn -0.6098 -0.7807 0.1363
vn -0.6172 -0.7807 0.0978
vn -0.6221 -0.7807 0.0588
vn -0.6246 -0.7807 0.0196
vn -0.6246 -0.7807 -0.0196
vn -0.6221 -0.7807 -0.0588
vn -0.6172 -0.7807 -0.0978
vn -0.6098 -0.7807 -0.1363
vn -0.6001 -0.7807 -0.1743
vn -0.5879 -0.7807 -0.2117
vn -0.5735 -0.7807 -0.2482
vn -0.5568 -0.7807 -0.2837
vn -0.5379 -0.7807 -0.3181
vn -0.5168 -0.7807 -0.3512
vn -0.4938 -0.7807 -0.3830
vn -0.4687 -0.7807 -0.4132
vn -0.4419 -0.7807 -0.4419
vn -0.4132 -0.7807 -0.4687
vn -0.3830 -0.7807 -0.4938
vn -0.3512 -0.7807 -0.5168
vn -0.3181 -0.7807 -0.5379
vn -0.2837 -0.7807 -0.5568
vn -0.2482 -0.7807 -0.5735
vn -0.2117 -0.7807 -0.5879
vn -0.1743 -0.7807 -0.6001
vn -0.1363 -0.7807 -0.6098
vn -0.0978 -0.7807 -0.6172
vn -0.0588 -0.7807 -0.6221
vn -0.0196 -0.7807 -0.6246
vn 0.0196 -0.7807 -0.6246
vn 0.0588 -0.7807 -0.6221
vn 0.0978 -0.7807 -0.6172
vn 0.1363 -0.7807 -0.6098
vn 0.1743 -0.7807 -0.6001
vn 0.2117 -0.7807 -0.5879
vn 0.2482 -0.7807 -0.5735
vn 0.2837 -0.7807 -0.5568
vn 0.3181 -0.7807 -0.5379
vn 0.3512 -0.7807 -0.5168
vn 0.3830 -0.7807 -0.4938
vn 0.4132 -0.7807 -0.4687
vn 0.4419 -0.7807 -0.4419
vn 0.4687 -0.7807 -0.4132
vn 0.4938 -0.7807 -0.3830
vn 0.5168 -0.7807 -0.3512
vn 0.5379 -0.7807 -0.3181
vn 0.5568 -0.7807 -0.2837
vn 0.5735 -0.7807 -0.2482
vn 0.5879 -0.7807 -0.2117
vn 0.6001 -0.7807 -0.1743
vn 0.6098 -0.7807 -0.1363
vn 0.6172 -0.7807 -0.0978
vn 0.6221 -0.7807 -0.0588
vn 0.6584 0.7524 -0.0207
vn 0.6584 0.7524 0.0207
vn 0.6558 0.7524 0.0620
vn 0.6506 0.7524 0.1030
vn 0.6428 0.7524 0.1437
vn 0.6325 0.7524 0.1838
vn 0.6197 0.7524 0.2231
vn 0.6045 0.7524 0.2616
vn 0.5869 0.7524 0.2990
vn 0.5670 0.7524 0.3353
vn 0.5448 0.7524 0.3702
vn 0.5205 0.7524 0.4037
vn 0.4941 0.7524 0.4356
vn 0.4658 0.7524 0.4658
vn 0.4356 0.7524 0.4941
vn 0.4037 0.7524 0.5205
vn 0.3702 0.7524 0.5448
vn 0.3353 0.7524 0.5670
vn 0.2990 0.7524 0.5869
vn 0.2616 0.7524 0.6045
vn 0.2231 0.7524 0.6197
vn 0.1838 0.7524 0.6325
vn 0.1437 0.7524 0.6428
vn 0.1030 0.7524 0.6506
vn 0.0620 0.7524 0.6558
vn 0.0207 0.7524 0.6584
vn -0.0207 0.7524 0.6584
vn -0.0620 0.7524 0.6558
vn -0.1030 0.7524 0.6506
vn -0.1437 0.7524 0.6428
vn -0.1838 0.7524 0.6325
vn -0.2231 0.7524 0.6197
vn -0.2616 0.7524 0.6045
vn -0.2990 0.7524 0.5869
vn -0.3353 0.7524 0.5670
vn -0.3702 0.7524 0.5448
vn -0.4037 0.7524 0.5205
vn -0.4356 0.7524 0.4941
vn -0.4658 0.7524 0.4658
vn -0.4941 0.7524 0.4356
vn -0.5205 0.7524 0.4037
vn -0.5448 0.7524 0.3702
vn -0.5670 0.7524 0.3353
vn -0.5869 0.7524 0.2990
vn -0.6045 0.7524 0.2616
vn -0.6197 0.7524 0.2231
vn -0.6325 0.7524 0.1838
vn -0.6428 0.7524 0.1437
vn -0.6506 0.7524 0.1030
vn -0.6558 0.7524 0.0620
vn -0.6584 0.7524 0.0207
vn -0.6584 0.7524 -0.0207
vn -0.6558 0.7524 -0.0620
vn -0.6506 0.7524 -0.1030
vn -0.6428 0.7524 -0.1437
vn -0.6325 0.7524 -0.1838
vn -0.6197 0.7524 -0.2231
vn -0.6045 0.7524 -0.2616
vn -0.5869 0.7524 -0.2990
vn -0.5670 0.7524 -0.3353
vn -0.5448 0.7524 -0.3702
vn -0.5205 0.7524 -0.4037
vn -0.4941 0.7524 -0.4356
vn -0.4658 0.7524 -0.4658
vn -0.4356 0.7524 -0.4941
vn -0.4037 0.7524 -0.5205
vn -0.3702 0.7524 -0.5448
vn -0.3353 0.7524 -0.5670
vn -0.2990 0.7524 -0.5869
vn -0.2616 0.7524 -0.6045
vn -0.2231 0.7524 -0.6197
vn -0.1838 0.7524 -0.6325
vn -0.1437 0.7524 -0.6428
vn -0.1030 0.7524 -0.6506
vn -0.0620 0.7524 -0.6558
vn -0.0207 0.7524 -0.6584
vn 0.0207 0.7524 -0.6584
vn 0.0620 0.7524 -0.6558
vn 0.1030 0.7524 -0.6506
vn 0.1437 0.7524 -0.6428
vn 0.1838 0.7524 -0.6325
vn 0.2231 0.7524 -0.6197
vn 0.2616 0.7524 -0.6045
vn 0.2990 0.7524 -0.5869
vn 0.3353 0.7524 -0.5670
vn 0.3702 0.7524 -0.5448
vn 0.4037 0.7524 -0.5205
vn 0.4356 0.7524 -0.4941
vn 0.4658 0.7524 -0.4658
vn 0.4941 0.7524 -0.4356
vn 0.5205 0.7524 -0.4037
vn 0.5448 0.7524 -0.3702
vn 0.5670 0.7524 -0.3353
vn 0.5869 0.7524 -0.2990
vn 0.6045 0.7524 -0.2616
vn 0.6197 0.7524 -0.2231
vn 0.6325 0.7524 -0.1838
vn 0.6428 0.7524 -0.1437
vn 0.6506 0.7524 -0.1030
vn 0.6558 0.7524 -0.0620
vn -0.0000 1.0000 -0.0000
s 0
usemtl matCorObsidiana
f 4//1 2//1 202//1
f 2//2 4//2 6//2
f 2//3 6//3 8//3
f 2//4 8//4 10//4
f 2//5 10//5 12//5
f 2//6 12//6 14//6
f 2//7 14//7 16//7
f 2//8 16//8 18//8
f 2//9 18//9 20//9
f 2//10 20//10 22//10
f 2//11 22//11 24//11
f 2//12 24//12 26//12
f 2//13 26//13 28//13
f 2//14 28//14 30//14
f 2//15 30//15 32//15
f 2//16 32//16 34//16
f 2//17 34//17 36//17
f 2//18 36//18 38//18
f 2//19 38//19 40//19
f 2//20 40//20 42//20
f 2//21 42//21 44//21
f 2//22 44//22 46//22
f 2//23 46//23 48//23
f 2//24 48//24 50//24
f 2//25 50//25 52//25
f 2//26 52//26 54//26
f 2//27 54//27 56//27
f 2//28 56//28 58//28
f 2//29 58//29 60//29
f 2//30 60//30 62//30
f 2//31 62//31 64//31
f 2//32 64//32 66//32
f 2//33 66//33 68//33
f 2//34 68//34 70//34
f 2//35 70//35 72//35
f 2//36 72//36 74//36
f 2//37 74//37 76//37
f 2//38 76//38 78//38
f 2//39 78//39 80//39
f 2//40 80//40 82//40
f 2//41 82//41 84//41
f 2//42 84//42 86//42
f 2//43 86//43 88//43
f 2//44 88//44 90//44
f 2//45 90//45 92//45
f 2//46 92//46 94//46
f 2//47 94//47 96//47
f 2//48 96//48 98//48
f 2//49 98//49 100//49
f 2//50 100//50 102//50
f 2//51 102//51 104//51
f 2//52 104//52 106//52
f 2//53 106//53 108//53
f 2//54 108//54 110//54
f 2//55 110//55 112//55
f 2//56 112//56 114//56
f 2//57 114//57 116//57
f 2//58 116//58 118//58
f 2//59 118//59 120//59
f 2//60 120//60 122//60
f 2//61 122//61 124//61
f 2//62 124//62 126//62
f 2//63 126//63 128//63
f 2//64 128//64 130//64
f 2//65 130//65 132//65
f 2//66 132//66 134//66
f 2//67 134//67 136//67
f 2//68 136//68 138//68
f 2//69 138//69 140//69
f 2//70 140//70 142//70
f 2//71 142//71 144//71
f 2//72 144//72 146//72
f 2//73 146//73 148//73
f 2//74 148//74 150//74
f 2//75 150//75 152//75
f 2//76 152//76 154//76
f 2//77 154//77 156//77
f 2//78 156//78 158//78
f 2//79 158//79 160//79
f 2//80 160//80 162//80
f 2//81 162//81 164//81
f 2//82 164//82 166//82
f 2//83 166//83 168//83
f 2//84 168//84 170//84
f 2//85 170//85 172//85
f 2//86 172//86 174//86
f 2//87 174//87 176//87
f 2//88 176//88 178//88
f 2//89 178//89 180//89
f 2//90 180//90 182//90
f 2//91 182//91 184//91
f 2//92 184//92 186//92
f 2//93 186//93 188//93
f 2//94 188//94 190//94
f 2//95 190//95 192//95
f 2//96 192//96 194//96
f 2//97 194//97 196//97
f 2//98 196//98 198//98
f 2//99 198//99 200//99
f 2//100 200//100 202//100
f 4//101 201//101 3//101
f 3//102 6//102 4//102
f 5//103 8//103 6//103
f 8//104 9//104 10//104
f 9//105 12//105 10//105
f 12//106 13//106 14//106
f 13//107 16//107 14//107
f 15//108 18//108 16//108
f 18//109 19//109 20//109
f 20//110 21//110 22//110
f 21//111 24//111 22//111
f 23//112 26//112 24//112
f 25//113 28//113 26//113
f 27//114 30//114 28//114
f 29//115 32//115 30//115
f 31//116 34//116 32//116
f 33//117 36//117 34//117
f 36//118 37//118 38//118
f 37//119 40//119 38//119
f 40//120 41//120 42//120
f 41//121 44//121 42//121
f 43//122 46//122 44//122
f 46//123 47//123 48//123
f 47//124 50//124 48//124
f 49//125 52//125 50//125
f 51//126 54//126 52//126
f 53//127 56//127 54//127
f 56//128 57//128 58//128
f 57//129 60//129 58//129
f 60//130 61//130 62//130
f 62//131 63//131 64//131
f 63//132 66//132 64//132
f 66//133 67//133 68//133
f 67//134 70//134 68//134
f 69//135 72//135 70//135
f 71//136 74//136 72//136
f 73//137 76//137 74//137
f 76//138 77//138 78//138
f 77//139 80//139 78//139
f 79//140 82//140 80//140
f 82//141 83//141 84//141
f 84//142 85//142 86//142
f 85//143 88//143 86//143
f 87//144 90//144 88//144
f 89//145 92//145 90//145
f 91//146 94//146 92//146
f 94//147 95//147 96//147
f 95//148 98//148 96//148
f 97//149 100//149 98//149
f 100//150 101//150 102//150
f 101//151 104//151 102//151
f 103//152 106//152 104//152
f 105//153 108//153 106//153
f 107//154 110//154 108//154
f 109//155 112//155 110//155
f 111//156 114//156 112//156
f 114//157 115//157 116//157
f 115//158 118//158 116//158
f 117//159 120//159 118//159
f 119//160 122//160 120//160
f 121//161 124//161 122//161
f 123//162 126//162 124//162
f 125//163 128//163 126//163
f 127//164 130//164 128//164
f 129//165 132//165 130//165
f 132//166 133//166 134//166
f 134//167 135//167 136//167
f 136//168 137//168 138//168
f 137//169 140//169 138//169
f 139//170 142//170 140//170
f 141//171 144//171 142//171
f 143//172 146//172 144//172
f 145//173 148//173 146//173
f 148//174 149//174 150//174
f 149//175 152//175 150//175
f 152//176 153//176 154//176
f 153//177 156//177 154//177
f 155//178 158//178 156//178
f 157//179 160//179 158//179
f 159//180 162//180 160//180
f 161//181 164//181 162//181
f 164//182 165//182 166//182
f 166//183 167//183 168//183
f 167//184 170//184 168//184
f 170//185 171//185 172//185
f 171//186 174//186 172//186
f 174//187 175//187 176//187
f 175//188 178//188 176//188
f 177//189 180//189 178//189
f 179//190 182//190 180//190
f 181//191 184//191 182//191
f 184//192 185//192 186//192
f 185//193 188//193 186//193
f 187//194 190//194 188//194
f 189//195 192//195 190//195
f 191//196 194//196 192//196
f 193//197 196//197 194//197
f 196//198 197//198 198//198
f 197//199 200//199 198//199
f 199//200 202//200 200//200
f 1//201 3//201 201//201
f 3//201 1//201 5//201
f 5//201 1//201 7//201
f 7//201 1//201 9//201
f 9//201 1//201 11//201
f 11//201 1//201 13//201
f 13//201 1//201 15//201
f 15//201 1//201 17//201
f 17//201 1//201 19//201
f 19//201 1//201 21//201
f 21//201 1//201 23//201
f 23//201 1//201 25//201
f 25//201 1//201 27//201
f 27//201 1//201 29//201
f 29//201 1//201 31//201
f 31//201 1//201 33//201
f 33//201 1//201 35//201
f 35//201 1//201 37//201
f 37//201 1//201 39//201
f 39//201 1//201 41//201
f 41//201 1//201 43//201
f 43//201 1//201 45//201
f 45//201 1//201 47//201
f 47//201 1//201 49//201
f 49//201 1//201 51//201
f 51//201 1//201 53//201
f 53//201 1//201 55//201
f 55//201 1//201 57//201
f 57//201 1//201 59//201
f 59//201 1//201 61//201
f 61//201 1//201 63//201
f 63//201 1//201 65//201
f 65//201 1//201 67//201
f 67//201 1//201 69//201
f 69//201 1//201 71//201
f 71//201 1//201 73//201
f 73//201 1//201 75//201
f 75//201 1//201 77//201
f 77//201 1//201 79//201
f 79//201 1//201 81//201
f 81//201 1//201 83//201
f 83//201 1//201 85//201
f 85//201 1//201 87//201
f 87//201 1//201 89//201
f 89//201 1//201 91//201
f 91//201 1//201 93//201
f 93//201 1//201 95//201
f 95//201 1//201 97//201
f 97//201 1//201 99//201
f 99//201 1//201 101//201
f 101//201 1//201 103//201
f 103//201 1//201 105//201
f 105//201 1//201 107//201
f 107//201 1//201 109//201
f 109//201 1//201 111//201
f 111//201 1//201 113//201
f 113//201 1//201 115//201
f 115//201 1//201 117//201
f 117//201 1//201 119//201
f 119//201 1//201 121//201
f 121//201 1//201 123//201
f 123//201 1//201 125//201
f 125//201 1//201 127//201
f 127//201 1//201 129//201
f 129//201 1//201 131//201
f 131//201 1//201 133//201
f 133//201 1//201 135//201
f 135//201 1//201 137//201
f 137//201 1//201 139//201
f 139//201 1//201 141//201
f 141//201 1//201 143//201
f 143//201 1//201 145//201
f 145//201 1//201 147//201
f 147//201 1//201 149//201
f 149//201 1//201 151//201
f 151//201 1//201 153//201
f 153//201 1//201 155//201
f 155//201 1//201 157//201
f 157//201 1//201 159//201
f 159//201 1//201 161//201
f 161//201 1//201 163//201
f 163//201 1//201 165//201
f 165//201 1//201 167//201
f 167//201 1//201 169//201
f 169//201 1//201 171//201
f 171//201 1//201 173//201
f 173//201 1//201 175//201
f 175//201 1//201 177//201
f 177//201 1//201 179//201
f 179//201 1//201 181//201
f 181//201 1//201 183//201
f 183//201 1//201 185//201
f 185//201 1//201 187//201
f 187//201 1//201 189//201
f 189//201 1//201 191//201
f 191//201 1//201 193//201
f 193//201 1//201 195//201
f 195//201 1//201 197//201
f 197//201 1//201 199//201
f 199//201 1//201 201//201
f 4//101 202//101 201//101
f 3//102 5//102 6//102
f 5//103 7//103 8//103
f 8//104 7//104 9//104
f 9//105 11//105 12//105
f 12//106 11//106 13//106
f 13//107 15//107 16//107
f 15//108 17//108 18//108
f 18//109 17//109 19//109
f 20//110 19//110 21//110
f 21//111 23//111 24//111
f 23//112 25//112 26//112
f 25//113 27//113 28//113
f 27//114 29//114 30//114
f 29//115 31//115 32//115
f 31//116 33//116 34//116
f 33//117 35//117 36//117
f 36//118 35//118 37//118
f 37//119 39//119 40//119
f 40//120 39//120 41//120
f 41//121 43//121 44//121
f 43//122 45//122 46//122
f 46//123 45//123 47//123
f 47//124 49//124 50//124
f 49//125 51//125 52//125
f 51//126 53//126 54//126
f 53//127 55//127 56//127
f 56//128 55//128 57//128
f 57//129 59//129 60//129
f 60//130 59//130 61//130
f 62//131 61//131 63//131
f 63//132 65//132 66//132
f 66//133 65//133 67//133
f 67//134 69//134 70//134
f 69//135 71//135 72//135
f 71//136 73//136 74//136
f 73//137 75//137 76//137
f 76//138 75//138 77//138
f 77//139 79//139 80//139
f 79//140 81//140 82//140
f 82//141 81//141 83//141
f 84//142 83//142 85//142
f 85//143 87//143 88//143
f 87//144 89//144 90//144
f 89//145 91//145 92//145
f 91//146 93//146 94//146
f 94//147 93//147 95//147
f 95//148 97//148 98//148
f 97//149 99//149 100//149
f 100//150 99//150 101//150
f 101//151 103//151 104//151
f 103//152 105//152 106//152
f 105//153 107//153 108//153
f 107//154 109//154 110//154
f 109//155 111//155 112//155
f 111//156 113//156 114//156
f 114//157 113//157 115//157
f 115//158 117//158 118//158
f 117//159 119//159 120//159
f 119//160 121//160 122//160
f 121//161 123//161 124//161
f 123//162 125//162 126//162
f 125//163 127//163 128//163
f 127//164 129//164 130//164
f 129//165 131//165 132//165
f 132//166 131//166 133//166
f 134//167 133//167 135//167
f 136//168 135//168 137//168
f 137//169 139//169 140//169
f 139//170 141//170 142//170
f 141//171 143//171 144//171
f 143//172 145//172 146//172
f 145//173 147//173 148//173
f 148//174 147//174 149//174
f 149//175 151//175 152//175
f 152//176 151//176 153//176
f 153//177 155//177 156//177
f 155//178 157//178 158//178
f 157//179 159//179 160//179
f 159//180 161//180 162//180
f 161//181 163//181 164//181
f 164//182 163//182 165//182
f 166//183 165//183 167//183
f 167//184 169//184 170//184
f 170//185 169//185 171//185
f 171//186 173//186 174//186
f 174//187 173//187 175//187
f 175//188 177//188 178//188
f 177//189 179//189 180//189
f 179//190 181//190 182//190
f 181//191 183//191 184//191
f 184//192 183//192 185//192
f 185//193 187//193 188//193
f 187//194 189//194 190//194
f 189//195 191//195 192//195
f 191//196 193//196 194//196
f 193//197 195//197 196//197
f 196//198 195//198 197//198
f 197//199 199//199 200//199
f 199//200 201//200 202//200
