# Blender 4.4.1
# www.blender.org
mtllib mat29Cores.mtl
o gear
v -4.100000 0.020000 -6.000000
v -4.107699 0.020000 -6.117474
v -4.130667 0.020000 -6.232937
v -4.168509 0.020000 -6.344415
v -3.600000 0.020000 -6.000000
v -3.611977 0.020000 -6.182737
v -3.647704 0.020000 -6.362347
v -3.706569 0.020000 -6.535757
v -3.512833 0.020000 -6.195789
v -3.551111 0.020000 -6.388228
v -3.614181 0.020000 -6.574025
v -3.418848 0.020000 -6.244864
v -3.454519 0.020000 -6.414111
v -3.508250 0.020000 -6.578517
v -4.100000 1.020000 -6.000000
v -4.107699 1.020000 -6.117474
v -4.130667 1.020000 -6.232937
v -4.168509 1.020000 -6.344415
v -3.600000 1.020000 -6.000000
v -3.611977 1.020000 -6.182737
v -3.647704 1.020000 -6.362347
v -3.706569 1.020000 -6.535757
v -3.512833 1.020000 -6.195789
v -3.551111 1.020000 -6.388228
v -3.614181 1.020000 -6.574025
v -3.418848 1.020000 -6.244864
v -3.454519 1.020000 -6.414111
v -3.508250 1.020000 -6.578517
v -4.220577 0.020000 -6.450000
v -4.285982 0.020000 -6.547885
v -4.363604 0.020000 -6.636396
v -4.452115 0.020000 -6.714018
v -3.787564 0.020000 -6.700000
v -3.889305 0.020000 -6.852266
v -4.010051 0.020000 -6.989949
v -4.147734 0.020000 -7.110695
v -3.809970 0.020000 -6.913142
v -3.939340 0.020000 -7.060660
v -4.086858 0.020000 -7.190030
v -3.753114 0.020000 -7.002635
v -3.868629 0.020000 -7.131371
v -3.997365 0.020000 -7.246886
v -4.220577 1.020000 -6.450000
v -4.285982 1.020000 -6.547885
v -4.363604 1.020000 -6.636396
v -4.452115 1.020000 -6.714018
v -3.787564 1.020000 -6.700000
v -3.889305 1.020000 -6.852266
v -4.010051 1.020000 -6.989949
v -4.147734 1.020000 -7.110695
v -3.809970 1.020000 -6.913142
v -3.939340 1.020000 -7.060660
v -4.086858 1.020000 -7.190030
v -3.753114 1.020000 -7.002635
v -3.868629 1.020000 -7.131371
v -3.997365 1.020000 -7.246886
v -4.550000 0.020000 -6.779423
v -4.655585 0.020000 -6.831491
v -4.767063 0.020000 -6.869333
v -4.882526 0.020000 -6.892301
v -4.300000 0.020000 -7.212436
v -4.464243 0.020000 -7.293431
v -4.637653 0.020000 -7.352296
v -4.817263 0.020000 -7.388023
v -4.425975 0.020000 -7.385819
v -4.611772 0.020000 -7.448889
v -4.804211 0.020000 -7.487167
v -4.421483 0.020000 -7.491750
v -4.585889 0.020000 -7.545481
v -4.755136 0.020000 -7.581152
v -4.550000 1.020000 -6.779423
v -4.655585 1.020000 -6.831491
v -4.767063 1.020000 -6.869333
v -4.882526 1.020000 -6.892301
v -4.300000 1.020000 -7.212436
v -4.464243 1.020000 -7.293431
v -4.637653 1.020000 -7.352296
v -4.817263 1.020000 -7.388023
v -4.425975 1.020000 -7.385819
v -4.611772 1.020000 -7.448889
v -4.804211 1.020000 -7.487167
v -4.421483 1.020000 -7.491750
v -4.585889 1.020000 -7.545481
v -4.755136 1.020000 -7.581152
v -5.000000 0.020000 -6.900000
v -5.117474 0.020000 -6.892301
v -5.232937 0.020000 -6.869333
v -5.344415 0.020000 -6.831491
v -5.000000 0.020000 -7.400000
v -5.182737 0.020000 -7.388023
v -5.362347 0.020000 -7.352296
v -5.535757 0.020000 -7.293431
v -5.195789 0.020000 -7.487167
v -5.388228 0.020000 -7.448889
v -5.574025 0.020000 -7.385819
v -5.244864 0.020000 -7.581152
v -5.414111 0.020000 -7.545481
v -5.578517 0.020000 -7.491750
v -5.000000 1.020000 -6.900000
v -5.117474 1.020000 -6.892301
v -5.232937 1.020000 -6.869333
v -5.344415 1.020000 -6.831491
v -5.000000 1.020000 -7.400000
v -5.182737 1.020000 -7.388023
v -5.362347 1.020000 -7.352296
v -5.535757 1.020000 -7.293431
v -5.195789 1.020000 -7.487167
v -5.388228 1.020000 -7.448889
v -5.574025 1.020000 -7.385819
v -5.244864 1.020000 -7.581152
v -5.414111 1.020000 -7.545481
v -5.578517 1.020000 -7.491750
v -5.450000 0.020000 -6.779423
v -5.547885 0.020000 -6.714018
v -5.636396 0.020000 -6.636396
v -5.714018 0.020000 -6.547885
v -5.700000 0.020000 -7.212436
v -5.852266 0.020000 -7.110695
v -5.989949 0.020000 -6.989949
v -6.110695 0.020000 -6.852266
v -5.913142 0.020000 -7.190030
v -6.060660 0.020000 -7.060660
v -6.190030 0.020000 -6.913142
v -6.002635 0.020000 -7.246886
v -6.131371 0.020000 -7.131371
v -6.246886 0.020000 -7.002635
v -5.450000 1.020000 -6.779423
v -5.547885 1.020000 -6.714018
v -5.636396 1.020000 -6.636396
v -5.714018 1.020000 -6.547885
v -5.700000 1.020000 -7.212436
v -5.852266 1.020000 -7.110695
v -5.989949 1.020000 -6.989949
v -6.110695 1.020000 -6.852266
v -5.913142 1.020000 -7.190030
v -6.060660 1.020000 -7.060660
v -6.190030 1.020000 -6.913142
v -6.002635 1.020000 -7.246886
v -6.131371 1.020000 -7.131371
v -6.246886 1.020000 -7.002635
v -5.779423 0.020000 -6.450000
v -5.831491 0.020000 -6.344415
v -5.869333 0.020000 -6.232937
v -5.892301 0.020000 -6.117474
v -6.212436 0.020000 -6.700000
v -6.293431 0.020000 -6.535757
v -6.352296 0.020000 -6.362347
v -6.388023 0.020000 -6.182737
v -6.385819 0.020000 -6.574025
v -6.448889 0.020000 -6.388228
v -6.487167 0.020000 -6.195789
v -6.491750 0.020000 -6.578517
v -6.545481 0.020000 -6.414111
v -6.581152 0.020000 -6.244864
v -5.779423 1.020000 -6.450000
v -5.831491 1.020000 -6.344415
v -5.869333 1.020000 -6.232937
v -5.892301 1.020000 -6.117474
v -6.212436 1.020000 -6.700000
v -6.293431 1.020000 -6.535757
v -6.352296 1.020000 -6.362347
v -6.388023 1.020000 -6.182737
v -6.385819 1.020000 -6.574025
v -6.448889 1.020000 -6.388228
v -6.487167 1.020000 -6.195789
v -6.491750 1.020000 -6.578517
v -6.545481 1.020000 -6.414111
v -6.581152 1.020000 -6.244864
v -5.900000 0.020000 -6.000000
v -5.892301 0.020000 -5.882526
v -5.869333 0.020000 -5.767063
v -5.831491 0.020000 -5.655585
v -6.400000 0.020000 -6.000000
v -6.388023 0.020000 -5.817263
v -6.352296 0.020000 -5.637653
v -6.293431 0.020000 -5.464243
v -6.487167 0.020000 -5.804211
v -6.448889 0.020000 -5.611772
v -6.385819 0.020000 -5.425975
v -6.581152 0.020000 -5.755136
v -6.545481 0.020000 -5.585889
v -6.491750 0.020000 -5.421483
v -5.900000 1.020000 -6.000000
v -5.892301 1.020000 -5.882526
v -5.869333 1.020000 -5.767063
v -5.831491 1.020000 -5.655585
v -6.400000 1.020000 -6.000000
v -6.388023 1.020000 -5.817263
v -6.352296 1.020000 -5.637653
v -6.293431 1.020000 -5.464243
v -6.487167 1.020000 -5.804211
v -6.448889 1.020000 -5.611772
v -6.385819 1.020000 -5.425975
v -6.581152 1.020000 -5.755136
v -6.545481 1.020000 -5.585889
v -6.491750 1.020000 -5.421483
v -5.779423 0.020000 -5.550000
v -5.714018 0.020000 -5.452115
v -5.636396 0.020000 -5.363604
v -5.547885 0.020000 -5.285982
v -6.212436 0.020000 -5.300000
v -6.110695 0.020000 -5.147734
v -5.989949 0.020000 -5.010051
v -5.852266 0.020000 -4.889305
v -6.190030 0.020000 -5.086858
v -6.060660 0.020000 -4.939340
v -5.913142 0.020000 -4.809970
v -6.246886 0.020000 -4.997365
v -6.131371 0.020000 -4.868629
v -6.002635 0.020000 -4.753114
v -5.779423 1.020000 -5.550000
v -5.714018 1.020000 -5.452115
v -5.636396 1.020000 -5.363604
v -5.547885 1.020000 -5.285982
v -6.212436 1.020000 -5.300000
v -6.110695 1.020000 -5.147734
v -5.989949 1.020000 -5.010051
v -5.852266 1.020000 -4.889305
v -6.190030 1.020000 -5.086858
v -6.060660 1.020000 -4.939340
v -5.913142 1.020000 -4.809970
v -6.246886 1.020000 -4.997365
v -6.131371 1.020000 -4.868629
v -6.002635 1.020000 -4.753114
v -5.450000 0.020000 -5.220577
v -5.344415 0.020000 -5.168509
v -5.232937 0.020000 -5.130667
v -5.117474 0.020000 -5.107699
v -5.700000 0.020000 -4.787564
v -5.535757 0.020000 -4.706569
v -5.362347 0.020000 -4.647704
v -5.182737 0.020000 -4.611977
v -5.574025 0.020000 -4.614181
v -5.388228 0.020000 -4.551111
v -5.195789 0.020000 -4.512833
v -5.578517 0.020000 -4.508250
v -5.414111 0.020000 -4.454519
v -5.244864 0.020000 -4.418848
v -5.450000 1.020000 -5.220577
v -5.344415 1.020000 -5.168509
v -5.232937 1.020000 -5.130667
v -5.117474 1.020000 -5.107699
v -5.700000 1.020000 -4.787564
v -5.535757 1.020000 -4.706569
v -5.362347 1.020000 -4.647704
v -5.182737 1.020000 -4.611977
v -5.574025 1.020000 -4.614181
v -5.388228 1.020000 -4.551111
v -5.195789 1.020000 -4.512833
v -5.578517 1.020000 -4.508250
v -5.414111 1.020000 -4.454519
v -5.244864 1.020000 -4.418848
v -5.000000 0.020000 -5.100000
v -4.882526 0.020000 -5.107699
v -4.767063 0.020000 -5.130667
v -4.655585 0.020000 -5.168509
v -5.000000 0.020000 -4.600000
v -4.817263 0.020000 -4.611977
v -4.637653 0.020000 -4.647704
v -4.464243 0.020000 -4.706569
v -4.804211 0.020000 -4.512833
v -4.611772 0.020000 -4.551111
v -4.425975 0.020000 -4.614181
v -4.755136 0.020000 -4.418848
v -4.585889 0.020000 -4.454519
v -4.421483 0.020000 -4.508250
v -5.000000 1.020000 -5.100000
v -4.882526 1.020000 -5.107699
v -4.767063 1.020000 -5.130667
v -4.655585 1.020000 -5.168509
v -5.000000 1.020000 -4.600000
v -4.817263 1.020000 -4.611977
v -4.637653 1.020000 -4.647704
v -4.464243 1.020000 -4.706569
v -4.804211 1.020000 -4.512833
v -4.611772 1.020000 -4.551111
v -4.425975 1.020000 -4.614181
v -4.755136 1.020000 -4.418848
v -4.585889 1.020000 -4.454519
v -4.421483 1.020000 -4.508250
v -4.550000 0.020000 -5.220577
v -4.452115 0.020000 -5.285982
v -4.363604 0.020000 -5.363604
v -4.285982 0.020000 -5.452115
v -4.300000 0.020000 -4.787564
v -4.147734 0.020000 -4.889305
v -4.010051 0.020000 -5.010051
v -3.889305 0.020000 -5.147734
v -4.086858 0.020000 -4.809970
v -3.939340 0.020000 -4.939340
v -3.809970 0.020000 -5.086858
v -3.997365 0.020000 -4.753114
v -3.868629 0.020000 -4.868629
v -3.753114 0.020000 -4.997365
v -4.550000 1.020000 -5.220577
v -4.452115 1.020000 -5.285982
v -4.363604 1.020000 -5.363604
v -4.285982 1.020000 -5.452115
v -4.300000 1.020000 -4.787564
v -4.147734 1.020000 -4.889305
v -4.010051 1.020000 -5.010051
v -3.889305 1.020000 -5.147734
v -4.086858 1.020000 -4.809970
v -3.939340 1.020000 -4.939340
v -3.809970 1.020000 -5.086858
v -3.997365 1.020000 -4.753114
v -3.868629 1.020000 -4.868629
v -3.753114 1.020000 -4.997365
v -4.220577 0.020000 -5.550000
v -4.168509 0.020000 -5.655585
v -4.130667 0.020000 -5.767063
v -4.107699 0.020000 -5.882526
v -3.787564 0.020000 -5.300000
v -3.706569 0.020000 -5.464243
v -3.647704 0.020000 -5.637653
v -3.611977 0.020000 -5.817263
v -3.614181 0.020000 -5.425975
v -3.551111 0.020000 -5.611772
v -3.512833 0.020000 -5.804211
v -3.508250 0.020000 -5.421483
v -3.454519 0.020000 -5.585889
v -3.418848 0.020000 -5.755136
v -4.220577 1.020000 -5.550000
v -4.168509 1.020000 -5.655585
v -4.130667 1.020000 -5.767063
v -4.107699 1.020000 -5.882526
v -3.787564 1.020000 -5.300000
v -3.706569 1.020000 -5.464243
v -3.647704 1.020000 -5.637653
v -3.611977 1.020000 -5.817263
v -3.614181 1.020000 -5.425975
v -3.551111 1.020000 -5.611772
v -3.512833 1.020000 -5.804211
v -3.508250 1.020000 -5.421483
v -3.454519 1.020000 -5.585889
v -3.418848 1.020000 -5.755136
vn -0.0000 -1.0000 -0.0000
vn 0.7212 -0.6927 -0.0000
vn 0.3420 -0.8968 0.2807
vn 0.1559 -0.8968 -0.4141
vn 0.2237 -0.6699 0.7080
vn -0.1602 -0.6699 -0.7250
vn 0.7281 -0.5931 0.3436
vn 0.6944 -0.6952 -0.1861
vn 0.4588 -0.5931 -0.6616
vn -0.0000 1.0000 -0.0000
vn 0.7213 0.6927 -0.0000
vn 0.3421 0.8968 0.2807
vn 0.1559 0.8968 -0.4141
vn 0.2237 0.6699 0.7080
vn -0.1602 0.6699 -0.7249
vn 0.7281 0.5931 0.3436
vn 0.6944 0.6952 -0.1861
vn 0.4588 0.5931 -0.6616
vn 0.6246 -0.6927 -0.3606
vn 0.4366 -0.8968 0.0721
vn -0.0721 -0.8968 -0.4366
vn 0.5477 -0.6699 0.5012
vn -0.5012 -0.6699 -0.5477
vn 0.8024 -0.5931 -0.0665
vn 0.5083 -0.6952 -0.5083
vn 0.0665 -0.5931 -0.8024
vn 0.6246 0.6927 -0.3606
vn 0.4366 0.8968 0.0721
vn -0.0721 0.8968 -0.4366
vn 0.5477 0.6699 0.5013
vn -0.5012 0.6699 -0.5477
vn 0.8024 0.5931 -0.0665
vn 0.5083 0.6952 -0.5083
vn 0.0665 0.5931 -0.8024
vn 0.3606 -0.6927 -0.6246
vn 0.4141 -0.8968 -0.1559
vn -0.2807 -0.8968 -0.3421
vn 0.7249 -0.6699 0.1602
vn -0.7080 -0.6699 -0.2237
vn 0.6616 -0.5931 -0.4588
vn 0.1861 -0.6952 -0.6944
vn -0.3436 -0.5931 -0.7281
vn 0.3606 0.6927 -0.6246
vn 0.4141 0.8968 -0.1559
vn -0.2807 0.8968 -0.3420
vn 0.7250 0.6699 0.1602
vn -0.7080 0.6699 -0.2237
vn 0.6616 0.5931 -0.4588
vn 0.1861 0.6952 -0.6944
vn -0.3436 0.5931 -0.7281
vn -0.0000 -0.6927 -0.7212
vn 0.2807 -0.8968 -0.3420
vn -0.4141 -0.8968 -0.1559
vn 0.7080 -0.6699 -0.2237
vn -0.7250 -0.6699 0.1602
vn 0.3436 -0.5931 -0.7281
vn -0.1861 -0.6952 -0.6944
vn -0.6616 -0.5931 -0.4588
vn -0.0000 0.6927 -0.7213
vn 0.2807 0.8968 -0.3421
vn -0.4141 0.8968 -0.1559
vn 0.7080 0.6699 -0.2237
vn -0.7249 0.6699 0.1602
vn 0.3436 0.5931 -0.7281
vn -0.1861 0.6952 -0.6944
vn -0.6616 0.5931 -0.4588
vn -0.3606 -0.6927 -0.6246
vn 0.0721 -0.8968 -0.4366
vn -0.4366 -0.8968 0.0721
vn 0.5012 -0.6699 -0.5477
vn -0.5477 -0.6699 0.5012
vn -0.0665 -0.5931 -0.8024
vn -0.5083 -0.6952 -0.5083
vn -0.8024 -0.5931 -0.0665
vn -0.3606 0.6927 -0.6246
vn 0.0721 0.8968 -0.4366
vn -0.4366 0.8968 0.0721
vn 0.5013 0.6699 -0.5477
vn -0.5477 0.6699 0.5012
vn -0.0665 0.5931 -0.8024
vn -0.5083 0.6952 -0.5083
vn -0.8024 0.5931 -0.0665
vn -0.6246 -0.6927 -0.3606
vn -0.1559 -0.8968 -0.4141
vn -0.3421 -0.8968 0.2807
vn 0.1602 -0.6699 -0.7249
vn -0.2237 -0.6699 0.7080
vn -0.4588 -0.5931 -0.6616
vn -0.6944 -0.6952 -0.1861
vn -0.7281 -0.5931 0.3436
vn -0.6246 0.6927 -0.3606
vn -0.1559 0.8968 -0.4141
vn -0.3420 0.8968 0.2807
vn 0.1602 0.6699 -0.7250
vn -0.2237 0.6699 0.7080
vn -0.4588 0.5931 -0.6616
vn -0.6944 0.6952 -0.1861
vn -0.7281 0.5931 0.3436
vn -0.7212 -0.6927 -0.0000
vn -0.3420 -0.8968 -0.2807
vn -0.1559 -0.8968 0.4141
vn -0.2237 -0.6699 -0.7080
vn 0.1602 -0.6699 0.7250
vn -0.7281 -0.5931 -0.3436
vn -0.6944 -0.6952 0.1861
vn -0.4588 -0.5931 0.6616
vn -0.7213 0.6927 -0.0000
vn -0.3421 0.8968 -0.2807
vn -0.1559 0.8968 0.4141
vn -0.2237 0.6699 -0.7080
vn 0.1602 0.6699 0.7249
vn -0.7281 0.5931 -0.3436
vn -0.6944 0.6952 0.1861
vn -0.4588 0.5931 0.6616
vn -0.6246 -0.6927 0.3606
vn -0.4366 -0.8968 -0.0721
vn 0.0721 -0.8968 0.4366
vn -0.5477 -0.6699 -0.5012
vn 0.5012 -0.6699 0.5477
vn -0.8024 -0.5931 0.0665
vn -0.5083 -0.6952 0.5083
vn -0.0665 -0.5931 0.8024
vn -0.6246 0.6927 0.3606
vn -0.4366 0.8968 -0.0721
vn 0.0721 0.8968 0.4366
vn -0.5477 0.6699 -0.5013
vn 0.5012 0.6699 0.5477
vn -0.8024 0.5931 0.0665
vn -0.5083 0.6952 0.5083
vn -0.0665 0.5931 0.8024
vn -0.3606 -0.6927 0.6246
vn -0.4141 -0.8968 0.1559
vn 0.2807 -0.8968 0.3421
vn -0.7249 -0.6699 -0.1602
vn 0.7080 -0.6699 0.2237
vn -0.6616 -0.5931 0.4588
vn -0.1861 -0.6952 0.6944
vn 0.3436 -0.5931 0.7281
vn -0.3606 0.6927 0.6246
vn -0.4141 0.8968 0.1559
vn 0.2807 0.8968 0.3420
vn -0.7250 0.6699 -0.1602
vn 0.7080 0.6699 0.2237
vn -0.6616 0.5931 0.4588
vn -0.1861 0.6952 0.6944
vn 0.3436 0.5931 0.7281
vn -0.0000 -0.6927 0.7212
vn -0.2807 -0.8968 0.3420
vn 0.4141 -0.8968 0.1559
vn -0.7080 -0.6699 0.2237
vn 0.7250 -0.6699 -0.1602
vn -0.3436 -0.5931 0.7281
vn 0.1861 -0.6952 0.6944
vn 0.6616 -0.5931 0.4588
vn -0.0000 0.6927 0.7213
vn -0.2807 0.8968 0.3421
vn 0.4141 0.8968 0.1559
vn -0.7080 0.6699 0.2237
vn 0.7249 0.6699 -0.1602
vn -0.3436 0.5931 0.7281
vn 0.1861 0.6952 0.6944
vn 0.6616 0.5931 0.4588
vn 0.3606 -0.6927 0.6246
vn -0.0721 -0.8968 0.4366
vn 0.4366 -0.8968 -0.0721
vn -0.5012 -0.6699 0.5477
vn 0.5477 -0.6699 -0.5012
vn 0.0665 -0.5931 0.8024
vn 0.5083 -0.6952 0.5083
vn 0.8024 -0.5931 0.0665
vn 0.3606 0.6927 0.6246
vn -0.0721 0.8968 0.4366
vn 0.4366 0.8968 -0.0721
vn -0.5013 0.6699 0.5477
vn 0.5477 0.6699 -0.5012
vn 0.0665 0.5931 0.8024
vn 0.5083 0.6952 0.5083
vn 0.8024 0.5931 0.0665
vn 0.6246 -0.6927 0.3606
vn 0.1559 -0.8968 0.4141
vn 0.3421 -0.8968 -0.2807
vn -0.1602 -0.6699 0.7249
vn 0.2237 -0.6699 -0.7080
vn 0.4588 -0.5931 0.6616
vn 0.6944 -0.6952 0.1861
vn 0.7281 -0.5931 -0.3436
vn 0.6246 0.6927 0.3606
vn 0.1559 0.8968 0.4141
vn 0.3420 0.8968 -0.2807
vn -0.1602 0.6699 0.7250
vn 0.2237 0.6699 -0.7080
vn 0.4588 0.5931 0.6616
vn 0.6944 0.6952 0.1861
vn 0.7281 0.5931 -0.3436
s 1
usemtl matCorOuroPolido
f 5//2 2//1 6//3
f 2//1 7//1 6//3
f 7//1 4//1 8//4
f 9//5 7//1 10//1
f 7//1 11//6 10//1
f 12//7 10//1 13//8
f 10//1 14//9 13//8
f 19//11 16//10 15//10
f 20//12 17//10 16//10
f 21//10 18//10 17//10
f 23//14 21//10 20//12
f 24//10 22//13 21//10
f 26//16 24//10 23//14
f 24//10 28//18 25//15
f 5//2 20//12 19//11
f 6//3 23//14 20//12
f 9//5 26//16 23//14
f 12//7 27//17 26//16
f 13//8 28//18 27//17
f 14//9 25//15 28//18
f 11//6 22//13 25//15
f 29//1 34//20 33//19
f 30//1 35//1 34//20
f 31//1 36//21 35//1
f 34//20 38//1 37//22
f 38//1 36//21 39//23
f 40//24 38//1 41//25
f 38//1 42//26 41//25
f 47//27 44//10 43//10
f 48//28 45//10 44//10
f 45//10 50//29 46//10
f 51//30 49//10 48//28
f 52//10 50//29 49//10
f 54//32 52//10 51//30
f 52//10 56//34 53//31
f 33//19 48//28 47//27
f 34//20 51//30 48//28
f 37//22 54//32 51//30
f 40//24 55//33 54//32
f 41//25 56//34 55//33
f 42//26 53//31 56//34
f 39//23 50//29 53//31
f 4//1 33//19 8//4
f 33//19 22//13 8//4
f 47//27 18//10 22//13
f 57//1 62//36 61//35
f 58//1 63//1 62//36
f 59//1 64//37 63//1
f 62//36 66//1 65//38
f 63//1 67//39 66//1
f 68//40 66//1 69//41
f 66//1 70//42 69//41
f 75//43 72//10 71//10
f 72//10 77//10 73//10
f 77//10 74//10 73//10
f 79//46 77//10 76//44
f 77//10 81//47 78//45
f 82//48 80//10 79//46
f 80//10 84//50 81//47
f 61//35 76//44 75//43
f 62//36 79//46 76//44
f 65//38 82//48 79//46
f 68//40 83//49 82//48
f 69//41 84//50 83//49
f 70//42 81//47 84//50
f 67//39 78//45 81//47
f 57//1 36//21 32//1
f 61//35 50//29 36//21
f 75//43 46//10 50//29
f 89//51 86//1 90//52
f 86//1 91//1 90//52
f 91//1 88//1 92//53
f 93//54 91//1 94//1
f 91//1 95//55 94//1
f 96//56 94//1 97//57
f 94//1 98//58 97//57
f 103//59 100//10 99//10
f 104//60 101//10 100//10
f 105//10 102//10 101//10
f 107//62 105//10 104//60
f 108//10 106//61 105//10
f 110//64 108//10 107//62
f 108//10 112//66 109//63
f 89//51 104//60 103//59
f 90//52 107//62 104//60
f 93//54 110//64 107//62
f 96//56 111//65 110//64
f 97//57 112//66 111//65
f 98//58 109//63 112//66
f 95//55 106//61 109//63
f 85//1 64//37 60//1
f 89//51 78//45 64//37
f 103//59 74//10 78//45
f 113//1 118//68 117//67
f 114//1 119//1 118//68
f 115//1 120//69 119//1
f 118//68 122//1 121//70
f 122//1 120//69 123//71
f 124//72 122//1 125//73
f 122//1 126//74 125//73
f 131//75 128//10 127//10
f 132//76 129//10 128//10
f 129//10 134//77 130//10
f 135//78 133//10 132//76
f 136//10 134//77 133//10
f 138//80 136//10 135//78
f 136//10 140//82 137//79
f 117//67 132//76 131//75
f 118//68 135//78 132//76
f 121//70 138//80 135//78
f 124//72 139//81 138//80
f 125//73 140//82 139//81
f 126//74 137//79 140//82
f 123//71 134//77 137//79
f 88//1 117//67 92//53
f 117//67 106//61 92//53
f 131//75 102//10 106//61
f 141//1 146//84 145//83
f 142//1 147//1 146//84
f 143//1 148//85 147//1
f 146//84 150//1 149//86
f 147//1 151//87 150//1
f 152//88 150//1 153//89
f 150//1 154//90 153//89
f 159//91 156//10 155//10
f 156//10 161//10 157//10
f 161//10 158//10 157//10
f 163//94 161//10 160//92
f 161//10 165//95 162//93
f 166//96 164//10 163//94
f 164//10 168//98 165//95
f 145//83 160//92 159//91
f 146//84 163//94 160//92
f 149//86 166//96 163//94
f 152//88 167//97 166//96
f 153//89 168//98 167//97
f 154//90 165//95 168//98
f 151//87 162//93 165//95
f 141//1 120//69 116//1
f 145//83 134//77 120//69
f 159//91 130//10 134//77
f 173//99 170//1 174//100
f 170//1 175//1 174//100
f 175//1 172//1 176//101
f 177//102 175//1 178//1
f 175//1 179//103 178//1
f 180//104 178//1 181//105
f 178//1 182//106 181//105
f 187//107 184//10 183//10
f 188//108 185//10 184//10
f 189//10 186//10 185//10
f 191//110 189//10 188//108
f 192//10 190//109 189//10
f 194//112 192//10 191//110
f 192//10 196//114 193//111
f 173//99 188//108 187//107
f 174//100 191//110 188//108
f 177//102 194//112 191//110
f 180//104 195//113 194//112
f 181//105 196//114 195//113
f 182//106 193//111 196//114
f 179//103 190//109 193//111
f 169//1 148//85 144//1
f 173//99 162//93 148//85
f 187//107 158//10 162//93
f 197//1 202//116 201//115
f 198//1 203//1 202//116
f 199//1 204//117 203//1
f 202//116 206//1 205//118
f 206//1 204//117 207//119
f 208//120 206//1 209//121
f 206//1 210//122 209//121
f 215//123 212//10 211//10
f 216//124 213//10 212//10
f 213//10 218//125 214//10
f 219//126 217//10 216//124
f 220//10 218//125 217//10
f 222//128 220//10 219//126
f 220//10 224//130 221//127
f 201//115 216//124 215//123
f 202//116 219//126 216//124
f 205//118 222//128 219//126
f 208//120 223//129 222//128
f 209//121 224//130 223//129
f 210//122 221//127 224//130
f 207//119 218//125 221//127
f 172//1 201//115 176//101
f 201//115 190//109 176//101
f 215//123 186//10 190//109
f 225//1 230//132 229//131
f 226//1 231//1 230//132
f 227//1 232//133 231//1
f 230//132 234//1 233//134
f 231//1 235//135 234//1
f 236//136 234//1 237//137
f 234//1 238//138 237//137
f 243//139 240//10 239//10
f 240//10 245//10 241//10
f 245//10 242//10 241//10
f 247//142 245//10 244//140
f 245//10 249//143 246//141
f 250//144 248//10 247//142
f 248//10 252//146 249//143
f 229//131 244//140 243//139
f 230//132 247//142 244//140
f 233//134 250//144 247//142
f 236//136 251//145 250//144
f 237//137 252//146 251//145
f 238//138 249//143 252//146
f 235//135 246//141 249//143
f 225//1 204//117 200//1
f 229//131 218//125 204//117
f 243//139 214//10 218//125
f 257//147 254//1 258//148
f 254//1 259//1 258//148
f 259//1 256//1 260//149
f 261//150 259//1 262//1
f 259//1 263//151 262//1
f 264//152 262//1 265//153
f 262//1 266//154 265//153
f 271//155 268//10 267//10
f 272//156 269//10 268//10
f 273//10 270//10 269//10
f 275//158 273//10 272//156
f 276//10 274//157 273//10
f 278//160 276//10 275//158
f 276//10 280//162 277//159
f 257//147 272//156 271//155
f 258//148 275//158 272//156
f 261//150 278//160 275//158
f 264//152 279//161 278//160
f 265//153 280//162 279//161
f 266//154 277//159 280//162
f 263//151 274//157 277//159
f 253//1 232//133 228//1
f 257//147 246//141 232//133
f 271//155 242//10 246//141
f 281//1 286//164 285//163
f 282//1 287//1 286//164
f 283//1 288//165 287//1
f 286//164 290//1 289//166
f 290//1 288//165 291//167
f 292//168 290//1 293//169
f 290//1 294//170 293//169
f 299//171 296//10 295//10
f 300//172 297//10 296//10
f 297//10 302//173 298//10
f 303//174 301//10 300//172
f 304//10 302//173 301//10
f 306//176 304//10 303//174
f 304//10 308//178 305//175
f 285//163 300//172 299//171
f 286//164 303//174 300//172
f 289//166 306//176 303//174
f 292//168 307//177 306//176
f 293//169 308//178 307//177
f 294//170 305//175 308//178
f 291//167 302//173 305//175
f 256//1 285//163 260//149
f 285//163 274//157 260//149
f 299//171 270//10 274//157
f 309//1 314//180 313//179
f 310//1 315//1 314//180
f 311//1 316//181 315//1
f 314//180 318//1 317//182
f 315//1 319//183 318//1
f 320//184 318//1 321//185
f 318//1 322//186 321//185
f 327//187 324//10 323//10
f 324//10 329//10 325//10
f 329//10 326//10 325//10
f 331//190 329//10 328//188
f 329//10 333//191 330//189
f 334//192 332//10 331//190
f 332//10 336//194 333//191
f 313//179 328//188 327//187
f 314//180 331//190 328//188
f 317//182 334//192 331//190
f 320//184 335//193 334//192
f 321//185 336//194 335//193
f 322//186 333//191 336//194
f 319//183 330//189 333//191
f 309//1 288//165 284//1
f 313//179 302//173 288//165
f 327//187 298//10 302//173
f 1//1 316//181 312//1
f 5//2 330//189 316//181
f 19//11 326//10 330//189
f 5//2 1//1 2//1
f 2//1 3//1 7//1
f 7//1 3//1 4//1
f 9//5 6//3 7//1
f 7//1 8//4 11//6
f 12//7 9//5 10//1
f 10//1 11//6 14//9
f 19//11 20//12 16//10
f 20//12 21//10 17//10
f 21//10 22//13 18//10
f 23//14 24//10 21//10
f 24//10 25//15 22//13
f 26//16 27//17 24//10
f 24//10 27//17 28//18
f 5//2 6//3 20//12
f 6//3 9//5 23//14
f 9//5 12//7 26//16
f 12//7 13//8 27//17
f 13//8 14//9 28//18
f 14//9 11//6 25//15
f 11//6 8//4 22//13
f 29//1 30//1 34//20
f 30//1 31//1 35//1
f 31//1 32//1 36//21
f 34//20 35//1 38//1
f 38//1 35//1 36//21
f 40//24 37//22 38//1
f 38//1 39//23 42//26
f 47//27 48//28 44//10
f 48//28 49//10 45//10
f 45//10 49//10 50//29
f 51//30 52//10 49//10
f 52//10 53//31 50//29
f 54//32 55//33 52//10
f 52//10 55//33 56//34
f 33//19 34//20 48//28
f 34//20 37//22 51//30
f 37//22 40//24 54//32
f 40//24 41//25 55//33
f 41//25 42//26 56//34
f 42//26 39//23 53//31
f 39//23 36//21 50//29
f 4//1 29//1 33//19
f 33//19 47//27 22//13
f 47//27 43//10 18//10
f 57//1 58//1 62//36
f 58//1 59//1 63//1
f 59//1 60//1 64//37
f 62//36 63//1 66//1
f 63//1 64//37 67//39
f 68//40 65//38 66//1
f 66//1 67//39 70//42
f 75//43 76//44 72//10
f 72//10 76//44 77//10
f 77//10 78//45 74//10
f 79//46 80//10 77//10
f 77//10 80//10 81//47
f 82//48 83//49 80//10
f 80//10 83//49 84//50
f 61//35 62//36 76//44
f 62//36 65//38 79//46
f 65//38 68//40 82//48
f 68//40 69//41 83//49
f 69//41 70//42 84//50
f 70//42 67//39 81//47
f 67//39 64//37 78//45
f 57//1 61//35 36//21
f 61//35 75//43 50//29
f 75//43 71//10 46//10
f 89//51 85//1 86//1
f 86//1 87//1 91//1
f 91//1 87//1 88//1
f 93//54 90//52 91//1
f 91//1 92//53 95//55
f 96//56 93//54 94//1
f 94//1 95//55 98//58
f 103//59 104//60 100//10
f 104//60 105//10 101//10
f 105//10 106//61 102//10
f 107//62 108//10 105//10
f 108//10 109//63 106//61
f 110//64 111//65 108//10
f 108//10 111//65 112//66
f 89//51 90//52 104//60
f 90//52 93//54 107//62
f 93//54 96//56 110//64
f 96//56 97//57 111//65
f 97//57 98//58 112//66
f 98//58 95//55 109//63
f 95//55 92//53 106//61
f 85//1 89//51 64//37
f 89//51 103//59 78//45
f 103//59 99//10 74//10
f 113//1 114//1 118//68
f 114//1 115//1 119//1
f 115//1 116//1 120//69
f 118//68 119//1 122//1
f 122//1 119//1 120//69
f 124//72 121//70 122//1
f 122//1 123//71 126//74
f 131//75 132//76 128//10
f 132//76 133//10 129//10
f 129//10 133//10 134//77
f 135//78 136//10 133//10
f 136//10 137//79 134//77
f 138//80 139//81 136//10
f 136//10 139//81 140//82
f 117//67 118//68 132//76
f 118//68 121//70 135//78
f 121//70 124//72 138//80
f 124//72 125//73 139//81
f 125//73 126//74 140//82
f 126//74 123//71 137//79
f 123//71 120//69 134//77
f 88//1 113//1 117//67
f 117//67 131//75 106//61
f 131//75 127//10 102//10
f 141//1 142//1 146//84
f 142//1 143//1 147//1
f 143//1 144//1 148//85
f 146//84 147//1 150//1
f 147//1 148//85 151//87
f 152//88 149//86 150//1
f 150//1 151//87 154//90
f 159//91 160//92 156//10
f 156//10 160//92 161//10
f 161//10 162//93 158//10
f 163//94 164//10 161//10
f 161//10 164//10 165//95
f 166//96 167//97 164//10
f 164//10 167//97 168//98
f 145//83 146//84 160//92
f 146//84 149//86 163//94
f 149//86 152//88 166//96
f 152//88 153//89 167//97
f 153//89 154//90 168//98
f 154//90 151//87 165//95
f 151//87 148//85 162//93
f 141//1 145//83 120//69
f 145//83 159//91 134//77
f 159//91 155//10 130//10
f 173//99 169//1 170//1
f 170//1 171//1 175//1
f 175//1 171//1 172//1
f 177//102 174//100 175//1
f 175//1 176//101 179//103
f 180//104 177//102 178//1
f 178//1 179//103 182//106
f 187//107 188//108 184//10
f 188//108 189//10 185//10
f 189//10 190//109 186//10
f 191//110 192//10 189//10
f 192//10 193//111 190//109
f 194//112 195//113 192//10
f 192//10 195//113 196//114
f 173//99 174//100 188//108
f 174//100 177//102 191//110
f 177//102 180//104 194//112
f 180//104 181//105 195//113
f 181//105 182//106 196//114
f 182//106 179//103 193//111
f 179//103 176//101 190//109
f 169//1 173//99 148//85
f 173//99 187//107 162//93
f 187//107 183//10 158//10
f 197//1 198//1 202//116
f 198//1 199//1 203//1
f 199//1 200//1 204//117
f 202//116 203//1 206//1
f 206//1 203//1 204//117
f 208//120 205//118 206//1
f 206//1 207//119 210//122
f 215//123 216//124 212//10
f 216//124 217//10 213//10
f 213//10 217//10 218//125
f 219//126 220//10 217//10
f 220//10 221//127 218//125
f 222//128 223//129 220//10
f 220//10 223//129 224//130
f 201//115 202//116 216//124
f 202//116 205//118 219//126
f 205//118 208//120 222//128
f 208//120 209//121 223//129
f 209//121 210//122 224//130
f 210//122 207//119 221//127
f 207//119 204//117 218//125
f 172//1 197//1 201//115
f 201//115 215//123 190//109
f 215//123 211//10 186//10
f 225//1 226//1 230//132
f 226//1 227//1 231//1
f 227//1 228//1 232//133
f 230//132 231//1 234//1
f 231//1 232//133 235//135
f 236//136 233//134 234//1
f 234//1 235//135 238//138
f 243//139 244//140 240//10
f 240//10 244//140 245//10
f 245//10 246//141 242//10
f 247//142 248//10 245//10
f 245//10 248//10 249//143
f 250//144 251//145 248//10
f 248//10 251//145 252//146
f 229//131 230//132 244//140
f 230//132 233//134 247//142
f 233//134 236//136 250//144
f 236//136 237//137 251//145
f 237//137 238//138 252//146
f 238//138 235//135 249//143
f 235//135 232//133 246//141
f 225//1 229//131 204//117
f 229//131 243//139 218//125
f 243//139 239//10 214//10
f 257//147 253//1 254//1
f 254//1 255//1 259//1
f 259//1 255//1 256//1
f 261//150 258//148 259//1
f 259//1 260//149 263//151
f 264//152 261//150 262//1
f 262//1 263//151 266//154
f 271//155 272//156 268//10
f 272//156 273//10 269//10
f 273//10 274//157 270//10
f 275//158 276//10 273//10
f 276//10 277//159 274//157
f 278//160 279//161 276//10
f 276//10 279//161 280//162
f 257//147 258//148 272//156
f 258//148 261//150 275//158
f 261//150 264//152 278//160
f 264//152 265//153 279//161
f 265//153 266//154 280//162
f 266//154 263//151 277//159
f 263//151 260//149 274//157
f 253//1 257//147 232//133
f 257//147 271//155 246//141
f 271//155 267//10 242//10
f 281//1 282//1 286//164
f 282//1 283//1 287//1
f 283//1 284//1 288//165
f 286//164 287//1 290//1
f 290//1 287//1 288//165
f 292//168 289//166 290//1
f 290//1 291//167 294//170
f 299//171 300//172 296//10
f 300//172 301//10 297//10
f 297//10 301//10 302//173
f 303//174 304//10 301//10
f 304//10 305//175 302//173
f 306//176 307//177 304//10
f 304//10 307//177 308//178
f 285//163 286//164 300//172
f 286//164 289//166 303//174
f 289//166 292//168 306//176
f 292//168 293//169 307//177
f 293//169 294//170 308//178
f 294//170 291//167 305//175
f 291//167 288//165 302//173
f 256//1 281//1 285//163
f 285//163 299//171 274//157
f 299//171 295//10 270//10
f 309//1 310//1 314//180
f 310//1 311//1 315//1
f 311//1 312//1 316//181
f 314//180 315//1 318//1
f 315//1 316//181 319//183
f 320//184 317//182 318//1
f 318//1 319//183 322//186
f 327//187 328//188 324//10
f 324//10 328//188 329//10
f 329//10 330//189 326//10
f 331//190 332//10 329//10
f 329//10 332//10 333//191
f 334//192 335//193 332//10
f 332//10 335//193 336//194
f 313//179 314//180 328//188
f 314//180 317//182 331//190
f 317//182 320//184 334//192
f 320//184 321//185 335//193
f 321//185 322//186 336//194
f 322//186 319//183 333//191
f 319//183 316//181 330//189
f 309//1 313//179 288//165
f 313//179 327//187 302//173
f 327//187 323//10 298//10
f 1//1 5//2 316//181
f 5//2 19//11 330//189
f 19//11 15//10 326//10
