# Blender 4.4.1
# www.blender.org
mtllib lua.mtl
o lua
v 0.000000 0.294236 -0.058527
v 0.000000 0.249441 -0.166671
v 0.000000 0.212132 -0.212132
v 0.000000 0.114805 -0.277164
v 0.000000 0.000000 -0.300000
v 0.000000 -0.114805 -0.277164
v 0.000000 -0.166671 -0.249441
v 0.000000 -0.212132 -0.212132
v 0.000000 -0.249441 -0.166671
v 0.011418 0.294236 -0.057403
v 0.022397 0.277164 -0.112599
v 0.032516 0.249441 -0.163469
v 0.041385 0.212132 -0.208056
v 0.048664 0.166671 -0.244648
v 0.054072 0.114805 -0.271838
v 0.057403 0.058527 -0.288582
v 0.058527 0.000000 -0.294236
v 0.057403 -0.058527 -0.288582
v 0.054072 -0.114805 -0.271838
v 0.048664 -0.166671 -0.244648
v 0.041385 -0.212132 -0.208056
v 0.032516 -0.249441 -0.163469
v 0.022397 -0.277164 -0.112599
v 0.011418 -0.294236 -0.057403
v 0.022397 0.294236 -0.054072
v 0.043934 0.277164 -0.106066
v 0.063782 0.249441 -0.153984
v 0.081179 0.212132 -0.195984
v 0.095457 0.166671 -0.230453
v 0.106066 0.114805 -0.256066
v 0.112599 0.058527 -0.271838
v 0.114805 0.000000 -0.277164
v 0.112599 -0.058527 -0.271838
v 0.106066 -0.114805 -0.256066
v 0.095457 -0.166671 -0.230453
v 0.081179 -0.212132 -0.195984
v 0.063782 -0.249441 -0.153984
v 0.043934 -0.277164 -0.106066
v 0.022397 -0.294236 -0.054072
v 0.032516 0.294236 -0.048664
v 0.063782 0.277164 -0.095457
v 0.092597 0.249441 -0.138582
v 0.117854 0.212132 -0.176381
v 0.138582 0.166671 -0.207402
v 0.153984 0.114805 -0.230453
v 0.163469 0.058527 -0.244648
v 0.166671 0.000000 -0.249441
v 0.163469 -0.058527 -0.244648
v 0.153984 -0.114805 -0.230453
v 0.138582 -0.166671 -0.207402
v 0.117854 -0.212132 -0.176381
v 0.092597 -0.249441 -0.138582
v 0.063782 -0.277164 -0.095457
v 0.032516 -0.294236 -0.048664
v 0.041385 0.294236 -0.041385
v 0.081179 0.277164 -0.081179
v 0.117854 0.249441 -0.117854
v 0.150000 0.212132 -0.150000
v 0.176381 0.166671 -0.176381
v 0.195984 0.114805 -0.195984
v 0.208056 0.058527 -0.208056
v 0.212132 0.000000 -0.212132
v 0.208056 -0.058527 -0.208056
v 0.195984 -0.114805 -0.195984
v 0.176381 -0.166671 -0.176381
v 0.150000 -0.212132 -0.150000
v 0.117854 -0.249441 -0.117854
v 0.081179 -0.277164 -0.081179
v 0.041385 -0.294236 -0.041385
v 0.048664 0.294236 -0.032516
v 0.095457 0.277164 -0.063782
v 0.138582 0.249441 -0.092597
v 0.176381 0.212132 -0.117854
v 0.207402 0.166671 -0.138582
v 0.230453 0.114805 -0.153984
v 0.244648 0.058527 -0.163469
v 0.249441 0.000000 -0.166671
v 0.244648 -0.058527 -0.163469
v 0.230453 -0.114805 -0.153984
v 0.207402 -0.166671 -0.138582
v 0.176381 -0.212132 -0.117854
v 0.138582 -0.249441 -0.092597
v 0.095457 -0.277164 -0.063782
v 0.048664 -0.294236 -0.032516
v 0.054072 0.294236 -0.022397
v 0.106066 0.277164 -0.043934
v 0.153984 0.249441 -0.063782
v 0.195984 0.212132 -0.081179
v 0.230453 0.166671 -0.095457
v 0.256066 0.114805 -0.106066
v 0.271838 0.058527 -0.112599
v 0.277164 0.000000 -0.114805
v 0.271838 -0.058527 -0.112599
v 0.256066 -0.114805 -0.106066
v 0.230453 -0.166671 -0.095457
v 0.195984 -0.212132 -0.081179
v 0.153984 -0.249441 -0.063782
v 0.106066 -0.277164 -0.043934
v 0.054072 -0.294236 -0.022397
v 0.057403 0.294236 -0.011418
v 0.112599 0.277164 -0.022397
v 0.163469 0.249441 -0.032516
v 0.208056 0.212132 -0.041385
v 0.244648 0.166671 -0.048663
v 0.271838 0.114805 -0.054072
v 0.288582 0.058527 -0.057403
v 0.294236 0.000000 -0.058527
v 0.288582 -0.058527 -0.057403
v 0.271838 -0.114805 -0.054072
v 0.244648 -0.166671 -0.048663
v 0.208056 -0.212132 -0.041385
v 0.163469 -0.249441 -0.032516
v 0.112599 -0.277164 -0.022397
v 0.057403 -0.294236 -0.011418
v 0.058527 0.294236 0.000000
v 0.114805 0.277164 0.000000
v 0.166671 0.249441 0.000000
v 0.212132 0.212132 0.000000
v 0.249441 0.166671 0.000000
v 0.277164 0.114805 0.000000
v 0.294236 0.058527 0.000000
v 0.300000 0.000000 0.000000
v 0.294236 -0.058527 0.000000
v 0.277164 -0.114805 0.000000
v 0.249441 -0.166671 0.000000
v 0.212132 -0.212132 0.000000
v 0.166671 -0.249441 0.000000
v 0.114805 -0.277164 0.000000
v 0.058527 -0.294236 0.000000
v 0.057403 0.294236 0.011418
v 0.112599 0.277164 0.022397
v 0.163469 0.249441 0.032516
v 0.208056 0.212132 0.041385
v 0.244648 0.166671 0.048664
v 0.271838 0.114805 0.054072
v 0.288582 0.058527 0.057403
v 0.294236 0.000000 0.058527
v 0.288582 -0.058527 0.057403
v 0.271838 -0.114805 0.054072
v 0.244648 -0.166671 0.048664
v 0.208056 -0.212132 0.041385
v 0.163469 -0.249441 0.032516
v 0.112599 -0.277164 0.022397
v 0.057403 -0.294236 0.011418
v 0.054072 0.294236 0.022397
v 0.106066 0.277164 0.043934
v 0.153984 0.249441 0.063782
v 0.195984 0.212132 0.081179
v 0.230453 0.166671 0.095457
v 0.256066 0.114805 0.106066
v 0.271838 0.058527 0.112599
v 0.277164 0.000000 0.114805
v 0.271838 -0.058527 0.112599
v 0.256066 -0.114805 0.106066
v 0.230453 -0.166671 0.095457
v 0.195984 -0.212132 0.081179
v 0.153984 -0.249441 0.063782
v 0.106066 -0.277164 0.043934
v 0.054072 -0.294236 0.022397
v 0.048663 0.294236 0.032516
v 0.095457 0.277164 0.063782
v 0.138582 0.249441 0.092597
v 0.176381 0.212132 0.117854
v 0.207402 0.166671 0.138582
v 0.230453 0.114805 0.153984
v 0.244648 0.058527 0.163469
v 0.249441 0.000000 0.166671
v 0.244648 -0.058527 0.163469
v 0.230453 -0.114805 0.153984
v 0.207402 -0.166671 0.138582
v 0.176381 -0.212132 0.117854
v 0.138582 -0.249441 0.092597
v 0.095457 -0.277164 0.063782
v 0.048663 -0.294236 0.032516
v 0.041385 0.294236 0.041385
v 0.081179 0.277164 0.081179
v 0.117854 0.249441 0.117854
v 0.150000 0.212132 0.150000
v 0.176381 0.166671 0.176381
v 0.195984 0.114805 0.195984
v 0.208056 0.058527 0.208056
v 0.212132 0.000000 0.212132
v 0.208056 -0.058527 0.208056
v 0.195984 -0.114805 0.195984
v 0.176381 -0.166671 0.176381
v 0.150000 -0.212132 0.150000
v 0.117854 -0.249441 0.117854
v 0.081179 -0.277164 0.081179
v 0.041385 -0.294236 0.041385
v 0.032516 0.294236 0.048663
v 0.063782 0.277164 0.095457
v 0.092597 0.249441 0.138582
v 0.117854 0.212132 0.176381
v 0.138582 0.166671 0.207402
v 0.153984 0.114805 0.230453
v 0.163468 0.058527 0.244648
v 0.166671 0.000000 0.249441
v 0.163468 -0.058527 0.244648
v 0.153984 -0.114805 0.230453
v 0.138582 -0.166671 0.207402
v 0.117854 -0.212132 0.176381
v 0.092597 -0.249441 0.138582
v 0.063782 -0.277164 0.095457
v 0.032516 -0.294236 0.048663
v 0.022397 0.294236 0.054072
v 0.043934 0.277164 0.106066
v 0.063782 0.249441 0.153984
v 0.081179 0.212132 0.195984
v 0.095457 0.166671 0.230453
v 0.106066 0.114805 0.256066
v 0.112599 0.058527 0.271838
v 0.114805 0.000000 0.277164
v 0.112599 -0.058527 0.271838
v 0.106066 -0.114805 0.256066
v 0.095457 -0.166671 0.230453
v 0.081179 -0.212132 0.195984
v 0.063782 -0.249441 0.153984
v 0.043934 -0.277164 0.106066
v 0.022397 -0.294236 0.054072
v 0.011418 0.294236 0.057402
v 0.022397 0.277164 0.112599
v 0.032516 0.249441 0.163469
v 0.041385 0.212132 0.208056
v 0.048663 0.166671 0.244648
v 0.054072 0.114805 0.271838
v 0.057402 0.058527 0.288582
v 0.058527 0.000000 0.294235
v 0.057402 -0.058527 0.288582
v 0.054072 -0.114805 0.271838
v 0.048663 -0.166671 0.244648
v 0.041385 -0.212132 0.208056
v 0.032516 -0.249441 0.163469
v 0.022397 -0.277164 0.112599
v 0.011418 -0.294236 0.057402
v -0.000000 0.294236 0.058527
v -0.000000 0.277164 0.114805
v -0.000000 0.249441 0.166671
v -0.000000 0.212132 0.212132
v -0.000000 0.166671 0.249441
v -0.000000 0.114805 0.277164
v -0.000000 0.058527 0.294236
v -0.000000 0.000000 0.300000
v -0.000000 -0.058527 0.294236
v -0.000000 -0.114805 0.277164
v -0.000000 -0.166671 0.249441
v -0.000000 -0.212132 0.212132
v -0.000000 -0.249441 0.166671
v -0.000000 -0.277164 0.114805
v -0.000000 -0.294236 0.058527
v -0.011418 0.294236 0.057402
v -0.022397 0.277164 0.112599
v -0.032516 0.249441 0.163469
v -0.041385 0.212132 0.208056
v -0.048664 0.166671 0.244648
v -0.054072 0.114805 0.271838
v -0.057403 0.058527 0.288582
v -0.058527 0.000000 0.294235
v -0.057403 -0.058527 0.288582
v -0.054072 -0.114805 0.271838
v -0.048664 -0.166671 0.244648
v -0.041385 -0.212132 0.208056
v -0.032516 -0.249441 0.163469
v -0.022397 -0.277164 0.112599
v -0.011418 -0.294236 0.057402
v 0.000000 -0.300000 0.000000
v -0.022397 0.294236 0.054072
v -0.043934 0.277164 0.106066
v -0.063782 0.249441 0.153984
v -0.081179 0.212132 0.195984
v -0.095457 0.166671 0.230453
v -0.106066 0.114805 0.256066
v -0.112599 0.058527 0.271838
v -0.114805 0.000000 0.277164
v -0.112599 -0.058527 0.271838
v -0.106066 -0.114805 0.256066
v -0.095457 -0.166671 0.230453
v -0.081179 -0.212132 0.195984
v -0.063782 -0.249441 0.153984
v -0.043934 -0.277164 0.106066
v -0.022397 -0.294236 0.054072
v -0.032516 0.294236 0.048663
v -0.063782 0.277164 0.095457
v -0.092597 0.249441 0.138582
v -0.117854 0.212132 0.176381
v -0.138582 0.166671 0.207402
v -0.153984 0.114805 0.230453
v -0.163469 0.058527 0.244648
v -0.166671 0.000000 0.249441
v -0.163469 -0.058527 0.244648
v -0.153984 -0.114805 0.230453
v -0.138582 -0.166671 0.207402
v -0.117854 -0.212132 0.176381
v -0.092597 -0.249441 0.138582
v -0.063782 -0.277164 0.095457
v -0.032516 -0.294236 0.048663
v -0.041385 0.294236 0.041385
v -0.081179 0.277164 0.081179
v -0.117854 0.249441 0.117854
v -0.150000 0.212132 0.150000
v -0.176381 0.166671 0.176381
v -0.195984 0.114805 0.195984
v -0.208056 0.058527 0.208056
v -0.212132 0.000000 0.212132
v -0.208056 -0.058527 0.208056
v -0.195984 -0.114805 0.195984
v -0.176381 -0.166671 0.176381
v -0.150000 -0.212132 0.150000
v -0.117854 -0.249441 0.117854
v -0.081179 -0.277164 0.081179
v -0.041385 -0.294236 0.041385
v -0.048663 0.294236 0.032516
v -0.095457 0.277164 0.063782
v -0.138582 0.249441 0.092597
v -0.176381 0.212132 0.117854
v -0.207402 0.166671 0.138582
v -0.230453 0.114805 0.153984
v -0.244648 0.058527 0.163468
v -0.249441 0.000000 0.166671
v -0.244648 -0.058527 0.163468
v -0.230453 -0.114805 0.153984
v -0.207402 -0.166671 0.138582
v -0.176381 -0.212132 0.117854
v -0.138582 -0.249441 0.092597
v -0.095457 -0.277164 0.063782
v -0.048663 -0.294236 0.032516
v 0.000000 0.300000 0.000000
v -0.054072 0.294236 0.022397
v -0.106066 0.277164 0.043934
v -0.153984 0.249441 0.063782
v -0.195984 0.212132 0.081179
v -0.230453 0.166671 0.095457
v -0.256066 0.114805 0.106066
v -0.271838 0.058527 0.112599
v -0.277164 0.000000 0.114805
v -0.271838 -0.058527 0.112599
v -0.256066 -0.114805 0.106066
v -0.230453 -0.166671 0.095457
v -0.195984 -0.212132 0.081179
v -0.153984 -0.249441 0.063782
v -0.106066 -0.277164 0.043934
v -0.054072 -0.294236 0.022397
v -0.057402 0.294236 0.011418
v -0.112599 0.277164 0.022397
v -0.163468 0.249441 0.032516
v -0.208056 0.212132 0.041385
v -0.244648 0.166671 0.048663
v -0.271838 0.114805 0.054072
v -0.288582 0.058527 0.057402
v -0.294235 0.000000 0.058527
v -0.288582 -0.058527 0.057402
v -0.271838 -0.114805 0.054072
v -0.244648 -0.166671 0.048663
v -0.208056 -0.212132 0.041385
v -0.163468 -0.249441 0.032516
v -0.112599 -0.277164 0.022397
v -0.057402 -0.294236 0.011418
v -0.058527 0.294236 -0.000000
v -0.114805 0.277164 -0.000000
v -0.166671 0.249441 -0.000000
v -0.212132 0.212132 -0.000000
v -0.249441 0.166671 -0.000000
v -0.277164 0.114805 -0.000000
v -0.294235 0.058527 -0.000000
v -0.300000 0.000000 -0.000000
v -0.294235 -0.058527 -0.000000
v -0.277164 -0.114805 -0.000000
v -0.249441 -0.166671 -0.000000
v -0.212132 -0.212132 -0.000000
v -0.166671 -0.249441 -0.000000
v -0.114805 -0.277164 -0.000000
v -0.058527 -0.294236 -0.000000
v -0.057402 0.294236 -0.011418
v -0.112599 0.277164 -0.022397
v -0.163468 0.249441 -0.032516
v -0.208056 0.212132 -0.041385
v -0.244648 0.166671 -0.048664
v -0.271838 0.114805 -0.054072
v -0.288582 0.058527 -0.057403
v -0.294235 0.000000 -0.058527
v -0.288582 -0.058527 -0.057403
v -0.271838 -0.114805 -0.054072
v -0.244648 -0.166671 -0.048664
v -0.208056 -0.212132 -0.041385
v -0.163468 -0.249441 -0.032516
v -0.112599 -0.277164 -0.022397
v -0.057402 -0.294236 -0.011418
v -0.054072 0.294236 -0.022397
v -0.106066 0.277164 -0.043934
v -0.153984 0.249441 -0.063782
v -0.195984 0.212132 -0.081179
v -0.230453 0.166671 -0.095457
v -0.256066 0.114805 -0.106066
v -0.271838 0.058527 -0.112599
v -0.277164 0.000000 -0.114805
v -0.271838 -0.058527 -0.112599
v -0.256066 -0.114805 -0.106066
v -0.230453 -0.166671 -0.095457
v -0.195984 -0.212132 -0.081179
v -0.153984 -0.249441 -0.063782
v -0.106066 -0.277164 -0.043934
v -0.054072 -0.294236 -0.022397
v -0.048663 0.294236 -0.032516
v -0.095457 0.277164 -0.063782
v -0.138582 0.249441 -0.092597
v -0.176381 0.212132 -0.117854
v -0.207402 0.166671 -0.138582
v -0.230453 0.114805 -0.153984
v -0.244648 0.058527 -0.163469
v -0.249441 0.000000 -0.166671
v -0.244648 -0.058527 -0.163469
v -0.230453 -0.114805 -0.153984
v -0.207402 -0.166671 -0.138582
v -0.176381 -0.212132 -0.117854
v -0.138582 -0.249441 -0.092597
v -0.095457 -0.277164 -0.063782
v -0.048663 -0.294236 -0.032516
v -0.041385 0.294236 -0.041385
v -0.081179 0.277164 -0.081179
v -0.117854 0.249441 -0.117854
v -0.150000 0.212132 -0.150000
v -0.176381 0.166671 -0.176381
v -0.195984 0.114805 -0.195984
v -0.208056 0.058527 -0.208056
v -0.212132 0.000000 -0.212132
v -0.208056 -0.058527 -0.208056
v -0.195984 -0.114805 -0.195984
v -0.176381 -0.166671 -0.176381
v -0.150000 -0.212132 -0.150000
v -0.117854 -0.249441 -0.117854
v -0.081179 -0.277164 -0.081179
v -0.041385 -0.294236 -0.041385
v -0.032516 0.294236 -0.048663
v -0.063782 0.277164 -0.095457
v -0.092597 0.249441 -0.138582
v -0.117854 0.212132 -0.176381
v -0.138582 0.166671 -0.207402
v -0.153984 0.114805 -0.230453
v -0.163468 0.058527 -0.244648
v -0.166671 0.000000 -0.249441
v -0.163468 -0.058527 -0.244648
v -0.153984 -0.114805 -0.230453
v -0.138582 -0.166671 -0.207402
v -0.117854 -0.212132 -0.176381
v -0.092597 -0.249441 -0.138582
v -0.063782 -0.277164 -0.095457
v -0.032516 -0.294236 -0.048663
v -0.022397 0.294236 -0.054072
v -0.043934 0.277164 -0.106066
v -0.063782 0.249441 -0.153984
v -0.081179 0.212132 -0.195984
v -0.095457 0.166671 -0.230453
v -0.106066 0.114805 -0.256066
v -0.112599 0.058527 -0.271838
v -0.114805 0.000000 -0.277164
v -0.112599 -0.058527 -0.271838
v -0.106066 -0.114805 -0.256066
v -0.095457 -0.166671 -0.230453
v -0.081179 -0.212132 -0.195984
v -0.063782 -0.249441 -0.153984
v -0.043934 -0.277164 -0.106066
v -0.022397 -0.294236 -0.054072
v -0.011418 0.294236 -0.057402
v -0.022397 0.277164 -0.112599
v -0.032516 0.249441 -0.163468
v -0.041385 0.212132 -0.208056
v -0.048663 0.166671 -0.244648
v -0.054072 0.114805 -0.271838
v -0.057402 0.058527 -0.288582
v -0.058527 0.000000 -0.294235
v -0.057402 -0.058527 -0.288582
v -0.054072 -0.114805 -0.271838
v -0.048663 -0.166671 -0.244648
v -0.041385 -0.212132 -0.208056
v -0.032516 -0.249441 -0.163468
v -0.022397 -0.277164 -0.112599
v -0.011418 -0.294236 -0.057402
v 0.000000 0.277164 -0.114805
v 0.000000 0.166671 -0.249441
v 0.000000 0.058527 -0.294235
v 0.000000 -0.058527 -0.294235
v 0.000000 -0.277164 -0.114805
v 0.000000 -0.294236 -0.058527
vn -0.0000 0.9796 -0.2010
vn -0.0000 0.8286 -0.5598
vn -0.0000 0.7041 -0.7101
vn -0.0000 0.3805 -0.9248
vn -0.0000 -0.0000 -1.0000
vn -0.0000 -0.3805 -0.9248
vn -0.0000 -0.5528 -0.8333
vn -0.0000 -0.7041 -0.7101
vn -0.0000 -0.8286 -0.5598
vn 0.0392 0.9796 -0.1971
vn 0.0757 0.9217 -0.3804
vn 0.1092 0.8286 -0.5490
vn 0.1385 0.7041 -0.6965
vn 0.1626 0.5528 -0.8173
vn 0.1804 0.3805 -0.9070
vn 0.1914 0.1939 -0.9622
vn 0.1951 -0.0000 -0.9808
vn 0.1914 -0.1939 -0.9622
vn 0.1804 -0.3805 -0.9070
vn 0.1626 -0.5528 -0.8173
vn 0.1385 -0.7041 -0.6965
vn 0.1092 -0.8286 -0.5490
vn 0.0757 -0.9217 -0.3804
vn 0.0392 -0.9796 -0.1971
vn 0.0769 0.9796 -0.1857
vn 0.1484 0.9217 -0.3584
vn 0.2142 0.8286 -0.5172
vn 0.2718 0.7041 -0.6561
vn 0.3189 0.5528 -0.7699
vn 0.3539 0.3805 -0.8544
vn 0.3754 0.1939 -0.9063
vn 0.3827 -0.0000 -0.9239
vn 0.3754 -0.1939 -0.9063
vn 0.3539 -0.3805 -0.8544
vn 0.3189 -0.5528 -0.7699
vn 0.2718 -0.7041 -0.6561
vn 0.2142 -0.8286 -0.5172
vn 0.1484 -0.9217 -0.3584
vn 0.0769 -0.9796 -0.1857
vn 0.1117 0.9796 -0.1671
vn 0.2155 0.9217 -0.3225
vn 0.3110 0.8286 -0.4654
vn 0.3945 0.7041 -0.5905
vn 0.4630 0.5528 -0.6929
vn 0.5138 0.3805 -0.7689
vn 0.5450 0.1939 -0.8157
vn 0.5556 -0.0000 -0.8315
vn 0.5450 -0.1939 -0.8157
vn 0.5138 -0.3805 -0.7689
vn 0.4630 -0.5528 -0.6929
vn 0.3945 -0.7041 -0.5905
vn 0.3110 -0.8286 -0.4654
vn 0.2155 -0.9217 -0.3225
vn 0.1116 -0.9796 -0.1671
vn 0.1421 0.9796 -0.1421
vn 0.2743 0.9217 -0.2743
vn 0.3958 0.8286 -0.3958
vn 0.5021 0.7041 -0.5021
vn 0.5893 0.5528 -0.5893
vn 0.6539 0.3805 -0.6539
vn 0.6937 0.1939 -0.6937
vn 0.7071 -0.0000 -0.7071
vn 0.6937 -0.1939 -0.6937
vn 0.6539 -0.3805 -0.6539
vn 0.5893 -0.5528 -0.5893
vn 0.5021 -0.7041 -0.5021
vn 0.3958 -0.8286 -0.3958
vn 0.2743 -0.9217 -0.2743
vn 0.1421 -0.9796 -0.1421
vn 0.1671 0.9796 -0.1117
vn 0.3225 0.9217 -0.2155
vn 0.4654 0.8286 -0.3110
vn 0.5905 0.7041 -0.3945
vn 0.6929 0.5528 -0.4630
vn 0.7689 0.3805 -0.5138
vn 0.8157 0.1939 -0.5450
vn 0.8315 -0.0000 -0.5556
vn 0.8157 -0.1939 -0.5450
vn 0.7689 -0.3805 -0.5138
vn 0.6929 -0.5528 -0.4630
vn 0.5905 -0.7041 -0.3945
vn 0.4654 -0.8286 -0.3110
vn 0.3225 -0.9217 -0.2155
vn 0.1671 -0.9796 -0.1117
vn 0.1857 0.9796 -0.0769
vn 0.3584 0.9217 -0.1484
vn 0.5172 0.8286 -0.2142
vn 0.6561 0.7041 -0.2718
vn 0.7699 0.5528 -0.3189
vn 0.8544 0.3805 -0.3539
vn 0.9063 0.1939 -0.3754
vn 0.9239 -0.0000 -0.3827
vn 0.9063 -0.1939 -0.3754
vn 0.8544 -0.3805 -0.3539
vn 0.7699 -0.5528 -0.3189
vn 0.6561 -0.7041 -0.2718
vn 0.5172 -0.8286 -0.2142
vn 0.3584 -0.9217 -0.1484
vn 0.1857 -0.9796 -0.0769
vn 0.1971 0.9796 -0.0392
vn 0.3804 0.9217 -0.0757
vn 0.5490 0.8286 -0.1092
vn 0.6965 0.7041 -0.1385
vn 0.8173 0.5528 -0.1626
vn 0.9070 0.3805 -0.1804
vn 0.9622 0.1939 -0.1914
vn 0.9808 -0.0000 -0.1951
vn 0.9622 -0.1939 -0.1914
vn 0.9070 -0.3805 -0.1804
vn 0.8173 -0.5528 -0.1626
vn 0.6965 -0.7041 -0.1385
vn 0.5490 -0.8286 -0.1092
vn 0.3804 -0.9217 -0.0757
vn 0.1971 -0.9796 -0.0392
vn 0.2010 0.9796 -0.0000
vn 0.3879 0.9217 -0.0000
vn 0.5598 0.8286 -0.0000
vn 0.7101 0.7041 -0.0000
vn 0.8333 0.5528 -0.0000
vn 0.9248 0.3805 -0.0000
vn 0.9810 0.1939 -0.0000
vn 1.0000 -0.0000 -0.0000
vn 0.9810 -0.1939 -0.0000
vn 0.9248 -0.3805 -0.0000
vn 0.8333 -0.5528 -0.0000
vn 0.7101 -0.7041 -0.0000
vn 0.5598 -0.8286 -0.0000
vn 0.3879 -0.9217 -0.0000
vn 0.2010 -0.9796 -0.0000
vn 0.1971 0.9796 0.0392
vn 0.3804 0.9217 0.0757
vn 0.5490 0.8286 0.1092
vn 0.6965 0.7041 0.1385
vn 0.8173 0.5528 0.1626
vn 0.9070 0.3805 0.1804
vn 0.9622 0.1939 0.1914
vn 0.9808 -0.0000 0.1951
vn 0.9622 -0.1939 0.1914
vn 0.9070 -0.3805 0.1804
vn 0.8173 -0.5528 0.1626
vn 0.6965 -0.7041 0.1385
vn 0.5490 -0.8286 0.1092
vn 0.3804 -0.9217 0.0757
vn 0.1971 -0.9796 0.0392
vn 0.1857 0.9796 0.0769
vn 0.3584 0.9217 0.1484
vn 0.5172 0.8286 0.2142
vn 0.6561 0.7041 0.2718
vn 0.7699 0.5528 0.3189
vn 0.8544 0.3805 0.3539
vn 0.9063 0.1939 0.3754
vn 0.9239 -0.0000 0.3827
vn 0.9063 -0.1939 0.3754
vn 0.8544 -0.3805 0.3539
vn 0.7699 -0.5528 0.3189
vn 0.6561 -0.7041 0.2718
vn 0.5172 -0.8286 0.2142
vn 0.3584 -0.9217 0.1484
vn 0.1857 -0.9796 0.0769
vn 0.1671 0.9796 0.1117
vn 0.3225 0.9217 0.2155
vn 0.4654 0.8286 0.3110
vn 0.5905 0.7041 0.3945
vn 0.6929 0.5528 0.4630
vn 0.7689 0.3805 0.5138
vn 0.8157 0.1939 0.5450
vn 0.8315 -0.0000 0.5556
vn 0.8157 -0.1939 0.5450
vn 0.7689 -0.3805 0.5138
vn 0.6929 -0.5528 0.4630
vn 0.5905 -0.7041 0.3945
vn 0.4654 -0.8286 0.3110
vn 0.3225 -0.9217 0.2155
vn 0.1671 -0.9796 0.1117
vn 0.1421 0.9796 0.1421
vn 0.2743 0.9217 0.2743
vn 0.3958 0.8286 0.3958
vn 0.5021 0.7041 0.5021
vn 0.5893 0.5528 0.5893
vn 0.6539 0.3805 0.6539
vn 0.6937 0.1939 0.6937
vn 0.7071 -0.0000 0.7071
vn 0.6937 -0.1939 0.6937
vn 0.6539 -0.3805 0.6539
vn 0.5893 -0.5528 0.5893
vn 0.5021 -0.7041 0.5021
vn 0.3958 -0.8286 0.3958
vn 0.2743 -0.9217 0.2743
vn 0.1421 -0.9796 0.1421
vn 0.1117 0.9796 0.1671
vn 0.2155 0.9217 0.3225
vn 0.3110 0.8286 0.4654
vn 0.3945 0.7041 0.5905
vn 0.4630 0.5528 0.6929
vn 0.5138 0.3805 0.7689
vn 0.5450 0.1939 0.8157
vn 0.5556 -0.0000 0.8315
vn 0.5450 -0.1939 0.8157
vn 0.5138 -0.3805 0.7689
vn 0.4630 -0.5528 0.6929
vn 0.3945 -0.7041 0.5905
vn 0.3110 -0.8286 0.4654
vn 0.2155 -0.9217 0.3225
vn 0.1117 -0.9796 0.1671
vn 0.0769 0.9796 0.1857
vn 0.1484 0.9217 0.3584
vn 0.2142 0.8286 0.5172
vn 0.2718 0.7041 0.6561
vn 0.3189 0.5528 0.7699
vn 0.3539 0.3805 0.8544
vn 0.3754 0.1939 0.9063
vn 0.3827 -0.0000 0.9239
vn 0.3754 -0.1939 0.9063
vn 0.3539 -0.3805 0.8544
vn 0.3189 -0.5528 0.7699
vn 0.2718 -0.7041 0.6561
vn 0.2142 -0.8286 0.5172
vn 0.1484 -0.9217 0.3584
vn 0.0769 -0.9796 0.1857
vn 0.0392 0.9796 0.1971
vn 0.0757 0.9217 0.3804
vn 0.1092 0.8286 0.5490
vn 0.1385 0.7041 0.6965
vn 0.1626 0.5528 0.8173
vn 0.1804 0.3805 0.9070
vn 0.1914 0.1939 0.9622
vn 0.1951 -0.0000 0.9808
vn 0.1914 -0.1939 0.9622
vn 0.1804 -0.3805 0.9070
vn 0.1626 -0.5528 0.8173
vn 0.1385 -0.7041 0.6965
vn 0.1092 -0.8286 0.5490
vn 0.0757 -0.9217 0.3804
vn 0.0392 -0.9796 0.1971
vn -0.0000 0.9796 0.2010
vn -0.0000 0.9217 0.3879
vn -0.0000 0.8286 0.5598
vn -0.0000 0.7041 0.7101
vn -0.0000 0.5528 0.8333
vn -0.0000 0.3805 0.9248
vn -0.0000 0.1939 0.9810
vn -0.0000 -0.0000 1.0000
vn -0.0000 -0.1939 0.9810
vn -0.0000 -0.3805 0.9248
vn -0.0000 -0.5528 0.8333
vn -0.0000 -0.7041 0.7101
vn -0.0000 -0.8286 0.5598
vn -0.0000 -0.9217 0.3879
vn -0.0000 -0.9796 0.2010
vn -0.0392 0.9796 0.1971
vn -0.0757 0.9217 0.3804
vn -0.1092 0.8286 0.5490
vn -0.1385 0.7041 0.6965
vn -0.1626 0.5528 0.8173
vn -0.1804 0.3805 0.9070
vn -0.1914 0.1939 0.9622
vn -0.1951 -0.0000 0.9808
vn -0.1914 -0.1939 0.9622
vn -0.1804 -0.3805 0.9070
vn -0.1626 -0.5528 0.8173
vn -0.1385 -0.7041 0.6965
vn -0.1092 -0.8286 0.5490
vn -0.0757 -0.9217 0.3804
vn -0.0392 -0.9796 0.1971
vn -0.0000 -1.0000 -0.0000
vn -0.0769 0.9796 0.1857
vn -0.1484 0.9217 0.3584
vn -0.2142 0.8286 0.5172
vn -0.2718 0.7041 0.6561
vn -0.3189 0.5528 0.7699
vn -0.3539 0.3805 0.8544
vn -0.3754 0.1939 0.9063
vn -0.3827 -0.0000 0.9239
vn -0.3754 -0.1939 0.9063
vn -0.3539 -0.3805 0.8544
vn -0.3189 -0.5528 0.7699
vn -0.2718 -0.7041 0.6561
vn -0.2142 -0.8286 0.5172
vn -0.1484 -0.9217 0.3584
vn -0.0769 -0.9796 0.1857
vn -0.1116 0.9796 0.1671
vn -0.2155 0.9217 0.3225
vn -0.3110 0.8286 0.4654
vn -0.3945 0.7041 0.5905
vn -0.4630 0.5528 0.6929
vn -0.5138 0.3805 0.7689
vn -0.5450 0.1939 0.8157
vn -0.5556 -0.0000 0.8315
vn -0.5450 -0.1939 0.8157
vn -0.5138 -0.3805 0.7689
vn -0.4630 -0.5528 0.6929
vn -0.3945 -0.7041 0.5905
vn -0.3110 -0.8286 0.4654
vn -0.2155 -0.9217 0.3225
vn -0.1116 -0.9796 0.1671
vn -0.1421 0.9796 0.1421
vn -0.2743 0.9217 0.2743
vn -0.3958 0.8286 0.3958
vn -0.5021 0.7041 0.5021
vn -0.5893 0.5528 0.5893
vn -0.6539 0.3805 0.6539
vn -0.6937 0.1939 0.6937
vn -0.7071 -0.0000 0.7071
vn -0.6937 -0.1939 0.6937
vn -0.6539 -0.3805 0.6539
vn -0.5893 -0.5528 0.5893
vn -0.5021 -0.7041 0.5021
vn -0.3958 -0.8286 0.3958
vn -0.2743 -0.9217 0.2743
vn -0.1421 -0.9796 0.1421
vn -0.1671 0.9796 0.1117
vn -0.3225 0.9217 0.2155
vn -0.4654 0.8286 0.3110
vn -0.5905 0.7041 0.3945
vn -0.6929 0.5528 0.4630
vn -0.7689 0.3805 0.5138
vn -0.8157 0.1939 0.5450
vn -0.8315 -0.0000 0.5556
vn -0.8157 -0.1939 0.5450
vn -0.7689 -0.3805 0.5138
vn -0.6929 -0.5528 0.4630
vn -0.5905 -0.7041 0.3945
vn -0.4654 -0.8286 0.3110
vn -0.3225 -0.9217 0.2155
vn -0.1671 -0.9796 0.1117
vn -0.0000 1.0000 -0.0000
vn -0.1857 0.9796 0.0769
vn -0.3584 0.9217 0.1484
vn -0.5172 0.8286 0.2142
vn -0.6561 0.7041 0.2718
vn -0.7699 0.5528 0.3189
vn -0.8544 0.3805 0.3539
vn -0.9063 0.1939 0.3754
vn -0.9239 -0.0000 0.3827
vn -0.9063 -0.1939 0.3754
vn -0.8544 -0.3805 0.3539
vn -0.7699 -0.5528 0.3189
vn -0.6561 -0.7041 0.2718
vn -0.5172 -0.8286 0.2142
vn -0.3584 -0.9217 0.1484
vn -0.1857 -0.9796 0.0769
vn -0.1971 0.9796 0.0392
vn -0.3804 0.9217 0.0757
vn -0.5490 0.8286 0.1092
vn -0.6965 0.7041 0.1385
vn -0.8173 0.5528 0.1626
vn -0.9070 0.3805 0.1804
vn -0.9622 0.1939 0.1914
vn -0.9808 -0.0000 0.1951
vn -0.9622 -0.1939 0.1914
vn -0.9070 -0.3805 0.1804
vn -0.8173 -0.5528 0.1626
vn -0.6965 -0.7041 0.1385
vn -0.5490 -0.8286 0.1092
vn -0.3804 -0.9217 0.0757
vn -0.1971 -0.9796 0.0392
vn -0.2010 0.9796 -0.0000
vn -0.3879 0.9217 -0.0000
vn -0.5598 0.8286 -0.0000
vn -0.7101 0.7041 -0.0000
vn -0.8333 0.5528 -0.0000
vn -0.9248 0.3805 -0.0000
vn -0.9810 0.1939 -0.0000
vn -1.0000 -0.0000 -0.0000
vn -0.9810 -0.1939 -0.0000
vn -0.9248 -0.3805 -0.0000
vn -0.8333 -0.5528 -0.0000
vn -0.7101 -0.7041 -0.0000
vn -0.5598 -0.8286 -0.0000
vn -0.3879 -0.9217 -0.0000
vn -0.2010 -0.9796 -0.0000
vn -0.1971 0.9796 -0.0392
vn -0.3804 0.9217 -0.0757
vn -0.5490 0.8286 -0.1092
vn -0.6965 0.7041 -0.1385
vn -0.8173 0.5528 -0.1626
vn -0.9070 0.3805 -0.1804
vn -0.9622 0.1939 -0.1914
vn -0.9808 -0.0000 -0.1951
vn -0.9622 -0.1939 -0.1914
vn -0.9070 -0.3805 -0.1804
vn -0.8173 -0.5528 -0.1626
vn -0.6965 -0.7041 -0.1385
vn -0.5490 -0.8286 -0.1092
vn -0.3804 -0.9217 -0.0757
vn -0.1971 -0.9796 -0.0392
vn -0.1857 0.9796 -0.0769
vn -0.3584 0.9217 -0.1484
vn -0.5172 0.8286 -0.2142
vn -0.6561 0.7041 -0.2718
vn -0.7699 0.5528 -0.3189
vn -0.8544 0.3805 -0.3539
vn -0.9063 0.1939 -0.3754
vn -0.9239 -0.0000 -0.3827
vn -0.9063 -0.1939 -0.3754
vn -0.8544 -0.3805 -0.3539
vn -0.7699 -0.5528 -0.3189
vn -0.6561 -0.7041 -0.2718
vn -0.5172 -0.8286 -0.2142
vn -0.3584 -0.9217 -0.1484
vn -0.1857 -0.9796 -0.0769
vn -0.1671 0.9796 -0.1117
vn -0.3225 0.9217 -0.2155
vn -0.4654 0.8286 -0.3110
vn -0.5905 0.7041 -0.3945
vn -0.6929 0.5528 -0.4630
vn -0.7689 0.3805 -0.5138
vn -0.8157 0.1939 -0.5450
vn -0.8315 -0.0000 -0.5556
vn -0.8157 -0.1939 -0.5450
vn -0.7689 -0.3805 -0.5138
vn -0.6929 -0.5528 -0.4630
vn -0.5905 -0.7041 -0.3945
vn -0.4654 -0.8286 -0.3110
vn -0.3225 -0.9217 -0.2155
vn -0.1671 -0.9796 -0.1117
vn -0.1421 0.9796 -0.1421
vn -0.2743 0.9217 -0.2743
vn -0.3958 0.8286 -0.3958
vn -0.5021 0.7041 -0.5021
vn -0.5893 0.5528 -0.5893
vn -0.6539 0.3805 -0.6539
vn -0.6937 0.1939 -0.6937
vn -0.7071 -0.0000 -0.7071
vn -0.6937 -0.1939 -0.6937
vn -0.6539 -0.3805 -0.6539
vn -0.5893 -0.5528 -0.5893
vn -0.5021 -0.7041 -0.5021
vn -0.3958 -0.8286 -0.3958
vn -0.2743 -0.9217 -0.2743
vn -0.1421 -0.9796 -0.1421
vn -0.1117 0.9796 -0.1671
vn -0.2155 0.9217 -0.3225
vn -0.3110 0.8286 -0.4654
vn -0.3945 0.7041 -0.5905
vn -0.4630 0.5528 -0.6929
vn -0.5138 0.3805 -0.7689
vn -0.5450 0.1939 -0.8157
vn -0.5556 -0.0000 -0.8315
vn -0.5450 -0.1939 -0.8157
vn -0.5138 -0.3805 -0.7689
vn -0.4630 -0.5528 -0.6929
vn -0.3945 -0.7041 -0.5905
vn -0.3110 -0.8286 -0.4654
vn -0.2155 -0.9217 -0.3225
vn -0.1116 -0.9796 -0.1671
vn -0.0769 0.9796 -0.1857
vn -0.1484 0.9217 -0.3584
vn -0.2142 0.8286 -0.5172
vn -0.2718 0.7041 -0.6561
vn -0.3189 0.5528 -0.7699
vn -0.3539 0.3805 -0.8544
vn -0.3754 0.1939 -0.9063
vn -0.3827 -0.0000 -0.9239
vn -0.3754 -0.1939 -0.9063
vn -0.3539 -0.3805 -0.8544
vn -0.3189 -0.5528 -0.7699
vn -0.2718 -0.7041 -0.6561
vn -0.2142 -0.8286 -0.5172
vn -0.1484 -0.9217 -0.3584
vn -0.0769 -0.9796 -0.1857
vn -0.0392 0.9796 -0.1971
vn -0.0757 0.9217 -0.3804
vn -0.1092 0.8286 -0.5490
vn -0.1385 0.7041 -0.6965
vn -0.1626 0.5528 -0.8173
vn -0.1804 0.3805 -0.9070
vn -0.1914 0.1939 -0.9622
vn -0.1951 -0.0000 -0.9808
vn -0.1914 -0.1939 -0.9622
vn -0.1804 -0.3805 -0.9070
vn -0.1626 -0.5528 -0.8173
vn -0.1385 -0.7041 -0.6965
vn -0.1092 -0.8286 -0.5490
vn -0.0757 -0.9217 -0.3804
vn -0.0392 -0.9796 -0.1971
vn -0.0000 0.9217 -0.3879
vn -0.0000 0.5528 -0.8333
vn -0.0000 0.1939 -0.9810
vn -0.0000 -0.1939 -0.9810
vn -0.0000 -0.9217 -0.3879
vn -0.0000 -0.9796 -0.2010
vt 0.750000 0.687500
vt 0.718750 0.750000
vt 0.718750 0.687500
vt 0.750000 0.250000
vt 0.718750 0.187500
vt 0.750000 0.187500
vt 0.750000 0.625000
vt 0.718750 0.625000
vt 0.718750 0.125000
vt 0.750000 0.125000
vt 0.750000 0.562500
vt 0.718750 0.562500
vt 0.718750 0.062500
vt 0.750000 0.062500
vt 0.718750 0.500000
vt 0.750000 0.500000
vt 0.750000 0.937500
vt 0.734375 1.000000
vt 0.718750 0.937500
vt 0.734375 0.000000
vt 0.750000 0.437500
vt 0.718750 0.437500
vt 0.750000 0.875000
vt 0.718750 0.875000
vt 0.718750 0.375000
vt 0.750000 0.375000
vt 0.750000 0.812500
vt 0.718750 0.812500
vt 0.718750 0.312500
vt 0.750000 0.312500
vt 0.750000 0.750000
vt 0.718750 0.250000
vt 0.687500 0.312500
vt 0.687500 0.750000
vt 0.687500 0.250000
vt 0.687500 0.687500
vt 0.687500 0.187500
vt 0.687500 0.625000
vt 0.687500 0.125000
vt 0.687500 0.562500
vt 0.687500 0.062500
vt 0.687500 0.500000
vt 0.703125 1.000000
vt 0.687500 0.937500
vt 0.703125 0.000000
vt 0.687500 0.437500
vt 0.687500 0.875000
vt 0.687500 0.375000
vt 0.687500 0.812500
vt 0.656250 0.125000
vt 0.656250 0.062500
vt 0.656250 0.500000
vt 0.671875 1.000000
vt 0.656250 0.937500
vt 0.671875 0.000000
vt 0.656250 0.437500
vt 0.656250 0.875000
vt 0.656250 0.375000
vt 0.656250 0.812500
vt 0.656250 0.312500
vt 0.656250 0.750000
vt 0.656250 0.250000
vt 0.656250 0.687500
vt 0.656250 0.187500
vt 0.656250 0.625000
vt 0.656250 0.562500
vt 0.625000 0.250000
vt 0.625000 0.687500
vt 0.625000 0.187500
vt 0.625000 0.625000
vt 0.625000 0.125000
vt 0.625000 0.562500
vt 0.625000 0.062500
vt 0.625000 0.500000
vt 0.640625 1.000000
vt 0.625000 0.937500
vt 0.640625 0.000000
vt 0.625000 0.437500
vt 0.625000 0.875000
vt 0.625000 0.375000
vt 0.625000 0.812500
vt 0.625000 0.312500
vt 0.625000 0.750000
vt 0.609375 1.000000
vt 0.593750 0.937500
vt 0.609375 0.000000
vt 0.593750 0.062500
vt 0.593750 0.437500
vt 0.593750 0.875000
vt 0.593750 0.375000
vt 0.593750 0.812500
vt 0.593750 0.312500
vt 0.593750 0.750000
vt 0.593750 0.250000
vt 0.593750 0.687500
vt 0.593750 0.187500
vt 0.593750 0.625000
vt 0.593750 0.125000
vt 0.593750 0.562500
vt 0.593750 0.500000
vt 0.562500 0.687500
vt 0.562500 0.250000
vt 0.562500 0.187500
vt 0.562500 0.625000
vt 0.562500 0.125000
vt 0.562500 0.562500
vt 0.562500 0.062500
vt 0.562500 0.500000
vt 0.578125 1.000000
vt 0.562500 0.937500
vt 0.578125 0.000000
vt 0.562500 0.437500
vt 0.562500 0.875000
vt 0.562500 0.375000
vt 0.562500 0.812500
vt 0.562500 0.312500
vt 0.562500 0.750000
vt 0.531250 0.437500
vt 0.531250 0.875000
vt 0.531250 0.375000
vt 0.531250 0.812500
vt 0.531250 0.312500
vt 0.531250 0.750000
vt 0.531250 0.250000
vt 0.531250 0.687500
vt 0.531250 0.187500
vt 0.531250 0.625000
vt 0.531250 0.125000
vt 0.531250 0.562500
vt 0.531250 0.062500
vt 0.531250 0.500000
vt 0.546875 1.000000
vt 0.531250 0.937500
vt 0.546875 0.000000
vt 0.500000 0.187500
vt 0.500000 0.625000
vt 0.500000 0.125000
vt 0.500000 0.562500
vt 0.500000 0.062500
vt 0.500000 0.500000
vt 0.515625 1.000000
vt 0.500000 0.937500
vt 0.515625 0.000000
vt 0.500000 0.437500
vt 0.500000 0.875000
vt 0.500000 0.375000
vt 0.500000 0.812500
vt 0.500000 0.312500
vt 0.500000 0.750000
vt 0.500000 0.250000
vt 0.500000 0.687500
vt 0.468750 0.875000
vt 0.468750 0.437500
vt 0.468750 0.375000
vt 0.468750 0.812500
vt 0.468750 0.312500
vt 0.468750 0.750000
vt 0.468750 0.250000
vt 0.468750 0.687500
vt 0.468750 0.187500
vt 0.468750 0.625000
vt 0.468750 0.125000
vt 0.468750 0.562500
vt 0.468750 0.062500
vt 0.468750 0.500000
vt 0.484375 1.000000
vt 0.468750 0.937500
vt 0.484375 0.000000
vt 0.437500 0.625000
vt 0.437500 0.125000
vt 0.437500 0.562500
vt 0.437500 0.062500
vt 0.437500 0.500000
vt 0.453125 1.000000
vt 0.437500 0.937500
vt 0.453125 0.000000
vt 0.437500 0.437500
vt 0.437500 0.875000
vt 0.437500 0.375000
vt 0.437500 0.812500
vt 0.437500 0.312500
vt 0.437500 0.750000
vt 0.437500 0.250000
vt 0.437500 0.687500
vt 0.437500 0.187500
vt 0.406250 0.375000
vt 0.406250 0.812500
vt 0.406250 0.312500
vt 0.406250 0.750000
vt 0.406250 0.250000
vt 0.406250 0.687500
vt 0.406250 0.187500
vt 0.406250 0.625000
vt 0.406250 0.125000
vt 0.406250 0.562500
vt 0.406250 0.062500
vt 0.406250 0.500000
vt 0.421875 1.000000
vt 0.406250 0.937500
vt 0.421875 0.000000
vt 0.406250 0.437500
vt 0.406250 0.875000
vt 0.375000 0.125000
vt 0.375000 0.562500
vt 0.375000 0.062500
vt 0.375000 0.500000
vt 0.390625 1.000000
vt 0.375000 0.937500
vt 0.390625 0.000000
vt 0.375000 0.437500
vt 0.375000 0.875000
vt 0.375000 0.375000
vt 0.375000 0.812500
vt 0.375000 0.312500
vt 0.375000 0.750000
vt 0.375000 0.250000
vt 0.375000 0.687500
vt 0.375000 0.187500
vt 0.375000 0.625000
vt 0.343750 0.375000
vt 0.343750 0.312500
vt 0.343750 0.812500
vt 0.343750 0.750000
vt 0.343750 0.250000
vt 0.343750 0.687500
vt 0.343750 0.187500
vt 0.343750 0.625000
vt 0.343750 0.125000
vt 0.343750 0.562500
vt 0.343750 0.062500
vt 0.343750 0.500000
vt 0.359375 1.000000
vt 0.343750 0.937500
vt 0.359375 0.000000
vt 0.343750 0.437500
vt 0.343750 0.875000
vt 0.312500 0.125000
vt 0.312500 0.062500
vt 0.312500 0.562500
vt 0.312500 0.500000
vt 0.328125 1.000000
vt 0.312500 0.937500
vt 0.328125 0.000000
vt 0.312500 0.437500
vt 0.312500 0.875000
vt 0.312500 0.375000
vt 0.312500 0.812500
vt 0.312500 0.312500
vt 0.312500 0.750000
vt 0.312500 0.250000
vt 0.312500 0.687500
vt 0.312500 0.187500
vt 0.312500 0.625000
vt 0.281250 0.812500
vt 0.281250 0.750000
vt 0.281250 0.312500
vt 0.281250 0.250000
vt 0.281250 0.687500
vt 0.281250 0.187500
vt 0.281250 0.625000
vt 0.281250 0.125000
vt 0.281250 0.562500
vt 0.281250 0.062500
vt 0.281250 0.500000
vt 0.296875 1.000000
vt 0.281250 0.937500
vt 0.296875 0.000000
vt 0.281250 0.437500
vt 0.281250 0.875000
vt 0.281250 0.375000
vt 0.250000 0.562500
vt 0.250000 0.500000
vt 0.265625 1.000000
vt 0.250000 0.937500
vt 0.265625 0.000000
vt 0.250000 0.062500
vt 0.250000 0.437500
vt 0.250000 0.875000
vt 0.250000 0.375000
vt 0.250000 0.812500
vt 0.250000 0.312500
vt 0.250000 0.750000
vt 0.250000 0.250000
vt 0.250000 0.687500
vt 0.250000 0.187500
vt 0.250000 0.625000
vt 0.250000 0.125000
vt 0.218750 0.312500
vt 0.218750 0.250000
vt 0.218750 0.687500
vt 0.218750 0.187500
vt 0.218750 0.625000
vt 0.218750 0.125000
vt 0.218750 0.562500
vt 0.218750 0.062500
vt 0.218750 0.500000
vt 0.234375 1.000000
vt 0.218750 0.937500
vt 0.234375 0.000000
vt 0.218750 0.437500
vt 0.218750 0.875000
vt 0.218750 0.375000
vt 0.218750 0.812500
vt 0.218750 0.750000
vt 0.203125 1.000000
vt 0.187500 0.937500
vt 0.203125 0.000000
vt 0.187500 0.062500
vt 0.187500 0.437500
vt 0.187500 0.875000
vt 0.187500 0.375000
vt 0.187500 0.812500
vt 0.187500 0.312500
vt 0.187500 0.750000
vt 0.187500 0.250000
vt 0.187500 0.687500
vt 0.187500 0.187500
vt 0.187500 0.625000
vt 0.187500 0.125000
vt 0.187500 0.562500
vt 0.187500 0.500000
vt 0.156250 0.687500
vt 0.156250 0.187500
vt 0.156250 0.625000
vt 0.156250 0.125000
vt 0.156250 0.562500
vt 0.156250 0.062500
vt 0.156250 0.500000
vt 0.171875 1.000000
vt 0.156250 0.937500
vt 0.171875 0.000000
vt 0.156250 0.437500
vt 0.156250 0.875000
vt 0.156250 0.375000
vt 0.156250 0.812500
vt 0.156250 0.312500
vt 0.156250 0.750000
vt 0.156250 0.250000
vt 0.125000 0.437500
vt 0.125000 0.875000
vt 0.125000 0.375000
vt 0.125000 0.812500
vt 0.125000 0.312500
vt 0.125000 0.750000
vt 0.125000 0.250000
vt 0.125000 0.687500
vt 0.125000 0.187500
vt 0.125000 0.625000
vt 0.125000 0.125000
vt 0.125000 0.562500
vt 0.125000 0.062500
vt 0.125000 0.500000
vt 0.140625 1.000000
vt 0.125000 0.937500
vt 0.140625 0.000000
vt 0.093750 0.187500
vt 0.093750 0.625000
vt 0.093750 0.125000
vt 0.093750 0.562500
vt 0.093750 0.062500
vt 0.093750 0.500000
vt 0.109375 1.000000
vt 0.093750 0.937500
vt 0.109375 0.000000
vt 0.093750 0.437500
vt 0.093750 0.875000
vt 0.093750 0.375000
vt 0.093750 0.812500
vt 0.093750 0.312500
vt 0.093750 0.750000
vt 0.093750 0.250000
vt 0.093750 0.687500
vt 0.062500 0.437500
vt 0.062500 0.375000
vt 0.062500 0.812500
vt 0.062500 0.312500
vt 0.062500 0.750000
vt 0.062500 0.250000
vt 0.062500 0.687500
vt 0.062500 0.187500
vt 0.062500 0.625000
vt 0.062500 0.125000
vt 0.062500 0.562500
vt 0.062500 0.062500
vt 0.062500 0.500000
vt 0.078125 1.000000
vt 0.062500 0.937500
vt 0.078125 0.000000
vt 0.062500 0.875000
vt 0.031250 0.125000
vt 0.031250 0.562500
vt 0.031250 0.062500
vt 0.031250 0.500000
vt 0.046875 1.000000
vt 0.031250 0.937500
vt 0.046875 0.000000
vt 0.031250 0.437500
vt 0.031250 0.875000
vt 0.031250 0.375000
vt 0.031250 0.812500
vt 0.031250 0.312500
vt 0.031250 0.750000
vt 0.031250 0.250000
vt 0.031250 0.687500
vt 0.031250 0.187500
vt 0.031250 0.625000
vt 0.000000 0.875000
vt 0.000000 0.812500
vt 0.000000 0.375000
vt 0.000000 0.312500
vt 0.000000 0.750000
vt 0.000000 0.250000
vt 0.000000 0.687500
vt 0.000000 0.187500
vt 0.000000 0.625000
vt 0.000000 0.125000
vt 0.000000 0.562500
vt 0.000000 0.062500
vt 0.000000 0.500000
vt 0.015625 1.000000
vt 0.000000 0.937500
vt 0.015625 0.000000
vt 0.000000 0.437500
vt 1.000000 0.625000
vt 0.968750 0.562500
vt 1.000000 0.562500
vt 1.000000 0.125000
vt 0.968750 0.062500
vt 1.000000 0.062500
vt 1.000000 0.500000
vt 0.968750 0.500000
vt 1.000000 0.937500
vt 0.984375 1.000000
vt 0.968750 0.937500
vt 0.984375 0.000000
vt 0.968750 0.437500
vt 1.000000 0.437500
vt 0.968750 0.875000
vt 1.000000 0.875000
vt 1.000000 0.375000
vt 0.968750 0.375000
vt 1.000000 0.812500
vt 0.968750 0.812500
vt 1.000000 0.312500
vt 0.968750 0.312500
vt 1.000000 0.750000
vt 0.968750 0.750000
vt 1.000000 0.250000
vt 0.968750 0.250000
vt 0.968750 0.687500
vt 1.000000 0.687500
vt 0.968750 0.187500
vt 1.000000 0.187500
vt 0.968750 0.625000
vt 0.968750 0.125000
vt 0.937500 0.375000
vt 0.937500 0.312500
vt 0.937500 0.812500
vt 0.937500 0.750000
vt 0.937500 0.250000
vt 0.937500 0.687500
vt 0.937500 0.187500
vt 0.937500 0.625000
vt 0.937500 0.125000
vt 0.937500 0.562500
vt 0.937500 0.062500
vt 0.937500 0.500000
vt 0.953125 1.000000
vt 0.937500 0.937500
vt 0.953125 0.000000
vt 0.937500 0.437500
vt 0.937500 0.875000
vt 0.906250 0.062500
vt 0.906250 0.562500
vt 0.906250 0.500000
vt 0.921875 1.000000
vt 0.906250 0.937500
vt 0.921875 0.000000
vt 0.906250 0.437500
vt 0.906250 0.875000
vt 0.906250 0.375000
vt 0.906250 0.812500
vt 0.906250 0.312500
vt 0.906250 0.750000
vt 0.906250 0.250000
vt 0.906250 0.687500
vt 0.906250 0.187500
vt 0.906250 0.625000
vt 0.906250 0.125000
vt 0.875000 0.812500
vt 0.875000 0.750000
vt 0.875000 0.312500
vt 0.875000 0.250000
vt 0.875000 0.687500
vt 0.875000 0.187500
vt 0.875000 0.625000
vt 0.875000 0.125000
vt 0.875000 0.562500
vt 0.875000 0.062500
vt 0.875000 0.500000
vt 0.890625 1.000000
vt 0.875000 0.937500
vt 0.890625 0.000000
vt 0.875000 0.437500
vt 0.875000 0.875000
vt 0.875000 0.375000
vt 0.843750 0.562500
vt 0.843750 0.500000
vt 0.859375 1.000000
vt 0.843750 0.937500
vt 0.859375 0.000000
vt 0.843750 0.062500
vt 0.843750 0.437500
vt 0.843750 0.875000
vt 0.843750 0.375000
vt 0.843750 0.812500
vt 0.843750 0.312500
vt 0.843750 0.750000
vt 0.843750 0.250000
vt 0.843750 0.687500
vt 0.843750 0.187500
vt 0.843750 0.625000
vt 0.843750 0.125000
vt 0.812500 0.312500
vt 0.812500 0.250000
vt 0.812500 0.687500
vt 0.812500 0.187500
vt 0.812500 0.625000
vt 0.812500 0.125000
vt 0.812500 0.562500
vt 0.812500 0.062500
vt 0.812500 0.500000
vt 0.828125 1.000000
vt 0.812500 0.937500
vt 0.828125 0.000000
vt 0.812500 0.437500
vt 0.812500 0.875000
vt 0.812500 0.375000
vt 0.812500 0.812500
vt 0.812500 0.750000
vt 0.796875 0.000000
vt 0.781250 0.062500
vt 0.781250 0.437500
vt 0.781250 0.875000
vt 0.781250 0.375000
vt 0.781250 0.812500
vt 0.781250 0.312500
vt 0.781250 0.750000
vt 0.781250 0.250000
vt 0.781250 0.687500
vt 0.781250 0.187500
vt 0.781250 0.625000
vt 0.781250 0.125000
vt 0.781250 0.562500
vt 0.781250 0.500000
vt 0.796875 1.000000
vt 0.781250 0.937500
vt 0.765625 1.000000
vt 0.765625 0.000000
s 1
usemtl matLua
f 478/1/478 13/2/13 14/3/14
f 8/4/8 22/5/22 9/6/9
f 4/7/4 14/3/14 15/8/15
f 9/6/9 23/9/23 481/10/481
f 479/11/479 15/8/15 16/12/16
f 481/10/481 24/13/24 482/14/482
f 479/11/479 17/15/17 5/16/5
f 1/17/1 326/18/326 10/19/10
f 265/20/265 482/14/482 24/13/24
f 480/21/480 17/15/17 18/22/18
f 477/23/477 10/19/10 11/24/11
f 480/21/480 19/25/19 6/26/6
f 2/27/2 11/24/11 12/28/12
f 6/26/6 20/29/20 7/30/7
f 2/27/2 13/2/13 3/31/3
f 8/4/8 20/29/20 21/32/21
f 19/25/19 35/33/35 20/29/20
f 12/28/12 28/34/28 13/2/13
f 21/32/21 35/33/35 36/35/36
f 13/2/13 29/36/29 14/3/14
f 21/32/21 37/37/37 22/5/22
f 14/3/14 30/38/30 15/8/15
f 22/5/22 38/39/38 23/9/23
f 15/8/15 31/40/31 16/12/16
f 24/13/24 38/39/38 39/41/39
f 16/12/16 32/42/32 17/15/17
f 10/19/10 326/43/326 25/44/25
f 265/45/265 24/13/24 39/41/39
f 17/15/17 33/46/33 18/22/18
f 10/19/10 26/47/26 11/24/11
f 19/25/19 33/46/33 34/48/34
f 11/24/11 27/49/27 12/28/12
f 39/41/39 53/50/53 54/51/54
f 31/40/31 47/52/47 32/42/32
f 25/44/25 326/53/326 40/54/40
f 265/55/265 39/41/39 54/51/54
f 32/42/32 48/56/48 33/46/33
f 26/47/26 40/54/40 41/57/41
f 33/46/33 49/58/49 34/48/34
f 26/47/26 42/59/42 27/49/27
f 34/48/34 50/60/50 35/33/35
f 28/34/28 42/59/42 43/61/43
f 36/35/36 50/60/50 51/62/51
f 29/36/29 43/61/43 44/63/44
f 36/35/36 52/64/52 37/37/37
f 29/36/29 45/65/45 30/38/30
f 37/37/37 53/50/53 38/39/38
f 30/38/30 46/66/46 31/40/31
f 50/60/50 66/67/66 51/62/51
f 43/61/43 59/68/59 44/63/44
f 52/64/52 66/67/66 67/69/67
f 44/63/44 60/70/60 45/65/45
f 53/50/53 67/69/67 68/71/68
f 45/65/45 61/72/61 46/66/46
f 54/51/54 68/71/68 69/73/69
f 46/66/46 62/74/62 47/52/47
f 40/54/40 326/75/326 55/76/55
f 265/77/265 54/51/54 69/73/69
f 47/52/47 63/78/63 48/56/48
f 40/54/40 56/79/56 41/57/41
f 48/56/48 64/80/64 49/58/49
f 41/57/41 57/81/57 42/59/42
f 49/58/49 65/82/65 50/60/50
f 42/59/42 58/83/58 43/61/43
f 55/76/55 326/84/326 70/85/70
f 265/86/265 69/73/69 84/87/84
f 62/74/62 78/88/78 63/78/63
f 55/76/55 71/89/71 56/79/56
f 64/80/64 78/88/78 79/90/79
f 56/79/56 72/91/72 57/81/57
f 64/80/64 80/92/80 65/82/65
f 58/83/58 72/91/72 73/93/73
f 66/67/66 80/92/80 81/94/81
f 58/83/58 74/95/74 59/68/59
f 66/67/66 82/96/82 67/69/67
f 59/68/59 75/97/75 60/70/60
f 67/69/67 83/98/83 68/71/68
f 60/70/60 76/99/76 61/72/61
f 68/71/68 84/87/84 69/73/69
f 61/72/61 77/100/77 62/74/62
f 73/93/73 89/101/89 74/95/74
f 82/96/82 96/102/96 97/103/97
f 74/95/74 90/104/90 75/97/75
f 83/98/83 97/103/97 98/105/98
f 75/97/75 91/106/91 76/99/76
f 83/98/83 99/107/99 84/87/84
f 77/100/77 91/106/91 92/108/92
f 70/85/70 326/109/326 85/110/85
f 265/111/265 84/87/84 99/107/99
f 77/100/77 93/112/93 78/88/78
f 70/85/70 86/113/86 71/89/71
f 78/88/78 94/114/94 79/90/79
f 72/91/72 86/113/86 87/115/87
f 80/92/80 94/114/94 95/116/95
f 73/93/73 87/115/87 88/117/88
f 80/92/80 96/102/96 81/94/81
f 92/108/92 108/118/108 93/112/93
f 85/110/85 101/119/101 86/113/86
f 93/112/93 109/120/109 94/114/94
f 86/113/86 102/121/102 87/115/87
f 94/114/94 110/122/110 95/116/95
f 88/117/88 102/121/102 103/123/103
f 96/102/96 110/122/110 111/124/111
f 88/117/88 104/125/104 89/101/89
f 96/102/96 112/126/112 97/103/97
f 89/101/89 105/127/105 90/104/90
f 98/105/98 112/126/112 113/128/113
f 90/104/90 106/129/106 91/106/91
f 99/107/99 113/128/113 114/130/114
f 91/106/91 107/131/107 92/108/92
f 85/110/85 326/132/326 100/133/100
f 265/134/265 99/107/99 114/130/114
f 111/124/111 127/135/127 112/126/112
f 104/125/104 120/136/120 105/127/105
f 112/126/112 128/137/128 113/128/113
f 105/127/105 121/138/121 106/129/106
f 114/130/114 128/137/128 129/139/129
f 106/129/106 122/140/122 107/131/107
f 100/133/100 326/141/326 115/142/115
f 265/143/265 114/130/114 129/139/129
f 107/131/107 123/144/123 108/118/108
f 100/133/100 116/145/116 101/119/101
f 109/120/109 123/144/123 124/146/124
f 101/119/101 117/147/117 102/121/102
f 110/122/110 124/146/124 125/148/125
f 103/123/103 117/147/117 118/149/118
f 111/124/111 125/148/125 126/150/126
f 103/123/103 119/151/119 104/125/104
f 115/142/115 131/152/131 116/145/116
f 124/146/124 138/153/138 139/154/139
f 116/145/116 132/155/132 117/147/117
f 125/148/125 139/154/139 140/156/140
f 118/149/118 132/155/132 133/157/133
f 125/148/125 141/158/141 126/150/126
f 119/151/119 133/157/133 134/159/134
f 126/150/126 142/160/142 127/135/127
f 119/151/119 135/161/135 120/136/120
f 127/135/127 143/162/143 128/137/128
f 120/136/120 136/163/136 121/138/121
f 128/137/128 144/164/144 129/139/129
f 121/138/121 137/165/137 122/140/122
f 115/142/115 326/166/326 130/167/130
f 265/168/265 129/139/129 144/164/144
f 122/140/122 138/153/138 123/144/123
f 134/159/134 150/169/150 135/161/135
f 142/160/142 158/170/158 143/162/143
f 135/161/135 151/171/151 136/163/136
f 143/162/143 159/172/159 144/164/144
f 137/165/137 151/171/151 152/173/152
f 130/167/130 326/174/326 145/175/145
f 265/176/265 144/164/144 159/172/159
f 137/165/137 153/177/153 138/153/138
f 131/152/131 145/175/145 146/178/146
f 139/154/139 153/177/153 154/179/154
f 132/155/132 146/178/146 147/180/147
f 140/156/140 154/179/154 155/181/155
f 133/157/133 147/180/147 148/182/148
f 140/156/140 156/183/156 141/158/141
f 133/157/133 149/184/149 134/159/134
f 141/158/141 157/185/157 142/160/142
f 153/177/153 169/186/169 154/179/154
f 146/178/146 162/187/162 147/180/147
f 155/181/155 169/186/169 170/188/170
f 148/182/148 162/187/162 163/189/163
f 156/183/156 170/188/170 171/190/171
f 148/182/148 164/191/164 149/184/149
f 156/183/156 172/192/172 157/185/157
f 149/184/149 165/193/165 150/169/150
f 158/170/158 172/192/172 173/194/173
f 150/169/150 166/195/166 151/171/151
f 159/172/159 173/194/173 174/196/174
f 152/173/152 166/195/166 167/197/167
f 145/175/145 326/198/326 160/199/160
f 265/200/265 159/172/159 174/196/174
f 152/173/152 168/201/168 153/177/153
f 146/178/146 160/199/160 161/202/161
f 172/192/172 188/203/188 173/194/173
f 165/193/165 181/204/181 166/195/166
f 173/194/173 189/205/189 174/196/174
f 167/197/167 181/204/181 182/206/182
f 160/199/160 326/207/326 175/208/175
f 265/209/265 174/196/174 189/205/189
f 167/197/167 183/210/183 168/201/168
f 161/202/161 175/208/175 176/211/176
f 168/201/168 184/212/184 169/186/169
f 161/202/161 177/213/177 162/187/162
f 169/186/169 185/214/185 170/188/170
f 163/189/163 177/213/177 178/215/178
f 171/190/171 185/214/185 186/216/186
f 163/189/163 179/217/179 164/191/164
f 171/190/171 187/218/187 172/192/172
f 164/191/164 180/219/180 165/193/165
f 185/214/185 199/220/199 200/221/200
f 178/215/178 192/222/192 193/223/193
f 186/216/186 200/221/200 201/224/201
f 178/215/178 194/225/194 179/217/179
f 186/216/186 202/226/202 187/218/187
f 179/217/179 195/227/195 180/219/180
f 187/218/187 203/228/203 188/203/188
f 180/219/180 196/229/196 181/204/181
f 188/203/188 204/230/204 189/205/189
f 182/206/182 196/229/196 197/231/197
f 175/208/175 326/232/326 190/233/190
f 265/234/265 189/205/189 204/230/204
f 182/206/182 198/235/198 183/210/183
f 175/208/175 191/236/191 176/211/176
f 183/210/183 199/220/199 184/212/184
f 176/211/176 192/222/192 177/213/177
f 204/230/204 218/237/218 219/238/219
f 197/231/197 211/239/211 212/240/212
f 190/233/190 326/241/326 205/242/205
f 265/243/265 204/230/204 219/238/219
f 197/231/197 213/244/213 198/235/198
f 190/233/190 206/245/206 191/236/191
f 198/235/198 214/246/214 199/220/199
f 191/236/191 207/247/207 192/222/192
f 200/221/200 214/246/214 215/248/215
f 193/223/193 207/247/207 208/249/208
f 201/224/201 215/248/215 216/250/216
f 193/223/193 209/251/209 194/225/194
f 201/224/201 217/252/217 202/226/202
f 194/225/194 210/253/210 195/227/195
f 202/226/202 218/237/218 203/228/203
f 195/227/195 211/239/211 196/229/196
f 208/249/208 222/254/222 223/255/223
f 216/250/216 230/256/230 231/257/231
f 208/249/208 224/258/224 209/251/209
f 216/250/216 232/259/232 217/252/217
f 209/251/209 225/260/225 210/253/210
f 217/252/217 233/261/233 218/237/218
f 210/253/210 226/262/226 211/239/211
f 219/238/219 233/261/233 234/263/234
f 212/240/212 226/262/226 227/264/227
f 205/242/205 326/265/326 220/266/220
f 265/267/265 219/238/219 234/263/234
f 212/240/212 228/268/228 213/244/213
f 205/242/205 221/269/221 206/245/206
f 214/246/214 228/268/228 229/270/229
f 206/245/206 222/254/222 207/247/207
f 215/248/215 229/270/229 230/256/230
f 227/264/227 241/271/241 242/272/242
f 220/266/220 326/273/326 235/274/235
f 265/275/265 234/263/234 249/276/249
f 227/264/227 243/277/243 228/268/228
f 220/266/220 236/278/236 221/269/221
f 228/268/228 244/279/244 229/270/229
f 221/269/221 237/280/237 222/254/222
f 230/256/230 244/279/244 245/281/245
f 223/255/223 237/280/237 238/282/238
f 231/257/231 245/281/245 246/283/246
f 223/255/223 239/284/239 224/258/224
f 231/257/231 247/285/247 232/259/232
f 224/258/224 240/286/240 225/260/225
f 232/259/232 248/287/248 233/261/233
f 225/260/225 241/271/241 226/262/226
f 233/261/233 249/276/249 234/263/234
f 246/283/246 260/288/260 261/289/261
f 238/282/238 254/290/254 239/284/239
f 246/283/246 262/291/262 247/285/247
f 239/284/239 255/292/255 240/286/240
f 247/285/247 263/293/263 248/287/248
f 240/286/240 256/294/256 241/271/241
f 248/287/248 264/295/264 249/276/249
f 242/272/242 256/294/256 257/296/257
f 235/274/235 326/297/326 250/298/250
f 265/299/265 249/276/249 264/295/264
f 242/272/242 258/300/258 243/277/243
f 235/274/235 251/301/251 236/278/236
f 243/277/243 259/302/259 244/279/244
f 237/280/237 251/301/251 252/303/252
f 245/281/245 259/302/259 260/288/260
f 238/282/238 252/303/252 253/304/253
f 250/298/250 326/305/326 266/306/266
f 265/307/265 264/295/264 280/308/280
f 257/296/257 274/309/274 258/300/258
f 250/298/250 267/310/267 251/301/251
f 259/302/259 274/309/274 275/311/275
f 252/303/252 267/310/267 268/312/268
f 260/288/260 275/311/275 276/313/276
f 253/304/253 268/312/268 269/314/269
f 261/289/261 276/313/276 277/315/277
f 253/304/253 270/316/270 254/290/254
f 261/289/261 278/317/278 262/291/262
f 254/290/254 271/318/271 255/292/255
f 262/291/262 279/319/279 263/293/263
f 255/292/255 272/320/272 256/294/256
f 263/293/263 280/308/280 264/295/264
f 257/296/257 272/320/272 273/321/273
f 269/314/269 285/322/285 270/316/270
f 277/315/277 293/323/293 278/317/278
f 270/316/270 286/324/286 271/318/271
f 278/317/278 294/325/294 279/319/279
f 271/318/271 287/326/287 272/320/272
f 280/308/280 294/325/294 295/327/295
f 273/321/273 287/326/287 288/328/288
f 266/306/266 326/329/326 281/330/281
f 265/331/265 280/308/280 295/327/295
f 273/321/273 289/332/289 274/309/274
f 266/306/266 282/333/282 267/310/267
f 275/311/275 289/332/289 290/334/290
f 268/312/268 282/333/282 283/335/283
f 276/313/276 290/334/290 291/336/291
f 269/314/269 283/335/283 284/337/284
f 277/315/277 291/336/291 292/338/292
f 288/328/288 304/339/304 289/332/289
f 281/330/281 297/340/297 282/333/282
f 289/332/289 305/341/305 290/334/290
f 282/333/282 298/342/298 283/335/283
f 291/336/291 305/341/305 306/343/306
f 284/337/284 298/342/298 299/344/299
f 292/338/292 306/343/306 307/345/307
f 284/337/284 300/346/300 285/322/285
f 292/338/292 308/347/308 293/323/293
f 285/322/285 301/348/301 286/324/286
f 293/323/293 309/349/309 294/325/294
f 286/324/286 302/350/302 287/326/287
f 295/327/295 309/349/309 310/351/310
f 288/328/288 302/350/302 303/352/303
f 281/330/281 326/353/326 296/354/296
f 265/355/265 295/327/295 310/351/310
f 307/345/307 323/356/323 308/347/308
f 300/346/300 316/357/316 301/348/301
f 308/347/308 324/358/324 309/349/309
f 301/348/301 317/359/317 302/350/302
f 310/351/310 324/358/324 325/360/325
f 303/352/303 317/359/317 318/361/318
f 296/354/296 326/362/326 311/363/311
f 265/364/265 310/351/310 325/360/325
f 303/352/303 319/365/319 304/339/304
f 296/354/296 312/366/312 297/340/297
f 305/341/305 319/365/319 320/367/320
f 298/342/298 312/366/312 313/368/313
f 305/341/305 321/369/321 306/343/306
f 299/344/299 313/368/313 314/370/314
f 307/345/307 321/369/321 322/371/322
f 299/344/299 315/372/315 300/346/300
f 320/367/320 335/373/335 336/374/336
f 312/366/312 329/375/329 313/368/313
f 321/369/321 336/374/336 337/376/337
f 314/370/314 329/375/329 330/377/330
f 322/371/322 337/376/337 338/378/338
f 314/370/314 331/379/331 315/372/315
f 322/371/322 339/380/339 323/356/323
f 315/372/315 332/381/332 316/357/316
f 323/356/323 340/382/340 324/358/324
f 316/357/316 333/383/333 317/359/317
f 325/360/325 340/382/340 341/384/341
f 318/361/318 333/383/333 334/385/334
f 311/363/311 326/386/326 327/387/327
f 265/388/265 325/360/325 341/384/341
f 318/361/318 335/373/335 319/365/319
f 311/363/311 328/389/328 312/366/312
f 339/380/339 355/390/355 340/382/340
f 332/381/332 348/391/348 333/383/333
f 341/384/341 355/390/355 356/392/356
f 333/383/333 349/393/349 334/385/334
f 327/387/327 326/394/326 342/395/342
f 265/396/265 341/384/341 356/392/356
f 334/385/334 350/397/350 335/373/335
f 327/387/327 343/398/343 328/389/328
f 336/374/336 350/397/350 351/399/351
f 329/375/329 343/398/343 344/400/344
f 337/376/337 351/399/351 352/401/352
f 330/377/330 344/400/344 345/402/345
f 338/378/338 352/401/352 353/403/353
f 330/377/330 346/404/346 331/379/331
f 338/378/338 354/405/354 339/380/339
f 331/379/331 347/406/347 332/381/332
f 344/400/344 358/407/358 359/408/359
f 352/401/352 366/409/366 367/410/367
f 344/400/344 360/411/360 345/402/345
f 352/401/352 368/412/368 353/403/353
f 345/402/345 361/413/361 346/404/346
f 353/403/353 369/414/369 354/405/354
f 346/404/346 362/415/362 347/406/347
f 354/405/354 370/416/370 355/390/355
f 347/406/347 363/417/363 348/391/348
f 355/390/355 371/418/371 356/392/356
f 349/393/349 363/417/363 364/419/364
f 342/395/342 326/420/326 357/421/357
f 265/422/265 356/392/356 371/418/371
f 349/393/349 365/423/365 350/397/350
f 342/395/342 358/407/358 343/398/343
f 351/399/351 365/423/365 366/409/366
f 362/424/362 378/425/378 363/426/363
f 370/427/370 386/428/386 371/429/371
f 364/430/364 378/425/378 379/431/379
f 357/432/357 326/433/326 372/434/372
f 265/435/265 371/429/371 386/428/386
f 364/430/364 380/436/380 365/437/365
f 357/432/357 373/438/373 358/439/358
f 366/440/366 380/436/380 381/441/381
f 359/442/359 373/438/373 374/443/374
f 367/444/367 381/441/381 382/445/382
f 360/446/360 374/443/374 375/447/375
f 368/448/368 382/445/382 383/449/383
f 360/446/360 376/450/376 361/451/361
f 368/448/368 384/452/384 369/453/369
f 361/451/361 377/454/377 362/424/362
f 369/453/369 385/455/385 370/427/370
f 382/445/382 396/456/396 397/457/397
f 375/447/375 389/458/389 390/459/390
f 383/449/383 397/457/397 398/460/398
f 375/447/375 391/461/391 376/450/376
f 383/449/383 399/462/399 384/452/384
f 376/450/376 392/463/392 377/454/377
f 384/452/384 400/464/400 385/455/385
f 377/454/377 393/465/393 378/425/378
f 386/428/386 400/464/400 401/466/401
f 379/431/379 393/465/393 394/467/394
f 372/434/372 326/468/326 387/469/387
f 265/470/265 386/428/386 401/466/401
f 379/431/379 395/471/395 380/436/380
f 372/434/372 388/472/388 373/438/373
f 381/441/381 395/471/395 396/456/396
f 373/438/373 389/458/389 374/443/374
f 400/464/400 416/473/416 401/466/401
f 394/467/394 408/474/408 409/475/409
f 387/469/387 326/476/326 402/477/402
f 265/478/265 401/466/401 416/473/416
f 394/467/394 410/479/410 395/471/395
f 387/469/387 403/480/403 388/472/388
f 396/456/396 410/479/410 411/481/411
f 388/472/388 404/482/404 389/458/389
f 396/456/396 412/483/412 397/457/397
f 390/459/390 404/482/404 405/484/405
f 398/460/398 412/483/412 413/485/413
f 390/459/390 406/486/406 391/461/391
f 398/460/398 414/487/414 399/462/399
f 391/461/391 407/488/407 392/463/392
f 399/462/399 415/489/415 400/464/400
f 392/463/392 408/474/408 393/465/393
f 405/484/405 419/490/419 420/491/420
f 413/485/413 427/492/427 428/493/428
f 405/484/405 421/494/421 406/486/406
f 413/485/413 429/495/429 414/487/414
f 406/486/406 422/496/422 407/488/407
f 414/487/414 430/497/430 415/489/415
f 407/488/407 423/498/423 408/474/408
f 416/473/416 430/497/430 431/499/431
f 409/475/409 423/498/423 424/500/424
f 402/477/402 326/501/326 417/502/417
f 265/503/265 416/473/416 431/499/431
f 409/475/409 425/504/425 410/479/410
f 402/477/402 418/505/418 403/480/403
f 411/481/411 425/504/425 426/506/426
f 404/482/404 418/505/418 419/490/419
f 411/481/411 427/492/427 412/483/412
f 424/500/424 438/507/438 439/508/439
f 417/502/417 326/509/326 432/510/432
f 265/511/265 431/499/431 446/512/446
f 424/500/424 440/513/440 425/504/425
f 417/502/417 433/514/433 418/505/418
f 426/506/426 440/513/440 441/515/441
f 419/490/419 433/514/433 434/516/434
f 426/506/426 442/517/442 427/492/427
f 420/491/420 434/516/434 435/518/435
f 428/493/428 442/517/442 443/519/443
f 420/491/420 436/520/436 421/494/421
f 428/493/428 444/521/444 429/495/429
f 421/494/421 437/522/437 422/496/422
f 429/495/429 445/523/445 430/497/430
f 422/496/422 438/507/438 423/498/423
f 430/497/430 446/512/446 431/499/431
f 443/519/443 457/524/457 458/525/458
f 435/518/435 451/526/451 436/520/436
f 443/519/443 459/527/459 444/521/444
f 436/520/436 452/528/452 437/522/437
f 444/521/444 460/529/460 445/523/445
f 437/522/437 453/530/453 438/507/438
f 445/523/445 461/531/461 446/512/446
f 439/508/439 453/530/453 454/532/454
f 432/510/432 326/533/326 447/534/447
f 265/535/265 446/512/446 461/531/461
f 439/508/439 455/536/455 440/513/440
f 433/514/433 447/534/447 448/537/448
f 441/515/441 455/536/455 456/538/456
f 433/514/433 449/539/449 434/516/434
f 441/515/441 457/524/457 442/517/442
f 435/518/435 449/539/449 450/540/450
f 265/541/265 461/531/461 476/542/476
f 454/532/454 470/543/470 455/536/455
f 447/534/447 463/544/463 448/537/448
f 456/538/456 470/543/470 471/545/471
f 449/539/449 463/544/463 464/546/464
f 456/538/456 472/547/472 457/524/457
f 450/540/450 464/546/464 465/548/465
f 458/525/458 472/547/472 473/549/473
f 450/540/450 466/550/466 451/526/451
f 458/525/458 474/551/474 459/527/459
f 452/528/452 466/550/466 467/552/467
f 459/527/459 475/553/475 460/529/460
f 452/528/452 468/554/468 453/530/453
f 461/531/461 475/553/475 476/542/476
f 454/532/454 468/554/468 469/555/469
f 447/534/447 326/556/326 462/557/462
f 473/549/473 9/6/9 474/551/474
f 467/552/467 478/1/478 4/7/4
f 474/551/474 481/10/481 475/553/475
f 468/554/468 4/7/4 479/11/479
f 475/553/475 482/14/482 476/542/476
f 469/555/469 479/11/479 5/16/5
f 462/557/462 326/558/326 1/17/1
f 265/559/265 476/542/476 482/14/482
f 469/555/469 480/21/480 470/543/470
f 463/544/463 1/17/1 477/23/477
f 470/543/470 6/26/6 471/545/471
f 464/546/464 477/23/477 2/27/2
f 471/545/471 7/30/7 472/547/472
f 465/548/465 2/27/2 3/31/3
f 472/547/472 8/4/8 473/549/473
f 466/550/466 3/31/3 478/1/478
f 478/1/478 3/31/3 13/2/13
f 8/4/8 21/32/21 22/5/22
f 4/7/4 478/1/478 14/3/14
f 9/6/9 22/5/22 23/9/23
f 479/11/479 4/7/4 15/8/15
f 481/10/481 23/9/23 24/13/24
f 479/11/479 16/12/16 17/15/17
f 480/21/480 5/16/5 17/15/17
f 477/23/477 1/17/1 10/19/10
f 480/21/480 18/22/18 19/25/19
f 2/27/2 477/23/477 11/24/11
f 6/26/6 19/25/19 20/29/20
f 2/27/2 12/28/12 13/2/13
f 8/4/8 7/30/7 20/29/20
f 19/25/19 34/48/34 35/33/35
f 12/28/12 27/49/27 28/34/28
f 21/32/21 20/29/20 35/33/35
f 13/2/13 28/34/28 29/36/29
f 21/32/21 36/35/36 37/37/37
f 14/3/14 29/36/29 30/38/30
f 22/5/22 37/37/37 38/39/38
f 15/8/15 30/38/30 31/40/31
f 24/13/24 23/9/23 38/39/38
f 16/12/16 31/40/31 32/42/32
f 17/15/17 32/42/32 33/46/33
f 10/19/10 25/44/25 26/47/26
f 19/25/19 18/22/18 33/46/33
f 11/24/11 26/47/26 27/49/27
f 39/41/39 38/39/38 53/50/53
f 31/40/31 46/66/46 47/52/47
f 32/42/32 47/52/47 48/56/48
f 26/47/26 25/44/25 40/54/40
f 33/46/33 48/56/48 49/58/49
f 26/47/26 41/57/41 42/59/42
f 34/48/34 49/58/49 50/60/50
f 28/34/28 27/49/27 42/59/42
f 36/35/36 35/33/35 50/60/50
f 29/36/29 28/34/28 43/61/43
f 36/35/36 51/62/51 52/64/52
f 29/36/29 44/63/44 45/65/45
f 37/37/37 52/64/52 53/50/53
f 30/38/30 45/65/45 46/66/46
f 50/60/50 65/82/65 66/67/66
f 43/61/43 58/83/58 59/68/59
f 52/64/52 51/62/51 66/67/66
f 44/63/44 59/68/59 60/70/60
f 53/50/53 52/64/52 67/69/67
f 45/65/45 60/70/60 61/72/61
f 54/51/54 53/50/53 68/71/68
f 46/66/46 61/72/61 62/74/62
f 47/52/47 62/74/62 63/78/63
f 40/54/40 55/76/55 56/79/56
f 48/56/48 63/78/63 64/80/64
f 41/57/41 56/79/56 57/81/57
f 49/58/49 64/80/64 65/82/65
f 42/59/42 57/81/57 58/83/58
f 62/74/62 77/100/77 78/88/78
f 55/76/55 70/85/70 71/89/71
f 64/80/64 63/78/63 78/88/78
f 56/79/56 71/89/71 72/91/72
f 64/80/64 79/90/79 80/92/80
f 58/83/58 57/81/57 72/91/72
f 66/67/66 65/82/65 80/92/80
f 58/83/58 73/93/73 74/95/74
f 66/67/66 81/94/81 82/96/82
f 59/68/59 74/95/74 75/97/75
f 67/69/67 82/96/82 83/98/83
f 60/70/60 75/97/75 76/99/76
f 68/71/68 83/98/83 84/87/84
f 61/72/61 76/99/76 77/100/77
f 73/93/73 88/117/88 89/101/89
f 82/96/82 81/94/81 96/102/96
f 74/95/74 89/101/89 90/104/90
f 83/98/83 82/96/82 97/103/97
f 75/97/75 90/104/90 91/106/91
f 83/98/83 98/105/98 99/107/99
f 77/100/77 76/99/76 91/106/91
f 77/100/77 92/108/92 93/112/93
f 70/85/70 85/110/85 86/113/86
f 78/88/78 93/112/93 94/114/94
f 72/91/72 71/89/71 86/113/86
f 80/92/80 79/90/79 94/114/94
f 73/93/73 72/91/72 87/115/87
f 80/92/80 95/116/95 96/102/96
f 92/108/92 107/131/107 108/118/108
f 85/110/85 100/133/100 101/119/101
f 93/112/93 108/118/108 109/120/109
f 86/113/86 101/119/101 102/121/102
f 94/114/94 109/120/109 110/122/110
f 88/117/88 87/115/87 102/121/102
f 96/102/96 95/116/95 110/122/110
f 88/117/88 103/123/103 104/125/104
f 96/102/96 111/124/111 112/126/112
f 89/101/89 104/125/104 105/127/105
f 98/105/98 97/103/97 112/126/112
f 90/104/90 105/127/105 106/129/106
f 99/107/99 98/105/98 113/128/113
f 91/106/91 106/129/106 107/131/107
f 111/124/111 126/150/126 127/135/127
f 104/125/104 119/151/119 120/136/120
f 112/126/112 127/135/127 128/137/128
f 105/127/105 120/136/120 121/138/121
f 114/130/114 113/128/113 128/137/128
f 106/129/106 121/138/121 122/140/122
f 107/131/107 122/140/122 123/144/123
f 100/133/100 115/142/115 116/145/116
f 109/120/109 108/118/108 123/144/123
f 101/119/101 116/145/116 117/147/117
f 110/122/110 109/120/109 124/146/124
f 103/123/103 102/121/102 117/147/117
f 111/124/111 110/122/110 125/148/125
f 103/123/103 118/149/118 119/151/119
f 115/142/115 130/167/130 131/152/131
f 124/146/124 123/144/123 138/153/138
f 116/145/116 131/152/131 132/155/132
f 125/148/125 124/146/124 139/154/139
f 118/149/118 117/147/117 132/155/132
f 125/148/125 140/156/140 141/158/141
f 119/151/119 118/149/118 133/157/133
f 126/150/126 141/158/141 142/160/142
f 119/151/119 134/159/134 135/161/135
f 127/135/127 142/160/142 143/162/143
f 120/136/120 135/161/135 136/163/136
f 128/137/128 143/162/143 144/164/144
f 121/138/121 136/163/136 137/165/137
f 122/140/122 137/165/137 138/153/138
f 134/159/134 149/184/149 150/169/150
f 142/160/142 157/185/157 158/170/158
f 135/161/135 150/169/150 151/171/151
f 143/162/143 158/170/158 159/172/159
f 137/165/137 136/163/136 151/171/151
f 137/165/137 152/173/152 153/177/153
f 131/152/131 130/167/130 145/175/145
f 139/154/139 138/153/138 153/177/153
f 132/155/132 131/152/131 146/178/146
f 140/156/140 139/154/139 154/179/154
f 133/157/133 132/155/132 147/180/147
f 140/156/140 155/181/155 156/183/156
f 133/157/133 148/182/148 149/184/149
f 141/158/141 156/183/156 157/185/157
f 153/177/153 168/201/168 169/186/169
f 146/178/146 161/202/161 162/187/162
f 155/181/155 154/179/154 169/186/169
f 148/182/148 147/180/147 162/187/162
f 156/183/156 155/181/155 170/188/170
f 148/182/148 163/189/163 164/191/164
f 156/183/156 171/190/171 172/192/172
f 149/184/149 164/191/164 165/193/165
f 158/170/158 157/185/157 172/192/172
f 150/169/150 165/193/165 166/195/166
f 159/172/159 158/170/158 173/194/173
f 152/173/152 151/171/151 166/195/166
f 152/173/152 167/197/167 168/201/168
f 146/178/146 145/175/145 160/199/160
f 172/192/172 187/218/187 188/203/188
f 165/193/165 180/219/180 181/204/181
f 173/194/173 188/203/188 189/205/189
f 167/197/167 166/195/166 181/204/181
f 167/197/167 182/206/182 183/210/183
f 161/202/161 160/199/160 175/208/175
f 168/201/168 183/210/183 184/212/184
f 161/202/161 176/211/176 177/213/177
f 169/186/169 184/212/184 185/214/185
f 163/189/163 162/187/162 177/213/177
f 171/190/171 170/188/170 185/214/185
f 163/189/163 178/215/178 179/217/179
f 171/190/171 186/216/186 187/218/187
f 164/191/164 179/217/179 180/219/180
f 185/214/185 184/212/184 199/220/199
f 178/215/178 177/213/177 192/222/192
f 186/216/186 185/214/185 200/221/200
f 178/215/178 193/223/193 194/225/194
f 186/216/186 201/224/201 202/226/202
f 179/217/179 194/225/194 195/227/195
f 187/218/187 202/226/202 203/228/203
f 180/219/180 195/227/195 196/229/196
f 188/203/188 203/228/203 204/230/204
f 182/206/182 181/204/181 196/229/196
f 182/206/182 197/231/197 198/235/198
f 175/208/175 190/233/190 191/236/191
f 183/210/183 198/235/198 199/220/199
f 176/211/176 191/236/191 192/222/192
f 204/230/204 203/228/203 218/237/218
f 197/231/197 196/229/196 211/239/211
f 197/231/197 212/240/212 213/244/213
f 190/233/190 205/242/205 206/245/206
f 198/235/198 213/244/213 214/246/214
f 191/236/191 206/245/206 207/247/207
f 200/221/200 199/220/199 214/246/214
f 193/223/193 192/222/192 207/247/207
f 201/224/201 200/221/200 215/248/215
f 193/223/193 208/249/208 209/251/209
f 201/224/201 216/250/216 217/252/217
f 194/225/194 209/251/209 210/253/210
f 202/226/202 217/252/217 218/237/218
f 195/227/195 210/253/210 211/239/211
f 208/249/208 207/247/207 222/254/222
f 216/250/216 215/248/215 230/256/230
f 208/249/208 223/255/223 224/258/224
f 216/250/216 231/257/231 232/259/232
f 209/251/209 224/258/224 225/260/225
f 217/252/217 232/259/232 233/261/233
f 210/253/210 225/260/225 226/262/226
f 219/238/219 218/237/218 233/261/233
f 212/240/212 211/239/211 226/262/226
f 212/240/212 227/264/227 228/268/228
f 205/242/205 220/266/220 221/269/221
f 214/246/214 213/244/213 228/268/228
f 206/245/206 221/269/221 222/254/222
f 215/248/215 214/246/214 229/270/229
f 227/264/227 226/262/226 241/271/241
f 227/264/227 242/272/242 243/277/243
f 220/266/220 235/274/235 236/278/236
f 228/268/228 243/277/243 244/279/244
f 221/269/221 236/278/236 237/280/237
f 230/256/230 229/270/229 244/279/244
f 223/255/223 222/254/222 237/280/237
f 231/257/231 230/256/230 245/281/245
f 223/255/223 238/282/238 239/284/239
f 231/257/231 246/283/246 247/285/247
f 224/258/224 239/284/239 240/286/240
f 232/259/232 247/285/247 248/287/248
f 225/260/225 240/286/240 241/271/241
f 233/261/233 248/287/248 249/276/249
f 246/283/246 245/281/245 260/288/260
f 238/282/238 253/304/253 254/290/254
f 246/283/246 261/289/261 262/291/262
f 239/284/239 254/290/254 255/292/255
f 247/285/247 262/291/262 263/293/263
f 240/286/240 255/292/255 256/294/256
f 248/287/248 263/293/263 264/295/264
f 242/272/242 241/271/241 256/294/256
f 242/272/242 257/296/257 258/300/258
f 235/274/235 250/298/250 251/301/251
f 243/277/243 258/300/258 259/302/259
f 237/280/237 236/278/236 251/301/251
f 245/281/245 244/279/244 259/302/259
f 238/282/238 237/280/237 252/303/252
f 257/296/257 273/321/273 274/309/274
f 250/298/250 266/306/266 267/310/267
f 259/302/259 258/300/258 274/309/274
f 252/303/252 251/301/251 267/310/267
f 260/288/260 259/302/259 275/311/275
f 253/304/253 252/303/252 268/312/268
f 261/289/261 260/288/260 276/313/276
f 253/304/253 269/314/269 270/316/270
f 261/289/261 277/315/277 278/317/278
f 254/290/254 270/316/270 271/318/271
f 262/291/262 278/317/278 279/319/279
f 255/292/255 271/318/271 272/320/272
f 263/293/263 279/319/279 280/308/280
f 257/296/257 256/294/256 272/320/272
f 269/314/269 284/337/284 285/322/285
f 277/315/277 292/338/292 293/323/293
f 270/316/270 285/322/285 286/324/286
f 278/317/278 293/323/293 294/325/294
f 271/318/271 286/324/286 287/326/287
f 280/308/280 279/319/279 294/325/294
f 273/321/273 272/320/272 287/326/287
f 273/321/273 288/328/288 289/332/289
f 266/306/266 281/330/281 282/333/282
f 275/311/275 274/309/274 289/332/289
f 268/312/268 267/310/267 282/333/282
f 276/313/276 275/311/275 290/334/290
f 269/314/269 268/312/268 283/335/283
f 277/315/277 276/313/276 291/336/291
f 288/328/288 303/352/303 304/339/304
f 281/330/281 296/354/296 297/340/297
f 289/332/289 304/339/304 305/341/305
f 282/333/282 297/340/297 298/342/298
f 291/336/291 290/334/290 305/341/305
f 284/337/284 283/335/283 298/342/298
f 292/338/292 291/336/291 306/343/306
f 284/337/284 299/344/299 300/346/300
f 292/338/292 307/345/307 308/347/308
f 285/322/285 300/346/300 301/348/301
f 293/323/293 308/347/308 309/349/309
f 286/324/286 301/348/301 302/350/302
f 295/327/295 294/325/294 309/349/309
f 288/328/288 287/326/287 302/350/302
f 307/345/307 322/371/322 323/356/323
f 300/346/300 315/372/315 316/357/316
f 308/347/308 323/356/323 324/358/324
f 301/348/301 316/357/316 317/359/317
f 310/351/310 309/349/309 324/358/324
f 303/352/303 302/350/302 317/359/317
f 303/352/303 318/361/318 319/365/319
f 296/354/296 311/363/311 312/366/312
f 305/341/305 304/339/304 319/365/319
f 298/342/298 297/340/297 312/366/312
f 305/341/305 320/367/320 321/369/321
f 299/344/299 298/342/298 313/368/313
f 307/345/307 306/343/306 321/369/321
f 299/344/299 314/370/314 315/372/315
f 320/367/320 319/365/319 335/373/335
f 312/366/312 328/389/328 329/375/329
f 321/369/321 320/367/320 336/374/336
f 314/370/314 313/368/313 329/375/329
f 322/371/322 321/369/321 337/376/337
f 314/370/314 330/377/330 331/379/331
f 322/371/322 338/378/338 339/380/339
f 315/372/315 331/379/331 332/381/332
f 323/356/323 339/380/339 340/382/340
f 316/357/316 332/381/332 333/383/333
f 325/360/325 324/358/324 340/382/340
f 318/361/318 317/359/317 333/383/333
f 318/361/318 334/385/334 335/373/335
f 311/363/311 327/387/327 328/389/328
f 339/380/339 354/405/354 355/390/355
f 332/381/332 347/406/347 348/391/348
f 341/384/341 340/382/340 355/390/355
f 333/383/333 348/391/348 349/393/349
f 334/385/334 349/393/349 350/397/350
f 327/387/327 342/395/342 343/398/343
f 336/374/336 335/373/335 350/397/350
f 329/375/329 328/389/328 343/398/343
f 337/376/337 336/374/336 351/399/351
f 330/377/330 329/375/329 344/400/344
f 338/378/338 337/376/337 352/401/352
f 330/377/330 345/402/345 346/404/346
f 338/378/338 353/403/353 354/405/354
f 331/379/331 346/404/346 347/406/347
f 344/400/344 343/398/343 358/407/358
f 352/401/352 351/399/351 366/409/366
f 344/400/344 359/408/359 360/411/360
f 352/401/352 367/410/367 368/412/368
f 345/402/345 360/411/360 361/413/361
f 353/403/353 368/412/368 369/414/369
f 346/404/346 361/413/361 362/415/362
f 354/405/354 369/414/369 370/416/370
f 347/406/347 362/415/362 363/417/363
f 355/390/355 370/416/370 371/418/371
f 349/393/349 348/391/348 363/417/363
f 349/393/349 364/419/364 365/423/365
f 342/395/342 357/421/357 358/407/358
f 351/399/351 350/397/350 365/423/365
f 362/424/362 377/454/377 378/425/378
f 370/427/370 385/455/385 386/428/386
f 364/430/364 363/426/363 378/425/378
f 364/430/364 379/431/379 380/436/380
f 357/432/357 372/434/372 373/438/373
f 366/440/366 365/437/365 380/436/380
f 359/442/359 358/439/358 373/438/373
f 367/444/367 366/440/366 381/441/381
f 360/446/360 359/442/359 374/443/374
f 368/448/368 367/444/367 382/445/382
f 360/446/360 375/447/375 376/450/376
f 368/448/368 383/449/383 384/452/384
f 361/451/361 376/450/376 377/454/377
f 369/453/369 384/452/384 385/455/385
f 382/445/382 381/441/381 396/456/396
f 375/447/375 374/443/374 389/458/389
f 383/449/383 382/445/382 397/457/397
f 375/447/375 390/459/390 391/461/391
f 383/449/383 398/460/398 399/462/399
f 376/450/376 391/461/391 392/463/392
f 384/452/384 399/462/399 400/464/400
f 377/454/377 392/463/392 393/465/393
f 386/428/386 385/455/385 400/464/400
f 379/431/379 378/425/378 393/465/393
f 379/431/379 394/467/394 395/471/395
f 372/434/372 387/469/387 388/472/388
f 381/441/381 380/436/380 395/471/395
f 373/438/373 388/472/388 389/458/389
f 400/464/400 415/489/415 416/473/416
f 394/467/394 393/465/393 408/474/408
f 394/467/394 409/475/409 410/479/410
f 387/469/387 402/477/402 403/480/403
f 396/456/396 395/471/395 410/479/410
f 388/472/388 403/480/403 404/482/404
f 396/456/396 411/481/411 412/483/412
f 390/459/390 389/458/389 404/482/404
f 398/460/398 397/457/397 412/483/412
f 390/459/390 405/484/405 406/486/406
f 398/460/398 413/485/413 414/487/414
f 391/461/391 406/486/406 407/488/407
f 399/462/399 414/487/414 415/489/415
f 392/463/392 407/488/407 408/474/408
f 405/484/405 404/482/404 419/490/419
f 413/485/413 412/483/412 427/492/427
f 405/484/405 420/491/420 421/494/421
f 413/485/413 428/493/428 429/495/429
f 406/486/406 421/494/421 422/496/422
f 414/487/414 429/495/429 430/497/430
f 407/488/407 422/496/422 423/498/423
f 416/473/416 415/489/415 430/497/430
f 409/475/409 408/474/408 423/498/423
f 409/475/409 424/500/424 425/504/425
f 402/477/402 417/502/417 418/505/418
f 411/481/411 410/479/410 425/504/425
f 404/482/404 403/480/403 418/505/418
f 411/481/411 426/506/426 427/492/427
f 424/500/424 423/498/423 438/507/438
f 424/500/424 439/508/439 440/513/440
f 417/502/417 432/510/432 433/514/433
f 426/506/426 425/504/425 440/513/440
f 419/490/419 418/505/418 433/514/433
f 426/506/426 441/515/441 442/517/442
f 420/491/420 419/490/419 434/516/434
f 428/493/428 427/492/427 442/517/442
f 420/491/420 435/518/435 436/520/436
f 428/493/428 443/519/443 444/521/444
f 421/494/421 436/520/436 437/522/437
f 429/495/429 444/521/444 445/523/445
f 422/496/422 437/522/437 438/507/438
f 430/497/430 445/523/445 446/512/446
f 443/519/443 442/517/442 457/524/457
f 435/518/435 450/540/450 451/526/451
f 443/519/443 458/525/458 459/527/459
f 436/520/436 451/526/451 452/528/452
f 444/521/444 459/527/459 460/529/460
f 437/522/437 452/528/452 453/530/453
f 445/523/445 460/529/460 461/531/461
f 439/508/439 438/507/438 453/530/453
f 439/508/439 454/532/454 455/536/455
f 433/514/433 432/510/432 447/534/447
f 441/515/441 440/513/440 455/536/455
f 433/514/433 448/537/448 449/539/449
f 441/515/441 456/538/456 457/524/457
f 435/518/435 434/516/434 449/539/449
f 454/532/454 469/555/469 470/543/470
f 447/534/447 462/557/462 463/544/463
f 456/538/456 455/536/455 470/543/470
f 449/539/449 448/537/448 463/544/463
f 456/538/456 471/545/471 472/547/472
f 450/540/450 449/539/449 464/546/464
f 458/525/458 457/524/457 472/547/472
f 450/540/450 465/548/465 466/550/466
f 458/525/458 473/549/473 474/551/474
f 452/528/452 451/526/451 466/550/466
f 459/527/459 474/551/474 475/553/475
f 452/528/452 467/552/467 468/554/468
f 461/531/461 460/529/460 475/553/475
f 454/532/454 453/530/453 468/554/468
f 473/549/473 8/4/8 9/6/9
f 467/552/467 466/550/466 478/1/478
f 474/551/474 9/6/9 481/10/481
f 468/554/468 467/552/467 4/7/4
f 475/553/475 481/10/481 482/14/482
f 469/555/469 468/554/468 479/11/479
f 469/555/469 5/16/5 480/21/480
f 463/544/463 462/557/462 1/17/1
f 470/543/470 480/21/480 6/26/6
f 464/546/464 463/544/463 477/23/477
f 471/545/471 6/26/6 7/30/7
f 465/548/465 464/546/464 2/27/2
f 472/547/472 7/30/7 8/4/8
f 466/550/466 465/548/465 3/31/3
