# Blender 4.4.1
# www.blender.org
o luz
v 0.054491 0.285317 -0.075000
v 0.103647 0.242705 -0.142658
v 0.142658 0.176336 -0.196353
v 0.167705 0.092705 -0.230826
v 0.176336 0.000000 -0.242705
v 0.167705 -0.092705 -0.230826
v 0.142658 -0.176336 -0.196353
v 0.103647 -0.242705 -0.142658
v 0.054491 -0.285317 -0.075000
v 0.088168 0.285317 -0.028647
v 0.167705 0.242705 -0.054491
v 0.230826 0.176336 -0.075000
v 0.271353 0.092705 -0.088168
v 0.285317 0.000000 -0.092705
v 0.271353 -0.092705 -0.088168
v 0.230826 -0.176336 -0.075000
v 0.167705 -0.242705 -0.054491
v 0.088168 -0.285317 -0.028647
v 0.088168 0.285317 0.028647
v 0.167705 0.242705 0.054491
v 0.230826 0.176336 0.075000
v 0.271353 0.092705 0.088168
v 0.285317 0.000000 0.092705
v 0.271353 -0.092705 0.088168
v 0.230826 -0.176336 0.075000
v 0.167705 -0.242705 0.054491
v 0.088168 -0.285317 0.028647
v 0.054491 0.285317 0.075000
v 0.103647 0.242705 0.142658
v 0.142659 0.176336 0.196353
v 0.167705 0.092705 0.230826
v 0.176336 0.000000 0.242705
v 0.167705 -0.092705 0.230826
v 0.142659 -0.176336 0.196353
v 0.103647 -0.242705 0.142658
v 0.054491 -0.285317 0.075000
v 0.000000 0.285317 0.092705
v 0.000000 0.242705 0.176336
v 0.000000 0.176336 0.242705
v 0.000000 0.092705 0.285317
v 0.000000 0.000000 0.300000
v 0.000000 -0.092705 0.285317
v 0.000000 -0.176336 0.242705
v 0.000000 -0.242705 0.176336
v 0.000000 -0.285317 0.092705
v -0.054491 0.285317 0.075000
v -0.103647 0.242705 0.142658
v -0.142658 0.176336 0.196353
v -0.167705 0.092705 0.230826
v -0.176336 0.000000 0.242705
v -0.167705 -0.092705 0.230826
v -0.142658 -0.176336 0.196353
v -0.103647 -0.242705 0.142658
v -0.054491 -0.285317 0.075000
v -0.088168 0.285317 0.028647
v -0.167705 0.242705 0.054491
v -0.230826 0.176336 0.075000
v -0.271353 0.092705 0.088168
v -0.285317 0.000000 0.092705
v -0.271353 -0.092705 0.088168
v -0.230826 -0.176336 0.075000
v -0.167705 -0.242705 0.054491
v -0.088168 -0.285317 0.028647
v 0.000000 -0.300000 0.000000
v -0.088168 0.285317 -0.028647
v -0.167705 0.242705 -0.054491
v -0.230826 0.176336 -0.075000
v -0.271353 0.092705 -0.088168
v -0.285317 0.000000 -0.092705
v -0.271353 -0.092705 -0.088168
v -0.230826 -0.176336 -0.075000
v -0.167705 -0.242705 -0.054491
v -0.088168 -0.285317 -0.028647
v -0.054491 0.285317 -0.075000
v -0.103647 0.242705 -0.142658
v -0.142659 0.176336 -0.196353
v -0.167705 0.092705 -0.230826
v -0.176336 0.000000 -0.242705
v -0.167705 -0.092705 -0.230826
v -0.142659 -0.176336 -0.196353
v -0.103647 -0.242705 -0.142658
v -0.054491 -0.285317 -0.075000
v 0.000000 0.300000 0.000000
v -0.000000 0.285317 -0.092705
v 0.000000 0.242705 -0.176336
v -0.000000 0.176336 -0.242705
v -0.000000 0.092705 -0.285317
v -0.000000 0.000000 -0.300000
v -0.000000 -0.092705 -0.285317
v -0.000000 -0.176336 -0.242705
v 0.000000 -0.242705 -0.176336
v -0.000000 -0.285317 -0.092705
s 0
f 87 5 88
f 84 2 85
f 91 9 92
f 88 6 89
f 85 3 86
f 64 92 9
f 89 7 90
f 86 4 87
f 84 83 1
f 91 7 8
f 4 14 5
f 2 10 11
f 9 17 18
f 5 15 6
f 2 12 3
f 64 9 18
f 7 15 16
f 3 13 4
f 1 83 10
f 7 17 8
f 10 83 19
f 17 25 26
f 13 23 14
f 10 20 11
f 17 27 18
f 14 24 15
f 11 21 12
f 64 18 27
f 15 25 16
f 12 22 13
f 22 30 31
f 19 83 28
f 25 35 26
f 22 32 23
f 20 28 29
f 26 36 27
f 23 33 24
f 20 30 21
f 64 27 36
f 24 34 25
f 64 36 45
f 33 43 34
f 30 40 31
f 28 83 37
f 35 43 44
f 31 41 32
f 28 38 29
f 35 45 36
f 32 42 33
f 29 39 30
f 42 50 51
f 38 48 39
f 64 45 54
f 43 51 52
f 39 49 40
f 37 83 46
f 43 53 44
f 40 50 41
f 38 46 47
f 45 53 54
f 46 56 47
f 53 63 54
f 50 60 51
f 47 57 48
f 64 54 63
f 51 61 52
f 48 58 49
f 46 83 55
f 52 62 53
f 49 59 50
f 58 69 59
f 56 65 66
f 62 73 63
f 59 70 60
f 56 67 57
f 64 63 73
f 60 71 61
f 57 68 58
f 55 83 65
f 62 71 72
f 65 83 74
f 72 80 81
f 68 78 69
f 66 74 75
f 72 82 73
f 69 79 70
f 66 76 67
f 64 73 82
f 70 80 71
f 67 77 68
f 79 90 80
f 76 87 77
f 74 83 84
f 81 90 91
f 77 88 78
f 75 84 85
f 81 92 82
f 79 88 89
f 75 86 76
f 64 82 92
f 87 4 5
f 84 1 2
f 91 8 9
f 88 5 6
f 85 2 3
f 89 6 7
f 86 3 4
f 91 90 7
f 4 13 14
f 2 1 10
f 9 8 17
f 5 14 15
f 2 11 12
f 7 6 15
f 3 12 13
f 7 16 17
f 17 16 25
f 13 22 23
f 10 19 20
f 17 26 27
f 14 23 24
f 11 20 21
f 15 24 25
f 12 21 22
f 22 21 30
f 25 34 35
f 22 31 32
f 20 19 28
f 26 35 36
f 23 32 33
f 20 29 30
f 24 33 34
f 33 42 43
f 30 39 40
f 35 34 43
f 31 40 41
f 28 37 38
f 35 44 45
f 32 41 42
f 29 38 39
f 42 41 50
f 38 47 48
f 43 42 51
f 39 48 49
f 43 52 53
f 40 49 50
f 38 37 46
f 45 44 53
f 46 55 56
f 53 62 63
f 50 59 60
f 47 56 57
f 51 60 61
f 48 57 58
f 52 61 62
f 49 58 59
f 58 68 69
f 56 55 65
f 62 72 73
f 59 69 70
f 56 66 67
f 60 70 71
f 57 67 68
f 62 61 71
f 72 71 80
f 68 77 78
f 66 65 74
f 72 81 82
f 69 78 79
f 66 75 76
f 70 79 80
f 67 76 77
f 79 89 90
f 76 86 87
f 81 80 90
f 77 87 88
f 75 74 84
f 81 91 92
f 79 78 88
f 75 85 86
