# Blender 4.4.1
# www.blender.org
mtllib parede1.mtl
o parede1
v -25.000000 0.020000 25.000000
v -25.000000 3.020000 25.000000
v -25.000000 0.020000 -25.000000
v -25.000000 3.020000 -25.000000
v -24.700001 0.020000 25.000000
v -24.700001 3.020000 25.000000
v -24.700001 0.020000 -25.000000
v -24.700001 3.020000 -25.000000
vn -1.0000 -0.0000 -0.0000
vn -0.0000 -0.0000 -1.0000
vn 1.0000 -0.0000 -0.0000
vn -0.0000 -0.0000 1.0000
vn -0.0000 -1.0000 -0.0000
vn -0.0000 1.0000 -0.0000
vt -2.900000 0.704000
vt 3.900000 0.296000
vt -2.900000 0.296000
vt 0.479600 0.704000
vt 0.520400 0.296000
vt 0.479600 0.296000
vt 3.900000 0.704000
vt 0.520400 0.704000
vt -2.875152 0.545791
vt 3.924848 0.504990
vt -2.875152 0.504991
vt -2.806250 0.504991
vt 3.993750 0.545790
vt -2.806250 0.545791
vt 3.924848 0.545790
vt 3.993750 0.504990
s 0
usemtl matParede1
f 2/1/1 3/2/1 1/3/1
f 4/4/2 7/5/2 3/6/2
f 8/7/3 5/3/3 7/2/3
f 6/8/4 1/6/4 5/5/4
f 7/9/5 1/10/5 3/11/5
f 4/12/6 6/13/6 8/14/6
f 2/1/1 4/7/1 3/2/1
f 4/4/2 8/8/2 7/5/2
f 8/7/3 6/1/3 5/3/3
f 6/8/4 2/4/4 1/6/4
f 7/9/5 5/15/5 1/10/5
f 4/12/6 2/16/6 6/13/6
