# Blender 4.4.1
# www.blender.org
mtllib parede2.mtl
o parede2
v 24.700001 0.020000 -24.699999
v 24.700001 3.020000 -24.699999
v -24.700001 0.020000 -24.699997
v -24.700001 3.020000 -24.699997
v 24.700001 0.020000 -25.000000
v 24.700001 3.020000 -25.000000
v -24.700001 0.020000 -24.999998
v -24.700001 3.020000 -24.999998
vn -0.0000 -0.0000 1.0000
vn -1.0000 -0.0000 -0.0000
vn -0.0000 -0.0000 -1.0000
vn 1.0000 -0.0000 -0.0000
vn -0.0000 -1.0000 -0.0000
vn -0.0000 1.0000 -0.0000
vt 3.585000 0.686217
vt -2.585000 0.313783
vt 3.585000 0.313783
vt 0.481378 0.686217
vt 0.518622 0.313783
vt 0.481378 0.313783
vt -2.585000 0.686217
vt 0.518622 0.686217
vt 0.481378 0.313783
vt 0.518622 0.313783
vt -2.594301 0.541875
vt 3.575699 0.504631
vt -2.594301 0.504631
vt -2.678510 0.505986
vt 3.491490 0.543230
vt -2.678510 0.543229
vt 0.518622 0.686217
vt 0.481378 0.686217
vt 3.575699 0.541875
vt 3.491490 0.505986
s 0
usemtl matParede2
f 2/1/1 3/2/1 1/3/1
f 4/4/2 7/5/2 3/6/2
f 8/7/3 5/3/3 7/2/3
f 6/8/4 1/9/4 5/10/4
f 7/11/5 1/12/5 3/13/5
f 4/14/6 6/15/6 8/16/6
f 2/1/1 4/7/1 3/2/1
f 4/4/2 8/17/2 7/5/2
f 8/7/3 6/1/3 5/3/3
f 6/8/4 2/18/4 1/9/4
f 7/11/5 5/19/5 1/12/5
f 4/14/6 2/20/6 6/15/6
