# Blender 4.4.1
# www.blender.org
mtllib poste.mtl
o poste
v -3.019359 0.430375 -2.119910
v -3.032450 0.430479 -2.087189
v -3.032605 0.470937 -2.087351
v -3.076962 3.119919 -1.989101
v -3.047005 2.922968 -1.995335
v -3.055684 3.123966 -1.998332
v -3.114604 3.294695 -1.991036
v -3.095317 3.300748 -1.999748
v -3.205695 3.479364 -1.990508
v -3.134097 3.288567 -1.999151
v -3.114604 3.294695 -1.991036
v -3.098459 3.117802 -1.997704
v -3.070758 2.922939 -1.985133
v -3.094734 2.920810 -1.994655
v -3.094734 2.920810 -1.994655
v -3.110648 0.413213 -1.958331
v -3.070758 2.922939 -1.985133
v -3.060660 0.413461 -1.938458
v -3.047005 2.922968 -1.995335
v -3.011169 0.413523 -1.959735
v -3.037401 2.922893 -2.019320
v -3.037401 2.922893 -2.019320
v -3.047091 3.125908 -2.020015
v -3.087531 3.302693 -2.020170
v -3.095317 3.300748 -1.999748
v -3.181342 3.493384 -2.019629
v -3.188330 3.489432 -1.999210
v -3.347996 3.677818 -2.018034
v -3.353490 3.671855 -1.998736
v -3.512117 3.818119 -1.996928
v -3.507624 3.824078 -2.016383
v -3.744051 3.974117 -2.013665
v -3.747305 3.968158 -1.995287
v -3.037401 2.922893 -2.019320
v -2.991176 0.413364 -2.009690
v -3.047589 2.922754 -2.043009
v -3.367594 3.657774 -1.990548
v -3.523961 3.802034 -1.988685
v -3.756153 3.952081 -1.987525
v -3.933612 4.041980 -1.988672
v -3.939636 4.025849 -1.995139
v -3.765187 3.935937 -1.994905
v -3.535759 3.787889 -1.996472
v -3.381648 3.645633 -1.998233
v -3.223267 3.469219 -1.998633
v -3.927745 4.056041 -1.995432
v -3.925465 4.062008 -2.011467
v -4.114058 4.113758 -1.994133
v -4.115931 4.099707 -1.987867
v -4.118953 4.085598 -1.993948
v -4.120105 4.077487 -2.008785
v -3.942308 4.019739 -2.011057
v -3.765636 3.935772 -2.031509
v -3.768884 3.927803 -2.013125
v -3.940029 4.025705 -2.027092
v -3.756787 3.951849 -2.039273
v -3.934166 4.041778 -2.033862
v -3.747753 3.967993 -2.031894
v -3.512590 3.817945 -2.035657
v -3.524631 3.801788 -2.043446
v -4.119317 4.085464 -2.023726
v -4.116446 4.099517 -2.029990
v -3.928136 4.055899 -2.027386
v -4.114425 4.113624 -2.023909
v -3.744051 3.974117 -2.013665
v -3.925465 4.062008 -2.011467
v -4.113265 4.119723 -2.009056
v -4.426683 4.146827 -2.019644
v -4.428698 4.130712 -2.025715
v -4.430560 4.114650 -2.019456
v -4.431356 4.108684 -2.004525
v -4.430194 4.114783 -1.989680
v -4.428182 4.130900 -1.983591
v -4.426317 4.146961 -1.989866
v -4.425515 4.150918 -2.004781
v -4.425515 4.150918 -2.004781
v -3.095318 2.920596 -2.042327
v -3.012387 0.413077 -2.059077
v -3.062383 0.412829 -2.078918
v -3.037401 2.922893 -2.019320
v -3.056212 3.123774 -2.041423
v -3.047091 3.125908 -2.020015
v -3.095814 3.300566 -2.040350
v -3.087531 3.302693 -2.020170
v -3.181342 3.493384 -2.019629
v -3.095814 3.300566 -2.040350
v -3.188829 3.489250 -2.039810
v -3.347996 3.677818 -2.018034
v -3.353960 3.671683 -2.037114
v -3.507624 3.824078 -2.016383
v -3.368260 3.657530 -2.044810
v -3.206398 3.479105 -2.047937
v -3.115308 3.294437 -2.048465
v -3.115308 3.294437 -2.048465
v -3.077710 3.119646 -2.050027
v -3.047589 2.922754 -2.043009
v -3.071581 2.922637 -2.052553
v -3.098986 3.117610 -2.040796
v -3.134595 3.288383 -2.039752
v -3.134595 3.288383 -2.039752
v -3.223765 3.469038 -2.039235
v -3.382120 3.645461 -2.036608
v -3.536234 3.787715 -2.035198
v -3.095318 2.920596 -2.042327
v -3.107578 3.115668 -2.019121
v -3.142397 3.284430 -2.019322
v -3.230869 3.463075 -2.018807
v -3.387614 3.639498 -2.017320
v -3.540717 3.779747 -2.015735
v -3.142397 3.284430 -2.019322
v -3.104921 2.920672 -2.018360
v -3.131859 0.412926 -2.007704
v -3.104921 2.920672 -2.018360
v -3.111866 0.412767 -2.057674
v -5.035052 4.101532 -1.948834
v -5.029683 4.093631 -1.921337
v -5.037056 4.093473 -1.951458
v -5.028699 4.101680 -1.920196
v -5.007100 4.085857 -1.877217
v -4.986612 4.082069 -1.839646
v -4.986580 4.072015 -1.840102
v -4.756061 4.107871 -1.955423
v -5.035052 4.101532 -1.948834
v -4.514421 4.097062 -1.846310
v -4.496881 4.100973 -1.883482
v -4.513389 4.087010 -1.846781
v -4.484458 4.116904 -1.926315
v -4.483446 4.108860 -1.927671
v -4.481830 4.116777 -1.956640
v -4.479830 4.108730 -1.959321
v -4.514421 4.097062 -1.846310
v -4.756055 4.086256 -1.843359
v -4.756056 4.096310 -1.842899
v -5.040643 4.093614 -1.917435
v -5.051203 4.093379 -1.962749
v -5.018035 4.083835 -1.872185
v -4.994436 4.068017 -1.829235
v -4.756055 4.082283 -1.832599
v -4.485820 4.099014 -1.879696
v -4.506238 4.083060 -1.836125
v -4.472413 4.108904 -1.925453
v -4.466966 4.108718 -1.970993
v -4.415086 4.139028 -1.973722
v -4.456385 4.191137 -1.980160
v -4.467103 4.138865 -1.972989
v -4.756055 4.082283 -1.832599
v -4.506252 4.093121 -1.834166
v -4.756054 4.092343 -1.830642
v -4.472446 4.127010 -1.922653
v -4.756060 4.133969 -1.963680
v -4.756059 4.126128 -1.918651
v -4.485853 4.115108 -1.877388
v -4.756057 4.114267 -1.873576
v -4.506252 4.093121 -1.834166
v -5.051262 4.119527 -1.959514
v -5.097359 4.123383 -1.964095
v -5.101282 4.119372 -1.958809
v -5.051262 4.119527 -1.959514
v -5.101224 4.093223 -1.962043
v -5.051203 4.093379 -1.962749
v -5.051176 4.125355 -1.964746
v -5.091555 4.131381 -1.977840
v -4.415003 4.135030 -1.968493
v -4.466966 4.108718 -1.970993
v -4.414946 4.108881 -1.971727
v -3.139637 0.444556 -2.066125
v -3.154961 0.444393 -2.091888
v -3.154751 0.444470 -2.074592
v -3.124675 0.444564 -2.075016
v -3.124886 0.444486 -2.092312
v -3.140061 0.444400 -2.100780
v -3.140006 0.430077 -2.100721
v -3.124831 0.430163 -2.092255
v -3.124620 0.430241 -2.074958
v -3.139581 0.430233 -2.066066
v -3.154693 0.430147 -2.074534
v -3.154908 0.430069 -2.091830
v -3.137750 0.445247 -1.912210
v -3.153074 0.445084 -1.937973
v -3.152864 0.445162 -1.920677
v -3.122789 0.445256 -1.921102
v -3.123001 0.445178 -1.938396
v -3.138174 0.445092 -1.946864
v -3.138119 0.430768 -1.946807
v -3.122944 0.430854 -1.938339
v -3.122732 0.430932 -1.921043
v -3.137695 0.430924 -1.912151
v -3.152808 0.430838 -1.920619
v -3.153019 0.430760 -1.937915
v -2.982321 0.445046 -2.068344
v -2.997710 0.444882 -2.094107
v -2.997498 0.444959 -2.076811
v -2.967423 0.445053 -2.077236
v -2.967634 0.444976 -2.094531
v -2.982746 0.444890 -2.103000
v -2.982692 0.430567 -2.102942
v -2.967578 0.430652 -2.094475
v -2.967368 0.430730 -2.077178
v -2.982267 0.430722 -2.068288
v -2.997441 0.430636 -2.076754
v -2.997655 0.430559 -2.094050
v -3.110256 0.430108 -2.114880
v -3.087518 0.470766 -2.086576
v -3.101235 0.430120 -2.118755
v -3.098535 0.431121 -1.895779
v -3.094664 0.471430 -1.932284
v -3.107615 0.431076 -1.899400
v -3.166191 0.430636 -1.956434
v -3.137797 0.471083 -1.979482
v -3.170053 0.430584 -1.965403
v -3.007637 0.431387 -1.900810
v -3.030670 0.471646 -1.929439
v -3.016625 0.431376 -1.896936
v -2.979734 0.471575 -1.981712
v -2.950417 0.431308 -1.959479
v -2.946774 0.431279 -1.968553
v -2.984205 0.471277 -2.045521
v -2.947775 0.430912 -2.050319
v -2.951640 0.430859 -2.059290
v -3.023539 0.470982 -2.083734
v -3.010279 0.430419 -2.116291
v -5.091555 4.131381 -1.977840
v -5.098126 4.123101 -2.026521
v -5.097359 4.123383 -1.964095
v -5.102174 4.119044 -2.031646
v -5.101282 4.119372 -1.958809
v -5.102174 4.119044 -2.031646
v -5.102034 4.092926 -2.028184
v -5.102034 4.092926 -2.028184
v -5.091364 4.085148 -1.976451
v -5.101224 4.093223 -1.962043
v -4.756060 4.145947 -1.982576
v -4.495529 4.178889 -1.993800
v -4.756060 4.178080 -1.990123
v -4.756056 4.108210 -1.879179
v -4.514421 4.097062 -1.846310
v -4.756056 4.096310 -1.842899
v -4.756059 4.116055 -1.923261
v -4.497900 4.109015 -1.882314
v -4.756058 4.115924 -1.952772
v -4.484458 4.116904 -1.926315
v -4.756062 4.145791 -2.017742
v -5.052004 4.163546 -2.006272
v -4.756062 4.177989 -2.010449
v -4.477306 4.146814 -1.986509
v -4.495777 4.178800 -2.014123
v -4.415850 4.138746 -2.036147
v -4.456984 4.190918 -2.028959
v -4.415966 4.191046 -2.029538
v -4.456984 4.190918 -2.028959
v -4.415367 4.191266 -1.980742
v -4.415966 4.191046 -2.029538
v -4.415850 4.138746 -2.036147
v -4.415756 4.108583 -2.037868
v -4.415898 4.134704 -2.041330
v -4.415090 4.100775 -1.985994
v -4.415086 4.139028 -1.973722
v -4.415003 4.135030 -1.968493
v -4.414946 4.108881 -1.971727
v -4.415551 4.100606 -2.023561
v -4.415966 4.191046 -2.029538
v -2.946255 0.405641 -1.913747
v -2.944984 0.405561 -1.932501
v -2.951235 0.405611 -1.916987
v -2.958854 0.405659 -1.900830
v -2.962228 0.405626 -1.905715
v -2.976335 0.405636 -1.893276
v -2.962228 0.405626 -1.905715
v -2.977593 0.405607 -1.899129
v -3.137901 0.405134 -1.890996
v -3.136847 0.405111 -1.896881
v -3.155560 0.405047 -1.898054
v -3.152305 0.405034 -1.903034
v -3.155560 0.405047 -1.898054
v -3.163636 0.404950 -1.913990
v -3.168533 0.404949 -1.910611
v -3.176002 0.404848 -1.928054
v -3.170201 0.404861 -1.929324
v -2.941131 0.404860 -2.092743
v -2.939156 0.405585 -1.931397
v -2.946933 0.404847 -2.091536
v -2.948600 0.404759 -2.110187
v -2.953562 0.404758 -2.106806
v -2.961574 0.404661 -2.122806
v -2.964826 0.404673 -2.117825
v -2.964826 0.404673 -2.117825
v -2.979232 0.404575 -2.129802
v -2.980349 0.404597 -2.123977
v -3.140799 0.404072 -2.127523
v -3.139601 0.404101 -2.121729
v -3.158280 0.404049 -2.120031
v -3.154905 0.404082 -2.115143
v -3.165961 0.404097 -2.103809
v -3.158280 0.404049 -2.120031
v -3.170941 0.404067 -2.107049
v -3.172149 0.404146 -2.088358
v -3.177978 0.404123 -2.089401
v -3.182772 0.398552 -1.926246
v -3.184791 0.397812 -2.091027
v -3.176780 0.397748 -2.110999
v -3.162390 0.397728 -2.125754
v -3.142609 0.397753 -2.134277
v -3.162390 0.397728 -2.125754
v -2.977603 0.398267 -2.136605
v -2.961574 0.404661 -2.122806
v -2.957556 0.398366 -2.128644
v -2.957556 0.398366 -2.128644
v -2.942811 0.398476 -2.114302
v -2.934375 0.398591 -2.094562
v -2.932357 0.399331 -1.929781
v -3.174087 0.008759 -2.164714
v -3.193811 0.008734 -2.156317
v -3.208261 0.008754 -2.141499
v -3.216273 0.008817 -2.121527
v -3.213455 0.009851 -1.891684
v -3.159527 0.398778 -1.892102
v -3.170227 0.010174 -1.849641
v -3.139542 0.398877 -1.884142
v -2.974539 0.399390 -1.886468
v -2.940071 0.010890 -1.852886
v -2.954694 0.399415 -1.894993
v -2.920288 0.010915 -1.861411
v -2.940305 0.399395 -1.909746
v -2.920288 0.010915 -1.861411
v -2.905837 0.010895 -1.876103
v -2.897826 0.010832 -1.896137
v -2.900642 0.009799 -2.125981
v -2.909140 0.009685 -2.145720
v -2.923950 0.009573 -2.160125
v -2.943932 0.009475 -2.167963
v -2.954694 0.399415 -1.894993
v -2.958854 0.405659 -1.900830
v -3.174273 0.398667 -1.906446
v -3.159527 0.398778 -1.892102
v -3.204956 0.009965 -1.871883
v -3.190148 0.010076 -1.857603
v -3.087363 0.430308 -2.086414
v -5.050711 4.133012 -2.013584
v -4.756062 4.137689 -2.031347
v -5.051725 4.125080 -2.027174
v -4.756062 4.133645 -2.036530
v -5.052153 4.119199 -2.032350
v -5.052153 4.119199 -2.032350
v -5.052014 4.093081 -2.028890
v -4.467917 4.134542 -2.040596
v -4.415898 4.134704 -2.041330
v -4.467776 4.108422 -2.037134
v -4.415756 4.108583 -2.037868
v -3.096352 0.430296 -2.082540
v -3.096507 0.470754 -2.082703
v -4.998598 4.076558 -2.165830
v -5.021075 4.082721 -2.120261
v -5.021169 4.098793 -2.122762
v -5.042568 4.092908 -2.074535
v -5.042672 4.110989 -2.077478
v -5.052153 4.119199 -2.032350
v -4.756064 4.115503 -2.047290
v -5.030561 4.100998 -2.072175
v -4.756064 4.115371 -2.076838
v -5.009064 4.092826 -2.116723
v -4.756068 4.107134 -2.120821
v -4.990458 4.080658 -2.153722
v -4.756066 4.094912 -2.157030
v -4.510338 4.081557 -2.170679
v -4.756069 4.090836 -2.169252
v -4.510399 4.091599 -2.172721
v -3.167414 0.430188 -2.056245
v -3.138469 0.470837 -2.034320
v -3.134830 0.470808 -2.043396
v -2.980437 0.445737 -1.914429
v -2.995822 0.445574 -1.940192
v -2.995611 0.445651 -1.922896
v -2.965535 0.445745 -1.923321
v -2.965749 0.445667 -1.940614
v -2.980860 0.445581 -1.949083
v -2.980806 0.431258 -1.949024
v -2.965691 0.431343 -1.940559
v -2.965481 0.431421 -1.923263
v -2.980382 0.431413 -1.914371
v -2.995556 0.431327 -1.922839
v -2.995768 0.431250 -1.940135
v -4.756064 4.107474 -2.044573
v -5.036212 4.101109 -2.043337
v -4.756064 4.115503 -2.047290
v -3.134674 0.430350 -2.043232
v -4.756067 4.084861 -2.156488
v -4.518270 4.095652 -2.160385
v -4.756066 4.094912 -2.157030
v -4.756066 4.113141 -2.126501
v -4.510399 4.091599 -2.172721
v -4.756069 4.090836 -2.169252
v -4.756064 4.125402 -2.081523
v -4.488952 4.113971 -2.130272
v -4.474442 4.126279 -2.085498
v -3.171054 0.430217 -2.047169
v -3.138313 0.430379 -2.034157
v -4.756061 4.107820 -1.966913
v -3.094509 0.430972 -1.932122
v -4.415090 4.100775 -1.985994
v -4.468196 4.100610 -1.985245
v -4.468657 4.100441 -2.022810
v -4.415551 4.100606 -2.023561
v -4.467776 4.108422 -2.037134
v -3.085426 0.431017 -1.928502
v -3.085582 0.471475 -1.928664
v -4.467026 4.134869 -1.967759
v -4.472413 4.108904 -1.925453
v -4.485853 4.115108 -1.877388
v -4.485820 4.099014 -1.879696
v -4.506252 4.093121 -1.834166
v -4.506238 4.083060 -1.836125
v -3.141989 0.430555 -1.992028
v -3.141911 0.483934 -2.025177
v -3.141705 0.430409 -2.024960
v -3.128962 0.483840 -2.055507
v -3.128755 0.430315 -2.055291
v -3.105419 0.483812 -2.078605
v -3.105212 0.430287 -2.078387
v -3.105212 0.430287 -2.078387
v -3.074842 0.483854 -2.090993
v -3.074636 0.430329 -2.090777
v -3.041858 0.483960 -2.090711
v -3.041650 0.430435 -2.090495
v -3.011512 0.484113 -2.077899
v -3.011305 0.430588 -2.077682
v -2.988430 0.484291 -2.054431
v -2.988223 0.430766 -2.054214
v -2.975904 0.430941 -2.023689
v -2.976110 0.484466 -2.023906
v -2.976187 0.431087 -1.990761
v -2.976395 0.484612 -1.990978
v -2.989137 0.431180 -1.960431
v -2.989345 0.484705 -1.960646
v -3.012649 0.431209 -1.937335
v -3.012856 0.484734 -1.937552
v -3.043251 0.431166 -1.924976
v -3.043457 0.484692 -1.925192
v -3.076226 0.431061 -1.925196
v -3.076432 0.484586 -1.925413
v -3.106557 0.430908 -1.938072
v -3.106763 0.484433 -1.938288
v -3.129670 0.430730 -1.961507
v -3.129876 0.484255 -1.961724
v -3.142196 0.484079 -1.992243
v -3.137641 0.430625 -1.979319
v -3.172249 0.430029 -2.088463
v -3.166060 0.429980 -2.103913
v -3.155005 0.429965 -2.115249
v -3.154905 0.404082 -2.115143
v -3.139701 0.429984 -2.121836
v -2.980449 0.430480 -2.124082
v -2.964927 0.430556 -2.117930
v -2.953661 0.430641 -2.106911
v -2.947032 0.430730 -2.091641
v -2.945084 0.431445 -1.932606
v -2.951334 0.431494 -1.917093
v -2.962327 0.431509 -1.905819
v -2.962327 0.431509 -1.905819
v -2.977692 0.431489 -1.899234
v -3.136946 0.430994 -1.896985
v -3.152405 0.430917 -1.903139
v -3.152405 0.430917 -1.903139
v -3.163736 0.430833 -1.914095
v -3.170299 0.430743 -1.929428
v -4.488861 4.097900 -2.127772
v -4.485312 4.108175 -2.080024
v -4.499824 4.099894 -2.123752
v -4.480923 4.108330 -2.048455
v -4.474338 4.108200 -2.082552
v -4.756062 4.107525 -2.033065
v -5.038148 4.093073 -2.040592
v -5.042568 4.092908 -2.074535
v -5.031517 4.092959 -2.070882
v -5.021075 4.082721 -2.120261
v -5.010020 4.084787 -2.115553
v -4.990417 4.070610 -2.153180
v -4.998534 4.066515 -2.163792
v -4.756068 4.080792 -2.167213
v -4.517224 4.085605 -2.159858
v -3.133781 0.430677 -1.970349
v -3.133936 0.471135 -1.970513
v -5.051262 4.119527 -1.959514
v -5.040643 4.093614 -1.917435
v -5.040675 4.111721 -1.914634
v -5.018069 4.099928 -1.869878
v -5.018035 4.083835 -1.872185
v -4.994450 4.078078 -1.827278
v -4.994436 4.068017 -1.829235
v -5.091987 4.131222 -2.013002
v -5.051752 4.163636 -1.985951
v -3.030514 0.431188 -1.929276
v -4.467103 4.138865 -1.972989
v -4.456385 4.191137 -1.980160
v -4.477306 4.146814 -1.986509
v -4.477739 4.146657 -2.021668
v -4.467870 4.138586 -2.035414
v -3.021541 0.431199 -1.933150
v -3.021697 0.471657 -1.933315
v -4.482987 4.116354 -2.051143
v -4.486361 4.116208 -2.081416
v -4.500872 4.107926 -2.124956
v -4.518270 4.095652 -2.160385
v -4.990458 4.080658 -2.153722
v -5.009064 4.092826 -2.116723
v -5.030561 4.100998 -2.072175
v -5.036212 4.101109 -2.043337
v -4.488861 4.097900 -2.127772
v -4.510399 4.091599 -2.172721
v -4.488952 4.113971 -2.130272
v -4.474338 4.108200 -2.082552
v -4.474442 4.126279 -2.085498
v -3.023384 0.430524 -2.083570
v -2.983313 0.471604 -1.972638
v -2.983157 0.431146 -1.972475
v -2.984050 0.430819 -2.045358
v -2.979578 0.431117 -1.981549
v -2.980405 0.471329 -2.036550
v -2.980250 0.430871 -2.036387
v -3.038695 0.430881 -1.992529
v -2.962327 0.431509 -1.905819
v -2.951334 0.431494 -1.917093
v -2.945084 0.431445 -1.932606
v -3.037853 0.430875 -1.994616
v -3.038250 0.430728 -2.027036
v -2.947032 0.430730 -2.091641
v -3.039141 0.430717 -2.029085
v -2.953661 0.430641 -2.106911
v -3.040606 0.430706 -2.030518
v -2.964927 0.430556 -2.117930
v -2.980449 0.430480 -2.124082
v -3.042686 0.430695 -2.031343
v -3.139701 0.429984 -2.121836
v -3.075167 0.430594 -2.030883
v -3.077223 0.430592 -2.029999
v -3.155005 0.429965 -2.115249
v -3.078665 0.430594 -2.028521
v -3.166060 0.429980 -2.103913
v -3.172249 0.430029 -2.088463
v -3.079494 0.430601 -2.026449
v -3.079098 0.430746 -1.994017
v -3.170299 0.430743 -1.929428
v -3.078219 0.430758 -1.991965
v -3.163736 0.430833 -1.914095
v -3.152405 0.430917 -1.903139
v -3.076751 0.430769 -1.990546
v -3.136946 0.430994 -1.896985
v -3.074672 0.430779 -1.989719
v -2.977692 0.431489 -1.899234
v -3.042192 0.430880 -1.990177
v -3.040123 0.430883 -1.991065
v -3.006929 0.484394 -2.018031
v -2.976395 0.484612 -1.990978
v -2.976110 0.484466 -2.023906
v -3.014676 0.484284 -2.037227
v -2.988430 0.484291 -2.054431
v -3.011512 0.484113 -2.077899
v -3.029189 0.484173 -2.051987
v -3.041858 0.483960 -2.090711
v -3.048275 0.484076 -2.060042
v -3.069016 0.484009 -2.060221
v -3.105419 0.483812 -2.078605
v -3.088245 0.483983 -2.052428
v -3.074842 0.483854 -2.090993
v -3.103050 0.484001 -2.037906
v -3.128962 0.483840 -2.055507
v -3.111195 0.484060 -2.018831
v -3.141911 0.483934 -2.025177
v -3.015252 0.484545 -1.978250
v -3.012856 0.484734 -1.937552
v -2.989345 0.484705 -1.960646
v -3.007108 0.484486 -1.997325
v -3.070017 0.484470 -1.956093
v -3.043457 0.484692 -1.925192
v -3.049279 0.484536 -1.955954
v -3.030038 0.484563 -1.963725
v -3.111373 0.484151 -1.998120
v -3.142196 0.484079 -1.992243
v -3.103627 0.484261 -1.978928
v -3.129876 0.484255 -1.961724
v -3.106763 0.484433 -1.938288
v -3.089092 0.484373 -1.964190
v -3.076432 0.484586 -1.925413
v -4.481830 4.116777 -1.956640
v -4.986612 4.082069 -1.839646
v -5.040675 4.111721 -1.914634
v -5.018069 4.099928 -1.869878
v -4.994450 4.078078 -1.827278
v -4.756062 4.137967 -1.968911
v -4.467026 4.134869 -1.967759
v -4.467103 4.138865 -1.972989
v -4.477306 4.146814 -1.986509
v -5.052001 4.133099 -1.978397
v -4.986612 4.082069 -1.839646
v -5.006117 4.093907 -1.876140
v -5.028699 4.101680 -1.920196
v -5.035052 4.101532 -1.948834
v -4.477739 4.146657 -2.021668
v -4.467870 4.138586 -2.035414
v -4.467917 4.134542 -2.040596
v -4.486361 4.116208 -2.081416
v -4.482987 4.116354 -2.051143
v -4.500872 4.107926 -2.124956
v -4.518270 4.095652 -2.160385
v -4.756068 4.080792 -2.167213
v -4.482987 4.116354 -2.051143
v -4.990458 4.080658 -2.153722
v -4.998598 4.076558 -2.165830
v -5.021169 4.098793 -2.122762
v -5.042672 4.110989 -2.077478
v -5.052355 4.086843 -1.977003
v -5.091822 4.084980 -2.014016
v -5.052817 4.086671 -2.014567
v -5.052014 4.093081 -2.028890
v -4.510338 4.081557 -2.170679
v -5.098126 4.123101 -2.026521
v -5.102174 4.119044 -2.031646
v -5.091987 4.131222 -2.013002
v -4.756062 4.099547 -2.018754
v -4.756062 4.099714 -1.981182
v -3.134097 3.288567 -1.999151
v -3.087531 3.302693 -2.020170
v -3.011169 0.413523 -1.959735
v -4.113265 4.119723 -2.009056
v -3.071581 2.922637 -2.052553
v -3.087531 3.302693 -2.020170
v -5.006117 4.093907 -1.876140
v -4.756058 4.115924 -1.952772
v -4.497900 4.109015 -1.882314
v -4.415367 4.191266 -1.980742
v -4.506238 4.083060 -1.836125
v -4.756054 4.092343 -1.830642
v -5.101282 4.119372 -1.958809
v -4.481830 4.116777 -1.956640
v -4.477739 4.146657 -2.021668
v -4.467870 4.138586 -2.035414
v -4.415367 4.191266 -1.980742
v -3.152305 0.405034 -1.903034
v -3.193811 0.008734 -2.156317
v -3.190148 0.010076 -1.857603
v -2.923950 0.009573 -2.160125
v -4.998534 4.066515 -2.163792
v -5.052014 4.093081 -2.028890
v -5.036212 4.101109 -2.043337
v -4.414946 4.108881 -1.971727
v -4.415756 4.108583 -2.037868
v -4.472446 4.127010 -1.922653
v -3.105419 0.483812 -2.078605
v -3.155005 0.429965 -2.115249
v -2.964927 0.430556 -2.117930
v -5.051203 4.093379 -1.962749
v -4.510338 4.081557 -2.170679
vn -0.1996 0.5729 -0.7949
vn -0.9284 -0.0050 -0.3714
vn -0.1332 0.5936 -0.7937
vn 0.0319 0.0190 0.9993
vn 0.7171 0.0307 0.6963
vn 0.7171 0.1021 0.6895
vn 0.0403 0.0195 0.9990
vn 0.6903 0.2467 0.6802
vn 0.0392 0.0274 0.9989
vn -0.6364 -0.2201 0.7393
vn -0.6809 -0.0696 0.7290
vn 0.0165 0.0197 0.9997
vn -0.6959 0.0066 0.7181
vn -0.6973 0.0148 0.7166
vn 0.0139 0.0186 0.9997
vn 0.7160 0.0201 0.6978
vn 0.9994 0.0329 -0.0127
vn 0.9905 0.1370 -0.0131
vn 0.9432 0.3321 -0.0133
vn 0.8288 0.5594 -0.0129
vn 0.6090 0.4117 0.6780
vn 0.7094 0.7047 -0.0121
vn 0.5071 0.4978 0.7036
vn 0.4459 0.5731 0.6876
vn 0.6081 0.7938 -0.0110
vn 0.4862 0.8738 -0.0099
vn 0.3586 0.6356 0.6837
vn 0.9994 0.0329 -0.0128
vn 0.9998 0.0184 -0.0127
vn 0.6986 0.0250 -0.7150
vn 0.0091 0.0037 1.0000
vn 0.0151 0.0095 0.9998
vn 0.0116 0.0198 0.9997
vn 0.0164 0.0450 0.9989
vn -0.2624 -0.6307 0.7303
vn -0.3369 -0.5843 0.7383
vn -0.4091 -0.5383 0.7368
vn -0.4887 -0.4892 0.7224
vn -0.5490 -0.3763 0.7463
vn 0.2713 0.6776 0.6835
vn 0.3661 0.9305 -0.0086
vn 0.1527 0.7152 0.6820
vn 0.0173 0.0324 0.9993
vn -0.1260 -0.6429 0.7555
vn -0.2105 -0.9776 0.0071
vn -0.3873 -0.9219 0.0089
vn -0.3574 -0.5899 -0.7241
vn -0.5078 -0.8614 0.0102
vn -0.2828 -0.6364 -0.7176
vn -0.0167 0.0118 -0.9998
vn -0.0118 0.0368 -0.9993
vn 0.3392 0.6304 -0.6983
vn 0.4270 0.5679 -0.7037
vn -0.0129 0.0013 -0.9999
vn -0.1472 -0.6488 -0.7466
vn -0.0108 0.0242 -0.9996
vn 0.2520 0.6722 -0.6962
vn 0.1333 0.7094 -0.6921
vn 0.4863 0.8738 -0.0099
vn 0.3661 0.9305 -0.0087
vn 0.1966 0.9805 -0.0068
vn 0.0669 0.7283 -0.6820
vn -0.0135 -0.0095 -0.9999
vn -0.0787 -0.7016 -0.7082
vn -0.0996 -0.9950 0.0062
vn -0.0586 -0.6954 0.7162
vn 0.0147 -0.0013 0.9999
vn 0.0860 0.7337 0.6740
vn 0.1054 0.9944 -0.0053
vn 0.1054 0.9944 -0.0055
vn -0.7128 -0.0034 -0.7014
vn 0.6954 0.0182 -0.7184
vn -0.0115 0.0144 -0.9998
vn 0.6987 0.0965 -0.7089
vn 0.6719 0.2413 -0.7002
vn 0.9431 0.3321 -0.0133
vn 0.6719 0.2414 -0.7002
vn 0.5904 0.4065 -0.6973
vn 0.4878 0.4926 -0.7207
vn 0.6081 0.7938 -0.0111
vn -0.0189 -0.0043 -0.9998
vn 0.0114 0.0194 -0.9997
vn 0.0125 0.0115 -0.9999
vn 0.0126 0.0115 -0.9999
vn 0.0043 0.0108 -0.9999
vn -0.0131 0.0075 -0.9999
vn -0.7000 -0.0754 -0.7101
vn -0.6559 -0.2257 -0.7203
vn -0.5691 -0.3818 -0.7283
vn -0.5086 -0.4948 -0.7047
vn -0.4295 -0.5440 -0.7209
vn -0.9943 -0.1056 0.0128
vn -0.9471 -0.3208 0.0132
vn -0.8315 -0.5554 0.0128
vn -0.7116 -0.7025 0.0120
vn -0.6156 -0.7879 0.0112
vn -0.9999 -0.0014 0.0124
vn -0.9999 0.0108 0.0124
vn -0.7157 0.0090 -0.6983
vn 0.6068 -0.6878 0.3984
vn 0.6140 -0.7351 -0.2875
vn 0.2303 -0.9624 0.1443
vn 0.6608 -0.6935 -0.2870
vn 0.6085 -0.6247 -0.4893
vn 0.4171 -0.4480 -0.7908
vn 0.2266 -0.7242 -0.6513
vn 0.0305 -0.8053 0.5921
vn -0.4086 -0.4885 -0.7710
vn -0.6403 -0.6431 -0.4199
vn -0.2229 -0.7353 -0.6400
vn -0.6605 -0.7273 -0.1866
vn -0.6456 -0.7387 -0.1938
vn -0.5419 -0.7106 0.4488
vn -0.2019 -0.9585 0.2012
vn -0.4087 -0.4885 -0.7709
vn 0.0056 -0.5450 -0.8384
vn 0.0074 -0.5755 -0.8178
vn -0.7137 -0.6755 0.1855
vn -0.2174 -0.7928 0.5694
vn -0.6521 -0.7460 0.1353
vn -0.3943 -0.7756 0.4929
vn 0.0354 -0.8674 0.4963
vn 0.6882 -0.7229 0.0615
vn 0.4404 -0.7627 0.4737
vn 0.7385 -0.6695 0.0793
vn 0.2627 -0.7716 0.5794
vn 0.8097 0.3012 0.5036
vn -0.4302 0.7043 0.5646
vn -0.1291 0.6382 0.7590
vn 0.0353 -0.8674 0.4963
vn 0.4422 0.3470 0.8271
vn -0.0018 0.4466 0.8947
vn 0.6976 0.6592 0.2810
vn -0.0172 0.9150 0.4031
vn -0.0241 0.9766 0.2136
vn 0.6394 0.6208 0.4536
vn -0.0229 0.9340 0.3567
vn -0.2773 0.5608 0.7801
vn -0.3935 0.8511 0.3477
vn -0.6243 0.3731 0.6864
vn -0.2774 0.5607 0.7801
vn -0.6220 -0.4863 0.6137
vn -0.0256 0.7789 0.6267
vn -0.5307 0.7966 0.2896
vn 0.6191 0.3088 0.7220
vn 0.2627 -0.7716 0.5793
vn 0.6287 -0.4340 0.6453
vn 0.0080 0.6134 0.7897
vn -0.6935 0.6061 -0.3895
vn -0.6835 0.6092 0.4022
vn 0.6890 0.6141 0.3850
vn 0.6789 0.6104 -0.4081
vn -0.0136 0.6065 -0.7949
vn -0.0143 -0.0041 -0.9999
vn 0.8592 0.0013 -0.5116
vn 0.8723 0.0053 0.4890
vn 0.0130 0.0041 0.9999
vn -0.8596 -0.0013 0.5109
vn -0.8725 -0.0052 -0.4885
vn -0.6935 0.6061 -0.3896
vn -0.6834 0.6093 0.4022
vn 0.6889 0.6142 0.3850
vn 0.6788 0.6105 -0.4080
vn -0.0136 0.6066 -0.7949
vn -0.0143 -0.0040 -0.9999
vn 0.8592 0.0014 -0.5116
vn 0.8723 0.0055 0.4890
vn 0.0130 0.0042 0.9999
vn -0.8597 -0.0013 0.5108
vn -0.8725 -0.0053 -0.4886
vn 0.0095 0.6134 0.7897
vn -0.6932 0.6059 -0.3902
vn -0.6832 0.6091 0.4029
vn 0.6893 0.6142 0.3844
vn 0.6791 0.6106 -0.4074
vn -0.0122 0.6066 -0.7949
vn -0.0125 -0.0041 -0.9999
vn 0.8597 0.0014 -0.5109
vn 0.8727 0.0053 0.4882
vn 0.0148 0.0040 0.9999
vn -0.8592 -0.0013 0.5117
vn -0.8721 -0.0053 -0.4893
vn -0.7027 0.5722 -0.4228
vn 0.1073 0.5947 -0.7967
vn 0.1761 0.5738 -0.7998
vn 0.1960 0.5809 0.7900
vn -0.6417 0.5977 0.4807
vn -0.6914 0.5766 0.4353
vn -0.4218 0.5786 0.6981
vn -0.7960 0.5947 -0.1130
vn -0.7990 0.5738 -0.1798
vn 0.6993 0.5806 0.4170
vn -0.1108 0.6006 0.7918
vn -0.1789 0.5794 0.7952
vn 0.7886 0.5995 -0.1367
vn 0.4366 0.5815 0.6865
vn 0.7894 0.5801 -0.2009
vn 0.4659 0.5983 -0.6519
vn 0.7948 0.5813 0.1744
vn 0.4176 0.5759 -0.7028
vn 0.6374 0.5982 -0.4857
vn 0.6873 0.5779 -0.4401
vn -0.5307 0.7966 0.2895
vn -0.4029 0.8474 -0.3458
vn -0.3935 0.8510 0.3477
vn -0.6422 0.3667 -0.6731
vn -0.6242 0.3730 0.6864
vn -0.6423 0.3667 -0.6731
vn -0.6380 -0.4914 -0.5929
vn -0.2515 -0.9497 0.1868
vn -0.0026 0.5912 0.8065
vn 0.4047 0.7558 0.5148
vn -0.0119 0.7885 0.6150
vn 0.0269 -0.9693 -0.2443
vn 0.0277 -0.9959 -0.0863
vn -0.6134 -0.6849 -0.3933
vn 0.0305 -0.8116 0.5834
vn -0.6605 -0.7272 -0.1866
vn -0.0254 0.5843 -0.8111
vn -0.2752 0.7886 -0.5498
vn -0.0289 0.7831 -0.6213
vn -0.2810 0.7393 0.6119
vn 0.3909 0.7514 -0.5316
vn 0.7959 0.2976 -0.5272
vn -0.4451 0.6996 -0.5590
vn 0.5754 0.6093 -0.5456
vn 0.5893 0.6140 0.5250
vn 0.5753 0.6093 -0.5457
vn 0.7959 0.2975 -0.5273
vn 0.6117 -0.4395 -0.6578
vn 0.5998 0.3020 -0.7410
vn 0.6593 -0.7284 0.1866
vn 0.8097 0.3012 0.5037
vn 0.6190 0.3089 0.7221
vn 0.6286 -0.4340 0.6454
vn 0.6542 -0.7303 -0.1970
vn 0.3252 0.9225 0.2082
vn 0.6429 0.7569 0.1176
vn 0.5483 0.7568 0.3557
vn 0.2177 0.9227 0.3182
vn 0.3694 0.7574 0.5384
vn 0.0780 0.9205 0.3830
vn 0.1344 0.7567 0.6398
vn -0.0725 0.9202 0.3848
vn -0.1215 0.7561 0.6430
vn -0.2146 0.9214 0.3239
vn -0.3594 0.7545 0.5492
vn -0.5432 0.7540 0.3693
vn -0.3266 0.9197 0.2180
vn -0.3897 0.9178 0.0757
vn -0.6456 0.7520 0.1327
vn 0.3854 0.9190 -0.0836
vn 0.3878 0.9193 0.0671
vn 0.6393 0.7560 -0.1408
vn 0.3208 0.9200 -0.2252
vn 0.5393 0.7533 -0.3763
vn 0.2093 0.9192 -0.3336
vn 0.3550 0.7532 -0.5538
vn 0.0664 0.9172 -0.3929
vn 0.1164 0.7513 -0.6496
vn -0.0828 0.9168 -0.3906
vn -0.1395 0.7505 -0.6460
vn -0.2244 0.9176 -0.3280
vn -0.3746 0.7500 -0.5451
vn -0.5533 0.7502 -0.3619
vn -0.2245 0.9176 -0.3279
vn -0.3322 0.9178 -0.2174
vn -0.6485 0.7510 -0.1239
vn -0.3913 0.9173 -0.0739
vn -0.8833 0.4323 0.1815
vn -0.8874 0.4310 -0.1639
vn -0.7526 0.4401 -0.4898
vn -0.5081 0.4398 -0.7406
vn -0.1863 0.4301 -0.8833
vn -0.5080 0.4398 -0.7406
vn 0.1583 0.4313 -0.8882
vn 0.2093 0.9192 -0.3337
vn 0.4844 0.4437 -0.7540
vn 0.4844 0.4438 -0.7539
vn 0.7372 0.4458 -0.5078
vn 0.8807 0.4361 -0.1852
vn 0.8851 0.4374 0.1591
vn -0.2138 0.0935 -0.9724
vn -0.5636 0.1098 -0.8187
vn -0.8313 0.1100 -0.5449
vn -0.9771 0.0940 -0.1910
vn -0.9722 0.0957 0.2137
vn -0.4874 0.4479 0.7495
vn -0.1893 0.1016 0.9767
vn -0.1619 0.4380 0.8843
vn 0.1832 0.4389 0.8797
vn 0.2154 0.1030 0.9711
vn 0.5042 0.4510 0.7364
vn 0.5631 0.1206 0.8175
vn 0.7500 0.4509 0.4839
vn 0.5632 0.1207 0.8175
vn 0.8297 0.1208 0.5450
vn 0.9765 0.1031 0.1893
vn 0.9713 0.1016 -0.2151
vn 0.8162 0.1164 -0.5660
vn 0.5403 0.1142 -0.8337
vn 0.1856 0.0951 -0.9780
vn 0.5043 0.4510 0.7364
vn 0.2177 0.9227 0.3183
vn -0.7398 0.4448 0.5048
vn -0.4875 0.4479 0.7495
vn -0.8161 0.1148 0.5664
vn -0.5420 0.1167 0.8323
vn 0.9190 0.0019 -0.3942
vn -0.0370 0.5963 -0.8019
vn -0.0270 0.8254 -0.5639
vn -0.0431 0.7734 -0.6324
vn -0.0286 0.9109 -0.4115
vn -0.2988 0.5536 -0.7774
vn -0.2331 -0.7971 -0.5571
vn 0.2579 0.6560 -0.7094
vn 0.5999 0.3019 -0.7409
vn 0.2465 -0.7771 -0.5790
vn 0.6117 -0.4395 -0.6577
vn -0.9187 -0.0019 0.3950
vn -0.6547 0.5928 -0.4690
vn -0.4410 0.3172 -0.8396
vn -0.6542 -0.7480 -0.1119
vn -0.6194 0.5927 -0.5148
vn -0.7181 -0.6769 -0.1616
vn -0.7006 0.6140 -0.3636
vn -0.2989 0.5535 -0.7774
vn 0.0144 -0.8168 -0.5768
vn 0.6685 -0.6902 0.2771
vn 0.0300 -0.9950 0.0951
vn 0.6010 -0.6604 0.4501
vn 0.0335 -0.9670 0.2528
vn 0.4381 -0.4417 0.7830
vn 0.0297 -0.5682 0.8224
vn 0.4278 -0.7666 -0.4788
vn -0.0263 0.4386 -0.8983
vn 0.4204 0.3395 -0.8415
vn -0.4400 0.5720 -0.6923
vn -0.7930 0.5958 0.1275
vn -0.4848 0.5924 -0.6434
vn 0.0094 0.6134 0.7897
vn -0.6932 0.6060 -0.3902
vn -0.6831 0.6091 0.4029
vn 0.6893 0.6142 0.3843
vn -0.0121 0.6065 -0.7950
vn 0.8596 0.0015 -0.5109
vn 0.0147 0.0041 0.9999
vn -0.8592 -0.0012 0.5116
vn -0.8720 -0.0053 -0.4894
vn 0.0137 -0.8107 -0.5853
vn 0.5962 -0.6914 -0.4081
vn 0.0144 -0.8168 -0.5767
vn 0.3694 -0.0023 -0.9293
vn 0.0291 -0.5376 0.8427
vn -0.3878 -0.4818 0.7858
vn 0.0298 -0.5682 0.8223
vn -0.0326 0.9305 -0.3647
vn -0.0263 0.4385 -0.8983
vn -0.0299 0.9746 -0.2221
vn 0.6277 0.6165 -0.4754
vn 0.6900 0.6568 -0.3042
vn -0.7942 0.5753 0.1956
vn -0.3693 0.0023 0.9293
vn 0.0292 -0.9662 0.2562
vn -0.9283 -0.0050 -0.3718
vn 0.6594 -0.7283 0.1865
vn 0.0066 -0.9662 0.2575
vn -0.0005 -0.9684 -0.2494
vn 0.6542 -0.7302 -0.1969
vn 0.9283 0.0051 0.3719
vn 0.1296 0.6010 0.7886
vn 0.2776 0.6619 0.6962
vn 0.7385 -0.6696 0.0793
vn 0.6394 0.6209 0.4536
vn 0.6881 -0.7230 0.0615
vn 0.4421 0.3470 0.8271
vn 0.4403 -0.7627 0.4737
vn -0.9825 -0.0030 0.1864
vn -0.7329 0.6623 -0.1556
vn -0.9788 -0.0046 -0.2047
vn -0.6183 0.6619 -0.4237
vn -0.8257 -0.0055 -0.5641
vn -0.4113 0.6618 -0.6268
vn -0.5483 -0.0055 -0.8363
vn -0.5482 -0.0055 -0.8363
vn -0.1418 0.6621 -0.7359
vn -0.1870 -0.0047 -0.9823
vn 0.1489 0.6633 -0.7334
vn 0.2027 -0.0032 -0.9792
vn 0.4170 0.6645 -0.6201
vn 0.5619 -0.0012 -0.8272
vn 0.6218 0.6661 -0.4119
vn 0.8363 0.0010 -0.5483
vn 0.9825 0.0030 -0.1864
vn 0.7307 0.6678 -0.1420
vn 0.9788 0.0046 0.2045
vn 0.7283 0.6687 0.1497
vn 0.8260 0.0055 0.5637
vn 0.6140 0.6699 0.4175
vn 0.5482 0.0055 0.8363
vn 0.4068 0.6699 0.6211
vn 0.1875 0.0047 0.9822
vn 0.1377 0.6695 0.7299
vn -0.2026 0.0032 0.9793
vn -0.1536 0.6681 0.7280
vn -0.5620 0.0012 0.8271
vn -0.4216 0.6671 0.6142
vn -0.8359 -0.0010 0.5489
vn -0.6262 0.6651 0.4068
vn -0.7354 0.6638 0.1362
vn -0.3945 -0.0052 -0.9189
vn -0.7359 0.6625 -0.1398
vn -0.6276 0.6619 -0.4099
vn -0.4248 0.6618 -0.6177
vn -0.3747 0.7500 -0.5451
vn -0.1579 0.6621 -0.7326
vn 0.1327 0.6632 -0.7366
vn 0.4042 0.6641 -0.6290
vn 0.6118 0.6667 -0.4257
vn 0.7277 0.6672 -0.1593
vn 0.7313 0.6687 0.1346
vn 0.6225 0.6699 0.4046
vn 0.4201 0.6698 0.6123
vn 0.1530 0.6696 0.7268
vn -0.1375 0.6684 0.7310
vn -0.4071 0.6673 0.6237
vn -0.6171 0.6649 0.4208
vn -0.7323 0.6639 0.1516
vn 0.6860 -0.7240 -0.0715
vn -0.6402 -0.7372 0.2163
vn -0.6295 -0.6392 0.4417
vn -0.2078 -0.9600 -0.1879
vn 0.7367 -0.6700 -0.0913
vn 0.0221 -0.9685 -0.2481
vn 0.2261 -0.9638 -0.1413
vn 0.6219 -0.7320 0.2783
vn 0.6211 -0.6203 0.4790
vn 0.2443 -0.7181 0.6517
vn -0.4074 -0.7797 -0.4754
vn 0.0208 -0.8719 -0.4892
vn -0.2050 -0.7301 0.6519
vn 0.3945 0.0052 0.9189
vn -0.4678 0.5986 0.6502
vn -0.2774 0.5606 0.7802
vn -0.7136 -0.6755 0.1855
vn -0.6913 0.6172 0.3757
vn -0.6057 0.5978 0.5251
vn -0.6521 -0.7460 0.1352
vn -0.4185 0.3240 0.8485
vn -0.3943 -0.7757 0.4929
vn -0.5385 0.7936 -0.2831
vn -0.2603 0.7936 0.5500
vn -0.9188 -0.0020 0.3946
vn -0.1291 0.6382 0.7589
vn -0.4302 0.7043 0.5647
vn -0.2810 0.7393 0.6120
vn -0.2980 0.7338 -0.6105
vn -0.1503 0.6310 -0.7611
vn 0.9187 0.0019 -0.3950
vn 0.6511 0.6013 0.4633
vn -0.5535 -0.7142 -0.4284
vn -0.6553 -0.7257 0.2095
vn -0.6029 -0.6816 0.4147
vn -0.3878 -0.4817 0.7859
vn 0.4380 -0.4417 0.7830
vn 0.6010 -0.6605 0.4500
vn 0.6684 -0.6903 0.2770
vn 0.5962 -0.6913 -0.4081
vn 0.6860 -0.7241 -0.0715
vn 0.4202 0.3395 -0.8415
vn 0.6276 0.6166 -0.4753
vn 0.6900 0.6569 -0.3040
vn 0.9283 0.0051 0.3718
vn 0.4838 0.6023 0.6350
vn -0.3690 0.0023 0.9294
vn -0.3949 -0.0052 -0.9187
vn 0.3683 -0.0023 -0.9297
vn 0.7915 0.6006 0.1127
vn 0.3942 0.0052 0.9190
vn -0.0032 1.0000 -0.0044
vn 0.6226 0.6699 0.4045
vn 0.7313 0.6686 0.1346
vn -0.0031 1.0000 -0.0043
vn 0.7277 0.6671 -0.1592
vn 0.6119 0.6666 -0.4257
vn -0.0033 1.0000 -0.0045
vn 0.4043 0.6640 -0.6290
vn 0.1325 0.6632 -0.7366
vn -0.1579 0.6620 -0.7326
vn -0.0031 1.0000 -0.0045
vn -0.4248 0.6617 -0.6178
vn -0.0031 1.0000 -0.0046
vn -0.6276 0.6618 -0.4099
vn -0.0032 1.0000 -0.0045
vn -0.7324 0.6638 0.1515
vn -0.6172 0.6648 0.4208
vn -0.4071 0.6672 0.6237
vn -0.0031 1.0000 -0.0044
vn -0.1375 0.6683 0.7311
vn 0.1529 0.6695 0.7269
vn 0.7283 0.6687 0.1498
vn 0.7307 0.6677 -0.1420
vn 0.6218 0.6660 -0.4120
vn 0.4171 0.6644 -0.6202
vn 0.1490 0.6633 -0.7334
vn -0.1418 0.6620 -0.7360
vn -0.6184 0.6618 -0.4238
vn -0.7329 0.6622 -0.1557
vn 0.4068 0.6698 0.6212
vn 0.6140 0.6698 0.4176
vn 0.1376 0.6695 0.7300
vn -0.7355 0.6637 0.1362
vn -0.6263 0.6650 0.4069
vn -0.4216 0.6670 0.6143
vn -0.1534 0.6681 0.7281
vn 0.4171 -0.4480 -0.7907
vn -0.6913 0.6171 0.3758
vn -0.6058 0.5977 0.5251
vn -0.0113 0.8309 0.5564
vn 0.2776 0.6620 0.6962
vn -0.2809 0.7393 0.6120
vn -0.0148 0.6033 0.7974
vn 0.4171 -0.4479 -0.7908
vn 0.5896 -0.6643 -0.4595
vn 0.6609 -0.6934 -0.2870
vn -0.6554 -0.7257 0.2094
vn -0.5535 -0.7142 -0.4285
vn 0.0209 -0.8720 -0.4891
vn 0.4381 -0.4417 0.7829
vn -0.6195 0.5927 -0.5148
vn -0.7006 0.6139 -0.3635
vn 0.0454 -0.9759 0.2134
vn -0.2562 -0.9512 -0.1722
vn 0.0395 -0.9778 -0.2059
vn 0.4278 -0.7666 -0.4789
vn -0.6423 0.3667 -0.6730
vn -0.5386 0.7936 -0.2832
vn 0.0202 -0.9682 -0.2494
vn 0.0274 -0.9659 0.2575
vn -0.6364 -0.2200 0.7393
vn 0.9432 0.3321 -0.0132
vn 0.1966 0.9805 -0.0067
vn 0.5895 -0.6643 -0.4595
vn 0.0305 -0.8117 0.5833
vn -0.6133 -0.6850 -0.3932
vn 0.5893 0.6141 0.5250
vn -0.0017 0.4465 0.8948
vn -0.6242 0.3731 0.6864
vn -0.5420 -0.7105 0.4488
vn -0.2981 0.7338 -0.6105
vn 0.5892 0.6140 0.5251
vn -0.3594 0.7545 0.5491
vn -0.5637 0.1098 -0.8187
vn -0.5419 0.1167 0.8323
vn 0.5402 0.1142 -0.8337
vn -0.4075 -0.7797 -0.4754
vn -0.2332 -0.7970 -0.5571
vn 0.5963 -0.6913 -0.4081
vn 0.6287 -0.4339 0.6454
vn 0.6975 0.6592 0.2810
vn -0.4248 0.6618 -0.6178
vn 0.4043 0.6641 -0.6289
vn -0.2174 -0.7927 0.5695
vt 0.349325 0.362076
vt 0.362807 0.373807
vt 0.349349 0.389293
vt 0.083677 0.608801
vt 0.093448 0.526929
vt 0.094515 0.609499
vt 0.082496 0.691192
vt 0.093358 0.692272
vt 0.547319 0.092038
vt 0.537431 0.010117
vt 0.547829 0.008950
vt 0.072783 0.609043
vt 0.082820 0.527254
vt 0.072382 0.526708
vt 0.422117 0.940834
vt 0.437621 0.003453
vt 0.432561 0.941580
vt 0.448070 0.003442
vt 0.443010 0.941570
vt 0.458518 0.003424
vt 0.453458 0.941561
vt 0.104425 0.526759
vt 0.105391 0.609975
vt 0.104209 0.692575
vt 0.558674 0.007700
vt 0.569733 0.092276
vt 0.558520 0.091919
vt 0.566901 0.178231
vt 0.555699 0.177381
vt 0.553742 0.263021
vt 0.564943 0.263687
vt 0.564187 0.349959
vt 0.552899 0.349517
vt 0.369958 0.940024
vt 0.385421 0.003459
vt 0.380389 0.939991
vt 0.544512 0.176801
vt 0.542580 0.262291
vt 0.541586 0.349075
vt 0.537515 0.435045
vt 0.526574 0.434042
vt 0.530372 0.348573
vt 0.531435 0.262237
vt 0.533521 0.177029
vt 0.536129 0.092477
vt 0.548671 0.435497
vt 0.560039 0.435671
vt 0.544595 0.522815
vt 0.533373 0.521359
vt 0.522055 0.520656
vt 0.510661 0.519334
vt 0.515628 0.433538
vt 0.508385 0.347689
vt 0.519367 0.347496
vt 0.504855 0.432976
vt 0.497342 0.347314
vt 0.493921 0.432801
vt 0.486153 0.346802
vt 0.487042 0.260481
vt 0.498285 0.260793
vt 0.499230 0.519602
vt 0.487891 0.519147
vt 0.482892 0.432198
vt 0.476578 0.519230
vt 0.474923 0.346017
vt 0.471634 0.431641
vt 0.465366 0.518694
vt 0.478108 0.603624
vt 0.488809 0.604434
vt 0.499288 0.605399
vt 0.509686 0.606521
vt 0.520356 0.607288
vt 0.531402 0.608205
vt 0.542717 0.609164
vt 0.554018 0.609891
vt 0.467162 0.603097
vt 0.401237 0.940832
vt 0.395852 0.003424
vt 0.406293 0.003432
vt 0.018826 0.525937
vt 0.028665 0.609434
vt 0.017685 0.609841
vt 0.030265 0.692232
vt 0.019250 0.692575
vt 0.480619 0.088700
vt 0.495867 0.004925
vt 0.491766 0.089615
vt 0.479148 0.174244
vt 0.490407 0.174804
vt 0.475836 0.259659
vt 0.501502 0.175344
vt 0.502828 0.090721
vt 0.506841 0.007040
vt 0.041069 0.691128
vt 0.039665 0.608773
vt 0.029841 0.526296
vt 0.040835 0.526823
vt 0.050643 0.609038
vt 0.051479 0.690107
vt 0.517334 0.009077
vt 0.513837 0.092024
vt 0.512198 0.176503
vt 0.509355 0.261599
vt 0.051556 0.526483
vt 0.061742 0.608588
vt 0.061740 0.689022
vt 0.525056 0.091676
vt 0.522885 0.176633
vt 0.520491 0.261200
vt 0.527552 0.009664
vt 0.062027 0.526745
vt 0.427173 0.003455
vt 0.411677 0.940835
vt 0.416733 0.003445
vt 0.304069 0.095813
vt 0.309006 0.081753
vt 0.311602 0.109411
vt 0.303886 0.081983
vt 0.298850 0.055755
vt 0.282687 0.037680
vt 0.286120 0.029476
vt 0.188512 0.100987
vt 0.302307 0.096225
vt 0.090241 0.027984
vt 0.074612 0.043140
vt 0.088934 0.014625
vt 0.071336 0.069709
vt 0.066247 0.069348
vt 0.069329 0.084680
vt 0.063345 0.098397
vt 0.092085 0.028269
vt 0.194624 0.021046
vt 0.192963 0.034071
vt 0.316613 0.080231
vt 0.323593 0.122635
vt 0.305360 0.053138
vt 0.292722 0.020775
vt 0.196190 0.009086
vt 0.067485 0.039905
vt 0.084134 0.003424
vt 0.058980 0.067755
vt 0.048921 0.111464
vt 0.761971 0.528031
vt 0.738536 0.509780
vt 0.761971 0.504897
vt 0.641666 0.950662
vt 0.563546 0.931530
vt 0.642213 0.940327
vt 0.013665 0.476513
vt 0.140066 0.458090
vt 0.140156 0.477850
vt 0.019941 0.497454
vt 0.140429 0.498085
vt 0.029378 0.519089
vt 0.265354 0.457965
vt 0.313648 0.450818
vt 0.317892 0.457711
vt 0.039644 0.958052
vt 0.088182 0.976145
vt 0.042711 0.982005
vt 0.265734 0.448198
vt 0.306410 0.434483
vt 0.765017 0.528047
vt 0.776738 0.504913
vt 0.776738 0.528057
vt 0.348235 0.621861
vt 0.342912 0.615167
vt 0.347804 0.616875
vt 0.343934 0.624882
vt 0.339115 0.622862
vt 0.338477 0.617884
vt 0.330908 0.612653
vt 0.330909 0.627093
vt 0.343418 0.634121
vt 0.355899 0.627005
vt 0.355973 0.612681
vt 0.343329 0.606007
vt 0.348236 0.656822
vt 0.342911 0.650128
vt 0.347805 0.651837
vt 0.343936 0.659842
vt 0.339114 0.657822
vt 0.338474 0.652844
vt 0.330908 0.647614
vt 0.330908 0.662056
vt 0.343423 0.669080
vt 0.355899 0.661966
vt 0.355974 0.647645
vt 0.343330 0.640969
vt 0.348232 0.586924
vt 0.342926 0.580211
vt 0.347815 0.581924
vt 0.343935 0.589925
vt 0.339117 0.587898
vt 0.338480 0.582933
vt 0.330908 0.577715
vt 0.330908 0.592120
vt 0.343406 0.599159
vt 0.355874 0.592100
vt 0.355991 0.577743
vt 0.343356 0.571051
vt 0.358406 0.341607
vt 0.330912 0.336599
vt 0.358406 0.336573
vt 0.330908 0.512580
vt 0.355504 0.517046
vt 0.330908 0.517062
vt 0.355573 0.445523
vt 0.330908 0.441051
vt 0.355574 0.441034
vt 0.330908 0.476822
vt 0.355572 0.481316
vt 0.330908 0.481323
vt 0.348334 0.421966
vt 0.343713 0.396141
vt 0.348416 0.396141
vt 0.358959 0.297203
vt 0.330908 0.302199
vt 0.330931 0.297101
vt 0.344399 0.389293
vt 0.344367 0.362074
vt 0.308494 0.417543
vt 0.316115 0.378329
vt 0.316614 0.428397
vt 0.323459 0.372038
vt 0.324060 0.435220
vt 0.151869 0.952207
vt 0.148801 0.976160
vt 0.358073 0.175638
vt 0.352957 0.138743
vt 0.363110 0.128086
vt 0.141530 0.425816
vt 0.029978 0.409703
vt 0.141460 0.410359
vt 0.178623 0.755547
vt 0.052565 0.734476
vt 0.179071 0.735625
vt 0.178208 0.778923
vt 0.043452 0.754128
vt 0.177880 0.797982
vt 0.035857 0.777399
vt 0.141485 0.379206
vt 0.267050 0.395723
vt 0.141168 0.395103
vt 0.003424 0.414145
vt 0.030434 0.395157
vt 0.746651 0.669094
vt 0.751864 0.701091
vt 0.734402 0.691544
vt 0.488370 0.734377
vt 0.510702 0.753178
vt 0.488337 0.753178
vt 0.567259 0.730728
vt 0.568220 0.715106
vt 0.569954 0.728645
vt 0.541207 0.710272
vt 0.534914 0.730729
vt 0.531381 0.727806
vt 0.533594 0.714218
vt 0.560826 0.710939
vt 0.563714 0.757809
vt 0.610948 0.178169
vt 0.629177 0.184407
vt 0.611907 0.183850
vt 0.594278 0.183344
vt 0.597141 0.188263
vt 0.687287 0.622421
vt 0.701759 0.630763
vt 0.687400 0.628812
vt 0.609924 0.621639
vt 0.609654 0.628252
vt 0.592098 0.624533
vt 0.594374 0.629732
vt 0.137487 0.696060
vt 0.136774 0.678749
vt 0.142529 0.679682
vt 0.143684 0.661553
vt 0.137018 0.661880
vt 0.708814 0.179434
vt 0.629762 0.177407
vt 0.709212 0.185931
vt 0.726521 0.180581
vt 0.725621 0.186255
vt 0.742535 0.185537
vt 0.739662 0.190404
vt 0.593358 0.414426
vt 0.609650 0.406175
vt 0.609407 0.413029
vt 0.690332 0.407738
vt 0.690437 0.414342
vt 0.707915 0.411349
vt 0.705350 0.416551
vt 0.139235 0.562177
vt 0.139752 0.544019
vt 0.145063 0.561195
vt 0.138636 0.579797
vt 0.145798 0.580470
vt 0.153170 0.661680
vt 0.155836 0.580325
vt 0.154276 0.559486
vt 0.148836 0.539653
vt 0.691012 0.398262
vt 0.711842 0.402213
vt 0.609044 0.396164
vt 0.591025 0.408962
vt 0.587463 0.399532
vt 0.746716 0.177036
vt 0.728145 0.171974
vt 0.709013 0.170189
vt 0.629674 0.167648
vt 0.715117 0.224172
vt 0.738336 0.225741
vt 0.322530 0.548770
vt 0.324060 0.571863
vt 0.315102 0.683741
vt 0.588607 0.615491
vt 0.600170 0.440535
vt 0.609205 0.612054
vt 0.687808 0.613343
vt 0.709412 0.446209
vt 0.707838 0.616934
vt 0.731688 0.447486
vt 0.609308 0.169136
vt 0.576802 0.007541
vt 0.599093 0.004906
vt 0.621622 0.003424
vt 0.730739 0.012267
vt 0.752451 0.014030
vt 0.773544 0.016694
vt 0.601211 0.217027
vt 0.589959 0.174456
vt 0.704162 0.625759
vt 0.151340 0.681326
vt 0.146216 0.700365
vt 0.313324 0.706001
vt 0.310620 0.727628
vt 0.346551 0.322972
vt 0.267821 0.375839
vt 0.142007 0.362827
vt 0.268209 0.359796
vt 0.142899 0.346495
vt 0.269190 0.350249
vt 0.197341 0.958050
vt 0.194274 0.982005
vt 0.770370 0.678277
vt 0.748222 0.666170
vt 0.776497 0.667057
vt 0.754349 0.654951
vt 0.346562 0.355226
vt 0.330908 0.341617
vt 0.727421 0.835646
vt 0.776516 0.836522
vt 0.775999 0.852109
vt 0.825685 0.841187
vt 0.824991 0.858721
vt 0.869769 0.861356
vt 0.178298 0.804830
vt 0.320272 0.824717
vt 0.178100 0.823815
vt 0.308899 0.848013
vt 0.177841 0.847090
vt 0.299213 0.868128
vt 0.177750 0.866962
vt 0.577528 0.826942
vt 0.652227 0.835637
vt 0.576802 0.836731
vt 0.355399 0.688080
vt 0.330908 0.692505
vt 0.330908 0.688040
vt 0.348236 0.551967
vt 0.342925 0.545253
vt 0.347816 0.546967
vt 0.343938 0.554968
vt 0.339120 0.552940
vt 0.338481 0.547975
vt 0.330908 0.542755
vt 0.330908 0.557164
vt 0.343409 0.564203
vt 0.355879 0.557143
vt 0.355994 0.542788
vt 0.343357 0.536093
vt 0.182910 0.184623
vt 0.297234 0.199643
vt 0.182066 0.197959
vt 0.344858 0.675928
vt 0.184158 0.265316
vt 0.085091 0.252480
vt 0.183833 0.254499
vt 0.143036 0.306276
vt 0.033469 0.283272
vt 0.143523 0.285145
vt 0.142872 0.326624
vt 0.023744 0.304797
vt 0.017204 0.325666
vt 0.355399 0.692546
vt 0.344817 0.704663
vt 0.187726 0.114261
vt 0.341529 0.529245
vt 0.003424 0.121886
vt 0.048271 0.127023
vt 0.047759 0.149041
vt 0.003424 0.150920
vt 0.046911 0.164387
vt 0.341513 0.500383
vt 0.355504 0.512563
vt 0.765013 0.504908
vt 0.774175 0.484652
vt 0.768790 0.462864
vt 0.776050 0.462995
vt 0.776142 0.440535
vt 0.780714 0.440821
vt 0.724722 0.886714
vt 0.736093 0.868206
vt 0.736108 0.886711
vt 0.747495 0.868205
vt 0.747509 0.886710
vt 0.758897 0.868204
vt 0.758911 0.886710
vt 0.576802 0.886723
vt 0.588190 0.868272
vt 0.588182 0.886737
vt 0.599568 0.868285
vt 0.599560 0.886749
vt 0.610931 0.868293
vt 0.610922 0.886760
vt 0.622289 0.868301
vt 0.622278 0.886770
vt 0.633637 0.886777
vt 0.633648 0.868304
vt 0.645005 0.886779
vt 0.645010 0.868303
vt 0.656393 0.886776
vt 0.656393 0.868296
vt 0.667775 0.886767
vt 0.667768 0.868282
vt 0.679175 0.886756
vt 0.679165 0.868261
vt 0.690571 0.886746
vt 0.690560 0.868243
vt 0.701962 0.886731
vt 0.701951 0.868228
vt 0.713344 0.886720
vt 0.713330 0.868217
vt 0.724708 0.868210
vt 0.344914 0.428814
vt 0.121417 0.581758
vt 0.117187 0.568800
vt 0.112239 0.555051
vt 0.134706 0.546946
vt 0.690525 0.431033
vt 0.611711 0.429870
vt 0.599285 0.433687
vt 0.722172 0.207047
vt 0.708804 0.202943
vt 0.631084 0.201189
vt 0.618376 0.205361
vt 0.605046 0.210179
vt 0.699459 0.647237
vt 0.687614 0.644807
vt 0.611985 0.644382
vt 0.600163 0.648103
vt 0.112239 0.687803
vt 0.115416 0.675248
vt 0.119574 0.661508
vt 0.060601 0.238703
vt 0.061064 0.208850
vt 0.068006 0.235865
vt 0.060337 0.179544
vt 0.053570 0.209983
vt 0.183755 0.167045
vt 0.307002 0.186520
vt 0.310844 0.216097
vt 0.303295 0.214156
vt 0.297627 0.242344
vt 0.291349 0.239213
vt 0.276079 0.264608
vt 0.281902 0.274003
vt 0.184189 0.276168
vt 0.080902 0.265692
vt 0.344932 0.457758
vt 0.330908 0.445540
vt 0.872235 0.934989
vt 0.823671 0.949861
vt 0.825370 0.931530
vt 0.773615 0.931628
vt 0.771946 0.947880
vt 0.720968 0.942020
vt 0.720386 0.952325
vt 0.308175 0.389337
vt 0.267306 0.412082
vt 0.341536 0.493535
vt 0.516031 0.710272
vt 0.510737 0.734376
vt 0.507619 0.711938
vt 0.491501 0.711939
vt 0.483071 0.710272
vt 0.341535 0.464606
vt 0.355573 0.476821
vt 0.065143 0.193841
vt 0.066225 0.208804
vt 0.072644 0.233595
vt 0.083253 0.252643
vt 0.273712 0.255695
vt 0.287679 0.236885
vt 0.298178 0.213693
vt 0.298958 0.200120
vt 0.816144 0.689554
vt 0.837618 0.701091
vt 0.812521 0.696565
vt 0.794541 0.680104
vt 0.790513 0.688028
vt 0.330908 0.373835
vt 0.343642 0.421947
vt 0.330908 0.407235
vt 0.343087 0.283272
vt 0.361167 0.407339
vt 0.358958 0.302287
vt 0.343003 0.316124
vt 0.640467 0.745726
vt 0.594112 0.798375
vt 0.587438 0.791531
vt 0.583643 0.782111
vt 0.639955 0.744458
vt 0.640197 0.724773
vt 0.584826 0.685545
vt 0.640739 0.723528
vt 0.588851 0.676274
vt 0.641627 0.722659
vt 0.595689 0.669582
vt 0.605112 0.665847
vt 0.642890 0.722158
vt 0.701778 0.667211
vt 0.662606 0.722437
vt 0.663854 0.722974
vt 0.711068 0.671211
vt 0.664728 0.723871
vt 0.717779 0.678094
vt 0.721536 0.687474
vt 0.665233 0.725130
vt 0.664992 0.744822
vt 0.720353 0.784040
vt 0.664459 0.746068
vt 0.716368 0.793351
vt 0.709490 0.800003
vt 0.663567 0.746930
vt 0.700107 0.803739
vt 0.662306 0.747432
vt 0.603438 0.802373
vt 0.642590 0.747153
vt 0.641335 0.746615
vt 0.499202 0.665489
vt 0.489671 0.684623
vt 0.483072 0.668679
vt 0.499201 0.654643
vt 0.483071 0.651424
vt 0.489696 0.635498
vt 0.503362 0.644630
vt 0.501936 0.623334
vt 0.511058 0.636980
vt 0.521102 0.632832
vt 0.535190 0.616775
vt 0.531969 0.632854
vt 0.517907 0.616739
vt 0.542004 0.637013
vt 0.551148 0.623390
vt 0.549692 0.644686
vt 0.563373 0.635594
vt 0.511046 0.683186
vt 0.517863 0.703424
vt 0.501914 0.696819
vt 0.503348 0.675515
vt 0.541984 0.683219
vt 0.535144 0.703424
vt 0.531942 0.687348
vt 0.521075 0.687344
vt 0.553832 0.654712
vt 0.569954 0.651537
vt 0.553826 0.665549
vt 0.569936 0.668769
vt 0.563304 0.684666
vt 0.549656 0.675552
vt 0.551105 0.696854
vt 0.071111 0.085113
vt 0.281913 0.036912
vt 0.261612 0.477184
vt 0.252769 0.497308
vt 0.243650 0.518323
vt 0.140872 0.441625
vt 0.011008 0.455940
vt 0.011984 0.439313
vt 0.021970 0.424174
vt 0.268211 0.432106
vt 0.299288 0.734476
vt 0.308962 0.754677
vt 0.320332 0.778156
vt 0.324060 0.797184
vt 0.022162 0.379296
vt 0.013255 0.362688
vt 0.014294 0.346218
vt 0.036901 0.825254
vt 0.035141 0.806600
vt 0.044407 0.848499
vt 0.053439 0.868128
vt 0.653001 0.825846
vt 0.066930 0.193534
vt 0.272833 0.256388
vt 0.248482 0.288518
vt 0.257234 0.309905
vt 0.265764 0.330432
vt 0.323731 0.137030
vt 0.350065 0.162689
vt 0.322086 0.159709
vt 0.319706 0.173283
vt 0.075147 0.276424
vt 0.315577 0.360974
vt 0.320219 0.354617
vt 0.307330 0.376289
vt 0.185462 0.149709
vt 0.186312 0.131885
vt 0.071915 0.690136
vt 0.569954 0.007141
vt 0.374991 0.003504
vt 0.555902 0.523480
vt 0.390819 0.939964
vt 0.484814 0.003424
vt 0.294981 0.057783
vt 0.188900 0.086228
vt 0.079072 0.045656
vt 0.738536 0.528019
vt 0.563000 0.941875
vt 0.141024 0.519089
vt 0.085115 0.952192
vt 0.034026 0.796207
vt 0.004217 0.388982
vt 0.768797 0.681202
vt 0.538431 0.757809
vt 0.132491 0.693140
vt 0.319844 0.525937
vt 0.576802 0.442012
vt 0.576802 0.218306
vt 0.728158 0.825846
vt 0.870034 0.836125
vt 0.324060 0.805684
vt 0.004575 0.107901
vt 0.003473 0.164601
vt 0.766014 0.484409
vt 0.576809 0.868259
vt 0.702814 0.433687
vt 0.734435 0.210179
vt 0.869010 0.961266
vt 0.839714 0.696583
s 1
usemtl matPoste
f 1/1/1 2/2/2 3/3/3
f 4/4/4 5/5/5 6/6/6
f 7/7/7 6/6/6 8/8/8
f 9/9/9 10/10/10 11/11/7
f 7/7/7 12/12/11 4/4/4
f 13/13/12 12/12/11 14/14/13
f 15/15/13 16/16/14 17/17/12
f 17/17/12 18/18/15 19/19/5
f 19/19/5 20/20/16 21/21/17
f 6/6/6 22/22/17 23/23/18
f 8/8/8 23/23/18 24/24/19
f 25/25/8 26/26/20 27/27/21
f 27/27/21 28/28/22 29/29/23
f 30/30/24 28/28/22 31/31/25
f 30/30/24 32/32/26 33/33/27
f 34/34/28 35/35/29 36/36/30
f 11/11/7 27/27/21 9/9/9
f 9/9/9 29/29/23 37/37/31
f 38/38/32 29/29/23 30/30/24
f 38/38/32 33/33/27 39/39/33
f 33/33/27 40/40/34 39/39/33
f 39/39/33 41/41/35 42/42/36
f 39/39/33 43/43/37 38/38/32
f 38/38/32 44/44/38 37/37/31
f 37/37/31 45/45/39 9/9/9
f 32/32/26 46/46/40 33/33/27
f 47/47/41 48/48/42 46/46/40
f 46/46/40 49/49/43 40/40/34
f 40/40/34 50/50/44 41/41/35
f 41/41/35 51/51/45 52/52/46
f 52/52/46 42/42/36 41/41/35
f 52/52/46 53/53/47 54/54/48
f 55/55/49 56/56/50 53/53/47
f 57/57/51 58/58/52 56/56/50
f 56/56/50 59/59/53 60/60/54
f 55/55/49 51/51/45 61/61/55
f 57/57/51 61/61/55 62/62/56
f 63/63/57 62/62/56 64/64/58
f 63/63/57 65/65/59 58/58/52
f 66/66/60 64/64/58 67/67/61
f 68/68/62 62/62/56 69/69/63
f 69/69/63 61/61/55 70/70/64
f 70/70/64 51/51/45 71/71/65
f 51/51/45 72/72/66 71/71/65
f 50/50/44 73/73/67 72/72/66
f 49/49/43 74/74/68 73/73/67
f 48/48/42 75/75/69 74/74/68
f 76/76/70 64/64/58 68/68/62
f 77/77/71 78/78/72 79/79/73
f 78/78/72 36/36/30 35/35/29
f 80/80/28 81/81/74 82/82/18
f 82/82/18 83/83/75 84/84/76
f 85/85/20 86/86/77 87/87/78
f 88/88/22 87/87/78 89/89/79
f 88/88/22 59/59/53 90/90/80
f 65/65/59 59/59/53 58/58/52
f 60/60/54 89/89/79 91/91/81
f 92/92/82 89/89/79 87/87/78
f 93/93/83 87/87/78 86/86/77
f 94/94/84 81/81/74 95/95/85
f 95/95/85 96/96/30 97/97/86
f 94/94/84 98/98/87 99/99/88
f 92/92/82 100/100/88 101/101/89
f 91/91/81 101/101/89 102/102/90
f 60/60/54 102/102/90 103/103/91
f 56/56/50 103/103/91 53/53/47
f 97/97/86 98/98/87 95/95/85
f 104/104/71 105/105/92 98/98/87
f 98/98/87 106/106/93 99/99/88
f 100/100/88 107/107/94 101/101/89
f 101/101/89 108/108/95 102/102/90
f 102/102/90 109/109/96 103/103/91
f 103/103/91 54/54/48 53/53/47
f 43/43/37 54/54/48 109/109/96
f 44/44/38 109/109/96 108/108/95
f 45/45/39 108/108/95 107/107/94
f 10/10/10 107/107/94 110/110/93
f 12/12/11 106/106/93 105/105/92
f 14/14/13 105/105/92 111/111/97
f 112/112/98 113/113/97 114/114/99
f 114/114/99 77/77/71 79/79/73
f 115/115/100 116/116/101 117/117/102
f 118/118/103 119/119/104 116/116/101
f 119/119/104 120/120/105 121/121/106
f 122/122/107 123/123/100 117/117/102
f 124/124/108 125/125/109 126/126/110
f 125/125/109 127/127/111 128/128/112
f 128/128/112 129/129/113 130/130/114
f 131/131/115 132/132/116 133/133/117
f 117/117/102 134/134/118 135/135/119
f 116/116/101 136/136/120 134/134/118
f 136/136/120 121/121/106 137/137/121
f 126/126/110 138/138/122 132/132/116
f 126/126/110 139/139/123 140/140/124
f 139/139/123 128/128/112 141/141/125
f 141/141/125 130/130/114 142/142/126
f 143/143/127 144/144/128 145/145/129
f 146/146/130 147/147/131 148/148/132
f 149/149/133 150/150/134 151/151/135
f 152/152/136 151/151/135 153/153/137
f 153/153/137 154/154/131 152/152/136
f 155/155/138 156/156/139 157/157/140
f 158/158/141 159/159/142 160/160/119
f 161/161/143 162/162/144 156/156/139
f 145/145/129 163/163/145 143/143/127
f 163/163/145 164/164/146 165/165/147
f 166/166/148 167/167/149 168/168/150
f 166/166/148 169/169/151 170/170/152
f 167/167/149 170/170/152 171/171/153
f 172/172/154 170/170/152 173/173/155
f 174/174/156 170/170/152 169/169/151
f 175/175/157 169/169/151 166/166/148
f 176/176/158 166/166/148 168/168/150
f 176/176/158 167/167/149 177/177/159
f 177/177/159 171/171/153 172/172/154
f 178/178/148 179/179/160 180/180/161
f 178/178/148 181/181/162 182/182/163
f 179/179/160 182/182/163 183/183/164
f 184/184/165 182/182/163 185/185/166
f 186/186/167 182/182/163 181/181/162
f 187/187/168 181/181/162 178/178/148
f 188/188/169 178/178/148 180/180/161
f 188/188/169 179/179/160 189/189/170
f 189/189/170 183/183/164 184/184/165
f 190/190/171 191/191/172 192/192/173
f 190/190/171 193/193/174 194/194/175
f 191/191/172 194/194/175 195/195/176
f 196/196/177 194/194/175 197/197/178
f 198/198/179 194/194/175 193/193/174
f 199/199/180 193/193/174 190/190/171
f 200/200/181 190/190/171 192/192/173
f 200/200/181 191/191/172 201/201/182
f 201/201/182 195/195/176 196/196/177
f 202/202/183 203/203/184 204/204/185
f 205/205/186 206/206/187 207/207/188
f 208/208/189 209/209/190 210/210/191
f 211/211/192 212/212/193 213/213/194
f 214/214/195 215/215/196 216/216/197
f 217/217/198 218/218/199 219/219/200
f 1/1/1 220/220/201 221/221/202
f 222/222/203 223/223/204 224/224/205
f 224/224/205 225/225/206 226/226/207
f 159/159/142 227/227/208 228/228/209
f 229/229/209 230/230/210 231/231/142
f 232/232/211 233/233/212 234/234/213
f 235/235/214 236/236/108 237/237/117
f 238/238/215 239/239/216 235/235/214
f 240/240/217 241/241/218 238/238/215
f 242/242/219 243/243/220 244/244/221
f 245/245/222 246/246/223 233/233/212
f 247/247/224 248/248/225 249/249/226
f 250/250/225 251/251/227 252/252/228
f 253/253/229 254/254/230 255/255/231
f 256/256/232 257/257/233 258/258/234
f 258/258/234 259/259/235 256/256/232
f 260/260/236 253/253/229 256/256/232
f 261/261/228 257/257/233 253/253/229
f 262/262/237 263/263/238 264/264/239
f 265/265/240 264/264/239 266/266/241
f 267/267/242 268/268/241 269/269/243
f 270/270/244 269/269/243 271/271/245
f 272/272/246 271/271/245 273/273/247
f 274/274/246 275/275/248 276/276/249
f 277/277/250 275/275/248 278/278/251
f 279/279/252 263/263/238 280/280/253
f 281/281/254 282/282/255 283/283/256
f 283/283/256 284/284/257 285/285/258
f 286/286/258 287/287/259 288/288/260
f 288/288/260 289/289/261 290/290/262
f 290/290/262 291/291/263 292/292/264
f 293/293/265 294/294/266 295/295/267
f 296/296/268 295/295/267 297/297/269
f 278/278/251 297/297/269 277/277/250
f 298/298/270 297/297/269 299/299/271
f 299/299/271 295/295/267 300/300/272
f 295/295/267 301/301/273 300/300/272
f 291/291/263 302/302/274 303/303/275
f 289/289/261 304/304/276 302/302/274
f 304/304/276 305/305/277 306/306/278
f 307/307/279 282/282/255 308/308/280
f 282/282/255 309/309/281 308/308/280
f 279/279/252 310/310/282 309/309/281
f 304/304/276 311/311/283 302/302/274
f 303/303/275 311/311/283 312/312/284
f 301/301/273 313/313/285 300/300/272
f 300/300/272 314/314/286 299/299/271
f 299/299/271 315/315/287 298/298/270
f 316/316/288 317/317/289 318/318/290
f 319/319/291 317/317/289 320/320/292
f 321/321/293 320/320/292 322/322/294
f 323/323/295 324/324/296 325/325/297
f 323/323/295 326/326/298 310/310/282
f 309/309/281 326/326/298 327/327/299
f 308/308/280 327/327/299 328/328/300
f 308/308/280 329/329/301 307/307/279
f 306/306/278 330/330/302 304/304/276
f 310/310/282 262/262/237 323/323/295
f 262/262/237 331/331/303 323/323/295
f 332/332/304 319/319/291 321/321/293
f 319/319/291 270/270/244 318/318/290
f 318/318/290 272/272/246 316/316/288
f 274/274/246 333/333/305 334/334/306
f 276/276/249 298/298/270 333/333/305
f 333/333/305 315/315/287 335/335/307
f 333/333/305 336/336/308 334/334/306
f 204/204/185 203/203/184 337/337/309
f 338/338/310 339/339/311 340/340/312
f 340/340/312 341/341/313 342/342/314
f 228/228/209 343/343/314 344/344/315
f 345/345/316 247/247/224 346/346/317
f 347/347/318 346/346/317 348/348/319
f 202/202/183 349/349/320 350/350/321
f 351/351/322 352/352/323 353/353/324
f 353/353/324 354/354/325 355/355/326
f 354/354/325 356/356/327 355/355/326
f 357/357/328 358/358/329 359/359/330
f 359/359/330 360/360/331 361/361/332
f 361/361/332 362/362/333 363/363/334
f 364/364/335 365/365/336 366/366/337
f 367/367/338 368/368/339 369/369/340
f 370/370/341 371/371/342 372/372/343
f 370/370/341 373/373/344 374/374/175
f 371/371/342 374/374/175 375/375/345
f 376/376/177 374/374/175 377/377/346
f 378/378/179 374/374/175 373/373/344
f 379/379/347 373/373/344 370/370/341
f 380/380/348 370/370/341 372/372/343
f 380/380/348 371/371/342 381/381/349
f 381/381/349 375/375/345 376/376/177
f 382/382/350 383/383/351 384/384/352
f 367/367/338 369/369/340 385/385/353
f 386/386/354 387/387/355 388/388/356
f 389/389/357 390/390/337 391/391/358
f 392/392/359 393/393/360 389/389/357
f 341/341/313 394/394/361 392/392/359
f 395/395/362 396/396/363 368/368/339
f 397/397/364 117/117/102 135/135/119
f 207/207/188 206/206/187 398/398/365
f 399/399/366 142/142/126 400/400/367
f 399/399/366 401/401/368 402/402/369
f 403/403/318 402/402/369 401/401/368
f 205/205/186 404/404/370 405/405/371
f 406/406/372 407/407/373 164/164/146
f 407/407/373 408/408/374 409/409/375
f 409/409/375 410/410/376 411/411/377
f 412/412/378 413/413/379 414/414/380
f 414/414/380 415/415/381 416/416/382
f 416/416/382 417/417/383 418/418/384
f 419/419/385 420/420/386 421/421/387
f 421/421/387 422/422/388 423/423/389
f 423/423/389 424/424/390 425/425/391
f 425/425/391 426/426/392 427/427/393
f 428/428/394 426/426/392 429/429/395
f 430/430/396 429/429/395 431/431/397
f 432/432/398 431/431/397 433/433/399
f 434/434/400 433/433/399 435/435/401
f 436/436/402 435/435/401 437/437/403
f 438/438/404 437/437/403 439/439/405
f 440/440/406 439/439/405 441/441/407
f 442/442/408 441/441/407 443/443/409
f 442/442/408 444/444/410 412/412/378
f 210/210/191 209/209/190 445/445/411
f 278/278/251 446/446/412 296/296/268
f 296/296/268 447/447/413 293/293/265
f 293/293/265 448/448/414 449/449/415
f 292/292/264 450/450/416 290/290/262
f 290/290/262 451/451/417 288/288/260
f 288/288/260 452/452/418 286/286/258
f 285/285/258 453/453/419 283/283/256
f 281/281/254 453/453/419 454/454/420
f 263/263/238 454/454/420 455/455/421
f 264/264/239 455/455/421 456/456/422
f 266/266/241 456/456/422 457/457/423
f 269/269/243 458/458/423 459/459/424
f 271/271/245 459/459/424 460/460/425
f 273/273/247 460/460/425 461/461/426
f 275/275/248 462/462/426 463/463/427
f 275/275/248 464/464/428 278/278/251
f 465/465/429 466/466/430 467/467/431
f 468/468/432 469/469/433 403/403/318
f 470/470/434 471/471/435 382/382/350
f 471/471/435 472/472/325 473/473/436
f 473/473/436 474/474/323 475/475/437
f 476/476/438 474/474/323 477/477/439
f 478/478/440 476/476/438 477/477/439
f 479/479/441 465/465/429 467/467/431
f 208/208/189 480/480/442 481/481/443
f 482/482/444 483/483/445 484/484/446
f 485/485/447 483/483/445 486/486/448
f 487/487/449 486/486/448 488/488/450
f 489/489/451 490/490/452 243/243/220
f 243/243/220 234/234/213 244/244/221
f 213/213/194 212/212/193 491/491/453
f 492/492/454 493/493/455 494/494/456
f 495/495/457 493/493/455 250/250/225
f 496/496/458 495/495/457 250/250/225
f 211/211/192 497/497/459 498/498/460
f 466/466/430 499/499/461 500/500/462
f 467/467/431 500/500/462 501/501/463
f 467/467/431 502/502/464 479/479/441
f 475/475/437 503/503/465 504/504/466
f 475/475/437 505/505/467 473/473/436
f 473/473/436 506/506/468 471/471/435
f 507/507/469 508/508/470 509/509/471
f 510/510/433 509/509/471 511/511/472
f 510/510/433 345/345/316 347/347/318
f 221/221/202 220/220/201 512/512/473
f 215/215/196 513/513/474 514/514/475
f 219/219/200 515/515/476 217/217/198
f 216/216/197 516/516/477 214/214/195
f 218/218/199 517/517/478 518/518/479
f 519/519/480 520/520/423 521/521/481
f 519/519/480 522/522/482 523/523/480
f 524/524/483 522/522/482 525/525/484
f 526/526/483 525/525/484 527/527/485
f 528/528/486 527/527/485 529/529/487
f 528/528/486 530/530/488 531/531/486
f 531/531/486 532/532/489 533/533/490
f 534/534/490 532/532/489 535/535/491
f 536/536/492 535/535/491 537/537/493
f 536/536/492 538/538/412 539/539/494
f 540/540/494 538/538/412 541/541/495
f 542/542/494 541/541/495 543/543/496
f 542/542/494 544/544/497 545/545/498
f 545/545/498 546/546/499 547/547/498
f 547/547/498 548/548/500 549/549/480
f 550/550/494 548/548/500 520/520/423
f 551/551/494 552/552/501 553/553/502
f 554/554/480 553/553/502 555/555/503
f 554/554/480 556/556/504 557/557/480
f 557/557/480 558/558/505 559/559/480
f 560/560/480 561/561/383 562/562/494
f 559/559/480 563/563/506 560/560/480
f 564/564/494 561/561/383 565/565/507
f 566/566/480 565/565/507 567/567/508
f 568/568/494 569/569/509 570/570/510
f 571/571/494 570/570/510 552/552/501
f 572/572/494 573/573/511 574/574/494
f 575/575/494 573/573/511 569/569/509
f 576/576/480 567/567/508 577/577/512
f 578/578/494 577/577/512 579/579/513
f 578/578/494 580/580/514 581/581/494
f 581/581/494 582/582/515 572/572/494
f 583/583/113 122/122/107 130/130/114
f 132/132/116 584/584/516 133/133/117
f 121/121/106 138/138/122 137/137/121
f 146/146/130 487/487/449 488/488/450
f 585/585/517 150/150/134 155/155/138
f 586/586/518 151/151/135 585/585/517
f 587/587/449 153/153/137 586/586/518
f 588/588/519 589/589/520 590/590/454
f 591/591/521 588/588/519 590/590/454
f 490/490/452 162/162/144 592/592/522
f 235/235/214 593/593/523 594/594/524
f 238/238/215 594/594/524 595/595/525
f 240/240/217 595/595/525 596/596/100
f 242/242/219 246/246/223 597/597/457
f 339/339/311 597/597/457 598/598/458
f 341/341/313 598/598/458 599/599/316
f 357/357/328 600/600/526 601/601/527
f 359/359/330 602/602/463 600/600/526
f 361/361/332 603/603/464 602/602/463
f 604/604/528 351/351/322 365/365/336
f 382/382/350 605/605/461 468/468/432
f 386/386/354 606/606/529 476/476/438
f 389/389/357 607/607/322 608/608/530
f 392/392/359 608/608/530 609/609/531
f 341/341/313 609/609/531 342/342/314
f 130/130/114 397/397/364 142/142/126
f 230/230/210 135/135/119 231/231/142
f 610/610/532 611/611/533 612/612/534
f 613/613/315 611/611/533 229/229/209
f 470/470/434 468/468/432 403/403/318
f 479/479/441 478/478/440 614/614/535
f 244/244/221 233/233/212 246/246/223
f 615/615/204 342/342/314 616/616/536
f 617/617/537 340/340/312 615/615/204
f 338/338/310 617/617/537 243/243/220
f 161/161/143 150/150/134 588/588/519
f 592/592/522 588/588/519 232/232/211
f 490/490/452 232/232/211 234/234/213
f 618/618/538 613/613/315 470/470/434
f 612/612/534 619/619/539 610/610/532
f 135/135/119 619/619/539 397/397/364
f 400/400/367 397/397/364 619/619/539
f 400/400/367 618/618/538 401/401/368
f 401/401/368 470/470/434 403/403/318
f 4/4/4 13/13/12 5/5/5
f 7/7/7 4/4/4 6/6/6
f 9/9/9 45/45/39 10/10/10
f 7/7/7 620/620/540 12/12/11
f 13/13/12 4/4/4 12/12/11
f 15/15/13 112/112/98 16/16/14
f 17/17/12 16/16/14 18/18/15
f 19/19/5 18/18/15 20/20/16
f 6/6/6 5/5/5 22/22/17
f 8/8/8 6/6/6 23/23/18
f 25/25/8 621/621/541 26/26/20
f 27/27/21 26/26/20 28/28/22
f 30/30/24 29/29/23 28/28/22
f 30/30/24 31/31/25 32/32/26
f 34/34/28 622/622/16 35/35/29
f 11/11/7 25/25/8 27/27/21
f 9/9/9 27/27/21 29/29/23
f 38/38/32 37/37/31 29/29/23
f 38/38/32 30/30/24 33/33/27
f 33/33/27 46/46/40 40/40/34
f 39/39/33 40/40/34 41/41/35
f 39/39/33 42/42/36 43/43/37
f 38/38/32 43/43/37 44/44/38
f 37/37/31 44/44/38 45/45/39
f 32/32/26 47/47/41 46/46/40
f 47/47/41 623/623/542 48/48/42
f 46/46/40 48/48/42 49/49/43
f 40/40/34 49/49/43 50/50/44
f 41/41/35 50/50/44 51/51/45
f 52/52/46 54/54/48 42/42/36
f 52/52/46 55/55/49 53/53/47
f 55/55/49 57/57/51 56/56/50
f 57/57/51 63/63/57 58/58/52
f 56/56/50 58/58/52 59/59/53
f 55/55/49 52/52/46 51/51/45
f 57/57/51 55/55/49 61/61/55
f 63/63/57 57/57/51 62/62/56
f 63/63/57 66/66/60 65/65/59
f 66/66/60 63/63/57 64/64/58
f 68/68/62 64/64/58 62/62/56
f 69/69/63 62/62/56 61/61/55
f 70/70/64 61/61/55 51/51/45
f 51/51/45 50/50/44 72/72/66
f 50/50/44 49/49/43 73/73/67
f 49/49/43 48/48/42 74/74/68
f 48/48/42 623/623/542 75/75/69
f 76/76/70 67/67/61 64/64/58
f 77/77/71 624/624/86 78/78/72
f 78/78/72 624/624/86 36/36/30
f 80/80/28 96/96/30 81/81/74
f 82/82/18 81/81/74 83/83/75
f 85/85/20 625/625/76 86/86/77
f 88/88/22 85/85/20 87/87/78
f 88/88/22 89/89/79 59/59/53
f 65/65/59 90/90/80 59/59/53
f 60/60/54 59/59/53 89/89/79
f 92/92/82 91/91/81 89/89/79
f 93/93/83 92/92/82 87/87/78
f 94/94/84 83/83/75 81/81/74
f 95/95/85 81/81/74 96/96/30
f 94/94/84 95/95/85 98/98/87
f 92/92/82 93/93/83 100/100/88
f 91/91/81 92/92/82 101/101/89
f 60/60/54 91/91/81 102/102/90
f 56/56/50 60/60/54 103/103/91
f 97/97/86 104/104/71 98/98/87
f 104/104/71 111/111/97 105/105/92
f 98/98/87 105/105/92 106/106/93
f 100/100/88 110/110/93 107/107/94
f 101/101/89 107/107/94 108/108/95
f 102/102/90 108/108/95 109/109/96
f 103/103/91 109/109/96 54/54/48
f 43/43/37 42/42/36 54/54/48
f 44/44/38 43/43/37 109/109/96
f 45/45/39 44/44/38 108/108/95
f 10/10/10 45/45/39 107/107/94
f 12/12/11 620/620/540 106/106/93
f 14/14/13 12/12/11 105/105/92
f 112/112/98 15/15/13 113/113/97
f 114/114/99 113/113/97 77/77/71
f 115/115/100 118/118/103 116/116/101
f 118/118/103 626/626/543 119/119/104
f 119/119/104 626/626/543 120/120/105
f 122/122/107 627/627/544 123/123/100
f 124/124/108 628/628/545 125/125/109
f 125/125/109 628/628/545 127/127/111
f 128/128/112 127/127/111 129/129/113
f 131/131/115 126/126/110 132/132/116
f 117/117/102 116/116/101 134/134/118
f 116/116/101 119/119/104 136/136/120
f 136/136/120 119/119/104 121/121/106
f 126/126/110 140/140/124 138/138/122
f 126/126/110 125/125/109 139/139/123
f 139/139/123 125/125/109 128/128/112
f 141/141/125 128/128/112 130/130/114
f 143/143/127 629/629/546 144/144/128
f 146/146/130 630/630/124 147/147/131
f 149/149/133 589/589/520 150/150/134
f 152/152/136 149/149/133 151/151/135
f 153/153/137 631/631/547 154/154/131
f 155/155/138 161/161/143 156/156/139
f 158/158/141 632/632/548 159/159/142
f 161/161/143 592/592/522 162/162/144
f 145/145/129 406/406/372 163/163/145
f 163/163/145 406/406/372 164/164/146
f 166/166/148 170/170/152 167/167/149
f 172/172/154 171/171/153 170/170/152
f 174/174/156 173/173/155 170/170/152
f 175/175/157 174/174/156 169/169/151
f 176/176/158 175/175/157 166/166/148
f 176/176/158 168/168/150 167/167/149
f 177/177/159 167/167/149 171/171/153
f 178/178/148 182/182/163 179/179/160
f 184/184/165 183/183/164 182/182/163
f 186/186/167 185/185/166 182/182/163
f 187/187/168 186/186/167 181/181/162
f 188/188/169 187/187/168 178/178/148
f 188/188/169 180/180/161 179/179/160
f 189/189/170 179/179/160 183/183/164
f 190/190/171 194/194/175 191/191/172
f 196/196/177 195/195/176 194/194/175
f 198/198/179 197/197/178 194/194/175
f 199/199/180 198/198/179 193/193/174
f 200/200/181 199/199/180 190/190/171
f 200/200/181 192/192/173 191/191/172
f 201/201/182 191/191/172 195/195/176
f 202/202/183 350/350/321 203/203/184
f 205/205/186 405/405/371 206/206/187
f 208/208/189 481/481/443 209/209/190
f 211/211/192 498/498/460 212/212/193
f 214/214/195 513/513/474 215/215/196
f 217/217/198 517/517/478 218/218/199
f 1/1/1 3/3/3 220/220/201
f 222/222/203 489/489/451 223/223/204
f 224/224/205 223/223/204 225/225/206
f 159/159/142 632/632/548 227/227/208
f 229/229/209 611/611/533 230/230/210
f 232/232/211 591/591/521 233/233/212
f 235/235/214 239/239/216 236/236/108
f 238/238/215 241/241/218 239/239/216
f 240/240/217 633/633/549 241/241/218
f 242/242/219 338/338/310 243/243/220
f 245/245/222 634/634/550 246/246/223
f 247/247/224 635/635/458 248/248/225
f 250/250/225 493/493/455 251/251/227
f 253/253/229 260/260/236 254/254/230
f 256/256/232 253/253/229 257/257/233
f 261/261/228 636/636/551 257/257/233
f 262/262/237 280/280/253 263/263/238
f 265/265/240 262/262/237 264/264/239
f 267/267/242 332/332/304 268/268/241
f 270/270/244 267/267/242 269/269/243
f 272/272/246 270/270/244 271/271/245
f 274/274/246 637/637/552 275/275/248
f 277/277/250 276/276/249 275/275/248
f 279/279/252 281/281/254 263/263/238
f 281/281/254 279/279/252 282/282/255
f 283/283/256 282/282/255 284/284/257
f 286/286/258 305/305/277 287/287/259
f 288/288/260 287/287/259 289/289/261
f 290/290/262 289/289/261 291/291/263
f 293/293/265 449/449/415 294/294/266
f 296/296/268 293/293/265 295/295/267
f 278/278/251 296/296/268 297/297/269
f 298/298/270 277/277/250 297/297/269
f 299/299/271 297/297/269 295/295/267
f 295/295/267 294/294/266 301/301/273
f 291/291/263 289/289/261 302/302/274
f 289/289/261 287/287/259 304/304/276
f 304/304/276 287/287/259 305/305/277
f 307/307/279 284/284/257 282/282/255
f 282/282/255 279/279/252 309/309/281
f 279/279/252 280/280/253 310/310/282
f 304/304/276 330/330/302 311/311/283
f 303/303/275 302/302/274 311/311/283
f 301/301/273 638/638/553 313/313/285
f 300/300/272 313/313/285 314/314/286
f 299/299/271 314/314/286 315/315/287
f 316/316/288 639/639/554 317/317/289
f 319/319/291 318/318/290 317/317/289
f 321/321/293 319/319/291 320/320/292
f 323/323/295 331/331/303 324/324/296
f 323/323/295 325/325/297 326/326/298
f 309/309/281 310/310/282 326/326/298
f 308/308/280 309/309/281 327/327/299
f 308/308/280 328/328/300 329/329/301
f 306/306/278 640/640/555 330/330/302
f 310/310/282 280/280/253 262/262/237
f 262/262/237 265/265/240 331/331/303
f 332/332/304 267/267/242 319/319/291
f 319/319/291 267/267/242 270/270/244
f 318/318/290 270/270/244 272/272/246
f 274/274/246 276/276/249 333/333/305
f 276/276/249 277/277/250 298/298/270
f 333/333/305 298/298/270 315/315/287
f 333/333/305 335/335/307 336/336/308
f 338/338/310 242/242/219 339/339/311
f 340/340/312 339/339/311 341/341/313
f 228/228/209 227/227/208 343/343/314
f 345/345/316 635/635/458 247/247/224
f 347/347/318 345/345/316 346/346/317
f 351/351/322 641/641/556 352/352/323
f 353/353/324 352/352/323 354/354/325
f 354/354/325 642/642/557 356/356/327
f 357/357/328 643/643/558 358/358/329
f 359/359/330 358/358/329 360/360/331
f 361/361/332 360/360/331 362/362/333
f 364/364/335 604/604/528 365/365/336
f 367/367/338 395/395/362 368/368/339
f 370/370/341 374/374/175 371/371/342
f 376/376/177 375/375/345 374/374/175
f 378/378/179 377/377/346 374/374/175
f 379/379/347 378/378/179 373/373/344
f 380/380/348 379/379/347 370/370/341
f 380/380/348 372/372/343 371/371/342
f 381/381/349 371/371/342 375/375/345
f 382/382/350 471/471/435 383/383/351
f 386/386/354 479/479/441 387/387/355
f 389/389/357 393/393/360 390/390/337
f 392/392/359 394/394/361 393/393/360
f 341/341/313 599/599/316 394/394/361
f 397/397/364 122/122/107 117/117/102
f 399/399/366 644/644/559 142/142/126
f 399/399/366 400/400/367 401/401/368
f 403/403/318 645/645/230 402/402/369
f 406/406/372 646/646/560 407/407/373
f 407/407/373 646/646/560 408/408/374
f 409/409/375 408/408/374 410/410/376
f 412/412/378 444/444/410 413/413/379
f 414/414/380 413/413/379 415/415/381
f 416/416/382 415/415/381 417/417/383
f 419/419/385 647/647/383 420/420/386
f 421/421/387 420/420/386 422/422/388
f 423/423/389 422/422/388 424/424/390
f 425/425/391 424/424/390 426/426/392
f 428/428/394 427/427/393 426/426/392
f 430/430/396 428/428/394 429/429/395
f 432/432/398 430/430/396 431/431/397
f 434/434/400 432/432/398 433/433/399
f 436/436/402 434/434/400 435/435/401
f 438/438/404 436/436/402 437/437/403
f 440/440/406 438/438/404 439/439/405
f 442/442/408 440/440/406 441/441/407
f 442/442/408 443/443/409 444/444/410
f 278/278/251 464/464/428 446/446/412
f 296/296/268 446/446/412 447/447/413
f 293/293/265 447/447/413 448/448/414
f 292/292/264 648/648/561 450/450/416
f 290/290/262 450/450/416 451/451/417
f 288/288/260 451/451/417 452/452/418
f 285/285/258 649/649/562 453/453/419
f 281/281/254 283/283/256 453/453/419
f 263/263/238 281/281/254 454/454/420
f 264/264/239 263/263/238 455/455/421
f 266/266/241 264/264/239 456/456/422
f 269/269/243 268/268/241 458/458/423
f 271/271/245 269/269/243 459/459/424
f 273/273/247 271/271/245 460/460/425
f 275/275/248 637/637/552 462/462/426
f 275/275/248 463/463/427 464/464/428
f 465/465/429 469/469/433 466/466/430
f 468/468/432 466/466/430 469/469/433
f 470/470/434 613/613/315 471/471/435
f 471/471/435 613/613/315 472/472/325
f 473/473/436 472/472/325 474/474/323
f 476/476/438 475/475/437 474/474/323
f 478/478/440 386/386/354 476/476/438
f 479/479/441 614/614/535 465/465/429
f 482/482/444 650/650/563 483/483/445
f 485/485/447 484/484/446 483/483/445
f 487/487/449 485/485/447 486/486/448
f 489/489/451 222/222/203 490/490/452
f 243/243/220 490/490/452 234/234/213
f 495/495/457 494/494/456 493/493/455
f 466/466/430 468/468/432 499/499/461
f 467/467/431 466/466/430 500/500/462
f 467/467/431 501/501/463 502/502/464
f 475/475/437 476/476/438 503/503/465
f 475/475/437 504/504/466 505/505/467
f 473/473/436 505/505/467 506/506/468
f 507/507/469 651/651/335 508/508/470
f 510/510/433 507/507/469 509/509/471
f 510/510/433 511/511/472 345/345/316
f 519/519/480 550/550/494 520/520/423
f 519/519/480 521/521/481 522/522/482
f 524/524/483 523/523/480 522/522/482
f 526/526/483 524/524/483 525/525/484
f 528/528/486 526/526/483 527/527/485
f 528/528/486 529/529/487 530/530/488
f 531/531/486 530/530/488 532/532/489
f 534/534/490 533/533/490 532/532/489
f 536/536/492 534/534/490 535/535/491
f 536/536/492 537/537/493 538/538/412
f 540/540/494 539/539/494 538/538/412
f 542/542/494 540/540/494 541/541/495
f 542/542/494 543/543/496 544/544/497
f 545/545/498 544/544/497 546/546/499
f 547/547/498 546/546/499 548/548/500
f 550/550/494 549/549/480 548/548/500
f 551/551/494 571/571/494 552/552/501
f 554/554/480 551/551/494 553/553/502
f 554/554/480 555/555/503 556/556/504
f 557/557/480 556/556/504 558/558/505
f 560/560/480 563/563/506 561/561/383
f 559/559/480 558/558/505 563/563/506
f 564/564/494 562/562/494 561/561/383
f 566/566/480 564/564/494 565/565/507
f 568/568/494 575/575/494 569/569/509
f 571/571/494 568/568/494 570/570/510
f 572/572/494 582/582/515 573/573/511
f 575/575/494 574/574/494 573/573/511
f 576/576/480 566/566/480 567/567/508
f 578/578/494 576/576/480 577/577/512
f 578/578/494 579/579/513 580/580/514
f 581/581/494 580/580/514 582/582/515
f 583/583/113 627/627/544 122/122/107
f 132/132/116 121/121/106 584/584/516
f 121/121/106 132/132/116 138/138/122
f 146/146/130 148/148/132 487/487/449
f 585/585/517 151/151/135 150/150/134
f 586/586/518 153/153/137 151/151/135
f 587/587/449 631/631/547 153/153/137
f 588/588/519 150/150/134 589/589/520
f 591/591/521 232/232/211 588/588/519
f 235/235/214 237/237/117 593/593/523
f 238/238/215 235/235/214 594/594/524
f 240/240/217 238/238/215 595/595/525
f 242/242/219 244/244/221 246/246/223
f 339/339/311 242/242/219 597/597/457
f 341/341/313 339/339/311 598/598/458
f 357/357/328 359/359/330 600/600/526
f 359/359/330 361/361/332 602/602/463
f 361/361/332 363/363/334 603/603/464
f 604/604/528 641/641/556 351/351/322
f 382/382/350 384/384/352 605/605/461
f 386/386/354 388/388/356 606/606/529
f 389/389/357 391/391/358 607/607/322
f 392/392/359 389/389/357 608/608/530
f 341/341/313 392/392/359 609/609/531
f 130/130/114 122/122/107 397/397/364
f 230/230/210 610/610/532 135/135/119
f 610/610/532 230/230/210 611/611/533
f 613/613/315 612/612/534 611/611/533
f 470/470/434 382/382/350 468/468/432
f 479/479/441 386/386/354 478/478/440
f 244/244/221 234/234/213 233/233/212
f 615/615/204 340/340/312 342/342/314
f 617/617/537 338/338/310 340/340/312
f 161/161/143 155/155/138 150/150/134
f 592/592/522 161/161/143 588/588/519
f 490/490/452 592/592/522 232/232/211
f 618/618/538 612/612/534 613/613/315
f 612/612/534 618/618/538 619/619/539
f 135/135/119 610/610/532 619/619/539
f 400/400/367 142/142/126 397/397/364
f 400/400/367 619/619/539 618/618/538
f 401/401/368 618/618/538 470/470/434
