P3
5 7
255
10
20
30
10
20
30
10
20
30
10
20
30
10
20
30
10
20
30
10
20
30
10
20
30
10
20
30
10
20
30
20
0
255
20
0
255
20
0
255
20
0
255
20
0
255
10
20
30
10
20
30
10
20
30
10
20
30
10
20
30
10
20
30
10
20
30
10
20
30
10
20
30
10
20
30
10
20
30
10
20
30
10
20
30
10
20
30
10
20
30
10
20
30
10
20
30
10
20
30
10
20
30
10
20
30
